<svg xmlns="http://www.w3.org/2000/svg" xmlns:xlink="http://www.w3.org/1999/xlink" zoomAndPan="magnify" preserveAspectRatio="xMidYMid meet" version="1.0" viewBox="8.01 267.06 293.86 138.75"><defs><clipPath id="ce0cede8d2"><path d="M 127 267.058594 L 162 267.058594 L 162 300 L 127 300 Z M 127 267.058594 " clip-rule="nonzero"/></clipPath><clipPath id="a4df623490"><path d="M 42 357 L 269 357 L 269 405.808594 L 42 405.808594 Z M 42 357 " clip-rule="nonzero"/></clipPath></defs><path fill="#f2f2f2" d="M 74.609375 344.503906 C 73.359375 348.730469 72.597656 353.023438 71.625 357.25 C 71 357.25 70.445312 357.25 69.820312 357.320312 C 67.53125 357.667969 65.242188 358.152344 62.953125 358.359375 C 57.957031 358.84375 53.101562 360.023438 48.316406 361.613281 C 46.648438 362.167969 45.125 363 43.667969 364.039062 C 42 365.285156 41.722656 367.503906 43.113281 368.335938 C 45.679688 369.925781 48.453125 370.964844 51.644531 370.828125 C 54.835938 370.757812 58.097656 370.828125 61.289062 370.757812 C 62.398438 370.757812 63.578125 371.175781 64.6875 371.035156 C 66.285156 370.757812 67.878906 370.898438 69.476562 370.828125 C 69.960938 371.3125 70.585938 371.105469 71.210938 371.175781 C 73.984375 371.382812 76.828125 371.453125 79.605469 371.796875 C 83.90625 372.28125 88.277344 372.558594 92.644531 372.835938 C 96.808594 373.042969 100.972656 373.042969 105.132812 373.390625 C 110.199219 373.808594 115.332031 373.945312 120.398438 374.429688 C 123.65625 374.707031 126.988281 374.636719 130.25 374.777344 C 136.5625 374.984375 142.875 375.398438 149.117188 375.609375 C 158 375.886719 166.878906 375.816406 175.6875 375.746094 C 182.695312 375.746094 189.632812 375.332031 196.570312 374.914062 C 198.097656 374.847656 199.695312 374.914062 201.21875 374.777344 C 205.867188 374.5 210.585938 373.945312 215.234375 373.667969 C 219.8125 373.390625 224.460938 372.90625 229.039062 372.558594 C 232.300781 372.28125 235.5625 372.003906 238.820312 371.589844 C 240.277344 371.382812 241.804688 371.660156 243.191406 370.964844 C 243.46875 370.964844 243.746094 370.964844 244.023438 370.964844 C 248.257812 370.691406 252.488281 370.066406 256.789062 370.136719 C 256.929688 370.136719 257.066406 370.066406 257.207031 370.066406 C 259.910156 369.789062 262.546875 369.027344 265.324219 369.652344 C 266.433594 369.925781 267.195312 369.164062 267.820312 368.265625 C 268.445312 367.363281 268.027344 366.601562 267.472656 365.910156 C 266.917969 365.285156 266.292969 364.59375 265.460938 364.316406 C 264.28125 363.832031 263.101562 363.277344 261.925781 362.929688 C 258.457031 361.824219 254.917969 360.921875 251.238281 360.4375 C 247.910156 360.023438 244.71875 359.257812 241.320312 359.257812 C 240.832031 358.496094 240.832031 357.597656 240.625 356.765625 C 239.722656 353.234375 238.890625 349.632812 238.058594 346.097656 C 244.855469 346.859375 251.585938 347.828125 258.386719 348.800781 C 265.808594 349.90625 273.230469 351.015625 280.515625 352.886719 C 285.371094 354.132812 290.230469 355.589844 294.667969 357.945312 C 296.265625 358.773438 297.859375 359.746094 299.179688 360.992188 C 303.0625 364.59375 302.71875 368.542969 298.347656 371.519531 C 295.988281 373.113281 293.351562 374.082031 290.644531 374.914062 C 284.261719 376.992188 277.601562 378.03125 271.011719 379.003906 C 268.515625 379.347656 266.015625 379.765625 263.449219 380.179688 C 263.035156 380.179688 262.617188 380.179688 262.269531 380.179688 C 258.800781 380.386719 255.609375 381.910156 252.074219 381.980469 C 250.894531 381.980469 249.644531 382.050781 248.464844 382.328125 C 246.3125 382.8125 244.09375 382.742188 241.875 382.949219 C 240.070312 383.089844 238.265625 383.226562 236.53125 383.574219 C 231.328125 384.542969 226.054688 384.683594 220.851562 385.445312 C 217.382812 385.929688 213.777344 386 210.238281 386.207031 C 204.480469 386.484375 198.722656 386.761719 193.035156 387.039062 C 185.195312 387.382812 177.355469 386.691406 169.515625 387.523438 C 168.195312 387.660156 167.015625 387.105469 165.699219 387.175781 C 158.621094 387.316406 151.617188 386.484375 144.609375 386.761719 C 141.554688 386.828125 138.433594 386.761719 135.3125 386.761719 C 134.757812 386.761719 134.203125 386.761719 133.71875 386.691406 C 130.039062 386.066406 126.222656 386.484375 122.546875 386 C 121.4375 385.859375 120.328125 386.414062 119.148438 386.414062 C 115.539062 386.207031 111.933594 386.550781 108.324219 386.066406 C 105.066406 385.652344 101.804688 385.789062 98.472656 385.652344 C 90.773438 385.375 83.074219 385.652344 75.371094 384.820312 C 72.457031 384.542969 69.542969 384.058594 66.5625 384.335938 C 66.214844 384.335938 65.867188 384.265625 65.589844 384.199219 C 62.191406 383.296875 58.722656 383.296875 55.320312 382.671875 C 53.308594 382.328125 51.230469 382.394531 49.148438 381.980469 C 48.316406 381.773438 47.414062 381.011719 46.511719 381.84375 C 43.042969 380.804688 39.433594 380.316406 35.898438 379.488281 C 29.027344 377.824219 22.230469 376.09375 15.984375 372.699219 C 13.972656 371.589844 12.101562 370.34375 10.503906 368.679688 C 9.878906 368.058594 9.394531 367.363281 8.910156 366.601562 C 7.453125 364.039062 7.800781 361.335938 9.742188 359.191406 C 11.613281 357.113281 13.972656 355.933594 16.472656 354.964844 C 21.121094 353.164062 25.90625 351.984375 30.761719 350.945312 C 38.742188 349.214844 46.789062 347.828125 54.90625 346.859375 C 61.566406 345.890625 68.085938 345.128906 74.609375 344.503906 Z M 74.609375 344.503906 " fill-opacity="1" fill-rule="nonzero"/><g clip-path="url(#ce0cede8d2)"><path fill="#326a44" d="M 159.039062 288.464844 C 157.722656 290.820312 157.652344 293.035156 159.316406 295.324219 C 160.011719 296.292969 160.425781 297.46875 160.914062 298.578125 C 161.121094 298.992188 161.121094 299.410156 160.636719 299.617188 C 160.148438 299.824219 159.941406 299.480469 159.734375 299.132812 C 158.902344 297.402344 158.066406 295.601562 157.167969 293.9375 C 156.195312 292.066406 155.152344 290.128906 153.765625 288.535156 C 153.628906 288.257812 153.488281 287.910156 153.28125 287.703125 C 152.449219 286.664062 151.824219 285.277344 150.785156 284.585938 C 149.671875 283.824219 148.214844 284.722656 146.898438 284.722656 C 142.527344 284.933594 138.851562 283.476562 135.9375 280.289062 C 134.757812 278.972656 133.648438 277.660156 132.46875 276.410156 C 131.21875 275.09375 129.902344 273.847656 128.097656 273.226562 C 127.613281 273.015625 127.265625 272.738281 127.402344 272.1875 C 127.472656 271.699219 127.820312 271.355469 128.375 271.285156 C 129.554688 271.078125 130.804688 271.078125 131.984375 271.285156 C 135.3125 271.976562 138.710938 272.53125 141.972656 273.433594 C 146.96875 274.886719 150.644531 277.796875 152.03125 283.128906 C 152.03125 283.269531 152.101562 283.40625 152.171875 283.476562 C 152.308594 283.824219 152.378906 284.308594 152.933594 284.238281 C 153.488281 284.101562 153.351562 283.617188 153.28125 283.269531 C 152.933594 280.636719 153.003906 278.074219 153.140625 275.441406 C 153.28125 272.949219 153.90625 270.523438 154.53125 268.167969 C 154.597656 267.890625 154.738281 267.683594 154.808594 267.40625 C 154.945312 267.128906 155.152344 267.058594 155.5 267.058594 C 155.847656 267.058594 155.988281 267.269531 156.054688 267.542969 C 156.125 268.167969 156.265625 268.722656 156.265625 269.347656 C 156.265625 271.214844 156.679688 272.949219 157.511719 274.609375 C 159.59375 278.972656 160.078125 283.617188 159.039062 288.464844 Z M 153.003906 284.378906 C 152.726562 284.445312 152.796875 284.65625 152.863281 284.792969 C 152.933594 284.933594 153.003906 285 153.074219 285.070312 C 153.210938 284.933594 153.417969 284.863281 153.351562 284.65625 C 153.28125 284.515625 153.210938 284.378906 153.003906 284.378906 Z M 153.003906 284.378906 " fill-opacity="1" fill-rule="nonzero"/></g><path fill="#dc9f46" d="M 237.988281 346.097656 C 238.820312 349.632812 239.652344 353.234375 240.554688 356.765625 C 240.765625 357.597656 240.695312 358.496094 241.25 359.257812 C 241.875 363.140625 242.566406 367.019531 243.191406 370.964844 C 241.804688 371.660156 240.277344 371.382812 238.820312 371.589844 C 235.5625 372.074219 232.300781 372.28125 229.039062 372.558594 C 224.460938 372.976562 219.8125 373.460938 215.234375 373.667969 C 210.515625 373.945312 205.867188 374.5 201.21875 374.777344 C 199.695312 374.847656 198.097656 374.777344 196.570312 374.914062 C 189.632812 375.332031 182.628906 375.746094 175.6875 375.746094 C 166.808594 375.746094 157.929688 375.886719 149.117188 375.609375 C 142.804688 375.398438 136.5625 374.984375 130.25 374.777344 C 126.988281 374.636719 123.65625 374.707031 120.398438 374.429688 C 115.332031 374.015625 110.199219 373.875 105.132812 373.390625 C 100.972656 373.042969 96.808594 373.042969 92.644531 372.835938 C 88.277344 372.628906 83.972656 372.28125 79.605469 371.796875 C 76.828125 371.519531 73.984375 371.382812 71.210938 371.175781 C 70.652344 371.105469 69.960938 371.3125 69.476562 370.828125 C 69.753906 369.097656 70.097656 367.296875 70.375 365.5625 C 72.527344 365.703125 74.679688 365.355469 76.757812 365.910156 C 77.453125 366.117188 77.730469 365.632812 77.382812 364.871094 C 76.691406 363.484375 77.523438 362.445312 78.285156 361.613281 C 79.117188 360.714844 80.4375 361.0625 81.546875 361.40625 C 82.585938 361.753906 82.796875 362.652344 82.796875 363.691406 C 82.796875 364.109375 82.796875 364.523438 82.796875 364.871094 C 82.726562 365.632812 83.140625 365.910156 83.835938 365.980469 C 86.265625 366.324219 88.691406 366.671875 91.121094 367.085938 C 91.328125 367.085938 91.535156 367.15625 91.746094 367.15625 C 94.519531 366.949219 97.226562 367.640625 99.929688 367.574219 C 106.382812 367.503906 112.835938 367.847656 119.21875 368.125 C 125.878906 368.402344 132.539062 368.125 139.128906 368.472656 C 144.261719 368.75 149.464844 368.679688 154.597656 368.820312 C 158.761719 368.957031 162.855469 368.542969 166.878906 367.433594 C 167.917969 367.15625 168.960938 366.949219 169.863281 366.046875 C 171.109375 364.941406 172.84375 364.523438 174.511719 364.386719 C 176.800781 364.246094 179.089844 364.316406 181.378906 364.316406 C 181.726562 364.316406 182.140625 364.246094 182.347656 364.457031 C 183.667969 365.496094 184.984375 365.148438 186.375 364.730469 C 190.1875 363.417969 194.144531 362.792969 197.75 360.921875 C 200.386719 359.535156 202.675781 357.734375 204.480469 355.3125 C 206.492188 352.679688 208.15625 349.839844 209.199219 346.722656 C 209.753906 344.988281 210.03125 343.257812 210.101562 341.386719 C 210.238281 334.183594 209.40625 327.117188 207.253906 320.261719 C 206.285156 317.144531 204.621094 314.371094 202.953125 311.671875 C 200.734375 308 198.027344 304.742188 195.046875 301.558594 C 192.132812 298.441406 188.730469 296.222656 184.984375 294.285156 C 183.183594 293.382812 181.378906 292.484375 179.574219 291.582031 C 179.089844 291.304688 178.394531 291.234375 178.1875 290.542969 C 184.570312 291.789062 190.882812 293.175781 196.847656 296.085938 C 204.757812 299.964844 211.695312 305.226562 217.660156 311.671875 C 222.863281 317.210938 227.375 323.238281 230.980469 330.027344 C 233.550781 334.808594 235.699219 339.792969 237.433594 344.988281 C 237.640625 345.335938 237.710938 345.75 237.988281 346.097656 Z M 225.5 363 C 225.433594 362.863281 225.363281 362.652344 225.222656 362.445312 C 224.667969 361.613281 223.628906 361.476562 222.796875 362.238281 C 221.617188 363.207031 221.199219 364.664062 221.824219 365.355469 C 222.171875 365.769531 222.65625 365.769531 223.144531 365.703125 C 224.113281 365.5625 225.433594 364.109375 225.5 363 Z M 221.476562 369.234375 C 221.546875 368.402344 221.199219 367.78125 220.4375 367.433594 C 219.675781 367.085938 219.1875 367.640625 218.773438 368.265625 C 218.496094 368.679688 218.148438 369.164062 217.941406 369.652344 C 217.660156 370.273438 217.871094 370.828125 218.425781 371.242188 C 218.980469 371.589844 219.464844 371.796875 220.089844 371.382812 C 221.0625 370.898438 221.339844 370.136719 221.476562 369.234375 Z M 218.21875 366.046875 C 218.773438 365.769531 219.675781 365.425781 220.019531 364.664062 C 220.367188 364.039062 220.785156 363.207031 220.367188 362.445312 C 220.089844 361.890625 219.535156 361.476562 218.910156 362.03125 C 218.148438 362.722656 217.382812 363.277344 216.96875 364.246094 C 216.621094 365.078125 217.105469 365.980469 218.21875 366.046875 Z M 220.507812 333.492188 C 221.410156 333.28125 221.894531 332.519531 222.519531 331.898438 C 223.210938 331.136719 222.933594 330.304688 221.964844 329.957031 C 220.992188 329.679688 219.050781 331.203125 219.1875 332.175781 C 219.257812 332.9375 219.742188 333.351562 220.507812 333.492188 Z M 227.929688 332.660156 C 227.929688 331.96875 227.304688 331.273438 226.75 331.203125 C 225.847656 331.136719 224.390625 332.660156 224.390625 333.628906 C 224.390625 334.53125 225.085938 334.738281 225.777344 334.667969 C 226.820312 334.667969 227.929688 333.558594 227.929688 332.660156 Z M 106.523438 356.835938 C 107.632812 356.90625 108.671875 356.558594 109.710938 356.417969 C 110.476562 356.28125 111.101562 355.867188 111.308594 355.101562 C 111.515625 354.273438 110.753906 353.925781 110.269531 353.511719 C 109.78125 353.09375 109.089844 352.886719 108.464844 352.679688 C 107.769531 352.472656 107.355469 352.195312 107.910156 351.222656 C 108.8125 349.5625 108.324219 348.453125 106.589844 347.761719 C 105.757812 347.414062 104.925781 347.207031 104.09375 347.136719 C 103.121094 347.066406 101.804688 347.136719 101.25 346.445312 C 100.140625 345.128906 98.75 344.78125 97.292969 344.296875 C 95.558594 343.742188 94.035156 344.296875 92.644531 345.335938 C 91.953125 345.890625 91.535156 346.582031 91.953125 347.414062 C 92.300781 348.175781 92.023438 348.660156 91.535156 349.214844 C 89.734375 351.363281 90.425781 353.578125 93.132812 354.480469 C 93.757812 354.6875 94.449219 354.757812 95.074219 355.035156 C 98.058594 356.558594 101.179688 356.90625 104.441406 356.835938 C 104.996094 356.835938 105.757812 356.765625 106.523438 356.835938 Z M 140.933594 325.039062 C 139.683594 324.070312 138.363281 324.902344 137.117188 325.246094 C 136.214844 325.523438 135.3125 325.871094 135.175781 326.980469 C 135.175781 327.046875 135.175781 327.117188 135.175781 327.1875 C 135.589844 328.226562 134.828125 328.433594 134.132812 328.710938 C 133.09375 329.125 131.984375 329.472656 131.082031 330.164062 C 129.902344 331.066406 130.109375 332.175781 131.425781 332.796875 C 131.84375 333.007812 132.328125 333.144531 132.816406 333.007812 C 135.382812 332.519531 138.019531 332.589844 140.445312 331.621094 C 141.210938 331.34375 141.972656 331.066406 142.667969 330.71875 C 143.984375 329.957031 143.984375 328.917969 142.667969 328.15625 C 142.457031 328.085938 142.320312 327.949219 142.113281 327.878906 C 141.488281 327.742188 141.140625 327.464844 141.488281 326.773438 C 141.765625 326.148438 141.488281 325.457031 140.933594 325.039062 Z M 133.71875 307.375 C 134.410156 306.335938 133.925781 305.019531 132.882812 305.089844 C 131.359375 305.226562 129.832031 305.644531 128.722656 306.820312 C 128.234375 307.375 128.234375 308.070312 128.515625 308.691406 C 128.792969 309.246094 129.347656 309.316406 129.902344 309.316406 C 131.148438 309.382812 133.09375 308.34375 133.71875 307.375 Z M 138.433594 352.957031 C 138.988281 352.402344 139.058594 351.570312 138.644531 350.945312 C 138.226562 350.253906 137.53125 350.324219 136.839844 350.671875 C 136.007812 351.085938 135.175781 351.5 134.339844 351.984375 C 133.71875 352.402344 133.4375 353.023438 133.71875 353.71875 C 133.996094 354.410156 134.550781 354.480469 135.242188 354.480469 C 136.492188 354.339844 137.53125 353.855469 138.433594 352.957031 Z M 185.820312 348.039062 C 185.472656 349.007812 186.164062 350.046875 187.136719 349.976562 C 188.664062 349.90625 190.398438 348.316406 190.605469 346.859375 C 190.742188 346.027344 190.398438 345.613281 189.566406 345.613281 C 188.453125 345.613281 186.164062 347.136719 185.820312 348.039062 Z M 180.683594 318.390625 C 181.238281 317.90625 181.238281 317.210938 181.03125 316.519531 C 180.960938 316.105469 180.613281 315.757812 180.199219 315.828125 C 178.742188 316.105469 177.355469 316.519531 176.382812 317.695312 C 176.035156 318.113281 175.757812 318.597656 176.105469 319.152344 C 176.382812 319.707031 176.9375 319.773438 177.492188 319.773438 C 178.742188 319.773438 179.78125 319.222656 180.683594 318.390625 Z M 142.320312 355.867188 C 143.011719 355.378906 143.011719 354.617188 142.734375 353.925781 C 142.457031 353.234375 141.832031 353.164062 141.210938 353.371094 C 140.308594 353.648438 139.40625 353.925781 138.851562 354.6875 C 138.574219 355.101562 137.949219 355.378906 138.296875 356.003906 C 138.574219 356.558594 139.058594 356.90625 139.890625 356.835938 C 140.65625 356.558594 141.554688 356.417969 142.320312 355.867188 Z M 97.085938 320.675781 C 96.253906 320.675781 94.726562 321.851562 94.519531 322.683594 C 94.242188 323.792969 95.074219 324.695312 96.183594 324.484375 C 97.226562 324.277344 98.40625 322.960938 98.472656 321.921875 C 98.542969 321.300781 97.847656 320.675781 97.085938 320.675781 Z M 164.9375 353.234375 C 164.589844 353.71875 164.519531 354.410156 164.867188 354.894531 C 165.214844 355.449219 165.769531 355.65625 166.394531 355.378906 C 167.015625 355.101562 167.640625 354.964844 168.195312 354.617188 C 168.683594 354.339844 169.238281 353.855469 168.960938 353.164062 C 168.683594 352.402344 168.128906 351.984375 166.878906 352.054688 C 166.324219 352.125 165.492188 352.472656 164.9375 353.234375 Z M 135.453125 308.277344 C 134.617188 308.554688 133.855469 308.898438 133.230469 309.523438 C 132.882812 309.871094 132.328125 310.214844 132.675781 310.839844 C 133.023438 311.460938 133.578125 311.878906 134.339844 311.671875 C 135.242188 311.460938 136.074219 311.046875 136.769531 310.421875 C 137.046875 310.148438 137.253906 309.800781 137.253906 309.382812 C 137.1875 308.621094 136.351562 308 135.453125 308.277344 Z M 133.023438 356.074219 C 132.050781 356.28125 131.082031 356.695312 130.316406 357.320312 C 129.902344 357.667969 129.554688 358.152344 129.761719 358.707031 C 130.039062 359.398438 130.664062 359.746094 131.359375 359.605469 C 132.605469 359.328125 133.441406 358.496094 134.132812 357.527344 C 134.273438 357.390625 134.203125 357.179688 134.273438 356.972656 C 134.203125 356.210938 133.648438 355.933594 133.023438 356.074219 Z M 195.945312 349.144531 C 197.125 348.730469 197.265625 347.691406 196.363281 346.859375 C 195.53125 346.097656 194.003906 346.304688 193.171875 347.277344 C 192.824219 347.691406 192.476562 348.246094 192.757812 348.867188 C 193.035156 349.5625 193.589844 349.632812 194.210938 349.5625 C 194.835938 349.632812 195.390625 349.355469 195.945312 349.144531 Z M 179.226562 312.777344 C 178.742188 313.195312 178.671875 313.679688 178.878906 314.234375 C 179.019531 314.71875 179.503906 314.925781 179.992188 314.925781 C 181.03125 314.996094 181.792969 314.441406 182.628906 314.027344 C 183.113281 313.75 183.667969 313.402344 183.460938 312.777344 C 183.25 312.085938 182.628906 311.738281 181.863281 311.808594 C 181.308594 311.808594 179.574219 312.5 179.226562 312.777344 Z M 127.265625 311.738281 C 126.015625 311.808594 124.699219 312.847656 124.835938 313.609375 C 124.976562 314.441406 125.53125 314.925781 126.363281 314.855469 C 127.890625 314.71875 128.859375 314.234375 128.792969 313.054688 C 128.792969 312.15625 128.304688 311.738281 127.265625 311.738281 Z M 96.949219 327.8125 C 96.878906 327.046875 96.324219 326.632812 95.351562 326.703125 C 94.101562 326.773438 92.925781 327.742188 92.925781 328.710938 C 92.925781 329.542969 93.410156 329.957031 94.378906 329.890625 C 95.699219 329.820312 96.949219 328.78125 96.949219 327.8125 Z M 96.949219 327.8125 " fill-opacity="1" fill-rule="nonzero"/><g clip-path="url(#a4df623490)"><path fill="#b2b2b2" d="M 46.582031 381.703125 C 47.484375 380.871094 48.382812 381.632812 49.21875 381.84375 C 51.230469 382.257812 53.308594 382.1875 55.390625 382.535156 C 58.789062 383.160156 62.328125 383.160156 65.660156 384.058594 C 66.007812 384.128906 66.351562 384.199219 66.628906 384.199219 C 69.613281 383.988281 72.527344 384.40625 75.441406 384.683594 C 83.140625 385.511719 90.84375 385.238281 98.542969 385.511719 C 101.804688 385.652344 105.132812 385.511719 108.394531 385.929688 C 112.003906 386.34375 115.609375 386.066406 119.21875 386.277344 C 120.398438 386.34375 121.4375 385.722656 122.617188 385.859375 C 126.363281 386.414062 130.109375 385.929688 133.785156 386.550781 C 134.339844 386.621094 134.828125 386.621094 135.382812 386.621094 C 138.503906 386.621094 141.554688 386.691406 144.679688 386.621094 C 151.753906 386.414062 158.761719 387.246094 165.769531 387.039062 C 167.015625 387.039062 168.265625 387.523438 169.585938 387.382812 C 177.425781 386.621094 185.261719 387.316406 193.101562 386.898438 C 198.859375 386.621094 204.621094 386.34375 210.308594 386.066406 C 213.847656 385.859375 217.382812 385.789062 220.921875 385.304688 C 226.125 384.542969 231.398438 384.472656 236.601562 383.433594 C 238.335938 383.089844 240.210938 383.019531 241.945312 382.8125 C 244.09375 382.605469 246.3125 382.671875 248.535156 382.1875 C 249.714844 381.910156 250.960938 381.910156 252.140625 381.84375 C 255.679688 381.773438 258.871094 380.316406 262.339844 380.042969 C 262.757812 380.042969 263.171875 380.042969 263.519531 380.042969 C 263.242188 380.664062 262.964844 381.21875 262.480469 381.703125 C 258.734375 385.167969 255.472656 389.117188 251.933594 392.785156 C 249.644531 395.140625 247.355469 397.496094 245.066406 399.921875 C 243.46875 401.585938 241.527344 402.484375 239.167969 402.484375 C 233.6875 402.554688 228.347656 403.246094 222.933594 403.664062 C 219.117188 404.007812 215.304688 404.007812 211.488281 404.148438 C 204.132812 404.425781 196.710938 404.703125 189.355469 404.910156 C 185.820312 405.046875 182.210938 405.046875 178.671875 404.980469 C 172.082031 404.910156 165.492188 405.117188 158.96875 405.601562 C 156.472656 405.808594 153.976562 405.742188 151.546875 405.601562 C 147.660156 405.324219 143.777344 405.394531 139.890625 405.394531 C 129.96875 405.324219 119.980469 405.464844 110.058594 405.1875 C 100.417969 404.910156 90.703125 405.046875 81.0625 404.839844 C 77.3125 404.769531 73.707031 404.078125 70.097656 403.316406 C 69.265625 403.109375 68.640625 402.691406 68.019531 402.136719 C 63.230469 397.496094 58.234375 393.132812 53.796875 388.144531 C 51.4375 385.929688 49.078125 383.710938 46.582031 381.703125 Z M 71.625 357.25 C 71 357.25 70.445312 357.25 69.820312 357.320312 C 67.53125 357.667969 65.242188 358.152344 62.953125 358.359375 C 57.957031 358.84375 53.101562 360.023438 48.316406 361.613281 C 46.648438 362.167969 45.125 363 43.667969 364.039062 C 42 365.285156 41.722656 367.503906 43.113281 368.335938 C 45.679688 369.925781 48.453125 370.964844 51.644531 370.828125 C 54.835938 370.757812 58.097656 370.828125 61.289062 370.757812 C 62.398438 370.757812 63.578125 371.175781 64.6875 371.035156 C 66.285156 370.757812 67.878906 370.898438 69.476562 370.828125 C 69.753906 369.097656 70.097656 367.296875 70.375 365.5625 C 70.652344 362.863281 71.554688 360.089844 71.625 357.25 Z M 244.023438 370.898438 C 248.257812 370.621094 252.488281 369.996094 256.789062 370.066406 C 256.929688 370.066406 257.066406 369.996094 257.207031 369.996094 C 259.910156 369.71875 262.546875 368.957031 265.324219 369.582031 C 266.433594 369.859375 267.195312 369.097656 267.820312 368.195312 C 268.445312 367.296875 268.027344 366.535156 267.472656 365.839844 C 266.917969 365.21875 266.292969 364.523438 265.460938 364.246094 C 264.28125 363.761719 263.101562 363.207031 261.925781 362.863281 C 258.457031 361.753906 254.917969 360.851562 251.238281 360.367188 C 247.910156 359.953125 244.71875 359.191406 241.320312 359.191406 C 241.945312 363.070312 242.636719 366.949219 243.261719 370.898438 C 243.46875 370.898438 243.746094 370.964844 244.023438 370.898438 Z M 244.023438 370.898438 " fill-opacity="1" fill-rule="nonzero"/></g><path fill="#f2d669" d="M 159.039062 288.464844 C 164.726562 288.742188 170.417969 288.8125 176.035156 290.058594 C 176.800781 290.195312 177.5625 290.402344 178.324219 290.679688 C 178.535156 291.375 179.160156 291.511719 179.714844 291.71875 C 181.515625 292.621094 183.320312 293.523438 185.125 294.421875 C 188.800781 296.363281 192.269531 298.578125 195.183594 301.695312 C 198.097656 304.8125 200.871094 308.136719 203.09375 311.808594 C 204.757812 314.578125 206.421875 317.351562 207.394531 320.398438 C 209.546875 327.257812 210.378906 334.320312 210.238281 341.527344 C 210.167969 343.328125 209.960938 345.128906 209.335938 346.859375 C 208.296875 349.976562 206.632812 352.816406 204.621094 355.449219 C 202.816406 357.875 200.59375 359.605469 197.890625 361.0625 C 194.28125 363 190.257812 363.625 186.511719 364.871094 C 185.195312 365.355469 183.804688 365.632812 182.488281 364.59375 C 182.28125 364.386719 181.863281 364.457031 181.515625 364.457031 C 179.226562 364.457031 176.9375 364.386719 174.648438 364.523438 C 172.984375 364.664062 171.179688 365.078125 170 366.1875 C 169.097656 367.019531 168.128906 367.226562 167.015625 367.574219 C 162.992188 368.679688 158.902344 369.027344 154.738281 368.957031 C 149.605469 368.820312 144.402344 368.886719 139.265625 368.613281 C 132.605469 368.265625 126.015625 368.542969 119.355469 368.265625 C 112.902344 367.988281 106.523438 367.640625 100.070312 367.710938 C 97.292969 367.710938 94.589844 367.085938 91.882812 367.296875 C 91.675781 367.296875 91.46875 367.226562 91.257812 367.226562 C 88.832031 366.878906 86.402344 366.464844 83.972656 366.117188 C 83.210938 366.046875 82.863281 365.769531 82.933594 365.007812 C 82.933594 364.59375 82.933594 364.179688 82.933594 363.832031 C 82.933594 362.792969 82.726562 361.890625 81.683594 361.546875 C 80.574219 361.199219 79.324219 360.851562 78.425781 361.753906 C 77.660156 362.585938 76.828125 363.625 77.523438 365.007812 C 77.9375 365.839844 77.660156 366.257812 76.898438 366.046875 C 74.746094 365.496094 72.597656 365.910156 70.515625 365.703125 C 70.792969 362.863281 71.625 360.160156 71.695312 357.320312 C 72.667969 353.09375 73.429688 348.730469 74.679688 344.574219 C 77.175781 337.992188 80.089844 331.621094 83.488281 325.457031 C 85.152344 322.476562 87.304688 319.773438 89.59375 317.210938 C 93.203125 313.125 97.15625 309.523438 101.527344 306.199219 C 110.199219 299.617188 120.257812 296.292969 130.386719 292.96875 C 135.3125 291.304688 140.445312 290.265625 145.648438 289.433594 C 148.355469 289.019531 151.128906 288.8125 153.835938 288.535156 C 155.292969 290.128906 156.265625 292.066406 157.234375 293.9375 C 158.136719 295.667969 158.96875 297.402344 159.800781 299.132812 C 160.011719 299.546875 160.21875 299.894531 160.703125 299.617188 C 161.191406 299.410156 161.121094 298.992188 160.980469 298.578125 C 160.496094 297.46875 160.078125 296.292969 159.386719 295.324219 C 157.652344 293.035156 157.722656 290.820312 159.039062 288.464844 Z M 104.300781 356.835938 C 105.066406 356.835938 105.757812 356.765625 106.523438 356.835938 C 107.632812 356.90625 108.671875 356.558594 109.710938 356.417969 C 110.476562 356.28125 111.101562 355.867188 111.308594 355.101562 C 111.515625 354.273438 110.753906 353.925781 110.269531 353.511719 C 109.78125 353.09375 109.089844 352.886719 108.464844 352.679688 C 107.769531 352.472656 107.355469 352.195312 107.910156 351.222656 C 108.8125 349.5625 108.324219 348.453125 106.589844 347.761719 C 105.757812 347.414062 104.925781 347.207031 104.09375 347.136719 C 103.121094 347.066406 101.804688 347.136719 101.25 346.445312 C 100.140625 345.128906 98.75 344.78125 97.292969 344.296875 C 95.558594 343.742188 94.035156 344.296875 92.644531 345.335938 C 91.953125 345.890625 91.535156 346.582031 91.953125 347.414062 C 92.300781 348.175781 92.023438 348.660156 91.535156 349.214844 C 89.734375 351.363281 90.425781 353.578125 93.132812 354.480469 C 93.757812 354.6875 94.449219 354.757812 95.074219 355.035156 C 97.847656 356.558594 101.039062 356.90625 104.300781 356.835938 Z M 141.554688 326.839844 C 141.765625 326.078125 141.488281 325.386719 140.933594 325.039062 C 139.683594 324.070312 138.363281 324.902344 137.117188 325.246094 C 136.214844 325.523438 135.3125 325.871094 135.175781 326.980469 C 135.175781 327.046875 135.175781 327.117188 135.175781 327.1875 C 135.589844 328.226562 134.828125 328.433594 134.132812 328.710938 C 133.09375 329.125 131.984375 329.472656 131.082031 330.164062 C 129.902344 331.066406 130.109375 332.175781 131.425781 332.796875 C 131.84375 333.007812 132.328125 333.144531 132.816406 333.007812 C 135.382812 332.519531 138.019531 332.589844 140.445312 331.621094 C 141.210938 331.34375 141.972656 331.066406 142.667969 330.71875 C 143.984375 329.957031 143.984375 328.917969 142.667969 328.15625 C 142.457031 328.085938 142.320312 327.949219 142.113281 327.878906 C 141.554688 327.8125 141.210938 327.535156 141.554688 326.839844 Z M 129.902344 309.316406 C 131.082031 309.316406 133.023438 308.34375 133.71875 307.304688 C 134.410156 306.265625 133.925781 304.953125 132.882812 305.019531 C 131.359375 305.160156 129.832031 305.574219 128.722656 306.753906 C 128.234375 307.304688 128.234375 308 128.515625 308.621094 C 128.792969 309.316406 129.347656 309.316406 129.902344 309.316406 Z M 135.242188 354.410156 C 136.492188 354.339844 137.601562 353.789062 138.433594 352.957031 C 138.988281 352.402344 139.058594 351.570312 138.644531 350.945312 C 138.226562 350.253906 137.53125 350.324219 136.839844 350.671875 C 136.007812 351.085938 135.175781 351.5 134.339844 351.984375 C 133.71875 352.402344 133.4375 353.023438 133.71875 353.71875 C 133.996094 354.339844 134.617188 354.410156 135.242188 354.410156 Z M 189.566406 345.613281 C 188.453125 345.683594 186.164062 347.136719 185.820312 348.039062 C 185.472656 349.007812 186.164062 350.046875 187.136719 349.976562 C 188.664062 349.90625 190.398438 348.316406 190.605469 346.859375 C 190.742188 345.960938 190.398438 345.542969 189.566406 345.613281 Z M 177.492188 319.84375 C 178.742188 319.773438 179.78125 319.222656 180.683594 318.460938 C 181.238281 317.972656 181.238281 317.28125 181.03125 316.589844 C 180.960938 316.171875 180.613281 315.828125 180.199219 315.894531 C 178.742188 316.171875 177.355469 316.589844 176.382812 317.765625 C 176.035156 318.183594 175.757812 318.667969 176.105469 319.222656 C 176.453125 319.773438 176.9375 319.84375 177.492188 319.84375 Z M 139.890625 356.835938 C 140.65625 356.628906 141.625 356.417969 142.390625 355.867188 C 143.082031 355.378906 143.082031 354.617188 142.804688 353.925781 C 142.527344 353.234375 141.902344 353.164062 141.277344 353.371094 C 140.378906 353.648438 139.476562 353.925781 138.921875 354.6875 C 138.644531 355.101562 138.019531 355.378906 138.363281 356.003906 C 138.574219 356.558594 139.058594 356.90625 139.890625 356.835938 Z M 98.472656 321.992188 C 98.542969 321.300781 97.847656 320.605469 97.085938 320.675781 C 96.253906 320.675781 94.726562 321.851562 94.519531 322.683594 C 94.242188 323.792969 95.074219 324.695312 96.183594 324.484375 C 97.226562 324.347656 98.40625 323.03125 98.472656 321.992188 Z M 166.878906 352.054688 C 166.324219 352.125 165.492188 352.472656 164.867188 353.300781 C 164.519531 353.789062 164.449219 354.480469 164.796875 354.964844 C 165.144531 355.519531 165.699219 355.726562 166.324219 355.449219 C 166.949219 355.171875 167.574219 355.035156 168.128906 354.6875 C 168.613281 354.410156 169.167969 353.925781 168.890625 353.234375 C 168.683594 352.402344 168.128906 351.984375 166.878906 352.054688 Z M 137.1875 309.382812 C 137.1875 308.621094 136.285156 308 135.453125 308.277344 C 134.617188 308.554688 133.855469 308.898438 133.230469 309.523438 C 132.882812 309.871094 132.328125 310.214844 132.675781 310.839844 C 133.023438 311.460938 133.578125 311.878906 134.339844 311.671875 C 135.242188 311.460938 136.074219 311.046875 136.769531 310.421875 C 137.046875 310.148438 137.253906 309.800781 137.1875 309.382812 Z M 134.339844 356.972656 C 134.132812 356.210938 133.648438 355.933594 132.953125 356.074219 C 131.984375 356.28125 131.011719 356.695312 130.25 357.320312 C 129.832031 357.667969 129.484375 358.152344 129.691406 358.707031 C 129.96875 359.398438 130.59375 359.746094 131.289062 359.605469 C 132.539062 359.328125 133.371094 358.496094 134.0625 357.527344 C 134.339844 357.320312 134.339844 357.113281 134.339844 356.972656 Z M 194.210938 349.5625 C 194.835938 349.632812 195.390625 349.355469 195.945312 349.144531 C 197.125 348.730469 197.265625 347.691406 196.363281 346.859375 C 195.53125 346.097656 194.003906 346.304688 193.171875 347.277344 C 192.824219 347.691406 192.476562 348.246094 192.757812 348.867188 C 193.035156 349.5625 193.589844 349.632812 194.210938 349.5625 Z M 181.863281 311.808594 C 181.308594 311.808594 179.574219 312.5 179.226562 312.777344 C 178.742188 313.195312 178.671875 313.679688 178.878906 314.234375 C 179.019531 314.71875 179.503906 314.925781 179.992188 314.925781 C 181.03125 314.996094 181.792969 314.441406 182.628906 314.027344 C 183.113281 313.75 183.667969 313.402344 183.460938 312.777344 C 183.183594 312.085938 182.628906 311.738281 181.863281 311.808594 Z M 128.792969 313.125 C 128.792969 312.15625 128.304688 311.671875 127.265625 311.738281 C 126.015625 311.808594 124.699219 312.847656 124.835938 313.609375 C 124.976562 314.441406 125.53125 314.925781 126.363281 314.855469 C 127.890625 314.71875 128.859375 314.304688 128.792969 313.125 Z M 94.378906 329.890625 C 95.699219 329.820312 96.949219 328.851562 96.949219 327.8125 C 96.878906 327.046875 96.324219 326.632812 95.351562 326.703125 C 94.101562 326.773438 92.925781 327.742188 92.925781 328.710938 C 92.855469 329.472656 93.410156 329.890625 94.378906 329.890625 Z M 225.222656 362.445312 C 224.667969 361.613281 223.628906 361.476562 222.796875 362.238281 C 221.617188 363.207031 221.199219 364.664062 221.824219 365.355469 C 222.171875 365.769531 222.65625 365.769531 223.144531 365.703125 C 224.042969 365.632812 225.433594 364.109375 225.433594 363 C 225.433594 362.929688 225.363281 362.652344 225.222656 362.445312 Z M 220.4375 367.433594 C 219.675781 367.085938 219.1875 367.640625 218.773438 368.265625 C 218.496094 368.679688 218.148438 369.164062 217.941406 369.652344 C 217.660156 370.273438 217.871094 370.828125 218.425781 371.242188 C 218.980469 371.589844 219.464844 371.796875 220.089844 371.382812 C 220.921875 370.898438 221.269531 370.136719 221.410156 369.234375 C 221.546875 368.402344 221.199219 367.78125 220.4375 367.433594 Z M 220.089844 364.664062 C 220.4375 364.039062 220.851562 363.207031 220.4375 362.445312 C 220.160156 361.890625 219.605469 361.476562 218.980469 362.03125 C 218.21875 362.722656 217.453125 363.277344 217.039062 364.246094 C 216.691406 365.007812 217.175781 365.910156 218.285156 365.980469 C 218.773438 365.769531 219.675781 365.425781 220.089844 364.664062 Z M 222.519531 331.898438 C 223.210938 331.136719 222.933594 330.304688 221.964844 329.957031 C 220.992188 329.679688 219.050781 331.203125 219.1875 332.175781 C 219.257812 332.9375 219.8125 333.28125 220.507812 333.421875 C 221.410156 333.28125 221.894531 332.519531 222.519531 331.898438 Z M 226.75 331.203125 C 225.847656 331.136719 224.390625 332.660156 224.390625 333.628906 C 224.390625 334.53125 225.085938 334.738281 225.777344 334.667969 C 226.820312 334.667969 227.929688 333.558594 227.929688 332.589844 C 227.929688 331.96875 227.304688 331.273438 226.75 331.203125 Z M 226.75 331.203125 " fill-opacity="1" fill-rule="nonzero"/></svg>