<svg xmlns="http://www.w3.org/2000/svg" xmlns:xlink="http://www.w3.org/1999/xlink" width="414" zoomAndPan="magnify" viewBox="0 0 310.5 671.999985" height="896" preserveAspectRatio="xMidYMid meet" version="1.0"><defs><clipPath id="67a2c7884d"><path d="M 34.695312 152 L 279 152 L 279 423 L 34.695312 423 Z M 34.695312 152 " clip-rule="nonzero"/></clipPath></defs><path fill="#212162" d="M 276.921875 208.699219 C 276.808594 208.703125 276.6875 208.710938 276.574219 208.714844 C 275.613281 208.761719 275.074219 208.128906 274.953125 207.402344 C 274.273438 206.6875 273.585938 205.96875 272.902344 205.25 C 269.601562 201.789062 266.355469 198.273438 263.003906 194.863281 C 262.382812 194.230469 263.097656 194.679688 262.34375 194.34375 C 262.519531 194.425781 262.296875 194.363281 261.972656 194.273438 C 259.542969 210.375 243.855469 319.71875 251.710938 411.339844 L 248.3125 411.628906 C 240.386719 319.230469 256.289062 209 258.632812 193.542969 C 254.410156 192.875 249.90625 192.792969 245.613281 192.617188 C 226.332031 191.828125 206.992188 192.125 187.710938 192.417969 C 164.816406 192.765625 141.921875 193.375 119.042969 194.089844 C 102.871094 194.59375 86.710938 195.164062 70.546875 195.789062 C 68.734375 195.855469 66.925781 195.929688 65.113281 196.003906 C 65.78125 202.0625 67.9375 222.617188 69.625 250.21875 C 71.011719 272.855469 70.949219 300.230469 70.632812 328.226562 C 70.300781 357.714844 69.5625 387.894531 64.890625 413.964844 L 61.53125 413.363281 C 75.769531 333.914062 63.832031 215.765625 61.800781 197.089844 C 58.878906 198.566406 55.648438 199.714844 52.75 201.042969 C 49.316406 202.617188 45.890625 204.199219 42.457031 205.773438 C 40.476562 206.679688 38.746094 203.742188 40.734375 202.828125 C 41.832031 202.324219 42.925781 201.824219 44.019531 201.316406 C 48.839844 199.101562 53.660156 196.886719 58.480469 194.675781 C 60.082031 193.9375 61.765625 192.867188 63.527344 192.652344 C 67 192.21875 70.652344 192.367188 74.148438 192.230469 C 91.949219 191.550781 109.753906 190.941406 127.5625 190.40625 C 150.839844 189.714844 174.121094 189.128906 197.40625 188.867188 C 215.535156 188.664062 233.789062 188.324219 251.898438 189.527344 C 255.644531 189.777344 260.730469 189.578125 264.144531 191.425781 C 266.179688 192.527344 267.765625 194.902344 269.324219 196.539062 C 272.253906 199.617188 275.195312 202.691406 278.125 205.773438 C 279.171875 206.886719 278.394531 208.617188 276.921875 208.699219 Z M 192.773438 174.277344 L 184.105469 152.429688 C 184.105469 152.429688 148.414062 148.398438 130.253906 152.429688 L 121.78125 172.601562 C 121.789062 172.597656 177.625 166.613281 192.773438 174.277344 Z M 192.773438 174.277344 " fill-opacity="1" fill-rule="nonzero"/><g clip-path="url(#67a2c7884d)"><path fill="#212162" d="M 275.4375 345.332031 C 273.949219 310.945312 272.613281 276.386719 273.964844 241.976562 C 274.246094 234.890625 274.640625 227.792969 275.511719 220.753906 C 276.035156 216.527344 276.652344 211.554688 278.394531 207.855469 C 278.90625 206.765625 278.320312 205.21875 276.921875 205.292969 C 252.816406 206.527344 228.738281 207.878906 204.617188 208.726562 C 204.140625 208.742188 203.667969 208.761719 203.191406 208.777344 C 202.984375 202.59375 202.917969 194.8125 203.316406 187.980469 C 203.808594 179.5 204.765625 171.722656 205.9375 164.742188 C 204.15625 162.613281 201.332031 159.730469 197.238281 157.226562 C 192.066406 154.066406 187.179688 152.910156 184.144531 152.4375 C 184.101562 155.242188 185.242188 164.214844 185.253906 175.773438 C 185.265625 186.167969 184.144531 198.777344 184.144531 209.011719 C 184.144531 209.148438 184.152344 209.273438 184.152344 209.402344 C 166.214844 209.941406 148.25 210.316406 130.296875 210.242188 C 130.296875 200.652344 129.171875 186.363281 129.171875 176.136719 C 129.175781 163.347656 130.308594 155.324219 130.261719 152.429688 C 127.226562 152.902344 122.332031 154.0625 117.167969 157.222656 C 113.070312 159.726562 110.246094 162.605469 108.472656 164.738281 C 109.640625 171.714844 110.597656 179.492188 111.089844 187.976562 C 111.5 194.992188 111.539062 203.636719 111.339844 209.980469 C 102.667969 209.78125 94 209.464844 85.34375 208.980469 C 76.707031 208.5 68.054688 207.863281 59.484375 206.652344 C 53.621094 205.824219 47.601562 204.839844 42.054688 202.675781 C 41.042969 202.28125 39.839844 203.289062 39.894531 204.316406 C 41.03125 224.589844 41.800781 244.886719 42.394531 265.175781 C 43.417969 299.949219 44.253906 334.953125 41.945312 369.691406 C 41.46875 376.878906 40.867188 384.09375 39.671875 391.203125 C 38.945312 395.542969 38.171875 400.339844 36.011719 404.203125 C 35.792969 404.59375 35.742188 404.988281 35.808594 405.34375 L 34.695312 416.992188 C 34.695312 416.992188 254.847656 429.582031 278.574219 416.425781 L 278.574219 405.59375 C 278.613281 405.433594 278.636719 405.257812 278.625 405.066406 C 277.308594 385.167969 276.300781 365.246094 275.4375 345.332031 Z M 208.464844 408.953125 C 197.230469 409.414062 185.25 410.554688 174 410.640625 C 164.730469 410.714844 156.195312 409.789062 146.929688 409.652344 C 116.023438 409.195312 85.117188 407.675781 54.320312 404.992188 C 49.558594 404.578125 44.800781 404.144531 40.042969 403.640625 C 41.257812 400.71875 41.945312 397.539062 42.53125 394.476562 C 43.679688 388.476562 44.332031 382.378906 44.851562 376.292969 C 46.242188 359.988281 46.554688 343.589844 46.660156 327.238281 C 46.863281 293.652344 45.851562 260.054688 44.378906 226.503906 C 44.089844 219.929688 43.78125 213.363281 43.429688 206.792969 C 54.371094 210.523438 66.753906 211.125 78.105469 211.929688 C 97 213.277344 115.984375 215.242188 134.925781 215.226562 C 172.898438 215.199219 210.875 211.574219 248.792969 209.675781 C 257.324219 209.25 265.855469 209.289062 274.386719 208.835938 C 273.472656 211.613281 272.984375 214.542969 272.554688 217.414062 C 271.675781 223.363281 271.210938 229.375 270.875 235.375 C 269.96875 251.519531 269.992188 267.726562 270.199219 283.890625 C 270.617188 316.953125 272.0625 350.007812 273.902344 383.019531 C 274.285156 389.871094 274.683594 396.730469 275.132812 403.578125 C 253 406.339844 230.75 408.042969 208.464844 408.953125 Z M 208.464844 408.953125 " fill-opacity="1" fill-rule="nonzero"/></g></svg>