<svg xmlns="http://www.w3.org/2000/svg" xmlns:xlink="http://www.w3.org/1999/xlink" zoomAndPan="magnify" preserveAspectRatio="xMidYMid meet" version="1.0" viewBox="41.48 222.73 227.9 228"><defs><clipPath id="2720379d07"><path d="M 41.484375 222.726562 L 269.378906 222.726562 L 269.378906 450.726562 L 41.484375 450.726562 Z M 41.484375 222.726562 " clip-rule="nonzero"/></clipPath></defs><g clip-path="url(#2720379d07)"><path fill="#fbae17" d="M 220.460938 401.753906 C 203.09375 419.125 179.996094 428.691406 155.433594 428.691406 C 135.886719 428.691406 117.277344 422.628906 101.738281 411.40625 L 125.054688 388.089844 C 121.058594 384.417969 118.546875 379.152344 118.546875 373.316406 L 118.546875 356.410156 L 126.410156 356.410156 C 124.210938 354.722656 122.375 352.582031 121.03125 350.140625 L 80.757812 390.410156 C 54.90625 354.492188 58.117188 303.980469 90.402344 271.695312 C 107.773438 254.328125 130.867188 244.761719 155.433594 244.761719 C 174.976562 244.761719 193.585938 250.820312 209.128906 262.042969 L 180.398438 290.773438 L 192.320312 290.773438 L 192.320312 307.675781 C 192.320312 314.152344 189.238281 319.917969 184.457031 323.59375 L 189.550781 323.59375 L 230.105469 283.039062 C 255.957031 318.957031 252.746094 369.46875 220.460938 401.753906 Z M 236.042969 256.117188 C 214.511719 234.582031 185.882812 222.726562 155.433594 222.726562 C 124.980469 222.726562 96.355469 234.582031 74.820312 256.117188 C 30.371094 300.5625 30.371094 372.886719 74.820312 417.335938 C 96.355469 438.867188 124.980469 450.726562 155.433594 450.726562 C 185.882812 450.726562 214.511719 438.867188 236.042969 417.335938 C 280.492188 372.886719 280.492188 300.5625 236.042969 256.117188 " fill-opacity="1" fill-rule="nonzero"/></g><path fill="#fbae17" d="M 160.738281 310.433594 C 160.734375 310.574219 160.714844 310.710938 160.714844 310.851562 L 160.714844 324.328125 L 172.242188 324.328125 C 173.949219 324.328125 175.589844 324.074219 177.140625 323.601562 C 183.949219 321.507812 188.902344 315.167969 188.902344 307.675781 L 188.902344 294.191406 L 177.367188 294.191406 C 177.230469 294.191406 177.097656 294.207031 176.960938 294.210938 C 168.09375 294.425781 160.957031 301.558594 160.738281 310.433594 " fill-opacity="1" fill-rule="nonzero"/><path fill="#fbae17" d="M 172.507812 360.554688 C 165.675781 362.632812 160.714844 368.972656 160.714844 376.480469 L 160.714844 389.964844 L 172.242188 389.964844 C 181.4375 389.964844 188.902344 382.511719 188.902344 373.316406 L 188.902344 359.832031 L 177.367188 359.832031 C 175.679688 359.832031 174.046875 360.085938 172.507812 360.554688 " fill-opacity="1" fill-rule="nonzero"/><path fill="#fbae17" d="M 133.492188 294.191406 L 121.964844 294.191406 L 121.964844 307.675781 C 121.964844 315.167969 126.917969 321.507812 133.71875 323.601562 C 135.269531 324.074219 136.910156 324.328125 138.617188 324.328125 L 150.144531 324.328125 L 150.144531 310.851562 C 150.144531 301.644531 142.6875 294.191406 133.492188 294.191406 " fill-opacity="1" fill-rule="nonzero"/><path fill="#fbae17" d="M 146.742188 366.402344 C 146.738281 366.394531 146.734375 366.390625 146.730469 366.386719 C 145.949219 365.363281 145.054688 364.433594 144.0625 363.617188 C 144.0625 363.617188 144.058594 363.617188 144.058594 363.613281 C 143.726562 363.34375 143.386719 363.082031 143.035156 362.835938 C 143.007812 362.816406 142.980469 362.800781 142.949219 362.78125 C 142.625 362.558594 142.289062 362.339844 141.945312 362.136719 C 141.871094 362.089844 141.789062 362.054688 141.710938 362.007812 C 141.410156 361.839844 141.113281 361.671875 140.800781 361.519531 C 140.636719 361.441406 140.46875 361.375 140.300781 361.296875 C 140.070312 361.195312 139.839844 361.085938 139.601562 360.992188 C 139.195312 360.832031 138.777344 360.683594 138.355469 360.554688 C 136.8125 360.085938 135.179688 359.832031 133.492188 359.832031 L 121.964844 359.832031 L 121.964844 373.316406 C 121.964844 373.910156 122 374.5 122.0625 375.082031 C 122.078125 375.238281 122.113281 375.390625 122.132812 375.546875 C 122.191406 375.96875 122.25 376.394531 122.339844 376.808594 C 122.375 376.964844 122.417969 377.109375 122.457031 377.265625 C 122.558594 377.675781 122.664062 378.085938 122.796875 378.484375 C 122.835938 378.613281 122.886719 378.734375 122.933594 378.863281 C 123.082031 379.28125 123.242188 379.695312 123.421875 380.101562 C 123.464844 380.195312 123.511719 380.285156 123.554688 380.378906 C 123.757812 380.8125 123.976562 381.234375 124.214844 381.648438 C 124.25 381.707031 124.285156 381.761719 124.320312 381.820312 C 124.585938 382.261719 124.867188 382.691406 125.167969 383.101562 C 125.1875 383.132812 125.210938 383.160156 125.230469 383.1875 C 125.554688 383.625 125.898438 384.046875 126.261719 384.449219 C 126.269531 384.457031 126.277344 384.464844 126.285156 384.472656 C 129.328125 387.839844 133.71875 389.964844 138.617188 389.964844 L 150.144531 389.964844 L 150.144531 376.480469 C 150.144531 372.6875 148.875 369.199219 146.742188 366.402344 " fill-opacity="1" fill-rule="nonzero"/><path fill="#fbae17" d="M 177.367188 327.011719 C 175.660156 327.011719 174.019531 327.265625 172.46875 327.734375 C 165.667969 329.832031 160.714844 336.171875 160.714844 343.660156 L 160.714844 357.148438 L 172.242188 357.148438 C 173.929688 357.148438 175.5625 356.890625 177.105469 356.421875 C 183.933594 354.34375 188.902344 348.003906 188.902344 340.496094 L 188.902344 327.011719 L 177.367188 327.011719 " fill-opacity="1" fill-rule="nonzero"/><path fill="#fbae17" d="M 150.050781 341.976562 C 150.019531 341.6875 149.984375 341.402344 149.941406 341.121094 C 149.917969 340.964844 149.894531 340.816406 149.863281 340.664062 C 149.816406 340.394531 149.761719 340.132812 149.699219 339.871094 C 149.664062 339.722656 149.632812 339.574219 149.59375 339.429688 C 149.519531 339.144531 149.433594 338.867188 149.34375 338.589844 C 149.308594 338.472656 149.277344 338.359375 149.238281 338.242188 C 149.109375 337.867188 148.96875 337.5 148.8125 337.136719 C 148.757812 337.011719 148.699219 336.890625 148.640625 336.769531 C 148.53125 336.527344 148.417969 336.285156 148.296875 336.050781 C 148.21875 335.894531 148.132812 335.746094 148.046875 335.59375 C 147.9375 335.394531 147.824219 335.199219 147.707031 335.007812 C 147.613281 334.847656 147.515625 334.695312 147.414062 334.539062 C 147.292969 334.359375 147.171875 334.179688 147.042969 334.003906 C 146.9375 333.851562 146.832031 333.699219 146.71875 333.554688 C 146.578125 333.367188 146.425781 333.191406 146.277344 333.011719 C 146.074219 332.769531 145.867188 332.535156 145.652344 332.304688 C 145.507812 332.148438 145.363281 331.992188 145.214844 331.84375 C 145.0625 331.695312 144.90625 331.554688 144.753906 331.410156 C 144.617188 331.285156 144.484375 331.164062 144.347656 331.042969 C 144.183594 330.902344 144.015625 330.765625 143.84375 330.628906 C 143.707031 330.519531 143.566406 330.414062 143.425781 330.308594 C 143.25 330.175781 143.074219 330.046875 142.890625 329.921875 C 142.75 329.824219 142.601562 329.734375 142.457031 329.640625 C 142.269531 329.519531 142.082031 329.394531 141.890625 329.28125 C 140.796875 328.640625 139.625 328.117188 138.390625 327.734375 C 136.839844 327.265625 135.199219 327.011719 133.492188 327.011719 L 121.964844 327.011719 L 121.964844 340.496094 C 121.964844 343.042969 122.546875 345.449219 123.566406 347.605469 C 123.566406 347.605469 123.570312 347.605469 123.570312 347.605469 C 124.308594 349.164062 125.277344 350.585938 126.4375 351.832031 C 126.46875 351.871094 126.503906 351.902344 126.539062 351.9375 C 126.886719 352.304688 127.25 352.65625 127.628906 352.988281 C 127.675781 353.03125 127.71875 353.074219 127.765625 353.113281 C 128.582031 353.8125 129.464844 354.4375 130.40625 354.972656 C 130.523438 355.039062 130.644531 355.101562 130.765625 355.164062 C 131.121094 355.355469 131.480469 355.53125 131.847656 355.695312 C 131.984375 355.757812 132.121094 355.820312 132.257812 355.875 C 132.75 356.078125 133.246094 356.265625 133.753906 356.421875 C 135.296875 356.890625 136.929688 357.148438 138.617188 357.148438 L 150.144531 357.148438 L 150.144531 343.660156 C 150.144531 343.230469 150.121094 342.804688 150.089844 342.378906 C 150.078125 342.246094 150.0625 342.113281 150.050781 341.976562 " fill-opacity="1" fill-rule="nonzero"/><path fill="#fbae17" d="M 164.5625 266.210938 L 155.433594 257.082031 L 146.300781 266.210938 C 139.574219 272.9375 139.574219 283.839844 146.300781 290.5625 L 152.605469 296.867188 L 152.605469 424.53125 L 158.257812 424.53125 L 158.257812 296.867188 L 164.5625 290.5625 C 171.289062 283.839844 171.289062 272.9375 164.5625 266.210938 " fill-opacity="1" fill-rule="nonzero"/></svg>