<svg xmlns="http://www.w3.org/2000/svg" xmlns:xlink="http://www.w3.org/1999/xlink" zoomAndPan="magnify" preserveAspectRatio="xMidYMid meet" version="1.0" viewBox="52.49 242.4 205.38 188.58"><defs><clipPath id="954afe7a90"><path d="M 52.488281 369.222656 L 92.902344 369.222656 L 92.902344 430.949219 L 52.488281 430.949219 Z M 52.488281 369.222656 " clip-rule="nonzero"/></clipPath><clipPath id="62e13eb43b"><path d="M 217 369.222656 L 257.867188 369.222656 L 257.867188 430.949219 L 217 430.949219 Z M 217 369.222656 " clip-rule="nonzero"/></clipPath></defs><g clip-path="url(#954afe7a90)"><path fill="#d32f2f" d="M 73.257812 374.59375 L 52.488281 382.578125 L 62.847656 403.992188 L 54.894531 430.976562 L 92.847656 422.421875 L 87.429688 369.5 L 73.257812 374.59375 " fill-opacity="1" fill-rule="nonzero"/></g><path fill="#b71c1c" d="M 77.589844 353.96875 L 87.71875 370.417969 L 92.875 422.394531 L 77.589844 403.910156 L 77.589844 353.96875 " fill-opacity="1" fill-rule="evenodd"/><g clip-path="url(#62e13eb43b)"><path fill="#d32f2f" d="M 237.101562 374.59375 L 257.871094 382.578125 L 247.511719 403.992188 L 255.464844 430.976562 L 217.511719 422.421875 L 222.925781 369.5 L 237.101562 374.59375 " fill-opacity="1" fill-rule="nonzero"/></g><path fill="#b71c1c" d="M 232.769531 353.96875 L 222.640625 370.417969 L 217.484375 422.394531 L 232.769531 403.910156 L 232.769531 353.96875 " fill-opacity="1" fill-rule="evenodd"/><path fill="#ffa000" d="M 110.445312 352.335938 C 109.164062 350.207031 108.035156 347.984375 107.066406 345.675781 C 104.460938 339.472656 103.027344 332.667969 103.027344 325.53125 C 103.027344 311.136719 108.859375 298.105469 118.296875 288.671875 C 127.734375 279.238281 140.769531 273.402344 155.167969 273.402344 C 169.566406 273.402344 182.601562 279.238281 192.035156 288.671875 C 201.472656 298.105469 207.308594 311.136719 207.308594 325.53125 C 207.308594 335.476562 204.476562 345.097656 199.25 353.359375 C 205.015625 354.121094 210.773438 354.964844 216.515625 355.847656 L 216.125 350.652344 L 229.460938 341.625 C 231.550781 340.476562 232.308594 337.855469 231.164062 335.769531 L 231.15625 335.773438 L 222.949219 320.859375 L 231.035156 306.164062 C 232.265625 304.207031 231.730469 301.609375 229.800781 300.300781 L 229.789062 300.316406 L 216.125 291.066406 L 217.324219 275 C 217.609375 272.679688 215.984375 270.546875 213.660156 270.214844 L 213.652344 270.21875 L 197.609375 267.917969 L 191.878906 252.890625 C 191.152344 250.6875 188.792969 249.445312 186.550781 250.113281 L 186.550781 250.117188 L 170.675781 254.855469 L 158.21875 243.664062 C 156.613281 242.046875 154 241.960938 152.285156 243.5 L 152.289062 243.507812 L 139.65625 254.855469 L 123.996094 250.183594 C 121.792969 249.398438 119.359375 250.511719 118.523438 252.707031 L 118.523438 252.710938 L 112.722656 267.917969 L 96.921875 270.183594 C 94.570312 270.382812 92.8125 272.441406 92.988281 274.800781 L 92.992188 274.800781 L 94.207031 291.066406 L 80.875 300.089844 L 80.871094 300.09375 C 78.785156 301.238281 78.023438 303.863281 79.171875 305.945312 L 79.179688 305.945312 L 87.386719 320.859375 L 79.300781 335.554688 C 78.066406 337.511719 78.601562 340.109375 80.53125 341.417969 L 80.542969 341.402344 L 94.207031 350.652344 L 93.894531 354.871094 C 99.390625 353.871094 104.910156 353.03125 110.445312 352.335938 " fill-opacity="1" fill-rule="nonzero"/><path fill="#ff8f00" d="M 155.167969 386.507812 C 188.339844 386.507812 215.398438 359.457031 215.398438 326.292969 C 215.398438 293.132812 188.339844 266.082031 155.167969 266.082031 C 121.992188 266.082031 94.9375 293.132812 94.9375 326.292969 C 94.9375 359.457031 121.992188 386.507812 155.167969 386.507812 " fill-opacity="1" fill-rule="evenodd"/><path fill="#ff6600" d="M 155.167969 374.441406 C 181.695312 374.441406 203.328125 352.8125 203.328125 326.292969 C 203.328125 299.773438 181.695312 278.144531 155.167969 278.144531 C 128.640625 278.144531 107.003906 299.773438 107.003906 326.292969 C 107.003906 352.8125 128.640625 374.441406 155.167969 374.441406 " fill-opacity="1" fill-rule="evenodd"/><path fill="#c62828" d="M 152.410156 343.460938 C 178.332031 343.519531 205.136719 346.464844 232.765625 352.121094 L 232.765625 403.910156 C 232.453125 403.910156 232.136719 403.878906 231.820312 403.804688 L 231.824219 403.792969 C 206.789062 398.167969 181.539062 394.953125 156.023438 394.753906 C 130.636719 394.554688 104.945312 397.335938 78.886719 403.707031 C 78.472656 403.839844 78.027344 403.910156 77.570312 403.910156 L 77.570312 352.074219 C 101.566406 346.21875 126.535156 343.402344 152.410156 343.460938 " fill-opacity="1" fill-rule="evenodd"/><path fill="#fff8e1" d="M 138.210938 332.578125 C 138.210938 335.277344 136.8125 337.667969 134.003906 339.746094 C 131.207031 341.835938 128.007812 342.875 124.421875 342.875 C 121.425781 342.875 119.085938 342.113281 117.390625 340.601562 C 115.707031 339.085938 114.863281 336.980469 114.863281 334.261719 C 114.863281 331.726562 115.179688 329.511719 115.804688 327.621094 C 116.523438 325.480469 117.921875 322.863281 120.011719 319.769531 L 121.632812 320.875 C 120.269531 322.917969 119.300781 324.691406 118.71875 326.195312 C 118.144531 327.703125 117.855469 329.199219 117.855469 330.6875 C 117.855469 332.285156 118.441406 333.511719 119.625 334.378906 C 120.808594 335.25 122.476562 335.679688 124.625 335.679688 C 127.710938 335.679688 130.214844 335.085938 132.140625 333.898438 C 134.066406 332.703125 135.035156 331.144531 135.035156 329.214844 C 135.035156 328.886719 135.035156 328.625 135.035156 328.429688 C 135.035156 328.242188 135.035156 328.085938 135.035156 327.988281 C 135.035156 327.296875 134.972656 326.554688 134.867188 325.730469 C 134.75 324.90625 134.453125 323.203125 133.976562 320.628906 C 133.222656 316.480469 132.472656 312.332031 131.71875 308.164062 L 130.410156 307.214844 C 130.410156 305.503906 131.21875 302.878906 132.820312 299.335938 L 134.03125 299.921875 C 133.960938 300.160156 133.933594 300.441406 133.933594 300.761719 C 133.933594 301.460938 134.292969 302.023438 135.007812 302.464844 C 136.074219 303.058594 137.078125 303.628906 138.03125 304.167969 C 137.832031 305.671875 137.644531 306.757812 137.445312 307.402344 C 137.257812 308.046875 136.855469 309.015625 136.238281 310.316406 L 135.445312 310 C 135.445312 310.261719 135.699219 311.757812 136.203125 314.472656 C 136.703125 317.199219 137.125 319.546875 137.472656 321.527344 C 137.964844 324.359375 138.210938 326.089844 138.210938 326.699219 Z M 157.019531 320.085938 C 157.019531 320.605469 156.9375 321.097656 156.777344 321.535156 C 156.625 321.984375 156.328125 322.566406 155.917969 323.285156 C 154.875 320.953125 153.738281 319.054688 152.5 317.566406 C 151.253906 316.078125 149.78125 314.886719 148.089844 313.992188 C 148.089844 314.742188 148 315.289062 147.820312 315.628906 C 147.648438 315.96875 147.398438 316.140625 147.082031 316.140625 C 146.5625 316.140625 145.597656 315.648438 144.199219 314.644531 C 142.691406 313.578125 141.605469 312.554688 140.945312 311.578125 C 140.46875 310.890625 140.109375 309.902344 139.875 308.613281 C 139.644531 307.3125 139.515625 306.253906 139.515625 305.429688 C 139.515625 304.167969 139.859375 303.539062 140.519531 303.539062 C 141.554688 303.539062 143.09375 304.148438 145.140625 305.367188 C 147.195312 306.578125 149.117188 308.039062 150.921875 309.742188 C 154.984375 313.476562 157.019531 316.929688 157.019531 320.085938 Z M 167.308594 333.242188 L 167.308594 326.097656 L 165.394531 326.097656 C 164.308594 326.097656 163.625 324.644531 163.347656 321.734375 C 163.1875 318.328125 163.042969 314.914062 162.898438 311.5 C 162.65625 306.667969 162.074219 302.75 161.167969 299.757812 C 159.132812 303.398438 158.121094 305.816406 158.121094 307.007812 C 158.378906 308.53125 158.640625 310.066406 158.890625 311.605469 C 159.144531 313.136719 159.277344 314.726562 159.277344 316.355469 C 159.277344 319.070312 158.683594 321.355469 157.511719 323.230469 C 156.515625 324.824219 154.894531 326.347656 152.652344 327.800781 C 151.398438 328.625 148.976562 329.933594 145.410156 331.746094 C 144.789062 332.058594 143.867188 332.425781 142.640625 332.855469 C 141.402344 333.289062 140.15625 333.71875 138.890625 334.15625 L 138.890625 335.839844 L 141.941406 335.886719 C 147.453125 335.886719 151.550781 335.0625 154.230469 333.394531 C 157 331.683594 159.152344 328.515625 160.695312 323.921875 C 160.695312 326.402344 161.214844 328.605469 162.269531 330.535156 C 163.25 332.335938 164.289062 333.242188 165.394531 333.242188 Z M 195.46875 333.242188 L 165.472656 333.242188 L 165.472656 326.097656 L 184.148438 326.097656 C 182.03125 323.910156 180.066406 322.332031 178.265625 321.367188 C 176.671875 320.515625 175.109375 320.085938 173.585938 320.085938 C 173.128906 320.085938 172.714844 320.101562 172.339844 320.148438 C 171.960938 320.191406 171.417969 320.289062 170.699219 320.453125 C 171.660156 318.246094 172.734375 316.617188 173.917969 315.566406 C 175.101562 314.519531 176.445312 313.992188 177.953125 313.992188 C 179.101562 313.992188 180.210938 314.265625 181.285156 314.832031 C 182.355469 315.390625 183.554688 316.292969 184.882812 317.539062 C 185.933594 318.515625 187.417969 320.046875 189.347656 322.128906 C 190.65625 323.597656 191.660156 324.554688 192.351562 324.996094 C 193.050781 325.433594 194.082031 325.804688 195.46875 326.097656 L 195.46875 333.242188 " fill-opacity="1" fill-rule="nonzero"/><path fill="#f1f8e9" d="M 202.039062 362.304688 L 207.421875 363.253906 L 205.109375 376.371094 L 213.503906 377.851562 L 212.75 382.140625 L 198.96875 379.710938 Z M 183.941406 371.710938 L 182.546875 365.210938 L 180.058594 371.371094 Z M 184.75 375.621094 L 178.546875 375.078125 L 177.441406 377.910156 L 171.878906 377.421875 L 180.039062 360.394531 L 185.972656 360.914062 L 191.054688 379.097656 L 185.359375 378.601562 Z M 150.757812 359.71875 L 156.222656 359.621094 L 156.457031 372.941406 L 164.980469 372.792969 L 165.054688 377.144531 L 151.066406 377.390625 Z M 134.96875 371.125 L 132.574219 364.925781 L 131.082031 371.398438 Z M 136.375 374.859375 L 130.167969 375.292969 L 129.519531 378.265625 L 123.949219 378.652344 L 129.34375 360.558594 L 135.289062 360.144531 L 143.152344 377.308594 L 137.445312 377.710938 Z M 96.828125 364.355469 L 102.238281 363.59375 L 103.101562 369.71875 L 109.015625 368.886719 L 108.152344 362.765625 L 113.589844 362 L 116.046875 379.503906 L 110.613281 380.265625 L 109.621094 373.1875 L 103.703125 374.019531 L 104.699219 381.097656 L 99.289062 381.855469 L 96.828125 364.355469 " fill-opacity="1" fill-rule="evenodd"/></svg>