<svg xmlns="http://www.w3.org/2000/svg" xmlns:xlink="http://www.w3.org/1999/xlink" zoomAndPan="magnify" preserveAspectRatio="xMidYMid meet" version="1.0" viewBox="27.63 216.78 247.29 235.56"><path fill="#edb97f" d="M 261.535156 251.675781 C 237.355469 221.128906 53.550781 238.972656 28.148438 307.335938 C 21.808594 379.019531 74.179688 460.886719 165.707031 451.617188 C 261.238281 441.9375 296.90625 361.484375 261.535156 251.675781 Z M 261.535156 251.675781 " fill-opacity="1" fill-rule="nonzero"/><path fill="#ffd983" d="M 49.617188 291.90625 C 69.46875 274.863281 143.941406 233.832031 231.007812 248.351562 C 289.050781 253.796875 225.867188 303.101562 160.570312 317.621094 C 103.46875 330.316406 13.339844 323.066406 49.617188 291.90625 Z M 49.617188 291.90625 " fill-opacity="1" fill-rule="nonzero"/><path fill="#77b255" d="M 235.765625 267.40625 C 246.199219 256.519531 244.386719 223.398438 239.617188 217.957031 C 232.59375 212.054688 225.5625 229.898438 204.703125 235.34375 C 199.566406 225.359375 193.960938 221.898438 193.820312 221.804688 C 187.777344 217.5 174.777344 218.109375 171.148438 235.648438 C 158.675781 224.757812 132.527344 223.769531 130.9375 229.597656 C 121.265625 265.140625 107.96875 269.824219 93.457031 284.648438 C 71.625 306.949219 113.105469 311.421875 155.28125 298.257812 C 197.457031 285.097656 235.765625 267.40625 235.765625 267.40625 Z M 235.765625 267.40625 " fill-opacity="1" fill-rule="nonzero"/><path fill="#77b255" d="M 109.476562 281.324219 C 105.847656 255.914062 59.792969 251.117188 49.617188 258.949219 C 35.109375 270.128906 43.574219 305.214844 58.6875 310.054688 C 85.089844 318.507812 109.476562 281.324219 109.476562 281.324219 Z M 109.476562 281.324219 " fill-opacity="1" fill-rule="nonzero"/><path fill="#662113" d="M 58.6875 310.054688 C 48.996094 306.222656 63.222656 284.648438 78.640625 280.414062 C 94.058594 276.183594 101.3125 284.046875 104.339844 288.277344 C 104.644531 284.046875 110.6875 276.785156 115.824219 275.269531 C 120.960938 273.757812 127.011719 276.480469 130.03125 282.832031 C 130.03125 276.175781 130.335938 254.703125 154.214844 247.75 C 160.5625 245.628906 178.699219 245.027344 182.632812 255.007812 C 188.675781 249.867188 208.636719 245.332031 213.46875 257.730469 C 215.582031 254.101562 232.515625 247.75 239.160156 259.851562 C 244 266.507812 236.535156 272.929688 224.351562 281.027344 C 184.753906 307.335938 96.175781 324.878906 58.6875 310.054688 Z M 58.6875 310.054688 " fill-opacity="1" fill-rule="nonzero"/><path fill="#c1694f" d="M 86.5 295.234375 C 86.5 295.828125 86.441406 296.417969 86.324219 297.003906 C 86.207031 297.585938 86.035156 298.15625 85.808594 298.703125 C 85.582031 299.253906 85.300781 299.777344 84.96875 300.273438 C 84.640625 300.769531 84.261719 301.226562 83.84375 301.648438 C 83.421875 302.070312 82.964844 302.445312 82.46875 302.777344 C 81.972656 303.109375 81.449219 303.386719 80.898438 303.617188 C 80.351562 303.84375 79.78125 304.015625 79.199219 304.132812 C 78.613281 304.25 78.023438 304.308594 77.429688 304.308594 C 76.832031 304.308594 76.242188 304.25 75.660156 304.132812 C 75.074219 304.015625 74.507812 303.84375 73.957031 303.617188 C 73.410156 303.386719 72.886719 303.109375 72.390625 302.777344 C 71.894531 302.445312 71.4375 302.070312 71.015625 301.648438 C 70.59375 301.226562 70.21875 300.769531 69.886719 300.273438 C 69.558594 299.777344 69.277344 299.253906 69.050781 298.703125 C 68.824219 298.15625 68.648438 297.585938 68.535156 297.003906 C 68.417969 296.417969 68.359375 295.828125 68.359375 295.234375 C 68.359375 294.636719 68.417969 294.046875 68.535156 293.460938 C 68.648438 292.878906 68.824219 292.308594 69.050781 291.761719 C 69.277344 291.210938 69.558594 290.6875 69.886719 290.191406 C 70.21875 289.695312 70.59375 289.238281 71.015625 288.816406 C 71.4375 288.394531 71.894531 288.019531 72.390625 287.6875 C 72.886719 287.355469 73.410156 287.078125 73.957031 286.847656 C 74.507812 286.621094 75.074219 286.449219 75.660156 286.332031 C 76.242188 286.214844 76.832031 286.15625 77.429688 286.15625 C 78.023438 286.15625 78.613281 286.214844 79.199219 286.332031 C 79.78125 286.449219 80.351562 286.621094 80.898438 286.847656 C 81.449219 287.078125 81.972656 287.355469 82.46875 287.6875 C 82.964844 288.019531 83.421875 288.394531 83.84375 288.816406 C 84.261719 289.238281 84.640625 289.695312 84.96875 290.191406 C 85.300781 290.6875 85.582031 291.210938 85.808594 291.761719 C 86.035156 292.308594 86.207031 292.878906 86.324219 293.460938 C 86.441406 294.046875 86.5 294.636719 86.5 295.234375 Z M 86.5 295.234375 " fill-opacity="1" fill-rule="nonzero"/><path fill="#c1694f" d="M 202.59375 280.714844 C 202.59375 281.308594 202.535156 281.898438 202.417969 282.484375 C 202.304688 283.066406 202.132812 283.636719 201.902344 284.1875 C 201.675781 284.738281 201.394531 285.257812 201.066406 285.753906 C 200.734375 286.25 200.359375 286.707031 199.9375 287.128906 C 199.515625 287.550781 199.058594 287.925781 198.5625 288.257812 C 198.066406 288.589844 197.546875 288.867188 196.996094 289.097656 C 196.445312 289.324219 195.878906 289.496094 195.292969 289.613281 C 194.710938 289.730469 194.121094 289.789062 193.523438 289.789062 C 192.929688 289.789062 192.339844 289.730469 191.753906 289.613281 C 191.171875 289.496094 190.605469 289.324219 190.054688 289.097656 C 189.503906 288.867188 188.980469 288.589844 188.484375 288.257812 C 187.992188 287.925781 187.53125 287.550781 187.109375 287.128906 C 186.691406 286.707031 186.3125 286.25 185.984375 285.753906 C 185.652344 285.257812 185.371094 284.738281 185.144531 284.1875 C 184.917969 283.636719 184.746094 283.066406 184.628906 282.484375 C 184.511719 281.898438 184.453125 281.308594 184.453125 280.714844 C 184.453125 280.117188 184.511719 279.527344 184.628906 278.941406 C 184.746094 278.359375 184.917969 277.792969 185.144531 277.242188 C 185.371094 276.691406 185.652344 276.167969 185.984375 275.671875 C 186.3125 275.175781 186.691406 274.71875 187.109375 274.296875 C 187.53125 273.875 187.992188 273.5 188.484375 273.167969 C 188.980469 272.835938 189.503906 272.558594 190.054688 272.328125 C 190.605469 272.101562 191.171875 271.929688 191.753906 271.8125 C 192.339844 271.699219 192.929688 271.640625 193.523438 271.640625 C 194.121094 271.640625 194.710938 271.699219 195.292969 271.8125 C 195.878906 271.929688 196.445312 272.101562 196.996094 272.328125 C 197.546875 272.558594 198.066406 272.835938 198.5625 273.167969 C 199.058594 273.5 199.515625 273.875 199.9375 274.296875 C 200.359375 274.71875 200.734375 275.175781 201.066406 275.671875 C 201.394531 276.167969 201.675781 276.691406 201.902344 277.242188 C 202.132812 277.792969 202.304688 278.359375 202.417969 278.941406 C 202.535156 279.527344 202.59375 280.117188 202.59375 280.714844 Z M 202.59375 280.714844 " fill-opacity="1" fill-rule="nonzero"/><path fill="#c1694f" d="M 178.410156 268.621094 C 178.410156 274.972656 173.257812 280.117188 166.925781 280.117188 C 160.570312 280.117188 155.433594 274.972656 155.433594 268.621094 C 155.433594 262.265625 160.570312 257.128906 166.925781 257.128906 C 173.257812 257.121094 178.410156 262.265625 178.410156 268.621094 Z M 107.664062 305.824219 C 107.664062 308.664062 105.363281 310.964844 102.527344 310.964844 C 99.683594 310.964844 97.390625 308.664062 97.390625 305.824219 C 97.390625 302.976562 99.6875 300.683594 102.527344 300.683594 C 105.363281 300.675781 107.664062 302.976562 107.664062 305.824219 Z M 107.664062 305.824219 " fill-opacity="1" fill-rule="nonzero"/><path fill="#dd2e44" d="M 142.125 277.839844 C 144.28125 273.453125 166.367188 293.25 160.714844 305.96875 C 155.273438 308.691406 136.226562 312.097656 116.273438 314.136719 C 125.199219 307.792969 137.285156 287.675781 142.125 277.839844 Z M 142.125 277.839844 " fill-opacity="1" fill-rule="nonzero"/><path fill="#ea596e" d="M 136.234375 288.726562 C 139.769531 281.648438 153.007812 300.980469 148.480469 308.917969 C 141.453125 310.957031 121.5 313.910156 115.152344 314.585938 C 119.679688 308.691406 132.605469 295.988281 136.234375 288.726562 Z M 136.234375 288.726562 " fill-opacity="1" fill-rule="nonzero"/><path fill="#77b255" d="M 177.039062 302.113281 C 182.480469 300.523438 209.464844 293.039062 227.601562 278.972656 C 228.054688 269.671875 220.574219 257.875 208.332031 277.839844 C 200.171875 272.851562 179.992188 282.382812 177.039062 302.113281 Z M 177.039062 302.113281 " fill-opacity="1" fill-rule="nonzero"/><path fill="#e5a157" d="M 223.75 371.761719 C 223.75 372.714844 223.65625 373.660156 223.472656 374.59375 C 223.285156 375.53125 223.011719 376.4375 222.644531 377.316406 C 222.28125 378.199219 221.835938 379.035156 221.304688 379.828125 C 220.777344 380.621094 220.175781 381.355469 219.5 382.027344 C 218.828125 382.703125 218.09375 383.304688 217.300781 383.832031 C 216.507812 384.363281 215.671875 384.8125 214.792969 385.175781 C 213.914062 385.539062 213.003906 385.816406 212.070312 386 C 211.136719 386.1875 210.191406 386.28125 209.238281 386.28125 C 208.285156 386.28125 207.34375 386.1875 206.410156 386 C 205.472656 385.816406 204.566406 385.539062 203.6875 385.175781 C 202.804688 384.8125 201.96875 384.363281 201.175781 383.832031 C 200.386719 383.304688 199.652344 382.703125 198.980469 382.027344 C 198.304688 381.355469 197.703125 380.621094 197.175781 379.828125 C 196.644531 379.035156 196.199219 378.199219 195.832031 377.316406 C 195.46875 376.4375 195.191406 375.53125 195.007812 374.59375 C 194.820312 373.660156 194.726562 372.714844 194.726562 371.761719 C 194.726562 370.808594 194.820312 369.863281 195.007812 368.929688 C 195.191406 367.996094 195.46875 367.085938 195.832031 366.207031 C 196.199219 365.324219 196.644531 364.488281 197.175781 363.695312 C 197.703125 362.902344 198.304688 362.167969 198.980469 361.496094 C 199.652344 360.820312 200.386719 360.21875 201.175781 359.691406 C 201.96875 359.160156 202.804688 358.714844 203.6875 358.347656 C 204.566406 357.984375 205.472656 357.707031 206.410156 357.523438 C 207.34375 357.335938 208.285156 357.242188 209.238281 357.242188 C 210.191406 357.242188 211.136719 357.335938 212.070312 357.523438 C 213.003906 357.707031 213.914062 357.984375 214.792969 358.347656 C 215.671875 358.714844 216.507812 359.160156 217.300781 359.691406 C 218.09375 360.21875 218.828125 360.820312 219.5 361.496094 C 220.175781 362.167969 220.777344 362.902344 221.304688 363.695312 C 221.835938 364.488281 222.28125 365.324219 222.644531 366.207031 C 223.011719 367.085938 223.285156 367.996094 223.472656 368.929688 C 223.65625 369.863281 223.75 370.808594 223.75 371.761719 Z M 223.75 371.761719 " fill-opacity="1" fill-rule="nonzero"/><path fill="#e5a157" d="M 194.726562 408.058594 C 194.726562 408.535156 194.683594 409.007812 194.589844 409.476562 C 194.496094 409.941406 194.359375 410.398438 194.175781 410.835938 C 193.992188 411.277344 193.769531 411.695312 193.503906 412.09375 C 193.242188 412.488281 192.941406 412.855469 192.601562 413.191406 C 192.265625 413.53125 191.898438 413.832031 191.503906 414.09375 C 191.109375 414.359375 190.691406 414.582031 190.25 414.765625 C 189.808594 414.949219 189.355469 415.085938 188.886719 415.179688 C 188.421875 415.273438 187.949219 415.320312 187.472656 415.320312 C 186.996094 415.320312 186.523438 415.273438 186.058594 415.179688 C 185.589844 415.085938 185.136719 414.949219 184.695312 414.765625 C 184.257812 414.582031 183.839844 414.359375 183.441406 414.09375 C 183.046875 413.832031 182.679688 413.53125 182.34375 413.191406 C 182.003906 412.855469 181.703125 412.488281 181.441406 412.09375 C 181.175781 411.695312 180.953125 411.277344 180.769531 410.835938 C 180.585938 410.398438 180.449219 409.941406 180.355469 409.476562 C 180.265625 409.007812 180.21875 408.535156 180.21875 408.058594 C 180.21875 407.582031 180.265625 407.109375 180.355469 406.644531 C 180.449219 406.175781 180.585938 405.722656 180.769531 405.28125 C 180.953125 404.839844 181.175781 404.421875 181.441406 404.027344 C 181.703125 403.628906 182.003906 403.261719 182.34375 402.925781 C 182.679688 402.589844 183.046875 402.289062 183.441406 402.023438 C 183.839844 401.757812 184.257812 401.535156 184.695312 401.351562 C 185.136719 401.171875 185.589844 401.03125 186.058594 400.9375 C 186.523438 400.847656 186.996094 400.800781 187.472656 400.800781 C 187.949219 400.800781 188.421875 400.847656 188.886719 400.9375 C 189.355469 401.03125 189.808594 401.171875 190.25 401.351562 C 190.691406 401.535156 191.109375 401.757812 191.503906 402.023438 C 191.898438 402.289062 192.265625 402.589844 192.601562 402.925781 C 192.941406 403.261719 193.242188 403.628906 193.503906 404.027344 C 193.769531 404.421875 193.992188 404.839844 194.175781 405.28125 C 194.359375 405.722656 194.496094 406.175781 194.589844 406.644531 C 194.683594 407.109375 194.726562 407.582031 194.726562 408.058594 Z M 194.726562 408.058594 " fill-opacity="1" fill-rule="nonzero"/><path fill="#e5a157" d="M 143.941406 382.652344 C 143.941406 383.367188 143.871094 384.074219 143.730469 384.777344 C 143.589844 385.476562 143.386719 386.15625 143.113281 386.816406 C 142.839844 387.480469 142.503906 388.105469 142.105469 388.699219 C 141.710938 389.296875 141.257812 389.84375 140.753906 390.351562 C 140.246094 390.855469 139.699219 391.308594 139.101562 391.707031 C 138.507812 392.101562 137.882812 392.4375 137.222656 392.710938 C 136.5625 392.984375 135.882812 393.191406 135.179688 393.332031 C 134.480469 393.46875 133.773438 393.539062 133.058594 393.539062 C 132.34375 393.539062 131.632812 393.46875 130.933594 393.332031 C 130.234375 393.191406 129.550781 392.984375 128.890625 392.710938 C 128.230469 392.4375 127.605469 392.101562 127.011719 391.707031 C 126.417969 391.308594 125.867188 390.855469 125.363281 390.351562 C 124.855469 389.84375 124.40625 389.296875 124.007812 388.699219 C 123.609375 388.105469 123.277344 387.480469 123.003906 386.816406 C 122.730469 386.15625 122.523438 385.476562 122.382812 384.777344 C 122.242188 384.074219 122.171875 383.367188 122.171875 382.652344 C 122.171875 381.9375 122.242188 381.226562 122.382812 380.527344 C 122.523438 379.824219 122.730469 379.144531 123.003906 378.484375 C 123.277344 377.824219 123.609375 377.195312 124.007812 376.601562 C 124.40625 376.007812 124.855469 375.457031 125.363281 374.953125 C 125.867188 374.445312 126.417969 373.996094 127.011719 373.597656 C 127.605469 373.199219 128.230469 372.863281 128.890625 372.589844 C 129.550781 372.316406 130.234375 372.109375 130.933594 371.972656 C 131.632812 371.832031 132.34375 371.761719 133.058594 371.761719 C 133.773438 371.761719 134.480469 371.832031 135.179688 371.972656 C 135.882812 372.109375 136.5625 372.316406 137.222656 372.589844 C 137.882812 372.863281 138.507812 373.199219 139.101562 373.597656 C 139.699219 373.996094 140.246094 374.445312 140.753906 374.953125 C 141.257812 375.457031 141.710938 376.007812 142.105469 376.601562 C 142.503906 377.195312 142.839844 377.824219 143.113281 378.484375 C 143.386719 379.144531 143.589844 379.824219 143.730469 380.527344 C 143.871094 381.226562 143.941406 381.9375 143.941406 382.652344 Z M 143.941406 382.652344 " fill-opacity="1" fill-rule="nonzero"/></svg>