<svg xmlns="http://www.w3.org/2000/svg" xmlns:xlink="http://www.w3.org/1999/xlink" width="414" zoomAndPan="magnify" viewBox="0 0 310.5 671.999985" height="896" preserveAspectRatio="xMidYMid meet" version="1.0"><defs><clipPath id="a1fb98e65f"><path d="M 110.691406 248.714844 L 198.757812 248.714844 L 198.757812 333.78125 L 110.691406 333.78125 Z M 110.691406 248.714844 " clip-rule="nonzero"/></clipPath></defs><path stroke-linecap="butt" transform="matrix(0, 1.281827, -1.289215, 0, 93.391738, 280.65938)" fill="none" stroke-linejoin="miter" d="M 0.000605481 -0.00216661 L 29.682351 -0.00216661 " stroke="#000000" stroke-width="1" stroke-opacity="1" stroke-miterlimit="4"/><path stroke-linecap="butt" transform="matrix(0, 1.289665, -1.289215, 0, 217.388975, 280.661661)" fill="none" stroke-linejoin="miter" d="M -0.00116697 -0.00127957 L 29.836405 -0.00127957 " stroke="#000000" stroke-width="1" stroke-opacity="1" stroke-miterlimit="4"/><path fill="#f18861" d="M 94.566406 363.859375 C 95.003906 363.859375 95.371094 364 95.660156 364.277344 C 95.957031 364.558594 96.105469 364.914062 96.105469 365.355469 C 96.105469 365.769531 95.957031 366.117188 95.660156 366.394531 C 95.371094 366.675781 95.003906 366.816406 94.566406 366.816406 L 86.363281 366.816406 C 85.921875 366.816406 85.554688 366.671875 85.257812 366.378906 C 84.96875 366.082031 84.824219 365.714844 84.824219 365.273438 L 84.824219 350.675781 C 84.824219 350.246094 84.972656 349.878906 85.277344 349.582031 C 85.578125 349.285156 85.964844 349.136719 86.433594 349.136719 C 86.855469 349.136719 87.21875 349.285156 87.523438 349.582031 C 87.824219 349.878906 87.976562 350.246094 87.976562 350.675781 L 87.976562 363.859375 Z M 94.566406 363.859375 " fill-opacity="1" fill-rule="nonzero"/><path fill="#f18861" d="M 116.453125 364.847656 C 116.535156 365.066406 116.574219 365.269531 116.574219 365.453125 C 116.574219 365.894531 116.433594 366.25 116.148438 366.53125 C 115.863281 366.804688 115.535156 366.941406 115.160156 366.941406 C 114.855469 366.941406 114.582031 366.847656 114.339844 366.664062 C 114.097656 366.480469 113.910156 366.226562 113.78125 365.90625 L 112.460938 362.851562 L 104.9375 362.851562 L 103.625 365.933594 C 103.507812 366.253906 103.324219 366.503906 103.082031 366.679688 C 102.839844 366.851562 102.574219 366.941406 102.289062 366.941406 C 101.851562 366.941406 101.515625 366.824219 101.285156 366.59375 C 101.058594 366.355469 100.945312 366.035156 100.945312 365.628906 C 100.945312 365.476562 100.972656 365.316406 101.027344 365.148438 L 107.3125 350.054688 C 107.441406 349.714844 107.644531 349.453125 107.910156 349.269531 C 108.183594 349.082031 108.488281 349.003906 108.828125 349.039062 C 109.128906 349.039062 109.410156 349.128906 109.671875 349.304688 C 109.933594 349.484375 110.125 349.734375 110.242188 350.054688 Z M 106.171875 359.949219 L 111.222656 359.949219 L 108.675781 354.035156 Z M 106.171875 359.949219 " fill-opacity="1" fill-rule="nonzero"/><path fill="#f18861" d="M 133.921875 349.136719 C 134.371094 349.136719 134.742188 349.273438 135.027344 349.546875 C 135.316406 349.8125 135.460938 350.167969 135.460938 350.605469 C 135.460938 351.046875 135.316406 351.394531 135.027344 351.65625 C 134.742188 351.917969 134.371094 352.046875 133.921875 352.046875 L 129.957031 352.046875 L 129.957031 365.273438 C 129.957031 365.714844 129.796875 366.082031 129.476562 366.378906 C 129.15625 366.671875 128.761719 366.816406 128.292969 366.816406 C 127.816406 366.816406 127.429688 366.671875 127.125 366.378906 C 126.824219 366.082031 126.671875 365.714844 126.671875 365.273438 L 126.671875 352.046875 L 122.707031 352.046875 C 122.25 352.046875 121.878906 351.914062 121.59375 351.648438 C 121.308594 351.375 121.167969 351.019531 121.167969 350.578125 C 121.167969 350.15625 121.3125 349.8125 121.605469 349.546875 C 121.898438 349.273438 122.265625 349.136719 122.707031 349.136719 Z M 133.921875 349.136719 " fill-opacity="1" fill-rule="nonzero"/><path fill="#f18861" d="M 151.6875 363.910156 C 152.125 363.910156 152.492188 364.0625 152.78125 364.355469 C 153.078125 364.648438 153.226562 364.988281 153.226562 365.371094 C 153.226562 365.796875 153.078125 366.140625 152.78125 366.414062 C 152.492188 366.679688 152.125 366.816406 151.6875 366.816406 L 143.234375 366.816406 C 142.792969 366.816406 142.425781 366.671875 142.128906 366.378906 C 141.839844 366.082031 141.695312 365.714844 141.695312 365.273438 L 141.695312 350.675781 C 141.695312 350.246094 141.839844 349.878906 142.128906 349.582031 C 142.425781 349.285156 142.792969 349.136719 143.234375 349.136719 L 151.6875 349.136719 C 152.125 349.136719 152.492188 349.277344 152.78125 349.554688 C 153.078125 349.835938 153.226562 350.195312 153.226562 350.632812 C 153.226562 351.054688 153.085938 351.394531 152.800781 351.65625 C 152.515625 351.917969 152.144531 352.046875 151.6875 352.046875 L 144.847656 352.046875 L 144.847656 356.332031 L 150.554688 356.332031 C 150.988281 356.332031 151.351562 356.472656 151.652344 356.75 C 151.949219 357.03125 152.097656 357.390625 152.097656 357.828125 C 152.097656 358.25 151.949219 358.59375 151.660156 358.851562 C 151.375 359.109375 151.003906 359.234375 150.554688 359.234375 L 144.847656 359.234375 L 144.847656 363.910156 Z M 151.6875 363.910156 " fill-opacity="1" fill-rule="nonzero"/><path fill="#f18861" d="M 180.96875 357.019531 C 181.863281 357.375 182.59375 357.914062 183.160156 358.640625 C 183.722656 359.359375 184.003906 360.292969 184.003906 361.433594 C 184.003906 363.445312 183.429688 364.84375 182.285156 365.628906 C 181.140625 366.421875 179.773438 366.816406 178.1875 366.816406 L 171.910156 366.816406 C 171.46875 366.816406 171.101562 366.671875 170.804688 366.378906 C 170.515625 366.082031 170.371094 365.714844 170.371094 365.273438 L 170.371094 350.675781 C 170.371094 350.246094 170.515625 349.878906 170.804688 349.582031 C 171.101562 349.285156 171.46875 349.136719 171.910156 349.136719 L 178.269531 349.136719 C 181.46875 349.136719 183.070312 350.636719 183.070312 353.632812 C 183.070312 354.394531 182.886719 355.066406 182.527344 355.644531 C 182.164062 356.222656 181.644531 356.679688 180.96875 357.019531 Z M 179.78125 354.1875 C 179.78125 353.496094 179.609375 352.980469 179.265625 352.636719 C 178.921875 352.292969 178.4375 352.121094 177.816406 352.121094 L 173.648438 352.121094 L 173.648438 356.054688 L 177.886719 356.054688 C 178.394531 356.054688 178.839844 355.890625 179.214844 355.558594 C 179.589844 355.21875 179.78125 354.761719 179.78125 354.1875 Z M 178.1875 363.910156 C 178.984375 363.910156 179.605469 363.703125 180.050781 363.277344 C 180.496094 362.859375 180.71875 362.242188 180.71875 361.433594 C 180.71875 360.445312 180.457031 359.796875 179.933594 359.492188 C 179.410156 359.191406 178.773438 359.039062 178.019531 359.039062 L 173.648438 359.039062 L 173.648438 363.910156 Z M 178.1875 363.910156 " fill-opacity="1" fill-rule="nonzero"/><path fill="#f18861" d="M 206.742188 357.980469 C 206.742188 359.644531 206.371094 361.167969 205.628906 362.558594 C 204.890625 363.945312 203.867188 365.046875 202.5625 365.851562 C 201.257812 366.660156 199.789062 367.0625 198.15625 367.0625 C 196.519531 367.0625 195.050781 366.660156 193.746094 365.851562 C 192.445312 365.046875 191.425781 363.945312 190.691406 362.558594 C 189.960938 361.167969 189.597656 359.644531 189.597656 357.980469 C 189.597656 356.3125 189.960938 354.78125 190.691406 353.394531 C 191.425781 352.003906 192.445312 350.90625 193.746094 350.097656 C 195.050781 349.292969 196.519531 348.886719 198.15625 348.886719 C 199.789062 348.886719 201.257812 349.292969 202.5625 350.097656 C 203.867188 350.90625 204.890625 352.003906 205.628906 353.394531 C 206.371094 354.78125 206.742188 356.3125 206.742188 357.980469 Z M 203.464844 357.980469 C 203.464844 356.851562 203.234375 355.832031 202.777344 354.917969 C 202.324219 353.996094 201.695312 353.265625 200.890625 352.726562 C 200.082031 352.1875 199.171875 351.914062 198.15625 351.914062 C 197.132812 351.914062 196.222656 352.183594 195.421875 352.714844 C 194.621094 353.246094 193.996094 353.972656 193.550781 354.898438 C 193.105469 355.824219 192.882812 356.851562 192.882812 357.980469 C 192.882812 359.109375 193.105469 360.136719 193.550781 361.0625 C 193.996094 361.988281 194.621094 362.714844 195.421875 363.242188 C 196.222656 363.773438 197.132812 364.035156 198.15625 364.035156 C 199.171875 364.035156 200.082031 363.769531 200.890625 363.234375 C 201.695312 362.695312 202.324219 361.96875 202.777344 361.050781 C 203.234375 360.132812 203.464844 359.109375 203.464844 357.980469 Z M 203.464844 357.980469 " fill-opacity="1" fill-rule="nonzero"/><path fill="#f18861" d="M 226.402344 364.492188 C 226.609375 364.765625 226.714844 365.074219 226.714844 365.425781 C 226.714844 365.867188 226.554688 366.226562 226.234375 366.511719 C 225.914062 366.796875 225.566406 366.941406 225.191406 366.941406 C 224.703125 366.941406 224.292969 366.722656 223.960938 366.28125 L 219.464844 360.304688 L 215.089844 366.234375 C 214.757812 366.707031 214.339844 366.941406 213.835938 366.941406 C 213.460938 366.941406 213.140625 366.804688 212.875 366.539062 C 212.605469 366.265625 212.472656 365.957031 212.472656 365.605469 C 212.472656 365.234375 212.597656 364.890625 212.847656 364.570312 L 217.71875 357.980469 L 212.847656 351.515625 C 212.625 351.246094 212.519531 350.945312 212.519531 350.605469 C 212.519531 350.183594 212.679688 349.820312 213 349.519531 C 213.320312 349.214844 213.671875 349.066406 214.058594 349.066406 C 214.542969 349.066406 214.957031 349.285156 215.296875 349.722656 L 219.742188 355.628906 L 224.085938 349.847656 C 224.25 349.613281 224.445312 349.429688 224.664062 349.304688 C 224.882812 349.179688 225.105469 349.117188 225.324219 349.117188 C 225.691406 349.117188 226.019531 349.265625 226.304688 349.5625 C 226.589844 349.855469 226.730469 350.175781 226.730469 350.523438 C 226.730469 350.847656 226.621094 351.148438 226.402344 351.433594 L 221.488281 357.925781 Z M 226.402344 364.492188 " fill-opacity="1" fill-rule="nonzero"/><path stroke-linecap="butt" transform="matrix(1.283868, 0, 0, 1.289215, 79.657588, 372.895641)" fill="none" stroke-linejoin="miter" d="M -0.00104184 -0.00086101 L 117.210683 -0.00086101 " stroke="#000000" stroke-width="1" stroke-opacity="1" stroke-miterlimit="4"/><g clip-path="url(#a1fb98e65f)"><path fill="#f18861" d="M 188.398438 330.871094 L 154.871094 330.871094 L 150.785156 316.171875 L 192.488281 316.171875 Z M 117.921875 310.308594 L 148.585938 310.308594 L 147.761719 313.261719 L 145.972656 313.261719 C 145.167969 313.261719 144.515625 313.914062 144.515625 314.714844 C 144.515625 315.519531 145.167969 316.171875 145.972656 316.171875 L 147.761719 316.171875 L 151.851562 330.871094 L 123.640625 330.871094 Z M 154.871094 298.5625 L 188.398438 298.5625 L 192.488281 313.261719 L 150.785156 313.261719 Z M 125.117188 269.230469 L 166.824219 269.230469 L 162.734375 283.929688 L 129.207031 283.929688 Z M 129.207031 251.625 L 162.734375 251.625 L 166.824219 266.320312 L 125.117188 266.320312 Z M 197.300781 316.171875 C 198.101562 316.171875 198.757812 315.519531 198.757812 314.714844 C 198.757812 313.914062 198.101562 313.261719 197.300781 313.261719 L 195.507812 313.261719 L 190.90625 296.71875 C 190.734375 296.089844 190.160156 295.65625 189.507812 295.65625 L 153.765625 295.65625 C 153.113281 295.65625 152.539062 296.089844 152.363281 296.71875 L 149.394531 307.398438 L 117.921875 307.398438 L 123.644531 286.839844 L 169.070312 286.839844 L 169.914062 289.871094 C 170.128906 290.648438 170.933594 291.097656 171.707031 290.886719 C 172.480469 290.667969 172.933594 289.867188 172.71875 289.09375 L 171.578125 284.992188 C 171.402344 284.367188 170.832031 283.929688 170.175781 283.929688 L 165.757812 283.929688 L 169.84375 269.230469 L 171.632812 269.230469 C 172.4375 269.230469 173.089844 268.578125 173.089844 267.777344 C 173.089844 266.972656 172.4375 266.320312 171.632812 266.320312 L 169.84375 266.320312 L 165.242188 249.777344 C 165.066406 249.152344 164.496094 248.714844 163.839844 248.714844 L 128.101562 248.714844 C 127.445312 248.714844 126.875 249.152344 126.699219 249.777344 L 122.097656 266.320312 L 120.304688 266.320312 C 119.5 266.320312 118.851562 266.972656 118.851562 267.777344 C 118.851562 268.578125 119.5 269.230469 120.304688 269.230469 L 122.097656 269.230469 L 126.183594 283.929688 L 122.535156 283.929688 C 121.882812 283.929688 121.308594 284.367188 121.132812 284.992188 L 114.902344 307.398438 L 112.144531 307.398438 C 111.339844 307.398438 110.691406 308.050781 110.691406 308.855469 C 110.691406 309.65625 111.339844 310.308594 112.144531 310.308594 L 114.902344 310.308594 L 120.621094 330.871094 L 115.289062 330.871094 C 114.484375 330.871094 113.832031 331.519531 113.832031 332.324219 C 113.832031 333.128906 114.484375 333.777344 115.289062 333.777344 L 122.527344 333.777344 C 122.53125 333.777344 122.53125 333.78125 122.535156 333.78125 C 122.539062 333.78125 122.539062 333.777344 122.542969 333.777344 L 196.097656 333.777344 C 196.902344 333.777344 197.550781 333.128906 197.550781 332.324219 C 197.550781 331.519531 196.902344 330.871094 196.097656 330.871094 L 191.421875 330.871094 L 195.507812 316.171875 L 197.300781 316.171875 " fill-opacity="1" fill-rule="nonzero"/></g></svg>