<svg xmlns="http://www.w3.org/2000/svg" xmlns:xlink="http://www.w3.org/1999/xlink" zoomAndPan="magnify" preserveAspectRatio="xMidYMid meet" version="1.0" viewBox="31.09 204.75 246.33 263.69"><path fill="#599344" d="M 267.507812 280.949219 C 260.425781 279.636719 250.699219 283.414062 240.386719 290.722656 C 245.867188 282.425781 250.65625 272.59375 254.066406 261.996094 C 263.960938 231.25 258.574219 205.632812 242.042969 204.769531 C 226.332031 203.933594 206.195312 225.785156 195.746094 254.339844 C 185.949219 247.46875 176.234375 244.289062 168.679688 246.351562 C 155.542969 249.933594 152.996094 268.214844 161.121094 290.109375 C 156.28125 288.714844 151.785156 288.476562 147.929688 289.621094 C 132.121094 294.320312 133.347656 320.4375 150.699219 347.949219 C 157.308594 358.4375 165.574219 369.492188 177.363281 377.917969 C 181.691406 381.011719 186.644531 383.746094 191.738281 386.351562 C 195.160156 388.097656 199.585938 390.785156 204.707031 390.496094 C 211.246094 390.132812 216.882812 384.734375 220.082031 381.597656 C 225.105469 376.648438 232.328125 372.660156 237.492188 367.765625 C 243.28125 362.296875 248.347656 356.539062 252.882812 350.695312 C 255.652344 347.113281 258.238281 343.488281 260.632812 339.835938 C 279.992188 310.203125 283.066406 283.835938 267.507812 280.949219 " fill-opacity="1" fill-rule="nonzero"/><path fill="#8ed24d" d="M 234.195312 234.707031 C 234.195312 234.707031 233.179688 237.859375 231.605469 243.492188 C 230.019531 249.097656 227.875 257.171875 225.636719 266.90625 C 223.367188 276.640625 221.03125 288.046875 219.027344 300.316406 C 217.996094 306.4375 217.117188 312.796875 216.324219 319.226562 C 215.921875 322.445312 215.601562 325.707031 215.253906 328.957031 C 214.976562 332.222656 214.640625 335.484375 214.433594 338.761719 C 214.238281 342.023438 213.972656 345.285156 213.890625 348.535156 C 213.738281 351.785156 213.625 355.003906 213.625 358.199219 C 213.613281 359.789062 213.597656 361.378906 213.585938 362.953125 C 213.613281 364.53125 213.652344 366.105469 213.683594 367.652344 C 213.695312 370.761719 213.90625 373.816406 214.058594 376.816406 C 214.40625 382.796875 215.03125 388.515625 215.78125 393.839844 C 216.132812 396.53125 216.671875 399.054688 217.089844 401.539062 C 217.523438 404.007812 218.164062 406.320312 218.648438 408.566406 C 218.886719 409.695312 219.164062 410.769531 219.5 411.800781 C 219.789062 412.847656 220.097656 413.863281 220.375 414.855469 C 220.902344 416.847656 221.570312 418.648438 222.199219 420.335938 C 223.324219 423.792969 224.675781 426.554688 225.675781 428.867188 C 226.136719 430.039062 226.707031 430.988281 227.167969 431.839844 C 227.613281 432.691406 228 433.414062 228.320312 433.988281 C 228.933594 435.15625 229.265625 435.769531 229.265625 435.769531 L 229.710938 436.621094 C 233.847656 444.445312 230.882812 454.136719 223.089844 458.292969 C 215.28125 462.445312 205.609375 459.460938 201.464844 451.652344 C 201.171875 451.097656 200.878906 450.441406 200.65625 449.867188 C 200.65625 449.867188 200.308594 448.960938 199.65625 447.246094 C 199.335938 446.410156 198.929688 445.351562 198.472656 444.109375 C 198.011719 442.867188 197.429688 441.472656 196.996094 439.855469 C 196.066406 436.636719 194.8125 432.757812 193.933594 428.285156 C 193.433594 426.039062 192.890625 423.667969 192.558594 421.171875 C 192.363281 419.917969 192.167969 418.648438 191.960938 417.324219 C 191.738281 416.027344 191.570312 414.6875 191.445312 413.320312 C 191.207031 410.601562 190.832031 407.757812 190.691406 404.84375 C 190.566406 401.929688 190.332031 398.902344 190.316406 395.835938 C 190.234375 389.683594 190.371094 383.257812 190.832031 376.675781 C 191.082031 373.382812 191.277344 370.050781 191.695312 366.707031 C 191.875 365.03125 192.058594 363.34375 192.238281 361.65625 C 192.460938 359.984375 192.695312 358.28125 192.933594 356.59375 C 193.363281 353.207031 193.921875 349.820312 194.507812 346.429688 C 195.035156 343.027344 195.746094 339.652344 196.398438 336.277344 C 197.039062 332.890625 197.832031 329.558594 198.527344 326.210938 C 199.335938 322.890625 200.101562 319.585938 200.921875 316.324219 C 202.605469 309.8125 204.332031 303.441406 206.179688 297.332031 C 209.8125 285.101562 213.652344 273.878906 217.1875 264.367188 C 220.710938 254.84375 223.882812 247.019531 226.207031 241.582031 C 228.503906 236.144531 229.949219 233.0625 229.949219 233.0625 C 230.476562 231.917969 231.828125 231.417969 232.96875 231.945312 C 234.027344 232.433594 234.527344 233.632812 234.195312 234.707031 " fill-opacity="1" fill-rule="nonzero"/><path fill="#8ed24d" d="M 194.546875 360.484375 C 194.546875 360.484375 194.394531 360.320312 194.117188 359.984375 C 193.839844 359.648438 193.40625 359.160156 192.878906 358.546875 C 191.835938 357.320312 190.289062 355.648438 188.464844 353.640625 C 187.546875 352.648438 186.53125 351.574219 185.476562 350.445312 C 184.417969 349.332031 183.277344 348.160156 182.121094 346.945312 C 179.78125 344.519531 177.292969 341.941406 174.800781 339.359375 C 173.605469 338.035156 172.339844 336.78125 171.15625 335.457031 C 169.972656 334.144531 168.789062 332.875 167.675781 331.59375 C 166.5625 330.324219 165.492188 329.097656 164.515625 327.882812 C 163.515625 326.683594 162.582031 325.554688 161.789062 324.425781 C 160.953125 323.339844 160.191406 322.335938 159.589844 321.34375 C 158.992188 320.367188 158.378906 319.628906 158.03125 318.820312 C 157.238281 317.300781 156.792969 316.4375 156.792969 316.4375 C 156.210938 315.320312 156.65625 313.941406 157.769531 313.367188 C 158.867188 312.796875 160.246094 313.230469 160.816406 314.332031 C 160.828125 314.34375 160.828125 314.359375 160.828125 314.359375 L 160.996094 314.691406 C 160.996094 314.691406 161.34375 315.402344 161.957031 316.632812 C 162.222656 317.246094 162.820312 317.96875 163.347656 318.792969 C 163.890625 319.644531 164.628906 320.535156 165.449219 321.511719 C 166.242188 322.5 167.1875 323.503906 168.21875 324.566406 C 169.207031 325.652344 170.375 326.710938 171.546875 327.8125 C 172.699219 328.945312 174.023438 330.003906 175.300781 331.121094 C 176.582031 332.234375 177.960938 333.324219 179.324219 334.394531 C 180.703125 335.441406 182.09375 336.5 183.457031 337.535156 C 184.847656 338.539062 186.226562 339.5 187.574219 340.433594 C 190.304688 342.246094 192.90625 343.851562 195.203125 345.160156 C 197.484375 346.445312 199.445312 347.449219 200.835938 348.101562 C 201.535156 348.453125 202.0625 348.675781 202.4375 348.828125 C 202.8125 348.996094 203.023438 349.09375 203.023438 349.09375 C 206.722656 350.683594 208.421875 354.992188 206.808594 358.6875 C 205.207031 362.394531 200.921875 364.097656 197.234375 362.492188 C 196.160156 362.035156 195.242188 361.324219 194.546875 360.484375 " fill-opacity="1" fill-rule="nonzero"/><path fill="#8ed24d" d="M 206.460938 334.410156 C 206.460938 334.410156 207.417969 334.019531 209.035156 333.292969 C 210.632812 332.554688 212.945312 331.539062 215.671875 330.199219 C 217.035156 329.515625 218.523438 328.804688 220.070312 327.996094 C 221.613281 327.1875 223.226562 326.324219 224.910156 325.429688 C 226.582031 324.523438 228.308594 323.589844 230.03125 322.585938 C 231.757812 321.582031 233.496094 320.550781 235.238281 319.53125 C 237.003906 318.527344 238.703125 317.425781 240.371094 316.339844 C 242.042969 315.25 243.683594 314.191406 245.257812 313.132812 C 246.855469 312.097656 248.289062 310.96875 249.683594 309.925781 C 251.058594 308.878906 252.382812 307.902344 253.5625 306.96875 C 254.804688 306.074219 255.761719 305.085938 256.679688 304.277344 C 257.585938 303.453125 258.367188 302.730469 258.992188 302.113281 C 260.257812 300.902344 260.980469 300.203125 260.980469 300.203125 L 261.09375 300.105469 C 261.691406 299.519531 262.664062 299.535156 263.265625 300.148438 C 263.847656 300.761719 263.835938 301.738281 263.207031 302.324219 C 263.179688 302.351562 263.136719 302.394531 263.097656 302.421875 C 263.097656 302.421875 262.289062 303.0625 260.871094 304.179688 C 260.175781 304.75 259.324219 305.433594 258.367188 306.242188 C 257.878906 306.648438 257.378906 307.078125 256.835938 307.527344 C 256.304688 308 255.734375 308.460938 255.109375 308.90625 C 253.871094 309.8125 252.5625 310.832031 251.171875 311.902344 C 249.765625 312.949219 248.359375 314.175781 246.816406 315.277344 C 243.710938 317.523438 240.496094 320.0625 237.199219 322.472656 C 230.632812 327.328125 224.050781 332.191406 219.109375 335.847656 C 216.644531 337.699219 214.585938 339.261719 213.152344 340.335938 C 211.71875 341.4375 210.914062 342.066406 210.914062 342.066406 L 210.855469 342.105469 C 208.894531 343.613281 206.097656 343.238281 204.59375 341.285156 C 203.09375 339.320312 203.453125 336.515625 205.414062 335.007812 C 205.734375 334.757812 206.113281 334.550781 206.460938 334.410156 " fill-opacity="1" fill-rule="nonzero"/><path fill="#8ed24d" d="M 207.292969 308.238281 C 207.292969 308.238281 204.859375 305.992188 201.214844 302.632812 C 199.417969 300.957031 197.332031 298.992188 195.132812 296.871094 C 192.917969 294.753906 190.609375 292.4375 188.367188 290.054688 C 187.242188 288.867188 186.144531 287.640625 185.085938 286.425781 C 184.011719 285.214844 183.027344 283.960938 182.050781 282.746094 C 181.105469 281.53125 180.199219 280.320312 179.394531 279.121094 C 178.601562 277.933594 177.890625 276.765625 177.277344 275.648438 C 176.652344 274.546875 176.136719 273.488281 175.71875 272.523438 C 175.316406 271.535156 174.996094 270.671875 174.800781 269.902344 C 174.550781 269.179688 174.453125 268.550781 174.355469 268.132812 C 174.273438 267.714844 174.214844 267.492188 174.214844 267.492188 C 173.992188 266.417969 174.691406 265.371094 175.761719 265.148438 C 176.832031 264.925781 177.890625 265.609375 178.113281 266.683594 C 178.113281 266.710938 178.113281 266.722656 178.128906 266.753906 L 178.15625 266.949219 C 178.15625 266.949219 178.183594 267.128906 178.238281 267.449219 C 178.308594 267.769531 178.335938 268.246094 178.53125 268.859375 C 178.667969 269.457031 178.949219 270.183594 179.269531 271.03125 C 179.628906 271.855469 180.046875 272.804688 180.617188 273.792969 C 181.175781 274.785156 181.855469 275.828125 182.609375 276.902344 C 183.375 277.992188 184.234375 279.105469 185.15625 280.234375 C 187.03125 282.480469 189.203125 284.753906 191.5 286.914062 C 193.796875 289.0625 196.203125 291.125 198.527344 292.96875 C 200.867188 294.792969 203.121094 296.398438 205.097656 297.707031 C 207.058594 299.046875 208.769531 300.066406 209.953125 300.75 C 210.535156 301.109375 211.011719 301.363281 211.332031 301.527344 C 211.648438 301.695312 211.816406 301.78125 211.816406 301.78125 C 213.75 302.8125 214.503906 305.210938 213.488281 307.148438 C 212.472656 309.085938 210.078125 309.839844 208.128906 308.820312 C 207.835938 308.65625 207.546875 308.445312 207.292969 308.238281 " fill-opacity="1" fill-rule="nonzero"/><path fill="#8ed24d" d="M 187.421875 283.640625 C 187.421875 283.640625 187.464844 283.597656 187.5625 283.527344 C 187.632812 283.484375 187.757812 283.386719 187.9375 283.234375 C 188.285156 282.941406 188.785156 282.480469 189.355469 281.867188 C 190.5 280.640625 191.820312 278.785156 192.683594 276.679688 C 192.917969 276.152344 193.074219 275.605469 193.253906 275.0625 C 193.449219 274.53125 193.503906 273.976562 193.644531 273.445312 C 193.78125 272.914062 193.78125 272.386719 193.851562 271.882812 C 193.933594 271.382812 193.921875 270.90625 193.921875 270.460938 C 193.90625 270.027344 193.949219 269.609375 193.90625 269.25 C 193.867188 268.886719 193.839844 268.566406 193.808594 268.3125 C 193.753906 267.785156 193.726562 267.476562 193.726562 267.476562 L 193.710938 267.378906 C 193.65625 266.890625 194.019531 266.445312 194.507812 266.402344 C 194.953125 266.363281 195.339844 266.625 195.453125 267.03125 C 195.453125 267.03125 195.550781 267.351562 195.714844 267.894531 C 195.800781 268.1875 195.898438 268.523438 196.023438 268.914062 C 196.148438 269.289062 196.191406 269.765625 196.289062 270.253906 C 196.382812 270.742188 196.496094 271.285156 196.523438 271.871094 C 196.550781 272.441406 196.664062 273.070312 196.621094 273.695312 C 196.59375 274.339844 196.621094 275.019531 196.511719 275.691406 C 196.441406 276.359375 196.371094 277.058594 196.203125 277.726562 C 195.660156 280.460938 194.476562 283.039062 193.351562 284.839844 C 192.792969 285.746094 192.25 286.457031 191.847656 286.972656 C 191.652344 287.207031 191.472656 287.417969 191.320312 287.585938 C 191.207031 287.710938 191.136719 287.78125 191.136719 287.78125 C 190.109375 288.921875 188.328125 289.007812 187.199219 287.960938 C 186.058594 286.914062 185.976562 285.144531 187.019531 284 C 187.128906 283.863281 187.253906 283.75 187.394531 283.652344 L 187.421875 283.640625 " fill-opacity="1" fill-rule="nonzero"/><path fill="#8ed24d" d="M 181.328125 341.5625 C 181.328125 341.5625 181.355469 341.507812 181.425781 341.410156 C 181.480469 341.339844 181.550781 341.199219 181.675781 341.003906 C 181.882812 340.601562 182.203125 340.015625 182.523438 339.277344 C 183.191406 337.796875 183.945312 335.707031 184.347656 333.546875 C 184.570312 332.457031 184.695312 331.355469 184.765625 330.324219 C 184.808594 329.792969 184.792969 329.304688 184.792969 328.820312 C 184.808594 328.34375 184.792969 327.882812 184.738281 327.480469 C 184.695312 326.628906 184.585938 325.933594 184.5 325.457031 C 184.429688 324.96875 184.375 324.691406 184.375 324.691406 L 184.363281 324.59375 C 184.265625 324.007812 184.667969 323.449219 185.253906 323.367188 C 185.765625 323.28125 186.253906 323.574219 186.421875 324.0625 C 186.421875 324.0625 186.53125 324.34375 186.714844 324.871094 C 186.90625 325.375 187.160156 326.113281 187.382812 327.035156 C 187.519531 327.480469 187.632812 327.980469 187.714844 328.511719 C 187.8125 329.054688 187.921875 329.613281 187.980469 330.199219 C 188.132812 331.371094 188.214844 332.640625 188.1875 333.921875 C 188.160156 336.460938 187.769531 338.996094 187.296875 340.878906 C 187.074219 341.816406 186.824219 342.59375 186.644531 343.152344 C 186.546875 343.433594 186.460938 343.65625 186.394531 343.835938 C 186.335938 343.988281 186.308594 344.058594 186.308594 344.058594 C 185.753906 345.511719 184.125 346.222656 182.691406 345.648438 C 181.246094 345.089844 180.535156 343.472656 181.105469 342.023438 C 181.160156 341.871094 181.246094 341.703125 181.328125 341.5625 " fill-opacity="1" fill-rule="nonzero"/><path fill="#8ed24d" d="M 174.203125 334.675781 C 174.203125 334.675781 174.132812 334.730469 173.980469 334.84375 C 173.800781 334.953125 173.519531 335.148438 173.230469 335.316406 C 172.601562 335.707031 171.710938 336.195312 170.613281 336.726562 C 170.070312 336.988281 169.457031 337.242188 168.804688 337.492188 C 168.136719 337.714844 167.46875 338.007812 166.703125 338.1875 L 165.574219 338.480469 C 165.171875 338.539062 164.769531 338.605469 164.363281 338.675781 C 163.570312 338.84375 162.695312 338.800781 161.875 338.84375 C 161.457031 338.832031 161.023438 338.773438 160.621094 338.734375 C 160.203125 338.691406 159.785156 338.648438 159.382812 338.507812 C 158.980469 338.410156 158.589844 338.285156 158.199219 338.1875 C 157.796875 338.078125 157.449219 337.855469 157.101562 337.6875 C 156.753906 337.503906 156.40625 337.351562 156.085938 337.15625 C 155.792969 336.933594 155.5 336.710938 155.222656 336.488281 C 154.945312 336.277344 154.664062 336.070312 154.429688 335.859375 C 154.21875 335.609375 154.011719 335.371094 153.816406 335.148438 C 153.441406 334.675781 153.035156 334.3125 152.8125 333.894531 C 152.5625 333.488281 152.355469 333.128906 152.1875 332.835938 C 151.855469 332.261719 151.660156 331.941406 151.660156 331.941406 C 151.535156 331.71875 151.605469 331.425781 151.828125 331.300781 C 152.007812 331.1875 152.257812 331.230469 152.398438 331.398438 L 152.453125 331.453125 C 152.453125 331.453125 152.6875 331.71875 153.105469 332.191406 C 153.316406 332.417969 153.566406 332.707031 153.84375 333.03125 C 154.121094 333.363281 154.554688 333.601562 154.945312 333.9375 C 155.136719 334.089844 155.359375 334.257812 155.570312 334.425781 C 155.804688 334.5625 156.070312 334.675781 156.320312 334.816406 C 156.570312 334.941406 156.835938 335.078125 157.101562 335.203125 C 157.378906 335.316406 157.671875 335.371094 157.964844 335.457031 C 158.269531 335.511719 158.546875 335.652344 158.855469 335.664062 C 159.160156 335.679688 159.464844 335.707031 159.785156 335.722656 C 160.398438 335.804688 161.050781 335.636719 161.679688 335.59375 C 162.304688 335.414062 162.929688 335.34375 163.53125 335.078125 C 163.835938 334.96875 164.128906 334.855469 164.421875 334.746094 C 164.710938 334.605469 164.992188 334.464844 165.269531 334.328125 C 165.824219 334.089844 166.339844 333.726562 166.839844 333.460938 C 167.316406 333.128906 167.761719 332.835938 168.175781 332.542969 C 168.984375 331.929688 169.625 331.382812 170.027344 330.992188 C 170.25 330.796875 170.375 330.671875 170.472656 330.574219 L 170.65625 330.394531 L 170.667969 330.367188 C 171.765625 329.277344 173.535156 329.277344 174.621094 330.367188 C 175.71875 331.46875 175.71875 333.238281 174.621094 334.328125 C 174.496094 334.464844 174.355469 334.578125 174.203125 334.675781 " fill-opacity="1" fill-rule="nonzero"/><path fill="#8ed24d" d="M 230.660156 324.382812 C 230.660156 324.382812 230.757812 324.410156 230.921875 324.453125 C 231.046875 324.496094 231.328125 324.566406 231.675781 324.648438 C 232.371094 324.800781 233.402344 325.011719 234.679688 325.152344 C 235.960938 325.277344 237.464844 325.386719 239.105469 325.359375 C 239.925781 325.375 240.777344 325.320312 241.636719 325.261719 C 242.5 325.222656 243.363281 325.082031 244.253906 324.996094 C 245.117188 324.84375 245.996094 324.703125 246.855469 324.566406 C 247.707031 324.371094 248.554688 324.175781 249.363281 323.992188 C 250.167969 323.769531 250.933594 323.546875 251.6875 323.324219 C 252.421875 323.128906 253.089844 322.835938 253.730469 322.628906 C 255.011719 322.207031 256.042969 321.722656 256.765625 321.414062 C 257.503906 321.105469 257.921875 320.925781 257.921875 320.925781 L 257.960938 320.910156 C 258.449219 320.703125 258.992188 320.925781 259.199219 321.398438 C 259.394531 321.847656 259.214844 322.347656 258.8125 322.585938 C 258.8125 322.585938 258.40625 322.824219 257.699219 323.242188 C 256.988281 323.644531 255.984375 324.273438 254.71875 324.886719 C 254.078125 325.191406 253.410156 325.582031 252.660156 325.890625 C 251.910156 326.210938 251.117188 326.558594 250.308594 326.90625 C 249.472656 327.214844 248.597656 327.523438 247.71875 327.84375 C 246.816406 328.105469 245.910156 328.398438 244.976562 328.652344 C 244.046875 328.875 243.128906 329.140625 242.195312 329.304688 C 241.261719 329.472656 240.34375 329.65625 239.441406 329.753906 C 237.644531 330.019531 235.933594 330.117188 234.457031 330.144531 C 232.96875 330.171875 231.730469 330.085938 230.839844 330.003906 C 230.378906 329.949219 230.046875 329.921875 229.742188 329.863281 C 229.488281 329.824219 229.363281 329.808594 229.363281 329.808594 C 227.847656 329.558594 226.816406 328.121094 227.054688 326.601562 C 227.304688 325.066406 228.738281 324.035156 230.269531 324.285156 C 230.378906 324.300781 230.492188 324.328125 230.589844 324.355469 L 230.660156 324.382812 " fill-opacity="1" fill-rule="nonzero"/><path fill="#8ed24d" d="M 242.375 313.550781 C 242.375 313.550781 242.890625 312.363281 243.515625 310.550781 C 244.144531 308.753906 244.851562 306.3125 245.453125 303.859375 C 246.0625 301.417969 246.59375 298.949219 246.941406 297.082031 C 247.261719 295.210938 247.414062 293.957031 247.414062 293.957031 C 247.457031 293.59375 247.789062 293.34375 248.152344 293.386719 C 248.511719 293.425781 248.761719 293.761719 248.722656 294.125 C 248.722656 294.152344 248.707031 294.179688 248.707031 294.207031 C 248.707031 294.207031 248.375 295.4375 247.957031 297.277344 C 247.539062 299.132812 247.066406 301.613281 246.703125 304.109375 C 246.3125 306.617188 246.035156 309.128906 245.910156 311.039062 C 245.785156 312.949219 245.800781 314.234375 245.800781 314.234375 C 245.8125 315.222656 245.019531 316.03125 244.03125 316.046875 C 243.058594 316.058594 242.238281 315.265625 242.238281 314.273438 C 242.238281 314.023438 242.292969 313.773438 242.375 313.550781 " fill-opacity="1" fill-rule="nonzero"/><path fill="#599344" d="M 116.898438 316.296875 C 111.761719 321.359375 109.285156 331.507812 109.355469 344.171875 C 105.710938 334.910156 100.40625 325.359375 93.6875 316.476562 C 74.203125 290.75 50.15625 280.5 39.984375 293.582031 C 30.3125 306.019531 36.644531 335.066406 54.027344 359.996094 C 42.796875 364.113281 34.640625 370.273438 31.984375 377.664062 C 27.40625 390.507812 40.890625 403.070312 63.460938 408.929688 C 59.535156 412.109375 56.78125 415.675781 55.515625 419.484375 C 50.296875 435.171875 72.367188 449.117188 104.804688 450.621094 C 117.175781 451.195312 130.953125 450.746094 144.589844 445.882812 C 149.601562 444.097656 154.679688 441.601562 159.730469 438.910156 C 163.113281 437.097656 167.84375 434.992188 170.542969 430.625 C 173.992188 425.035156 172.8125 417.324219 172.058594 412.890625 C 170.90625 405.945312 171.765625 397.730469 170.738281 390.675781 C 169.570312 382.78125 167.761719 375.324219 165.574219 368.253906 C 164.238281 363.929688 162.75 359.734375 161.136719 355.675781 C 147.972656 322.808594 128.167969 305.167969 116.898438 316.296875 " fill-opacity="1" fill-rule="nonzero"/><path fill="#8ed24d" d="M 59.996094 317.1875 C 59.996094 317.1875 61.984375 319.808594 65.6875 324.34375 C 69.375 328.859375 74.746094 335.234375 81.425781 342.652344 C 88.09375 350.082031 96.09375 358.535156 104.972656 367.207031 C 109.398438 371.558594 114.085938 375.910156 118.902344 380.273438 C 121.308594 382.433594 123.785156 384.566406 126.234375 386.714844 C 128.753906 388.808594 131.230469 390.953125 133.792969 393.003906 C 136.351562 395.039062 138.871094 397.117188 141.472656 399.042969 C 144.046875 401.023438 146.621094 402.972656 149.222656 404.800781 C 150.53125 405.722656 151.828125 406.640625 153.105469 407.5625 C 154.414062 408.425781 155.707031 409.304688 157.003906 410.167969 C 159.550781 411.941406 162.179688 413.515625 164.710938 415.105469 C 169.804688 418.242188 174.828125 421.003906 179.628906 423.445312 C 182.023438 424.699219 184.417969 425.691406 186.671875 426.777344 C 188.941406 427.835938 191.195312 428.632812 193.308594 429.523438 C 194.367188 429.96875 195.410156 430.359375 196.441406 430.683594 C 197.46875 431.03125 198.472656 431.363281 199.445312 431.699219 C 201.378906 432.410156 203.246094 432.886719 204.984375 433.34375 C 208.449219 434.390625 211.46875 434.863281 213.945312 435.382812 C 215.183594 435.671875 216.285156 435.742188 217.230469 435.855469 C 218.191406 435.964844 218.996094 436.0625 219.652344 436.148438 C 220.960938 436.300781 221.65625 436.386719 221.65625 436.386719 L 222.601562 436.511719 C 231.367188 437.585938 237.601562 445.574219 236.53125 454.359375 C 235.460938 463.144531 227.484375 469.390625 218.71875 468.316406 C 218.09375 468.234375 217.398438 468.09375 216.800781 467.953125 C 216.800781 467.953125 215.851562 467.71875 214.085938 467.285156 C 213.207031 467.0625 212.125 466.785156 210.84375 466.449219 C 209.5625 466.128906 208.074219 465.792969 206.5 465.222656 C 203.34375 464.160156 199.445312 462.960938 195.285156 461.109375 C 193.171875 460.242188 190.929688 459.324219 188.6875 458.164062 C 187.546875 457.609375 186.394531 457.035156 185.195312 456.464844 C 184 455.894531 182.804688 455.265625 181.632812 454.582031 C 179.253906 453.230469 176.707031 451.90625 174.246094 450.355469 C 171.796875 448.78125 169.191406 447.246094 166.675781 445.503906 C 161.59375 442.046875 156.40625 438.253906 151.285156 434.113281 C 148.75 432.019531 146.132812 429.941406 143.628906 427.699219 C 142.363281 426.582031 141.097656 425.464844 139.816406 424.351562 C 138.566406 423.195312 137.324219 422.050781 136.058594 420.878906 C 133.539062 418.578125 131.09375 416.179688 128.65625 413.765625 C 126.164062 411.382812 123.828125 408.859375 121.421875 406.40625 C 119.039062 403.921875 116.746094 401.371094 114.421875 398.875 C 112.167969 396.324219 109.898438 393.800781 107.699219 391.246094 C 103.328125 386.144531 99.113281 381.066406 95.175781 376.0625 C 87.257812 366.078125 80.269531 356.496094 74.511719 348.144531 C 68.734375 339.792969 64.15625 332.695312 61.039062 327.675781 C 57.910156 322.667969 56.210938 319.726562 56.210938 319.726562 C 55.570312 318.640625 55.945312 317.230469 57.03125 316.601562 C 58.035156 316.015625 59.300781 316.28125 59.996094 317.1875 " fill-opacity="1" fill-rule="nonzero"/><path fill="#8ed24d" d="M 140.179688 421.785156 C 140.179688 421.785156 139.957031 421.800781 139.523438 421.839844 C 139.09375 421.882812 138.453125 421.953125 137.632812 422.035156 C 136.03125 422.203125 133.777344 422.496094 131.09375 422.84375 C 129.757812 423.054688 128.308594 423.261719 126.777344 423.488281 C 125.246094 423.722656 123.648438 423.972656 121.976562 424.238281 C 118.664062 424.769531 115.128906 425.339844 111.597656 425.898438 C 109.816406 426.121094 108.0625 426.457031 106.308594 426.664062 C 104.554688 426.890625 102.828125 427.125 101.160156 427.308594 C 99.476562 427.488281 97.859375 427.683594 96.300781 427.765625 C 94.757812 427.90625 93.296875 428.03125 91.917969 428.03125 C 90.542969 428.101562 89.289062 428.15625 88.148438 428.074219 C 86.992188 428.003906 86.03125 428.089844 85.167969 427.921875 C 83.484375 427.683594 82.511719 427.558594 82.511719 427.558594 C 81.273438 427.40625 80.398438 426.261719 80.5625 425.019531 C 80.730469 423.765625 81.871094 422.886719 83.109375 423.054688 L 83.136719 423.054688 L 83.5 423.109375 C 83.5 423.109375 84.277344 423.222656 85.644531 423.429688 C 86.296875 423.570312 87.214844 423.5 88.203125 423.527344 C 89.207031 423.570312 90.359375 423.472656 91.625 423.359375 C 92.894531 423.277344 94.257812 423.066406 95.71875 422.832031 C 97.164062 422.636719 98.695312 422.289062 100.28125 421.964844 C 101.867188 421.660156 103.484375 421.1875 105.140625 420.78125 C 106.78125 420.363281 108.449219 419.847656 110.105469 419.34375 C 111.761719 418.816406 113.417969 418.269531 115.046875 417.742188 C 116.660156 417.183594 118.246094 416.597656 119.777344 416.011719 C 122.824219 414.828125 125.636719 413.601562 128.003906 412.46875 C 130.382812 411.328125 132.316406 410.296875 133.652344 409.527344 C 134.335938 409.152344 134.808594 408.84375 135.167969 408.636719 C 135.515625 408.414062 135.710938 408.289062 135.710938 408.289062 C 139.136719 406.167969 143.628906 407.242188 145.746094 410.671875 C 147.847656 414.117188 146.789062 418.621094 143.351562 420.726562 C 142.363281 421.339844 141.25 421.6875 140.179688 421.785156 " fill-opacity="1" fill-rule="nonzero"/><path fill="#8ed24d" d="M 125.664062 397.0625 C 125.664062 397.0625 125.902344 396.042969 126.234375 394.316406 C 126.542969 392.570312 127.042969 390.089844 127.488281 387.078125 C 127.710938 385.570312 127.988281 383.941406 128.226562 382.210938 C 128.433594 380.46875 128.65625 378.65625 128.894531 376.757812 C 129.101562 374.875 129.339844 372.925781 129.492188 370.929688 C 129.660156 368.9375 129.824219 366.914062 129.980469 364.890625 C 130.171875 362.871094 130.242188 360.847656 130.296875 358.855469 C 130.382812 356.859375 130.453125 354.894531 130.480469 352.996094 C 130.535156 351.101562 130.4375 349.273438 130.394531 347.53125 C 130.339844 345.800781 130.285156 344.15625 130.203125 342.652344 C 130.171875 341.132812 129.910156 339.765625 129.769531 338.550781 C 129.617188 337.339844 129.476562 336.277344 129.339844 335.414062 C 129.074219 333.683594 128.921875 332.679688 128.921875 332.679688 L 128.894531 332.542969 C 128.753906 331.703125 129.339844 330.925781 130.171875 330.785156 C 131.007812 330.644531 131.789062 331.21875 131.925781 332.066406 C 131.925781 332.109375 131.941406 332.164062 131.941406 332.207031 C 131.941406 332.207031 131.996094 333.238281 132.109375 335.050781 C 132.164062 335.957031 132.246094 337.046875 132.359375 338.300781 C 132.398438 338.914062 132.457031 339.582031 132.523438 340.28125 C 132.609375 340.992188 132.648438 341.730469 132.664062 342.496094 C 132.707031 344.03125 132.789062 345.675781 132.871094 347.449219 C 132.914062 349.191406 133.109375 351.058594 133.125 352.96875 C 133.179688 356.789062 133.429688 360.875 133.511719 364.960938 C 133.722656 373.160156 133.929688 381.347656 134.097656 387.496094 C 134.195312 390.578125 134.292969 393.15625 134.347656 394.957031 C 134.429688 396.753906 134.472656 397.785156 134.472656 397.785156 L 134.488281 397.855469 C 134.585938 400.324219 132.679688 402.417969 130.214844 402.527344 C 127.753906 402.640625 125.664062 400.730469 125.566406 398.261719 C 125.539062 397.855469 125.582031 397.4375 125.664062 397.0625 " fill-opacity="1" fill-rule="nonzero"/><path fill="#8ed24d" d="M 104.734375 381.375 L 96.664062 383.1875 C 94.257812 383.6875 91.472656 384.273438 88.46875 384.875 C 85.460938 385.472656 82.261719 386.046875 79.019531 386.519531 C 77.40625 386.757812 75.777344 386.964844 74.175781 387.148438 C 72.5625 387.316406 70.976562 387.414062 69.429688 387.523438 C 67.886719 387.609375 66.382812 387.648438 64.949219 387.621094 C 63.515625 387.59375 62.152344 387.511719 60.886719 387.382812 C 59.632812 387.257812 58.464844 387.0625 57.4375 386.867188 C 56.390625 386.617188 55.5 386.394531 54.765625 386.128906 C 54.027344 385.921875 53.457031 385.640625 53.066406 385.472656 C 52.675781 385.308594 52.46875 385.222656 52.46875 385.222656 C 51.453125 384.789062 50.992188 383.621094 51.425781 382.617188 C 51.855469 381.597656 53.023438 381.136719 54.027344 381.570312 C 54.054688 381.570312 54.066406 381.582031 54.082031 381.597656 L 54.277344 381.679688 C 54.277344 381.679688 54.429688 381.75 54.722656 381.890625 C 55.027344 382.03125 55.445312 382.265625 56.042969 382.460938 C 56.628906 382.683594 57.378906 382.878906 58.242188 383.105469 C 59.132812 383.285156 60.136719 383.464844 61.277344 383.578125 C 62.402344 383.675781 63.640625 383.730469 64.964844 383.71875 C 66.300781 383.71875 67.691406 383.648438 69.152344 383.535156 C 72.0625 383.285156 75.164062 382.796875 78.238281 382.140625 C 81.328125 381.484375 84.375 380.691406 87.214844 379.839844 C 90.054688 378.976562 92.65625 378.027344 94.867188 377.164062 C 97.082031 376.3125 98.890625 375.503906 100.128906 374.917969 C 100.753906 374.640625 101.242188 374.386719 101.5625 374.234375 C 101.882812 374.066406 102.050781 373.984375 102.050781 373.984375 C 103.996094 372.964844 106.378906 373.734375 107.378906 375.683594 C 108.394531 377.625 107.628906 380.023438 105.695312 381.027344 C 105.390625 381.191406 105.042969 381.304688 104.734375 381.375 " fill-opacity="1" fill-rule="nonzero"/><path fill="#8ed24d" d="M 73.230469 383.632812 C 73.230469 383.632812 73.214844 383.5625 73.214844 383.4375 C 73.214844 383.355469 73.214844 383.203125 73.1875 382.964844 C 73.148438 382.519531 73.0625 381.835938 72.882812 381.011719 C 72.546875 379.394531 71.78125 377.234375 70.542969 375.324219 C 70.253906 374.820312 69.902344 374.375 69.554688 373.929688 C 69.234375 373.453125 68.820312 373.089844 68.457031 372.671875 C 68.109375 372.253906 67.679688 371.949219 67.300781 371.601562 C 66.941406 371.25 66.535156 371 66.175781 370.734375 C 65.8125 370.484375 65.492188 370.21875 65.171875 370.066406 C 64.851562 369.882812 64.574219 369.71875 64.351562 369.589844 C 63.894531 369.339844 63.613281 369.1875 63.613281 369.1875 L 63.53125 369.144531 C 63.097656 368.910156 62.945312 368.363281 63.195312 367.917969 C 63.40625 367.542969 63.851562 367.375 64.242188 367.515625 C 64.242188 367.515625 64.5625 367.613281 65.117188 367.792969 C 65.382812 367.890625 65.714844 368.003906 66.105469 368.128906 C 66.496094 368.238281 66.898438 368.460938 67.359375 368.671875 C 67.816406 368.878906 68.316406 369.089844 68.820312 369.410156 C 69.304688 369.71875 69.875 369.980469 70.363281 370.386719 C 70.878906 370.761719 71.449219 371.125 71.9375 371.601562 C 72.4375 372.046875 72.964844 372.507812 73.425781 373.023438 C 75.34375 375.042969 76.792969 377.484375 77.601562 379.4375 C 78.03125 380.414062 78.308594 381.261719 78.492188 381.890625 C 78.574219 382.199219 78.644531 382.460938 78.683594 382.671875 C 78.726562 382.839844 78.753906 382.9375 78.753906 382.9375 C 79.089844 384.441406 78.128906 385.949219 76.625 386.28125 C 75.121094 386.617188 73.632812 385.667969 73.285156 384.164062 C 73.257812 383.996094 73.230469 383.816406 73.230469 383.648438 L 73.230469 383.632812 " fill-opacity="1" fill-rule="nonzero"/><path fill="#8ed24d" d="M 117.132812 421.800781 L 117.050781 421.632812 C 117.023438 421.5625 116.96875 421.410156 116.855469 421.199219 C 116.660156 420.796875 116.355469 420.195312 115.9375 419.511719 C 115.117188 418.105469 113.835938 416.304688 112.292969 414.730469 C 111.539062 413.921875 110.707031 413.195312 109.898438 412.539062 C 109.496094 412.207031 109.078125 411.925781 108.6875 411.660156 C 108.296875 411.367188 107.921875 411.132812 107.558594 410.921875 C 106.835938 410.476562 106.210938 410.167969 105.765625 409.972656 L 104.984375 409.582031 C 104.441406 409.332031 104.21875 408.691406 104.484375 408.160156 C 104.707031 407.6875 105.238281 407.449219 105.722656 407.589844 C 105.722656 407.589844 106.03125 407.671875 106.542969 407.8125 C 107.085938 407.953125 107.824219 408.160156 108.703125 408.511719 C 109.148438 408.664062 109.621094 408.84375 110.121094 409.082031 C 110.609375 409.304688 111.136719 409.527344 111.636719 409.820312 C 112.695312 410.378906 113.78125 411.046875 114.796875 411.789062 C 116.871094 413.265625 118.707031 415.035156 119.988281 416.5 C 120.628906 417.226562 121.128906 417.867188 121.476562 418.339844 C 121.644531 418.578125 121.78125 418.773438 121.894531 418.941406 L 122.019531 419.148438 C 122.882812 420.433594 122.535156 422.175781 121.253906 423.027344 C 119.960938 423.890625 118.234375 423.542969 117.371094 422.257812 C 117.273438 422.121094 117.191406 421.953125 117.132812 421.800781 " fill-opacity="1" fill-rule="nonzero"/><path fill="#8ed24d" d="M 107.421875 423.710938 C 107.421875 423.710938 107.421875 423.808594 107.40625 424.003906 C 107.40625 424.199219 107.40625 424.546875 107.378906 424.894531 C 107.335938 425.621094 107.226562 426.625 107.03125 427.835938 C 106.933594 428.4375 106.78125 429.078125 106.628906 429.761719 C 106.417969 430.445312 106.28125 431.15625 105.988281 431.882812 C 105.847656 432.242188 105.710938 432.605469 105.570312 432.984375 C 105.402344 433.34375 105.222656 433.707031 105.042969 434.085938 C 104.734375 434.824219 104.191406 435.519531 103.773438 436.21875 C 103.511719 436.550781 103.21875 436.871094 102.953125 437.195312 C 102.675781 437.515625 102.410156 437.835938 102.0625 438.085938 C 101.742188 438.351562 101.421875 438.617188 101.117188 438.867188 C 100.796875 439.132812 100.421875 439.285156 100.074219 439.480469 C 99.726562 439.675781 99.40625 439.871094 99.070312 440.011719 C 98.710938 440.136719 98.363281 440.234375 98.027344 440.34375 C 97.695312 440.441406 97.359375 440.554688 97.054688 440.625 C 96.734375 440.664062 96.425781 440.695312 96.121094 440.734375 C 95.523438 440.761719 94.996094 440.890625 94.519531 440.832031 C 94.046875 440.804688 93.644531 440.777344 93.3125 440.75 C 92.644531 440.695312 92.253906 440.664062 92.253906 440.664062 C 92.003906 440.636719 91.808594 440.414062 91.835938 440.164062 C 91.847656 439.941406 92.03125 439.757812 92.238281 439.746094 L 92.308594 439.730469 C 92.308594 439.730469 92.671875 439.691406 93.296875 439.605469 C 93.601562 439.578125 93.980469 439.535156 94.410156 439.480469 C 94.828125 439.453125 95.273438 439.230469 95.773438 439.105469 C 96.023438 439.035156 96.273438 438.949219 96.539062 438.867188 C 96.789062 438.753906 97.027344 438.617188 97.289062 438.476562 C 97.539062 438.335938 97.792969 438.210938 98.054688 438.070312 C 98.292969 437.890625 98.515625 437.683594 98.75 437.488281 C 98.972656 437.292969 99.238281 437.136719 99.433594 436.886719 C 99.628906 436.648438 99.808594 436.398438 100.019531 436.148438 C 100.421875 435.703125 100.671875 435.058594 100.992188 434.53125 C 101.199219 433.902344 101.507812 433.359375 101.632812 432.71875 C 101.714844 432.398438 101.785156 432.089844 101.867188 431.785156 C 101.910156 431.460938 101.964844 431.15625 102.007812 430.847656 C 102.132812 430.25 102.132812 429.621094 102.1875 429.0625 C 102.203125 428.476562 102.214844 427.949219 102.203125 427.433594 C 102.175781 426.429688 102.089844 425.59375 102.007812 425.019531 C 101.980469 424.726562 101.9375 424.558594 101.910156 424.421875 C 101.882812 424.265625 101.867188 424.167969 101.867188 424.167969 L 101.867188 424.140625 C 101.589844 422.621094 102.605469 421.171875 104.136719 420.894531 C 105.652344 420.628906 107.101562 421.644531 107.378906 423.164062 C 107.40625 423.347656 107.421875 423.542969 107.421875 423.710938 " fill-opacity="1" fill-rule="nonzero"/><path fill="#8ed24d" d="M 131.328125 371.445312 C 131.328125 371.445312 131.398438 371.375 131.539062 371.265625 C 131.648438 371.179688 131.855469 371 132.121094 370.761719 C 132.648438 370.273438 133.402344 369.550781 134.25 368.574219 C 135.085938 367.597656 136.058594 366.425781 136.964844 365.058594 C 137.4375 364.390625 137.867188 363.664062 138.328125 362.925781 C 138.789062 362.1875 139.175781 361.390625 139.609375 360.625 C 139.984375 359.832031 140.375 359.035156 140.75 358.242188 C 141.082031 357.433594 141.402344 356.636719 141.722656 355.855469 C 141.988281 355.0625 142.253906 354.292969 142.503906 353.570312 C 142.765625 352.84375 142.921875 352.132812 143.101562 351.476562 C 143.492188 350.179688 143.6875 349.066406 143.851562 348.296875 C 144.003906 347.519531 144.101562 347.070312 144.101562 347.070312 L 144.117188 347.015625 C 144.226562 346.5 144.730469 346.179688 145.230469 346.289062 C 145.703125 346.386719 146.023438 346.820312 145.980469 347.28125 C 145.980469 347.28125 145.941406 347.753906 145.871094 348.578125 C 145.800781 349.398438 145.746094 350.570312 145.523438 351.964844 C 145.398438 352.664062 145.328125 353.445312 145.160156 354.238281 C 144.992188 355.035156 144.828125 355.871094 144.632812 356.75 C 144.410156 357.613281 144.171875 358.503906 143.921875 359.414062 C 143.628906 360.304688 143.351562 361.226562 143.019531 362.117188 C 142.667969 363.011719 142.351562 363.929688 141.945312 364.78125 C 141.554688 365.660156 141.179688 366.511719 140.75 367.304688 C 139.929688 368.9375 139.039062 370.386719 138.214844 371.628906 C 137.382812 372.855469 136.601562 373.832031 136.03125 374.515625 C 135.726562 374.863281 135.503906 375.113281 135.292969 375.335938 L 135.015625 375.617188 C 133.945312 376.71875 132.175781 376.730469 131.078125 375.65625 C 129.964844 374.582031 129.949219 372.8125 131.023438 371.710938 C 131.105469 371.628906 131.1875 371.558594 131.257812 371.488281 L 131.328125 371.445312 " fill-opacity="1" fill-rule="nonzero"/><path fill="#8ed24d" d="M 129.171875 355.605469 C 129.171875 355.605469 128.503906 354.503906 127.375 352.957031 C 126.261719 351.410156 124.675781 349.441406 123.007812 347.53125 C 121.363281 345.621094 119.640625 343.78125 118.304688 342.441406 C 116.96875 341.101562 116.035156 340.253906 116.035156 340.253906 C 115.757812 340 115.742188 339.582031 115.992188 339.320312 C 116.230469 339.054688 116.648438 339.027344 116.910156 339.277344 C 116.941406 339.289062 116.96875 339.320312 116.980469 339.332031 C 116.980469 339.332031 117.789062 340.308594 119.054688 341.71875 C 120.335938 343.113281 122.101562 344.910156 123.925781 346.652344 C 125.75 348.410156 127.65625 350.082031 129.144531 351.269531 C 130.632812 352.46875 131.703125 353.191406 131.703125 353.191406 C 132.511719 353.75 132.71875 354.867188 132.164062 355.675781 C 131.605469 356.496094 130.507812 356.707031 129.6875 356.148438 C 129.476562 355.996094 129.296875 355.816406 129.171875 355.605469 " fill-opacity="1" fill-rule="nonzero"/><path fill="#ffffff" d="M 244.003906 220.636719 C 244.003906 223.886719 242.5 226.523438 240.652344 226.523438 C 238.8125 226.523438 237.3125 223.886719 237.3125 220.636719 C 237.3125 217.390625 238.8125 214.753906 240.652344 214.753906 C 242.5 214.753906 244.003906 217.390625 244.003906 220.636719 " fill-opacity="1" fill-rule="nonzero"/><path fill="#ffffff" d="M 250.476562 230.707031 C 250.476562 233.007812 249.417969 234.890625 248.109375 234.890625 C 246.789062 234.890625 245.730469 233.007812 245.730469 230.707031 C 245.730469 228.390625 246.789062 226.523438 248.109375 226.523438 C 249.417969 226.523438 250.476562 228.390625 250.476562 230.707031 " fill-opacity="1" fill-rule="nonzero"/><path fill="#ffffff" d="M 253.089844 217.722656 C 253.089844 219.691406 252.1875 221.28125 251.074219 221.28125 C 249.960938 221.28125 249.070312 219.691406 249.070312 217.722656 C 249.070312 215.773438 249.960938 214.183594 251.074219 214.183594 C 252.1875 214.183594 253.089844 215.773438 253.089844 217.722656 " fill-opacity="1" fill-rule="nonzero"/><path fill="#ffffff" d="M 50.15625 297.847656 C 50.15625 301.097656 48.65625 303.734375 46.804688 303.734375 C 44.953125 303.734375 43.464844 301.097656 43.464844 297.847656 C 43.464844 294.585938 44.953125 291.964844 46.804688 291.964844 C 48.65625 291.964844 50.15625 294.585938 50.15625 297.847656 " fill-opacity="1" fill-rule="nonzero"/><path fill="#ffffff" d="M 56.628906 307.914062 C 56.628906 310.230469 55.570312 312.097656 54.25 312.097656 C 52.941406 312.097656 51.882812 310.230469 51.882812 307.914062 C 51.882812 305.601562 52.941406 303.734375 54.25 303.734375 C 55.570312 303.734375 56.628906 305.601562 56.628906 307.914062 " fill-opacity="1" fill-rule="nonzero"/><path fill="#ffffff" d="M 59.246094 294.933594 C 59.246094 296.898438 58.339844 298.488281 57.226562 298.488281 C 56.113281 298.488281 55.222656 296.898438 55.222656 294.933594 C 55.222656 292.980469 56.113281 291.390625 57.226562 291.390625 C 58.339844 291.390625 59.246094 292.980469 59.246094 294.933594 " fill-opacity="1" fill-rule="nonzero"/></svg>