<svg xmlns="http://www.w3.org/2000/svg" xmlns:xlink="http://www.w3.org/1999/xlink" width="414" zoomAndPan="magnify" viewBox="0 0 310.5 671.999985" height="896" preserveAspectRatio="xMidYMid meet" version="1.0"><defs><clipPath id="2706162034"><path d="M 147 280.636719 L 208 280.636719 L 208 360 L 147 360 Z M 147 280.636719 " clip-rule="nonzero"/></clipPath></defs><g clip-path="url(#2706162034)"><path fill="#599344" d="M 202.839844 313.035156 C 199.847656 312.480469 195.734375 314.074219 191.375 317.148438 C 193.691406 313.65625 195.714844 309.519531 197.15625 305.058594 C 201.339844 292.117188 199.0625 281.335938 192.074219 280.96875 C 185.433594 280.617188 176.921875 289.816406 172.503906 301.835938 C 168.359375 298.941406 164.253906 297.605469 161.058594 298.472656 C 155.503906 299.980469 154.429688 307.675781 157.863281 316.890625 C 155.816406 316.304688 153.917969 316.203125 152.289062 316.683594 C 145.605469 318.664062 146.121094 329.65625 153.457031 341.234375 C 156.253906 345.648438 159.746094 350.304688 164.730469 353.847656 C 166.558594 355.152344 168.65625 356.300781 170.808594 357.398438 C 172.253906 358.132812 174.125 359.265625 176.289062 359.140625 C 179.054688 358.988281 181.4375 356.71875 182.792969 355.398438 C 184.914062 353.3125 187.96875 351.636719 190.152344 349.574219 C 192.597656 347.273438 194.738281 344.851562 196.65625 342.390625 C 197.828125 340.882812 198.921875 339.355469 199.933594 337.820312 C 208.117188 325.347656 209.417969 314.25 202.839844 313.035156 " fill-opacity="1" fill-rule="nonzero"/></g><path fill="#8ed24d" d="M 188.757812 293.570312 C 188.757812 293.570312 188.328125 294.898438 187.664062 297.269531 C 186.992188 299.628906 186.085938 303.027344 185.140625 307.125 C 184.179688 311.21875 183.191406 316.019531 182.34375 321.1875 C 181.910156 323.761719 181.539062 326.4375 181.203125 329.144531 C 181.03125 330.5 180.898438 331.875 180.75 333.242188 C 180.632812 334.613281 180.492188 335.988281 180.402344 337.367188 C 180.320312 338.742188 180.207031 340.113281 180.171875 341.480469 C 180.109375 342.847656 180.0625 344.207031 180.0625 345.550781 C 180.054688 346.21875 180.050781 346.886719 180.042969 347.550781 C 180.054688 348.214844 180.074219 348.878906 180.085938 349.527344 C 180.089844 350.835938 180.179688 352.121094 180.246094 353.386719 C 180.390625 355.902344 180.65625 358.308594 180.972656 360.550781 C 181.121094 361.683594 181.351562 362.746094 181.527344 363.789062 C 181.710938 364.828125 181.980469 365.804688 182.1875 366.75 C 182.285156 367.222656 182.402344 367.675781 182.542969 368.109375 C 182.667969 368.550781 182.796875 368.980469 182.914062 369.394531 C 183.136719 370.234375 183.421875 370.992188 183.6875 371.703125 C 184.164062 373.160156 184.734375 374.320312 185.15625 375.292969 C 185.351562 375.789062 185.59375 376.1875 185.785156 376.542969 C 185.972656 376.902344 186.140625 377.207031 186.273438 377.449219 C 186.53125 377.941406 186.675781 378.199219 186.675781 378.199219 L 186.863281 378.558594 C 188.609375 381.851562 187.355469 385.929688 184.0625 387.679688 C 180.761719 389.429688 176.671875 388.171875 174.921875 384.886719 C 174.796875 384.648438 174.671875 384.375 174.578125 384.132812 C 174.578125 384.132812 174.433594 383.753906 174.15625 383.03125 C 174.019531 382.679688 173.847656 382.230469 173.65625 381.710938 C 173.460938 381.1875 173.214844 380.601562 173.03125 379.917969 C 172.636719 378.5625 172.109375 376.933594 171.738281 375.046875 C 171.527344 374.101562 171.296875 373.105469 171.15625 372.054688 C 171.074219 371.527344 170.988281 370.992188 170.902344 370.433594 C 170.808594 369.890625 170.738281 369.324219 170.683594 368.75 C 170.585938 367.605469 170.425781 366.410156 170.367188 365.183594 C 170.3125 363.957031 170.214844 362.683594 170.207031 361.390625 C 170.171875 358.800781 170.230469 356.097656 170.425781 353.324219 C 170.53125 351.941406 170.613281 350.539062 170.789062 349.128906 C 170.867188 348.425781 170.941406 347.714844 171.019531 347.003906 C 171.113281 346.300781 171.214844 345.585938 171.3125 344.875 C 171.496094 343.449219 171.730469 342.023438 171.976562 340.597656 C 172.203125 339.164062 172.503906 337.742188 172.777344 336.324219 C 173.050781 334.898438 173.382812 333.492188 173.679688 332.085938 C 174.019531 330.6875 174.34375 329.296875 174.691406 327.925781 C 175.402344 325.183594 176.132812 322.5 176.914062 319.929688 C 178.449219 314.78125 180.074219 310.058594 181.566406 306.054688 C 183.054688 302.046875 184.398438 298.753906 185.378906 296.464844 C 186.351562 294.175781 186.960938 292.878906 186.960938 292.878906 C 187.1875 292.398438 187.757812 292.1875 188.238281 292.410156 C 188.6875 292.613281 188.898438 293.121094 188.757812 293.570312 " fill-opacity="1" fill-rule="nonzero"/><path fill="#8ed24d" d="M 171.996094 346.511719 C 171.996094 346.511719 171.929688 346.441406 171.8125 346.300781 C 171.695312 346.160156 171.511719 345.953125 171.289062 345.695312 C 170.847656 345.179688 170.195312 344.476562 169.425781 343.628906 C 169.035156 343.214844 168.609375 342.761719 168.160156 342.285156 C 167.714844 341.816406 167.230469 341.324219 166.742188 340.8125 C 165.753906 339.792969 164.699219 338.707031 163.648438 337.621094 C 163.140625 337.0625 162.605469 336.535156 162.105469 335.976562 C 161.605469 335.425781 161.105469 334.890625 160.636719 334.351562 C 160.164062 333.816406 159.710938 333.300781 159.300781 332.789062 C 158.875 332.285156 158.484375 331.808594 158.148438 331.335938 C 157.792969 330.875 157.472656 330.453125 157.21875 330.035156 C 156.964844 329.625 156.707031 329.316406 156.558594 328.976562 C 156.222656 328.335938 156.035156 327.972656 156.035156 327.972656 C 155.789062 327.5 155.976562 326.921875 156.445312 326.679688 C 156.910156 326.4375 157.496094 326.621094 157.734375 327.085938 C 157.742188 327.089844 157.742188 327.097656 157.742188 327.097656 L 157.8125 327.238281 C 157.8125 327.238281 157.960938 327.535156 158.21875 328.054688 C 158.328125 328.3125 158.582031 328.617188 158.804688 328.964844 C 159.035156 329.320312 159.347656 329.695312 159.695312 330.109375 C 160.03125 330.523438 160.429688 330.945312 160.867188 331.394531 C 161.28125 331.851562 161.777344 332.296875 162.269531 332.761719 C 162.757812 333.234375 163.320312 333.683594 163.859375 334.152344 C 164.402344 334.621094 164.984375 335.078125 165.558594 335.53125 C 166.140625 335.972656 166.730469 336.417969 167.308594 336.851562 C 167.894531 337.273438 168.476562 337.679688 169.046875 338.070312 C 170.203125 338.835938 171.300781 339.511719 172.273438 340.0625 C 173.238281 340.601562 174.066406 341.023438 174.65625 341.300781 C 174.949219 341.445312 175.171875 341.539062 175.332031 341.605469 C 175.492188 341.675781 175.578125 341.71875 175.578125 341.71875 C 177.144531 342.386719 177.863281 344.199219 177.179688 345.753906 C 176.503906 347.316406 174.691406 348.03125 173.132812 347.355469 C 172.679688 347.164062 172.289062 346.863281 171.996094 346.511719 " fill-opacity="1" fill-rule="nonzero"/><path fill="#8ed24d" d="M 177.03125 335.535156 C 177.03125 335.535156 177.4375 335.371094 178.121094 335.066406 C 178.796875 334.757812 179.773438 334.328125 180.925781 333.765625 C 181.503906 333.476562 182.132812 333.175781 182.785156 332.835938 C 183.4375 332.496094 184.121094 332.132812 184.832031 331.757812 C 185.539062 331.375 186.269531 330.980469 186.996094 330.558594 C 187.726562 330.136719 188.460938 329.703125 189.199219 329.273438 C 189.945312 328.851562 190.664062 328.386719 191.367188 327.929688 C 192.074219 327.472656 192.769531 327.027344 193.433594 326.582031 C 194.109375 326.144531 194.714844 325.671875 195.304688 325.230469 C 195.886719 324.789062 196.445312 324.378906 196.945312 323.984375 C 197.46875 323.609375 197.875 323.195312 198.265625 322.851562 C 198.644531 322.507812 198.976562 322.203125 199.242188 321.945312 C 199.777344 321.433594 200.082031 321.140625 200.082031 321.140625 L 200.128906 321.097656 C 200.382812 320.851562 200.792969 320.859375 201.046875 321.117188 C 201.292969 321.375 201.289062 321.785156 201.023438 322.03125 C 201.011719 322.042969 200.992188 322.0625 200.976562 322.074219 C 200.976562 322.074219 200.636719 322.34375 200.035156 322.8125 C 199.742188 323.050781 199.382812 323.339844 198.976562 323.679688 C 198.769531 323.851562 198.558594 324.03125 198.328125 324.21875 C 198.105469 324.421875 197.863281 324.613281 197.597656 324.800781 C 197.074219 325.183594 196.523438 325.613281 195.933594 326.0625 C 195.339844 326.503906 194.746094 327.019531 194.09375 327.484375 C 192.78125 328.429688 191.421875 329.496094 190.027344 330.511719 C 187.25 332.554688 184.46875 334.601562 182.378906 336.140625 C 181.339844 336.921875 180.46875 337.578125 179.863281 338.03125 C 179.253906 338.496094 178.914062 338.757812 178.914062 338.757812 L 178.890625 338.777344 C 178.0625 339.410156 176.878906 339.25 176.242188 338.429688 C 175.609375 337.601562 175.761719 336.421875 176.589844 335.789062 C 176.726562 335.683594 176.886719 335.59375 177.03125 335.535156 " fill-opacity="1" fill-rule="nonzero"/><path fill="#8ed24d" d="M 177.386719 324.519531 C 177.386719 324.519531 176.355469 323.574219 174.8125 322.160156 C 174.054688 321.457031 173.171875 320.628906 172.242188 319.738281 C 171.308594 318.84375 170.332031 317.871094 169.382812 316.867188 C 168.90625 316.367188 168.441406 315.851562 167.996094 315.339844 C 167.542969 314.828125 167.125 314.300781 166.714844 313.792969 C 166.3125 313.28125 165.929688 312.769531 165.589844 312.265625 C 165.253906 311.765625 164.953125 311.273438 164.695312 310.804688 C 164.429688 310.339844 164.210938 309.894531 164.035156 309.488281 C 163.867188 309.070312 163.730469 308.707031 163.648438 308.386719 C 163.542969 308.082031 163.5 307.816406 163.460938 307.640625 C 163.425781 307.464844 163.402344 307.371094 163.402344 307.371094 C 163.308594 306.917969 163.601562 306.476562 164.054688 306.382812 C 164.507812 306.289062 164.953125 306.578125 165.046875 307.03125 C 165.046875 307.042969 165.046875 307.046875 165.054688 307.058594 L 165.066406 307.140625 C 165.066406 307.140625 165.078125 307.21875 165.101562 307.351562 C 165.128906 307.488281 165.140625 307.6875 165.226562 307.945312 C 165.285156 308.199219 165.402344 308.503906 165.535156 308.859375 C 165.6875 309.207031 165.867188 309.605469 166.105469 310.023438 C 166.34375 310.441406 166.628906 310.878906 166.949219 311.332031 C 167.273438 311.789062 167.636719 312.257812 168.023438 312.734375 C 168.820312 313.679688 169.738281 314.636719 170.707031 315.546875 C 171.679688 316.449219 172.695312 317.320312 173.679688 318.09375 C 174.667969 318.863281 175.621094 319.535156 176.457031 320.089844 C 177.285156 320.652344 178.007812 321.082031 178.507812 321.367188 C 178.753906 321.519531 178.957031 321.625 179.089844 321.695312 C 179.226562 321.765625 179.296875 321.800781 179.296875 321.800781 C 180.113281 322.238281 180.433594 323.246094 180.003906 324.0625 C 179.574219 324.878906 178.5625 325.195312 177.738281 324.765625 C 177.613281 324.695312 177.492188 324.609375 177.386719 324.519531 " fill-opacity="1" fill-rule="nonzero"/><path fill="#8ed24d" d="M 168.984375 314.167969 C 168.984375 314.167969 169 314.148438 169.042969 314.121094 C 169.070312 314.101562 169.125 314.0625 169.203125 313.996094 C 169.347656 313.875 169.558594 313.679688 169.800781 313.421875 C 170.285156 312.90625 170.84375 312.125 171.207031 311.238281 C 171.308594 311.015625 171.371094 310.785156 171.449219 310.558594 C 171.53125 310.335938 171.554688 310.097656 171.613281 309.875 C 171.671875 309.652344 171.671875 309.429688 171.703125 309.21875 C 171.738281 309.007812 171.730469 308.808594 171.730469 308.621094 C 171.726562 308.4375 171.742188 308.261719 171.726562 308.109375 C 171.707031 307.957031 171.695312 307.820312 171.683594 307.714844 C 171.660156 307.492188 171.648438 307.363281 171.648438 307.363281 L 171.644531 307.324219 C 171.621094 307.117188 171.773438 306.929688 171.976562 306.914062 C 172.167969 306.894531 172.332031 307.007812 172.378906 307.175781 C 172.378906 307.175781 172.417969 307.3125 172.492188 307.539062 C 172.527344 307.664062 172.566406 307.804688 172.621094 307.96875 C 172.671875 308.128906 172.691406 308.328125 172.730469 308.53125 C 172.773438 308.738281 172.820312 308.964844 172.832031 309.214844 C 172.84375 309.453125 172.890625 309.71875 172.871094 309.980469 C 172.859375 310.25 172.871094 310.539062 172.824219 310.820312 C 172.796875 311.101562 172.765625 311.394531 172.695312 311.679688 C 172.464844 312.828125 171.964844 313.914062 171.488281 314.671875 C 171.253906 315.054688 171.023438 315.351562 170.855469 315.570312 C 170.773438 315.667969 170.695312 315.757812 170.632812 315.828125 C 170.585938 315.878906 170.554688 315.910156 170.554688 315.910156 C 170.121094 316.390625 169.367188 316.425781 168.890625 315.984375 C 168.40625 315.546875 168.371094 314.800781 168.8125 314.320312 C 168.859375 314.261719 168.914062 314.214844 168.972656 314.171875 L 168.984375 314.167969 " fill-opacity="1" fill-rule="nonzero"/><path fill="#8ed24d" d="M 166.40625 338.546875 C 166.40625 338.546875 166.417969 338.523438 166.449219 338.484375 C 166.472656 338.453125 166.5 338.394531 166.554688 338.3125 C 166.640625 338.140625 166.777344 337.894531 166.914062 337.585938 C 167.195312 336.960938 167.511719 336.082031 167.683594 335.171875 C 167.777344 334.714844 167.832031 334.25 167.859375 333.816406 C 167.878906 333.59375 167.871094 333.386719 167.871094 333.183594 C 167.878906 332.984375 167.871094 332.789062 167.847656 332.621094 C 167.832031 332.261719 167.785156 331.96875 167.75 331.769531 C 167.71875 331.5625 167.695312 331.445312 167.695312 331.445312 L 167.691406 331.40625 C 167.648438 331.15625 167.820312 330.921875 168.066406 330.886719 C 168.285156 330.851562 168.488281 330.976562 168.558594 331.179688 C 168.558594 331.179688 168.609375 331.300781 168.683594 331.523438 C 168.765625 331.734375 168.871094 332.042969 168.964844 332.433594 C 169.023438 332.621094 169.070312 332.832031 169.109375 333.054688 C 169.148438 333.28125 169.195312 333.515625 169.21875 333.765625 C 169.285156 334.257812 169.320312 334.792969 169.308594 335.332031 C 169.296875 336.398438 169.132812 337.46875 168.929688 338.261719 C 168.835938 338.652344 168.730469 338.980469 168.65625 339.214844 C 168.613281 339.332031 168.578125 339.429688 168.546875 339.503906 C 168.523438 339.570312 168.511719 339.597656 168.511719 339.597656 C 168.277344 340.207031 167.589844 340.507812 166.984375 340.265625 C 166.371094 340.03125 166.070312 339.351562 166.3125 338.742188 C 166.335938 338.675781 166.371094 338.605469 166.40625 338.546875 " fill-opacity="1" fill-rule="nonzero"/><path fill="#8ed24d" d="M 163.394531 335.648438 C 163.394531 335.648438 163.367188 335.671875 163.300781 335.71875 C 163.222656 335.765625 163.105469 335.847656 162.984375 335.917969 C 162.71875 336.082031 162.34375 336.289062 161.878906 336.511719 C 161.648438 336.621094 161.390625 336.726562 161.113281 336.832031 C 160.828125 336.925781 160.546875 337.050781 160.222656 337.128906 L 159.746094 337.25 C 159.578125 337.273438 159.40625 337.304688 159.234375 337.332031 C 158.898438 337.402344 158.53125 337.386719 158.183594 337.402344 C 158.007812 337.398438 157.824219 337.375 157.652344 337.355469 C 157.476562 337.339844 157.300781 337.320312 157.128906 337.261719 C 156.957031 337.222656 156.792969 337.167969 156.628906 337.128906 C 156.457031 337.082031 156.3125 336.984375 156.164062 336.914062 C 156.019531 336.839844 155.871094 336.773438 155.734375 336.691406 C 155.613281 336.597656 155.488281 336.503906 155.371094 336.410156 C 155.253906 336.324219 155.136719 336.234375 155.035156 336.148438 C 154.945312 336.042969 154.859375 335.941406 154.777344 335.847656 C 154.617188 335.648438 154.445312 335.496094 154.351562 335.320312 C 154.246094 335.148438 154.160156 334.996094 154.089844 334.875 C 153.945312 334.632812 153.863281 334.496094 153.863281 334.496094 C 153.8125 334.402344 153.839844 334.28125 153.933594 334.226562 C 154.011719 334.179688 154.117188 334.199219 154.175781 334.269531 L 154.199219 334.292969 C 154.199219 334.292969 154.300781 334.402344 154.476562 334.601562 C 154.566406 334.695312 154.671875 334.820312 154.789062 334.957031 C 154.90625 335.097656 155.089844 335.195312 155.253906 335.335938 C 155.335938 335.402344 155.429688 335.472656 155.515625 335.542969 C 155.617188 335.601562 155.730469 335.648438 155.835938 335.707031 C 155.941406 335.757812 156.054688 335.816406 156.164062 335.871094 C 156.28125 335.917969 156.40625 335.941406 156.53125 335.976562 C 156.660156 336 156.777344 336.058594 156.90625 336.066406 C 157.035156 336.070312 157.164062 336.082031 157.300781 336.089844 C 157.558594 336.125 157.835938 336.054688 158.101562 336.035156 C 158.363281 335.960938 158.628906 335.929688 158.882812 335.816406 C 159.011719 335.769531 159.136719 335.722656 159.257812 335.675781 C 159.382812 335.617188 159.5 335.558594 159.617188 335.5 C 159.851562 335.402344 160.070312 335.25 160.28125 335.136719 C 160.484375 334.996094 160.671875 334.875 160.847656 334.75 C 161.1875 334.492188 161.460938 334.261719 161.628906 334.097656 C 161.722656 334.015625 161.777344 333.964844 161.816406 333.921875 L 161.894531 333.847656 L 161.902344 333.835938 C 162.367188 333.375 163.113281 333.375 163.570312 333.835938 C 164.035156 334.296875 164.035156 335.042969 163.570312 335.5 C 163.519531 335.558594 163.460938 335.605469 163.394531 335.648438 " fill-opacity="1" fill-rule="nonzero"/><path fill="#8ed24d" d="M 187.261719 331.316406 C 187.261719 331.316406 187.304688 331.328125 187.375 331.347656 C 187.425781 331.363281 187.546875 331.394531 187.691406 331.429688 C 187.984375 331.492188 188.421875 331.582031 188.960938 331.640625 C 189.503906 331.691406 190.140625 331.738281 190.832031 331.726562 C 191.179688 331.734375 191.539062 331.710938 191.90625 331.6875 C 192.269531 331.667969 192.632812 331.609375 193.011719 331.574219 C 193.375 331.511719 193.746094 331.453125 194.109375 331.394531 C 194.46875 331.3125 194.828125 331.230469 195.167969 331.152344 C 195.511719 331.058594 195.835938 330.964844 196.152344 330.871094 C 196.464844 330.789062 196.746094 330.664062 197.015625 330.578125 C 197.558594 330.402344 197.992188 330.195312 198.300781 330.066406 C 198.609375 329.9375 198.789062 329.859375 198.789062 329.859375 L 198.804688 329.855469 C 199.011719 329.765625 199.242188 329.859375 199.328125 330.0625 C 199.410156 330.25 199.335938 330.460938 199.164062 330.558594 C 199.164062 330.558594 198.992188 330.660156 198.695312 330.835938 C 198.394531 331.003906 197.96875 331.269531 197.433594 331.527344 C 197.164062 331.65625 196.882812 331.820312 196.5625 331.949219 C 196.246094 332.085938 195.910156 332.230469 195.570312 332.378906 C 195.214844 332.507812 194.847656 332.636719 194.476562 332.773438 C 194.09375 332.882812 193.710938 333.007812 193.316406 333.113281 C 192.921875 333.207031 192.535156 333.316406 192.140625 333.386719 C 191.746094 333.457031 191.355469 333.535156 190.976562 333.578125 C 190.214844 333.6875 189.492188 333.730469 188.867188 333.742188 C 188.238281 333.753906 187.714844 333.71875 187.339844 333.683594 C 187.144531 333.660156 187.003906 333.648438 186.875 333.625 C 186.769531 333.605469 186.714844 333.601562 186.714844 333.601562 C 186.074219 333.492188 185.640625 332.890625 185.738281 332.25 C 185.84375 331.605469 186.449219 331.167969 187.097656 331.277344 C 187.144531 331.28125 187.191406 331.292969 187.234375 331.304688 L 187.261719 331.316406 " fill-opacity="1" fill-rule="nonzero"/><path fill="#8ed24d" d="M 192.214844 326.757812 C 192.214844 326.757812 192.433594 326.257812 192.699219 325.496094 C 192.964844 324.738281 193.261719 323.710938 193.515625 322.675781 C 193.773438 321.648438 194 320.609375 194.144531 319.824219 C 194.28125 319.039062 194.347656 318.511719 194.347656 318.511719 C 194.363281 318.355469 194.503906 318.25 194.65625 318.269531 C 194.8125 318.285156 194.917969 318.429688 194.898438 318.582031 C 194.898438 318.59375 194.894531 318.605469 194.894531 318.617188 C 194.894531 318.617188 194.75 319.132812 194.574219 319.90625 C 194.398438 320.6875 194.199219 321.730469 194.046875 322.78125 C 193.882812 323.839844 193.761719 324.894531 193.710938 325.699219 C 193.65625 326.503906 193.664062 327.042969 193.664062 327.042969 C 193.667969 327.460938 193.335938 327.800781 192.917969 327.808594 C 192.503906 327.8125 192.15625 327.476562 192.15625 327.0625 C 192.15625 326.957031 192.179688 326.851562 192.214844 326.757812 " fill-opacity="1" fill-rule="nonzero"/><path fill="#599344" d="M 139.167969 327.914062 C 136.996094 330.042969 135.949219 334.316406 135.980469 339.644531 C 134.4375 335.746094 132.195312 331.726562 129.355469 327.988281 C 121.121094 317.160156 110.953125 312.847656 106.652344 318.351562 C 102.5625 323.585938 105.242188 335.8125 112.589844 346.304688 C 107.839844 348.039062 104.394531 350.632812 103.269531 353.742188 C 101.335938 359.148438 107.035156 364.4375 116.578125 366.902344 C 114.917969 368.238281 113.753906 369.742188 113.21875 371.34375 C 111.011719 377.949219 120.34375 383.816406 134.054688 384.449219 C 139.285156 384.691406 145.109375 384.503906 150.875 382.457031 C 152.992188 381.703125 155.140625 380.652344 157.277344 379.519531 C 158.707031 378.757812 160.707031 377.871094 161.847656 376.035156 C 163.308594 373.679688 162.808594 370.433594 162.488281 368.570312 C 162 365.644531 162.367188 362.1875 161.929688 359.21875 C 161.4375 355.898438 160.671875 352.757812 159.746094 349.78125 C 159.183594 347.960938 158.554688 346.195312 157.871094 344.488281 C 152.304688 330.652344 143.933594 323.230469 139.167969 327.914062 " fill-opacity="1" fill-rule="nonzero"/><path fill="#8ed24d" d="M 115.113281 328.289062 C 115.113281 328.289062 115.953125 329.390625 117.519531 331.300781 C 119.078125 333.199219 121.347656 335.882812 124.171875 339.003906 C 126.992188 342.132812 130.375 345.691406 134.125 349.339844 C 135.996094 351.171875 137.980469 353.003906 140.015625 354.839844 C 141.035156 355.75 142.082031 356.648438 143.117188 357.550781 C 144.179688 358.433594 145.226562 359.335938 146.308594 360.199219 C 147.394531 361.054688 148.457031 361.929688 149.558594 362.742188 C 150.644531 363.574219 151.734375 364.394531 152.835938 365.164062 C 153.386719 365.550781 153.933594 365.9375 154.476562 366.328125 C 155.027344 366.691406 155.578125 367.058594 156.125 367.425781 C 157.199219 368.167969 158.3125 368.832031 159.382812 369.5 C 161.535156 370.824219 163.660156 371.984375 165.6875 373.011719 C 166.703125 373.539062 167.714844 373.957031 168.667969 374.414062 C 169.625 374.859375 170.578125 375.195312 171.472656 375.570312 C 171.917969 375.757812 172.359375 375.921875 172.796875 376.058594 C 173.230469 376.203125 173.65625 376.34375 174.066406 376.484375 C 174.882812 376.785156 175.671875 376.984375 176.410156 377.179688 C 177.875 377.617188 179.148438 377.820312 180.195312 378.035156 C 180.71875 378.160156 181.183594 378.1875 181.585938 378.234375 C 181.992188 378.28125 182.332031 378.324219 182.609375 378.359375 C 183.164062 378.421875 183.457031 378.457031 183.457031 378.457031 L 183.855469 378.511719 C 187.5625 378.964844 190.199219 382.324219 189.746094 386.023438 C 189.292969 389.722656 185.921875 392.351562 182.214844 391.898438 C 181.949219 391.863281 181.65625 391.804688 181.402344 391.746094 C 181.402344 391.746094 181.003906 391.644531 180.257812 391.464844 C 179.886719 391.371094 179.425781 391.253906 178.886719 391.113281 C 178.34375 390.976562 177.714844 390.835938 177.050781 390.59375 C 175.714844 390.148438 174.066406 389.644531 172.308594 388.863281 C 171.414062 388.5 170.464844 388.113281 169.519531 387.625 C 169.035156 387.390625 168.546875 387.152344 168.042969 386.910156 C 167.535156 386.667969 167.03125 386.40625 166.535156 386.117188 C 165.53125 385.546875 164.453125 384.992188 163.414062 384.339844 C 162.378906 383.675781 161.277344 383.03125 160.210938 382.296875 C 158.066406 380.839844 155.871094 379.246094 153.707031 377.5 C 152.636719 376.621094 151.527344 375.746094 150.46875 374.800781 C 149.933594 374.332031 149.398438 373.863281 148.859375 373.394531 C 148.328125 372.90625 147.804688 372.425781 147.269531 371.929688 C 146.203125 370.964844 145.167969 369.953125 144.140625 368.9375 C 143.085938 367.933594 142.097656 366.871094 141.082031 365.839844 C 140.074219 364.792969 139.105469 363.71875 138.121094 362.671875 C 137.167969 361.597656 136.210938 360.535156 135.28125 359.460938 C 133.433594 357.3125 131.648438 355.175781 129.984375 353.066406 C 126.636719 348.867188 123.683594 344.832031 121.25 341.316406 C 118.808594 337.800781 116.871094 334.816406 115.554688 332.703125 C 114.230469 330.59375 113.511719 329.355469 113.511719 329.355469 C 113.242188 328.898438 113.402344 328.304688 113.859375 328.042969 C 114.28125 327.796875 114.820312 327.90625 115.113281 328.289062 " fill-opacity="1" fill-rule="nonzero"/><path fill="#8ed24d" d="M 149.011719 372.3125 C 149.011719 372.3125 148.917969 372.320312 148.734375 372.335938 C 148.550781 372.355469 148.28125 372.382812 147.933594 372.417969 C 147.257812 372.488281 146.304688 372.613281 145.167969 372.757812 C 144.605469 372.847656 143.992188 372.933594 143.34375 373.027344 C 142.699219 373.128906 142.023438 373.234375 141.316406 373.347656 C 139.914062 373.570312 138.421875 373.808594 136.925781 374.042969 C 136.175781 374.136719 135.433594 374.277344 134.691406 374.367188 C 133.949219 374.460938 133.21875 374.5625 132.515625 374.636719 C 131.804688 374.714844 131.121094 374.796875 130.460938 374.832031 C 129.808594 374.890625 129.191406 374.941406 128.609375 374.941406 C 128.027344 374.972656 127.496094 374.996094 127.015625 374.960938 C 126.527344 374.929688 126.121094 374.964844 125.753906 374.894531 C 125.042969 374.796875 124.632812 374.742188 124.632812 374.742188 C 124.109375 374.679688 123.738281 374.195312 123.808594 373.675781 C 123.878906 373.148438 124.359375 372.777344 124.882812 372.847656 L 124.894531 372.847656 L 125.050781 372.871094 C 125.050781 372.871094 125.378906 372.917969 125.957031 373.003906 C 126.230469 373.0625 126.621094 373.035156 127.039062 373.046875 C 127.460938 373.0625 127.949219 373.023438 128.484375 372.976562 C 129.019531 372.941406 129.597656 372.851562 130.214844 372.753906 C 130.828125 372.671875 131.472656 372.523438 132.144531 372.390625 C 132.816406 372.261719 133.496094 372.0625 134.199219 371.890625 C 134.890625 371.714844 135.597656 371.496094 136.296875 371.285156 C 136.996094 371.0625 137.699219 370.835938 138.386719 370.609375 C 139.070312 370.375 139.738281 370.128906 140.386719 369.882812 C 141.675781 369.382812 142.863281 368.867188 143.863281 368.390625 C 144.871094 367.910156 145.6875 367.476562 146.25 367.152344 C 146.539062 366.996094 146.738281 366.867188 146.894531 366.777344 C 147.039062 366.683594 147.121094 366.632812 147.121094 366.632812 C 148.570312 365.738281 150.46875 366.191406 151.363281 367.636719 C 152.253906 369.085938 151.804688 370.980469 150.351562 371.867188 C 149.933594 372.125 149.464844 372.273438 149.011719 372.3125 " fill-opacity="1" fill-rule="nonzero"/><path fill="#8ed24d" d="M 142.875 361.90625 C 142.875 361.90625 142.976562 361.476562 143.117188 360.75 C 143.246094 360.015625 143.457031 358.972656 143.644531 357.703125 C 143.738281 357.070312 143.855469 356.382812 143.957031 355.65625 C 144.046875 354.921875 144.140625 354.160156 144.238281 353.363281 C 144.328125 352.570312 144.429688 351.746094 144.492188 350.90625 C 144.5625 350.070312 144.632812 349.21875 144.699219 348.367188 C 144.78125 347.515625 144.808594 346.664062 144.832031 345.824219 C 144.871094 344.984375 144.898438 344.160156 144.910156 343.359375 C 144.933594 342.5625 144.894531 341.792969 144.875 341.058594 C 144.851562 340.332031 144.828125 339.640625 144.792969 339.003906 C 144.78125 338.367188 144.667969 337.789062 144.609375 337.28125 C 144.546875 336.769531 144.488281 336.324219 144.429688 335.960938 C 144.316406 335.230469 144.25 334.808594 144.25 334.808594 L 144.238281 334.75 C 144.179688 334.398438 144.429688 334.070312 144.78125 334.011719 C 145.132812 333.953125 145.464844 334.191406 145.523438 334.550781 C 145.523438 334.566406 145.527344 334.589844 145.527344 334.609375 C 145.527344 334.609375 145.550781 335.042969 145.597656 335.804688 C 145.621094 336.1875 145.65625 336.644531 145.703125 337.175781 C 145.722656 337.433594 145.746094 337.714844 145.773438 338.007812 C 145.808594 338.308594 145.828125 338.617188 145.835938 338.941406 C 145.851562 339.585938 145.886719 340.277344 145.921875 341.023438 C 145.941406 341.757812 146.023438 342.542969 146.027344 343.347656 C 146.050781 344.957031 146.15625 346.675781 146.191406 348.394531 C 146.28125 351.847656 146.371094 355.292969 146.441406 357.878906 C 146.480469 359.179688 146.523438 360.261719 146.546875 361.019531 C 146.582031 361.777344 146.597656 362.210938 146.597656 362.210938 L 146.605469 362.242188 C 146.644531 363.28125 145.839844 364.160156 144.796875 364.207031 C 143.757812 364.253906 142.875 363.449219 142.832031 362.410156 C 142.820312 362.242188 142.839844 362.066406 142.875 361.90625 " fill-opacity="1" fill-rule="nonzero"/><path fill="#8ed24d" d="M 134.027344 355.304688 L 130.613281 356.066406 C 129.597656 356.277344 128.421875 356.523438 127.148438 356.777344 C 125.878906 357.03125 124.527344 357.269531 123.15625 357.46875 C 122.472656 357.570312 121.785156 357.65625 121.109375 357.734375 C 120.425781 357.804688 119.753906 357.84375 119.101562 357.890625 C 118.449219 357.925781 117.8125 357.945312 117.207031 357.933594 C 116.601562 357.921875 116.023438 357.886719 115.488281 357.832031 C 114.960938 357.78125 114.464844 357.699219 114.03125 357.617188 C 113.589844 357.511719 113.210938 357.417969 112.902344 357.304688 C 112.589844 357.21875 112.347656 357.101562 112.183594 357.03125 C 112.019531 356.960938 111.929688 356.925781 111.929688 356.925781 C 111.5 356.742188 111.304688 356.25 111.488281 355.828125 C 111.671875 355.398438 112.164062 355.203125 112.589844 355.386719 C 112.601562 355.386719 112.605469 355.390625 112.613281 355.398438 L 112.695312 355.433594 C 112.695312 355.433594 112.757812 355.460938 112.882812 355.519531 C 113.011719 355.578125 113.1875 355.679688 113.441406 355.761719 C 113.6875 355.855469 114.007812 355.9375 114.371094 356.03125 C 114.746094 356.109375 115.171875 356.183594 115.652344 356.230469 C 116.128906 356.273438 116.652344 356.296875 117.210938 356.289062 C 117.777344 356.289062 118.367188 356.261719 118.984375 356.214844 C 120.214844 356.109375 121.523438 355.902344 122.824219 355.625 C 124.132812 355.351562 125.417969 355.015625 126.621094 354.660156 C 127.820312 354.292969 128.921875 353.894531 129.855469 353.53125 C 130.789062 353.171875 131.554688 352.832031 132.078125 352.585938 C 132.34375 352.46875 132.550781 352.363281 132.683594 352.300781 C 132.820312 352.230469 132.890625 352.195312 132.890625 352.195312 C 133.714844 351.765625 134.722656 352.085938 135.144531 352.910156 C 135.574219 353.726562 135.25 354.734375 134.433594 355.15625 C 134.304688 355.226562 134.15625 355.273438 134.027344 355.304688 " fill-opacity="1" fill-rule="nonzero"/><path fill="#8ed24d" d="M 120.707031 356.253906 C 120.707031 356.253906 120.703125 356.226562 120.703125 356.171875 C 120.703125 356.136719 120.703125 356.074219 120.691406 355.972656 C 120.671875 355.785156 120.636719 355.496094 120.558594 355.152344 C 120.417969 354.46875 120.09375 353.5625 119.570312 352.757812 C 119.449219 352.546875 119.300781 352.359375 119.152344 352.167969 C 119.019531 351.96875 118.84375 351.816406 118.691406 351.640625 C 118.542969 351.464844 118.359375 351.335938 118.203125 351.191406 C 118.046875 351.042969 117.878906 350.9375 117.726562 350.824219 C 117.570312 350.71875 117.4375 350.609375 117.300781 350.542969 C 117.164062 350.46875 117.046875 350.398438 116.953125 350.34375 C 116.761719 350.238281 116.640625 350.175781 116.640625 350.175781 L 116.605469 350.15625 C 116.425781 350.058594 116.359375 349.828125 116.464844 349.640625 C 116.554688 349.480469 116.742188 349.410156 116.90625 349.46875 C 116.90625 349.46875 117.042969 349.511719 117.277344 349.585938 C 117.390625 349.628906 117.53125 349.675781 117.695312 349.726562 C 117.859375 349.773438 118.03125 349.871094 118.226562 349.957031 C 118.417969 350.046875 118.628906 350.132812 118.84375 350.269531 C 119.046875 350.398438 119.289062 350.507812 119.496094 350.679688 C 119.714844 350.835938 119.953125 350.988281 120.160156 351.191406 C 120.371094 351.378906 120.59375 351.570312 120.789062 351.789062 C 121.601562 352.640625 122.214844 353.667969 122.554688 354.488281 C 122.738281 354.898438 122.855469 355.257812 122.929688 355.519531 C 122.964844 355.648438 122.996094 355.761719 123.011719 355.851562 C 123.03125 355.921875 123.042969 355.960938 123.042969 355.960938 C 123.183594 356.59375 122.777344 357.230469 122.144531 357.371094 C 121.507812 357.511719 120.878906 357.113281 120.730469 356.476562 C 120.71875 356.40625 120.707031 356.332031 120.707031 356.261719 L 120.707031 356.253906 " fill-opacity="1" fill-rule="nonzero"/><path fill="#8ed24d" d="M 139.269531 372.320312 L 139.234375 372.25 C 139.222656 372.21875 139.199219 372.15625 139.152344 372.066406 C 139.070312 371.894531 138.9375 371.644531 138.761719 371.355469 C 138.414062 370.761719 137.875 370.007812 137.222656 369.34375 C 136.902344 369.003906 136.550781 368.699219 136.210938 368.421875 C 136.039062 368.28125 135.863281 368.164062 135.699219 368.050781 C 135.53125 367.929688 135.375 367.828125 135.222656 367.742188 C 134.914062 367.554688 134.648438 367.425781 134.460938 367.34375 L 134.167969 367.195312 L 134.132812 367.175781 C 133.902344 367.070312 133.808594 366.800781 133.921875 366.578125 C 134.015625 366.378906 134.238281 366.28125 134.445312 366.339844 C 134.445312 366.339844 134.574219 366.375 134.792969 366.433594 C 135.019531 366.492188 135.332031 366.578125 135.703125 366.726562 C 135.890625 366.789062 136.089844 366.867188 136.304688 366.964844 C 136.507812 367.058594 136.734375 367.152344 136.945312 367.277344 C 137.390625 367.511719 137.851562 367.792969 138.28125 368.105469 C 139.15625 368.726562 139.933594 369.472656 140.472656 370.089844 C 140.746094 370.394531 140.957031 370.664062 141.105469 370.863281 C 141.175781 370.964844 141.234375 371.046875 141.28125 371.117188 L 141.332031 371.203125 C 141.699219 371.742188 141.550781 372.476562 141.011719 372.835938 C 140.460938 373.199219 139.734375 373.050781 139.367188 372.511719 C 139.328125 372.453125 139.292969 372.382812 139.269531 372.320312 " fill-opacity="1" fill-rule="nonzero"/><path fill="#8ed24d" d="M 135.164062 373.121094 C 135.164062 373.121094 135.164062 373.164062 135.15625 373.246094 C 135.15625 373.328125 135.15625 373.476562 135.144531 373.621094 C 135.125 373.925781 135.078125 374.351562 134.996094 374.859375 C 134.957031 375.113281 134.890625 375.382812 134.828125 375.671875 C 134.738281 375.957031 134.679688 376.257812 134.554688 376.5625 C 134.496094 376.714844 134.4375 376.867188 134.378906 377.027344 C 134.308594 377.179688 134.234375 377.332031 134.15625 377.488281 C 134.027344 377.800781 133.796875 378.09375 133.621094 378.386719 C 133.507812 378.527344 133.386719 378.664062 133.273438 378.796875 C 133.15625 378.933594 133.042969 379.070312 132.898438 379.175781 C 132.761719 379.285156 132.625 379.398438 132.496094 379.503906 C 132.363281 379.613281 132.203125 379.679688 132.054688 379.761719 C 131.910156 379.84375 131.773438 379.925781 131.632812 379.984375 C 131.480469 380.035156 131.332031 380.078125 131.191406 380.125 C 131.050781 380.167969 130.910156 380.214844 130.777344 380.242188 C 130.644531 380.261719 130.515625 380.273438 130.386719 380.289062 C 130.132812 380.300781 129.910156 380.355469 129.707031 380.332031 C 129.507812 380.320312 129.335938 380.308594 129.195312 380.296875 C 128.914062 380.273438 128.75 380.261719 128.75 380.261719 C 128.644531 380.25 128.5625 380.15625 128.574219 380.046875 C 128.578125 379.953125 128.65625 379.878906 128.742188 379.871094 L 128.773438 379.867188 C 128.773438 379.867188 128.925781 379.847656 129.191406 379.8125 C 129.320312 379.800781 129.480469 379.785156 129.660156 379.761719 C 129.839844 379.75 130.027344 379.65625 130.238281 379.601562 C 130.34375 379.574219 130.449219 379.539062 130.5625 379.503906 C 130.667969 379.457031 130.765625 379.398438 130.878906 379.339844 C 130.984375 379.28125 131.089844 379.226562 131.203125 379.167969 C 131.304688 379.09375 131.398438 379.003906 131.496094 378.921875 C 131.589844 378.839844 131.703125 378.773438 131.785156 378.667969 C 131.867188 378.570312 131.945312 378.464844 132.03125 378.359375 C 132.203125 378.171875 132.308594 377.902344 132.445312 377.675781 C 132.53125 377.414062 132.660156 377.183594 132.714844 376.914062 C 132.75 376.78125 132.78125 376.652344 132.816406 376.519531 C 132.832031 376.386719 132.855469 376.257812 132.875 376.128906 C 132.925781 375.875 132.925781 375.613281 132.949219 375.375 C 132.957031 375.128906 132.960938 374.90625 132.957031 374.691406 C 132.945312 374.265625 132.910156 373.914062 132.875 373.675781 C 132.863281 373.550781 132.84375 373.480469 132.832031 373.421875 C 132.820312 373.359375 132.816406 373.316406 132.816406 373.316406 L 132.816406 373.304688 C 132.695312 372.664062 133.125 372.054688 133.773438 371.9375 C 134.414062 371.824219 135.027344 372.253906 135.144531 372.894531 C 135.15625 372.96875 135.164062 373.050781 135.164062 373.125 " fill-opacity="1" fill-rule="nonzero"/><path fill="#8ed24d" d="M 145.269531 351.125 C 145.269531 351.125 145.296875 351.097656 145.359375 351.050781 C 145.40625 351.015625 145.492188 350.9375 145.605469 350.835938 C 145.828125 350.632812 146.144531 350.328125 146.503906 349.917969 C 146.859375 349.503906 147.269531 349.011719 147.652344 348.4375 C 147.851562 348.15625 148.035156 347.851562 148.226562 347.539062 C 148.421875 347.226562 148.585938 346.894531 148.769531 346.570312 C 148.929688 346.234375 149.09375 345.902344 149.253906 345.566406 C 149.394531 345.226562 149.527344 344.890625 149.664062 344.5625 C 149.777344 344.230469 149.886719 343.90625 149.992188 343.601562 C 150.105469 343.296875 150.167969 342.996094 150.246094 342.71875 C 150.410156 342.175781 150.492188 341.707031 150.5625 341.382812 C 150.628906 341.054688 150.667969 340.867188 150.667969 340.867188 L 150.675781 340.84375 C 150.722656 340.625 150.933594 340.488281 151.144531 340.535156 C 151.347656 340.578125 151.480469 340.761719 151.464844 340.953125 C 151.464844 340.953125 151.445312 341.152344 151.417969 341.5 C 151.386719 341.847656 151.363281 342.339844 151.269531 342.925781 C 151.21875 343.21875 151.1875 343.546875 151.117188 343.882812 C 151.046875 344.21875 150.976562 344.570312 150.894531 344.9375 C 150.800781 345.304688 150.699219 345.679688 150.59375 346.058594 C 150.46875 346.4375 150.351562 346.824219 150.210938 347.199219 C 150.0625 347.574219 149.929688 347.960938 149.757812 348.320312 C 149.59375 348.691406 149.433594 349.046875 149.253906 349.382812 C 148.90625 350.070312 148.527344 350.679688 148.179688 351.203125 C 147.828125 351.71875 147.5 352.128906 147.257812 352.417969 C 147.128906 352.5625 147.035156 352.667969 146.945312 352.761719 L 146.828125 352.878906 C 146.375 353.34375 145.628906 353.351562 145.164062 352.898438 C 144.691406 352.445312 144.6875 351.699219 145.140625 351.238281 C 145.175781 351.203125 145.210938 351.171875 145.238281 351.144531 L 145.269531 351.125 " fill-opacity="1" fill-rule="nonzero"/><path fill="#8ed24d" d="M 144.355469 344.457031 C 144.355469 344.457031 144.074219 343.992188 143.597656 343.34375 C 143.128906 342.691406 142.457031 341.863281 141.75 341.058594 C 141.058594 340.253906 140.328125 339.480469 139.761719 338.917969 C 139.199219 338.355469 138.804688 337.996094 138.804688 337.996094 C 138.6875 337.890625 138.679688 337.714844 138.785156 337.601562 C 138.886719 337.492188 139.0625 337.480469 139.175781 337.585938 C 139.1875 337.589844 139.199219 337.601562 139.203125 337.609375 C 139.203125 337.609375 139.546875 338.019531 140.082031 338.613281 C 140.621094 339.199219 141.367188 339.957031 142.140625 340.691406 C 142.910156 341.429688 143.714844 342.132812 144.34375 342.632812 C 144.976562 343.136719 145.429688 343.441406 145.429688 343.441406 C 145.769531 343.675781 145.859375 344.148438 145.621094 344.488281 C 145.386719 344.832031 144.921875 344.921875 144.574219 344.6875 C 144.488281 344.621094 144.410156 344.546875 144.355469 344.457031 " fill-opacity="1" fill-rule="nonzero"/><path fill="#ffffff" d="M 192.90625 287.648438 C 192.90625 289.015625 192.269531 290.125 191.488281 290.125 C 190.710938 290.125 190.074219 289.015625 190.074219 287.648438 C 190.074219 286.28125 190.710938 285.171875 191.488281 285.171875 C 192.269531 285.171875 192.90625 286.28125 192.90625 287.648438 " fill-opacity="1" fill-rule="nonzero"/><path fill="#ffffff" d="M 195.640625 291.886719 C 195.640625 292.855469 195.191406 293.648438 194.640625 293.648438 C 194.082031 293.648438 193.632812 292.855469 193.632812 291.886719 C 193.632812 290.914062 194.082031 290.125 194.640625 290.125 C 195.191406 290.125 195.640625 290.914062 195.640625 291.886719 " fill-opacity="1" fill-rule="nonzero"/><path fill="#ffffff" d="M 196.746094 286.421875 C 196.746094 287.25 196.363281 287.917969 195.894531 287.917969 C 195.421875 287.917969 195.046875 287.25 195.046875 286.421875 C 195.046875 285.601562 195.421875 284.933594 195.894531 284.933594 C 196.363281 284.933594 196.746094 285.601562 196.746094 286.421875 " fill-opacity="1" fill-rule="nonzero"/><path fill="#ffffff" d="M 110.953125 320.148438 C 110.953125 321.515625 110.316406 322.625 109.535156 322.625 C 108.753906 322.625 108.125 321.515625 108.125 320.148438 C 108.125 318.773438 108.753906 317.671875 109.535156 317.671875 C 110.316406 317.671875 110.953125 318.773438 110.953125 320.148438 " fill-opacity="1" fill-rule="nonzero"/><path fill="#ffffff" d="M 113.6875 324.386719 C 113.6875 325.359375 113.242188 326.144531 112.683594 326.144531 C 112.128906 326.144531 111.683594 325.359375 111.683594 324.386719 C 111.683594 323.410156 112.128906 322.625 112.683594 322.625 C 113.242188 322.625 113.6875 323.410156 113.6875 324.386719 " fill-opacity="1" fill-rule="nonzero"/><path fill="#ffffff" d="M 114.792969 318.921875 C 114.792969 319.75 114.414062 320.417969 113.941406 320.417969 C 113.472656 320.417969 113.09375 319.75 113.09375 318.921875 C 113.09375 318.097656 113.472656 317.429688 113.941406 317.429688 C 114.414062 317.429688 114.792969 318.097656 114.792969 318.921875 " fill-opacity="1" fill-rule="nonzero"/></svg>