<svg xmlns="http://www.w3.org/2000/svg" xmlns:xlink="http://www.w3.org/1999/xlink" width="414" zoomAndPan="magnify" viewBox="0 0 310.5 671.999985" height="896" preserveAspectRatio="xMidYMid meet" version="1.0"><defs><clipPath id="eb56a92d85"><path d="M 88.734375 162.378906 L 216 162.378906 L 216 373.128906 L 88.734375 373.128906 Z M 88.734375 162.378906 " clip-rule="nonzero"/></clipPath><clipPath id="5422a704e4"><path d="M 157 199 L 273.234375 199 L 273.234375 305 L 157 305 Z M 157 199 " clip-rule="nonzero"/></clipPath></defs><g clip-path="url(#eb56a92d85)"><path fill="#37474f" d="M 88.734375 352.054688 L 88.734375 183.453125 C 88.734375 171.863281 98.222656 162.378906 109.820312 162.378906 L 194.164062 162.378906 C 205.757812 162.378906 215.25 171.863281 215.25 183.453125 L 215.25 352.054688 C 215.25 363.644531 205.757812 373.128906 194.164062 373.128906 L 109.820312 373.128906 C 98.222656 373.128906 88.734375 363.644531 88.734375 352.054688 Z M 88.734375 352.054688 " fill-opacity="1" fill-rule="nonzero"/></g><path fill="#bbdefb" d="M 194.164062 178.1875 L 109.820312 178.1875 C 106.65625 178.1875 104.546875 180.292969 104.546875 183.453125 L 104.546875 336.246094 C 104.546875 339.410156 106.65625 341.515625 109.820312 341.515625 L 194.164062 341.515625 C 197.324219 341.515625 199.433594 339.410156 199.433594 336.246094 L 199.433594 183.453125 C 199.433594 180.292969 197.324219 178.1875 194.164062 178.1875 Z M 194.164062 178.1875 " fill-opacity="1" fill-rule="nonzero"/><path fill="#78909c" d="M 136.175781 352.054688 L 167.804688 352.054688 L 167.804688 362.589844 L 136.175781 362.589844 Z M 136.175781 352.054688 " fill-opacity="1" fill-rule="nonzero"/><g clip-path="url(#5422a704e4)"><path fill="#ef4629" d="M 262.691406 199.261719 L 167.804688 199.261719 C 161.980469 199.261719 157.261719 203.976562 157.261719 209.796875 L 157.261719 304.636719 L 188.890625 283.558594 L 262.691406 283.558594 C 268.515625 283.558594 273.234375 278.84375 273.234375 273.023438 L 273.234375 209.796875 C 273.234375 203.976562 268.515625 199.261719 262.691406 199.261719 Z M 262.691406 199.261719 " fill-opacity="1" fill-rule="nonzero"/></g><path fill="#ffffff" d="M 215.25 215.066406 C 214.902344 215.066406 214.558594 215.101562 214.21875 215.167969 C 213.878906 215.234375 213.550781 215.335938 213.230469 215.46875 C 212.910156 215.601562 212.605469 215.761719 212.320312 215.953125 C 212.03125 216.148438 211.765625 216.367188 211.519531 216.609375 C 211.277344 216.855469 211.058594 217.121094 210.863281 217.410156 C 210.671875 217.695312 210.511719 218 210.378906 218.320312 C 210.246094 218.640625 210.144531 218.96875 210.078125 219.308594 C 210.011719 219.648438 209.976562 219.988281 209.976562 220.335938 C 209.976562 220.683594 210.011719 221.023438 210.078125 221.363281 C 210.144531 221.703125 210.246094 222.03125 210.378906 222.351562 C 210.511719 222.671875 210.671875 222.976562 210.863281 223.261719 C 211.058594 223.550781 211.277344 223.816406 211.519531 224.0625 C 211.765625 224.304688 212.03125 224.523438 212.320312 224.714844 C 212.605469 224.910156 212.910156 225.070312 213.230469 225.203125 C 213.550781 225.335938 213.878906 225.4375 214.21875 225.503906 C 214.558594 225.570312 214.902344 225.605469 215.25 225.605469 C 215.59375 225.605469 215.9375 225.570312 216.277344 225.503906 C 216.617188 225.4375 216.945312 225.335938 217.265625 225.203125 C 217.585938 225.070312 217.890625 224.910156 218.175781 224.714844 C 218.464844 224.523438 218.730469 224.304688 218.976562 224.0625 C 219.21875 223.816406 219.4375 223.550781 219.632812 223.261719 C 219.824219 222.976562 219.984375 222.671875 220.117188 222.351562 C 220.25 222.03125 220.351562 221.703125 220.417969 221.363281 C 220.484375 221.023438 220.519531 220.683594 220.519531 220.335938 C 220.519531 219.988281 220.484375 219.648438 220.417969 219.308594 C 220.351562 218.96875 220.25 218.640625 220.117188 218.320312 C 219.984375 218 219.824219 217.695312 219.632812 217.410156 C 219.4375 217.121094 219.21875 216.855469 218.976562 216.609375 C 218.730469 216.367188 218.464844 216.148438 218.175781 215.953125 C 217.890625 215.761719 217.585938 215.601562 217.265625 215.46875 C 216.945312 215.335938 216.617188 215.234375 216.277344 215.167969 C 215.9375 215.101562 215.59375 215.066406 215.25 215.066406 Z M 215.25 257.214844 C 214.902344 257.214844 214.558594 257.25 214.21875 257.316406 C 213.878906 257.386719 213.550781 257.484375 213.230469 257.617188 C 212.910156 257.75 212.605469 257.914062 212.320312 258.105469 C 212.03125 258.296875 211.765625 258.515625 211.519531 258.761719 C 211.277344 259.003906 211.058594 259.269531 210.863281 259.558594 C 210.671875 259.847656 210.511719 260.148438 210.378906 260.46875 C 210.246094 260.789062 210.144531 261.117188 210.078125 261.457031 C 210.011719 261.796875 209.976562 262.140625 209.976562 262.484375 C 209.976562 262.832031 210.011719 263.175781 210.078125 263.511719 C 210.144531 263.851562 210.246094 264.183594 210.378906 264.5 C 210.511719 264.820312 210.671875 265.125 210.863281 265.414062 C 211.058594 265.699219 211.277344 265.964844 211.519531 266.210938 C 211.765625 266.457031 212.03125 266.675781 212.320312 266.867188 C 212.605469 267.058594 212.910156 267.222656 213.230469 267.351562 C 213.550781 267.484375 213.878906 267.585938 214.21875 267.652344 C 214.558594 267.71875 214.902344 267.753906 215.25 267.753906 C 215.59375 267.753906 215.9375 267.71875 216.277344 267.652344 C 216.617188 267.585938 216.945312 267.484375 217.265625 267.351562 C 217.585938 267.222656 217.890625 267.058594 218.175781 266.867188 C 218.464844 266.675781 218.730469 266.457031 218.976562 266.210938 C 219.21875 265.964844 219.4375 265.699219 219.632812 265.414062 C 219.824219 265.125 219.984375 264.820312 220.117188 264.5 C 220.25 264.183594 220.351562 263.851562 220.417969 263.511719 C 220.484375 263.175781 220.519531 262.832031 220.519531 262.484375 C 220.519531 262.140625 220.484375 261.796875 220.417969 261.457031 C 220.351562 261.117188 220.25 260.789062 220.117188 260.46875 C 219.984375 260.148438 219.824219 259.847656 219.632812 259.558594 C 219.4375 259.269531 219.21875 259.003906 218.976562 258.761719 C 218.730469 258.515625 218.464844 258.296875 218.175781 258.105469 C 217.890625 257.914062 217.585938 257.75 217.265625 257.617188 C 216.945312 257.484375 216.617188 257.386719 216.277344 257.316406 C 215.9375 257.25 215.59375 257.214844 215.25 257.214844 Z M 215.25 257.214844 " fill-opacity="1" fill-rule="nonzero"/><path fill="#ffffff" d="M 231.0625 251.949219 L 231.0625 236.140625 C 231.0625 227.410156 223.984375 220.335938 215.25 220.335938 C 206.511719 220.335938 199.433594 227.410156 199.433594 236.140625 L 199.433594 251.949219 C 199.433594 254.855469 197.074219 257.214844 194.164062 257.214844 L 194.164062 262.484375 L 236.332031 262.484375 L 236.332031 257.214844 C 233.425781 257.214844 231.0625 254.855469 231.0625 251.949219 Z M 231.0625 251.949219 " fill-opacity="1" fill-rule="nonzero"/></svg>