<svg xmlns="http://www.w3.org/2000/svg" xmlns:xlink="http://www.w3.org/1999/xlink" zoomAndPan="magnify" preserveAspectRatio="xMidYMid meet" version="1.0" viewBox="24.61 201.43 261 267.75"><defs><clipPath id="178a81358a"><path d="M 24.609375 201.480469 L 285.609375 201.480469 L 285.609375 381 L 24.609375 381 Z M 24.609375 201.480469 " clip-rule="nonzero"/></clipPath></defs><path fill="#a0713a" d="M 279.523438 286.664062 C 216.976562 256.753906 136.898438 237.574219 48.894531 234.320312 L 48.894531 254.777344 C 46.667969 254.671875 44.4375 254.574219 42.203125 254.492188 L 42.203125 416.65625 L 251.574219 302.007812 C 251.5625 302 251.546875 301.992188 251.53125 301.984375 Z M 279.523438 286.664062 " fill-opacity="1" fill-rule="nonzero"/><path fill="#f7ab57" d="M 258.402344 258.84375 L 237.011719 257.5 L 219.871094 297.394531 L 257.246094 288.347656 Z M 258.402344 258.84375 " fill-opacity="1" fill-rule="nonzero"/><g clip-path="url(#178a81358a)"><path fill="#f7ab57" d="M 267.800781 251.625 C 207.273438 223.652344 131.035156 205.566406 47.414062 201.863281 C 46.160156 201.585938 44.859375 201.429688 43.527344 201.429688 C 33.195312 201.429688 24.824219 210.28125 24.824219 221.203125 C 24.824219 231.652344 32.492188 240.183594 42.203125 240.902344 L 42.203125 380.265625 L 248.488281 267.3125 C 248.230469 268.617188 248.09375 269.964844 248.09375 271.347656 C 248.09375 282.265625 256.46875 291.117188 266.796875 291.117188 C 277.125 291.117188 285.5 282.265625 285.5 271.347656 C 285.5 260.78125 277.660156 252.179688 267.800781 251.625 Z M 267.800781 251.625 " fill-opacity="1" fill-rule="nonzero"/></g><path fill="#fcc24c" d="M 42.203125 225.566406 C 122.097656 228.519531 194.796875 245.925781 251.574219 273.082031 L 42.203125 387.730469 Z M 42.203125 225.566406 " fill-opacity="1" fill-rule="nonzero"/><path fill="#f7ab57" d="M 243.492188 272.503906 C 249.503906 275.117188 256.78125 275.972656 259.140625 283.117188 C 261.796875 291.152344 256.675781 298.640625 256.476562 306.554688 C 256.210938 317.046875 253.109375 320.777344 252.492188 331.433594 C 252.082031 338.539062 246.429688 342.488281 239.59375 341.914062 C 224.933594 340.683594 237.121094 328.621094 228.550781 319.625 C 225.820312 316.757812 220.109375 312.828125 215.925781 314.09375 C 210.785156 315.648438 211.683594 321.835938 212.1875 326.035156 C 212.976562 332.609375 214.375 347.0625 207.03125 350.910156 C 193.949219 357.757812 197.085938 326.359375 186.351562 323.222656 C 173.542969 319.480469 170.359375 343.039062 164.570312 349.464844 C 156.621094 358.285156 145.054688 360.402344 133.765625 359.597656 C 125.398438 359.003906 114.496094 357.503906 109.589844 366.207031 C 103.707031 376.644531 106.4375 385.054688 92.730469 387.886719 C 83.410156 389.808594 71.113281 384.519531 63.144531 391.527344 C 56.785156 397.117188 56.207031 404.933594 58.664062 412.589844 C 61.328125 420.886719 66.984375 428.144531 66.804688 437.203125 C 66.597656 447.261719 60.085938 457.324219 54.730469 465.4375 C 50.773438 471.433594 43.964844 469.652344 40.703125 464.164062 C 35.898438 456.078125 42.292969 447.738281 42.453125 439.460938 C 42.613281 431.011719 39.035156 423.253906 37.703125 415.042969 C 36.195312 405.78125 40.652344 401.246094 42.207031 392.175781 C 43.6875 383.53125 46.257812 381.28125 51.25 373.9375 C 56.65625 365.988281 65.195312 361.417969 71.917969 354.765625 C 80.027344 346.746094 88.046875 338.246094 97.519531 331.816406 C 107.09375 325.316406 118.082031 321.433594 128.316406 316.160156 C 142.175781 309.015625 151.910156 295.667969 164.21875 286.332031 C 177.410156 276.320312 192.804688 267.703125 209.460938 265.585938 C 216.730469 264.660156 226.289062 263.191406 233.21875 265.910156 C 238.75 268.082031 239.277344 274.441406 245.550781 273.804688 C 245.011719 273.804688 244.46875 273.804688 243.929688 273.804688 " fill-opacity="1" fill-rule="nonzero"/><path fill="#fcc24c" d="M 243.492188 267.335938 C 249.503906 269.949219 256.78125 270.804688 259.140625 277.949219 C 261.796875 285.988281 256.675781 293.472656 256.476562 301.386719 C 256.210938 311.878906 253.109375 315.609375 252.492188 326.265625 C 252.082031 333.371094 246.429688 337.320312 239.59375 336.746094 C 224.933594 335.515625 237.121094 323.453125 228.550781 314.457031 C 225.820312 311.589844 220.109375 307.660156 215.925781 308.925781 C 210.785156 310.480469 211.683594 316.667969 212.1875 320.867188 C 212.976562 327.441406 214.375 341.898438 207.03125 345.742188 C 193.949219 352.589844 197.085938 321.191406 186.351562 318.054688 C 173.542969 314.3125 170.359375 337.871094 164.570312 344.296875 C 156.621094 353.117188 145.054688 355.234375 133.765625 354.429688 C 125.398438 353.835938 114.496094 352.335938 109.589844 361.039062 C 103.707031 371.476562 106.4375 379.886719 92.730469 382.71875 C 83.410156 384.640625 71.113281 379.351562 63.144531 386.359375 C 56.785156 391.949219 56.207031 399.765625 58.664062 407.421875 C 61.328125 415.71875 66.984375 422.976562 66.804688 432.035156 C 66.597656 442.09375 60.085938 452.15625 54.730469 460.269531 C 50.773438 466.265625 43.964844 464.484375 40.703125 458.996094 C 35.898438 450.910156 42.292969 442.570312 42.453125 434.292969 C 42.613281 425.84375 39.035156 418.085938 37.703125 409.875 C 36.195312 400.617188 40.652344 396.078125 42.207031 387.007812 C 43.6875 378.363281 46.257812 376.113281 51.25 368.773438 C 56.65625 360.824219 65.195312 356.25 71.917969 349.597656 C 80.027344 341.578125 88.046875 333.078125 97.519531 326.644531 C 107.09375 320.148438 118.082031 316.269531 128.316406 310.992188 C 142.175781 303.847656 151.910156 290.5 164.21875 281.164062 C 177.410156 271.152344 192.804688 262.535156 209.460938 260.417969 C 216.730469 259.492188 226.289062 258.019531 233.21875 260.742188 C 238.75 262.914062 239.277344 269.273438 245.550781 268.632812 C 245.011719 268.632812 244.46875 268.632812 243.929688 268.632812 " fill-opacity="1" fill-rule="nonzero"/><path fill="#c0374f" d="M 58.074219 259.425781 C 58.074219 268.238281 68.707031 275.382812 81.820312 275.382812 C 94.9375 275.382812 105.566406 268.238281 105.566406 259.425781 C 105.566406 250.613281 94.9375 243.46875 81.820312 243.46875 C 68.707031 243.46875 58.074219 250.613281 58.074219 259.425781 Z M 58.074219 259.425781 " fill-opacity="1" fill-rule="nonzero"/><path fill="#e83f60" d="M 58.074219 253.992188 C 58.074219 262.53125 68.707031 269.453125 81.820312 269.453125 C 94.9375 269.453125 105.566406 262.53125 105.566406 253.992188 C 105.566406 245.457031 94.9375 238.53125 81.820312 238.53125 C 68.707031 238.535156 58.074219 245.457031 58.074219 253.992188 Z M 58.074219 253.992188 " fill-opacity="1" fill-rule="nonzero"/><path fill="#c0374f" d="M 211.703125 274.804688 C 211.703125 275.324219 211.664062 275.847656 211.585938 276.367188 C 211.511719 276.886719 211.398438 277.402344 211.246094 277.917969 C 211.09375 278.429688 210.90625 278.933594 210.679688 279.433594 C 210.453125 279.933594 210.191406 280.425781 209.894531 280.910156 C 209.597656 281.390625 209.265625 281.863281 208.898438 282.324219 C 208.53125 282.785156 208.132812 283.234375 207.699219 283.667969 C 207.265625 284.101562 206.804688 284.523438 206.3125 284.925781 C 205.816406 285.332031 205.296875 285.71875 204.746094 286.085938 C 204.195312 286.457031 203.621094 286.808594 203.019531 287.136719 C 202.417969 287.46875 201.792969 287.78125 201.148438 288.070312 C 200.5 288.363281 199.835938 288.628906 199.148438 288.875 C 198.464844 289.121094 197.761719 289.347656 197.042969 289.546875 C 196.324219 289.746094 195.59375 289.921875 194.847656 290.074219 C 194.105469 290.226562 193.351562 290.351562 192.585938 290.453125 C 191.824219 290.554688 191.054688 290.632812 190.28125 290.683594 C 189.507812 290.734375 188.734375 290.761719 187.953125 290.761719 C 187.175781 290.761719 186.402344 290.734375 185.628906 290.683594 C 184.855469 290.632812 184.085938 290.554688 183.324219 290.453125 C 182.558594 290.351562 181.804688 290.226562 181.0625 290.074219 C 180.316406 289.921875 179.585938 289.746094 178.867188 289.546875 C 178.148438 289.347656 177.445312 289.121094 176.761719 288.875 C 176.074219 288.628906 175.410156 288.363281 174.761719 288.070312 C 174.117188 287.78125 173.492188 287.46875 172.890625 287.136719 C 172.289062 286.808594 171.714844 286.457031 171.164062 286.085938 C 170.613281 285.71875 170.09375 285.332031 169.597656 284.925781 C 169.105469 284.523438 168.644531 284.101562 168.210938 283.667969 C 167.777344 283.234375 167.378906 282.785156 167.011719 282.324219 C 166.644531 281.863281 166.3125 281.390625 166.015625 280.910156 C 165.71875 280.425781 165.457031 279.933594 165.230469 279.433594 C 165.003906 278.933594 164.816406 278.429688 164.664062 277.917969 C 164.511719 277.402344 164.398438 276.886719 164.324219 276.367188 C 164.246094 275.847656 164.207031 275.324219 164.207031 274.804688 C 164.207031 274.28125 164.246094 273.757812 164.324219 273.238281 C 164.398438 272.71875 164.511719 272.203125 164.664062 271.691406 C 164.816406 271.175781 165.003906 270.671875 165.230469 270.171875 C 165.457031 269.671875 165.71875 269.179688 166.015625 268.695312 C 166.3125 268.214844 166.644531 267.742188 167.011719 267.28125 C 167.378906 266.820312 167.777344 266.371094 168.210938 265.9375 C 168.644531 265.503906 169.105469 265.082031 169.597656 264.679688 C 170.09375 264.273438 170.613281 263.886719 171.164062 263.519531 C 171.714844 263.148438 172.289062 262.796875 172.890625 262.46875 C 173.492188 262.136719 174.117188 261.824219 174.761719 261.535156 C 175.410156 261.242188 176.074219 260.976562 176.761719 260.730469 C 177.445312 260.484375 178.148438 260.257812 178.867188 260.058594 C 179.585938 259.859375 180.316406 259.683594 181.0625 259.53125 C 181.804688 259.378906 182.558594 259.253906 183.324219 259.152344 C 184.085938 259.050781 184.855469 258.972656 185.628906 258.921875 C 186.402344 258.871094 187.175781 258.84375 187.953125 258.84375 C 188.734375 258.84375 189.507812 258.871094 190.28125 258.921875 C 191.054688 258.972656 191.824219 259.050781 192.585938 259.152344 C 193.351562 259.253906 194.105469 259.378906 194.847656 259.53125 C 195.59375 259.683594 196.324219 259.859375 197.042969 260.058594 C 197.761719 260.257812 198.464844 260.484375 199.148438 260.730469 C 199.835938 260.976562 200.5 261.242188 201.148438 261.535156 C 201.792969 261.824219 202.417969 262.136719 203.019531 262.46875 C 203.621094 262.796875 204.195312 263.148438 204.746094 263.519531 C 205.296875 263.886719 205.816406 264.273438 206.3125 264.679688 C 206.804688 265.082031 207.265625 265.503906 207.699219 265.9375 C 208.132812 266.371094 208.53125 266.820312 208.898438 267.28125 C 209.265625 267.742188 209.597656 268.214844 209.894531 268.695312 C 210.191406 269.179688 210.453125 269.671875 210.679688 270.171875 C 210.90625 270.671875 211.09375 271.175781 211.246094 271.691406 C 211.398438 272.203125 211.511719 272.71875 211.585938 273.238281 C 211.664062 273.757812 211.703125 274.28125 211.703125 274.804688 Z M 211.703125 274.804688 " fill-opacity="1" fill-rule="nonzero"/><path fill="#e83f60" d="M 211.703125 269.371094 C 211.703125 269.878906 211.664062 270.382812 211.585938 270.886719 C 211.511719 271.390625 211.398438 271.890625 211.246094 272.386719 C 211.09375 272.886719 210.90625 273.375 210.679688 273.859375 C 210.453125 274.34375 210.191406 274.820312 209.894531 275.289062 C 209.597656 275.757812 209.265625 276.214844 208.898438 276.660156 C 208.53125 277.105469 208.132812 277.542969 207.699219 277.960938 C 207.265625 278.382812 206.804688 278.789062 206.3125 279.179688 C 205.816406 279.574219 205.296875 279.945312 204.746094 280.304688 C 204.195312 280.664062 203.621094 281.003906 203.019531 281.324219 C 202.417969 281.644531 201.792969 281.945312 201.148438 282.226562 C 200.5 282.507812 199.835938 282.769531 199.148438 283.007812 C 198.464844 283.246094 197.761719 283.464844 197.042969 283.65625 C 196.324219 283.851562 195.59375 284.019531 194.847656 284.167969 C 194.105469 284.316406 193.351562 284.4375 192.585938 284.535156 C 191.824219 284.636719 191.054688 284.710938 190.28125 284.757812 C 189.507812 284.808594 188.734375 284.832031 187.953125 284.832031 C 187.175781 284.832031 186.402344 284.808594 185.628906 284.757812 C 184.855469 284.710938 184.085938 284.636719 183.324219 284.535156 C 182.558594 284.4375 181.804688 284.316406 181.0625 284.167969 C 180.316406 284.019531 179.585938 283.851562 178.867188 283.65625 C 178.148438 283.464844 177.445312 283.246094 176.761719 283.007812 C 176.074219 282.769531 175.410156 282.507812 174.761719 282.226562 C 174.117188 281.945312 173.492188 281.644531 172.890625 281.324219 C 172.289062 281.003906 171.714844 280.664062 171.164062 280.304688 C 170.613281 279.945312 170.09375 279.574219 169.597656 279.179688 C 169.105469 278.789062 168.644531 278.382812 168.210938 277.960938 C 167.777344 277.542969 167.378906 277.105469 167.011719 276.660156 C 166.644531 276.214844 166.3125 275.757812 166.015625 275.289062 C 165.71875 274.820312 165.457031 274.34375 165.230469 273.859375 C 165.003906 273.375 164.816406 272.886719 164.664062 272.386719 C 164.511719 271.890625 164.398438 271.390625 164.324219 270.886719 C 164.246094 270.382812 164.207031 269.878906 164.207031 269.371094 C 164.207031 268.867188 164.246094 268.359375 164.324219 267.855469 C 164.398438 267.351562 164.511719 266.851562 164.664062 266.355469 C 164.816406 265.859375 165.003906 265.367188 165.230469 264.882812 C 165.457031 264.398438 165.71875 263.921875 166.015625 263.457031 C 166.3125 262.988281 166.644531 262.53125 167.011719 262.082031 C 167.378906 261.636719 167.777344 261.203125 168.210938 260.78125 C 168.644531 260.359375 169.105469 259.953125 169.597656 259.5625 C 170.09375 259.171875 170.613281 258.796875 171.164062 258.4375 C 171.714844 258.082031 172.289062 257.742188 172.890625 257.421875 C 173.492188 257.097656 174.117188 256.796875 174.761719 256.515625 C 175.410156 256.234375 176.074219 255.976562 176.761719 255.738281 C 177.445312 255.496094 178.148438 255.28125 178.867188 255.085938 C 179.585938 254.894531 180.316406 254.722656 181.0625 254.578125 C 181.804688 254.429688 182.558594 254.308594 183.324219 254.207031 C 184.085938 254.109375 184.855469 254.035156 185.628906 253.984375 C 186.402344 253.9375 187.175781 253.910156 187.953125 253.910156 C 188.734375 253.910156 189.507812 253.9375 190.28125 253.984375 C 191.054688 254.035156 191.824219 254.109375 192.585938 254.207031 C 193.351562 254.308594 194.105469 254.429688 194.847656 254.578125 C 195.59375 254.722656 196.324219 254.894531 197.042969 255.085938 C 197.761719 255.28125 198.464844 255.496094 199.148438 255.738281 C 199.835938 255.976562 200.5 256.234375 201.148438 256.515625 C 201.792969 256.796875 202.417969 257.097656 203.019531 257.421875 C 203.621094 257.742188 204.195312 258.082031 204.746094 258.4375 C 205.296875 258.796875 205.816406 259.171875 206.3125 259.5625 C 206.804688 259.953125 207.265625 260.359375 207.699219 260.78125 C 208.132812 261.203125 208.53125 261.636719 208.898438 262.082031 C 209.265625 262.53125 209.597656 262.988281 209.894531 263.457031 C 210.191406 263.921875 210.453125 264.398438 210.679688 264.882812 C 210.90625 265.367188 211.09375 265.859375 211.246094 266.355469 C 211.398438 266.851562 211.511719 267.351562 211.585938 267.855469 C 211.664062 268.359375 211.703125 268.867188 211.703125 269.371094 Z M 211.703125 269.371094 " fill-opacity="1" fill-rule="nonzero"/><path fill="#c0374f" d="M 150.671875 296.191406 C 150.671875 296.714844 150.632812 297.234375 150.554688 297.753906 C 150.480469 298.277344 150.367188 298.792969 150.214844 299.304688 C 150.0625 299.816406 149.875 300.324219 149.648438 300.824219 C 149.421875 301.324219 149.160156 301.816406 148.863281 302.296875 C 148.566406 302.78125 148.234375 303.253906 147.867188 303.714844 C 147.5 304.175781 147.101562 304.625 146.667969 305.058594 C 146.238281 305.492188 145.773438 305.910156 145.28125 306.316406 C 144.789062 306.71875 144.265625 307.105469 143.714844 307.476562 C 143.164062 307.84375 142.589844 308.195312 141.988281 308.527344 C 141.386719 308.859375 140.765625 309.171875 140.117188 309.460938 C 139.46875 309.75 138.804688 310.019531 138.117188 310.265625 C 137.433594 310.511719 136.730469 310.734375 136.011719 310.933594 C 135.292969 311.136719 134.5625 311.3125 133.816406 311.464844 C 133.074219 311.613281 132.320312 311.742188 131.558594 311.84375 C 130.792969 311.945312 130.027344 312.023438 129.253906 312.074219 C 128.476562 312.125 127.703125 312.148438 126.925781 312.148438 C 126.148438 312.148438 125.371094 312.125 124.597656 312.074219 C 123.824219 312.023438 123.054688 311.945312 122.292969 311.84375 C 121.527344 311.742188 120.777344 311.613281 120.03125 311.464844 C 119.285156 311.3125 118.554688 311.136719 117.835938 310.933594 C 117.117188 310.734375 116.417969 310.511719 115.730469 310.265625 C 115.042969 310.019531 114.378906 309.75 113.730469 309.460938 C 113.085938 309.171875 112.460938 308.859375 111.859375 308.527344 C 111.257812 308.195312 110.683594 307.84375 110.132812 307.476562 C 109.582031 307.105469 109.0625 306.71875 108.566406 306.316406 C 108.074219 305.910156 107.613281 305.492188 107.179688 305.058594 C 106.746094 304.625 106.347656 304.175781 105.980469 303.714844 C 105.617188 303.253906 105.285156 302.78125 104.984375 302.296875 C 104.6875 301.816406 104.425781 301.324219 104.199219 300.824219 C 103.976562 300.324219 103.785156 299.816406 103.632812 299.304688 C 103.484375 298.792969 103.367188 298.277344 103.292969 297.753906 C 103.214844 297.234375 103.179688 296.714844 103.179688 296.191406 C 103.179688 295.667969 103.214844 295.148438 103.292969 294.628906 C 103.367188 294.105469 103.484375 293.589844 103.632812 293.078125 C 103.785156 292.566406 103.976562 292.058594 104.199219 291.558594 C 104.425781 291.058594 104.6875 290.566406 104.984375 290.085938 C 105.285156 289.601562 105.617188 289.128906 105.980469 288.667969 C 106.347656 288.207031 106.746094 287.757812 107.179688 287.324219 C 107.613281 286.890625 108.074219 286.472656 108.566406 286.066406 C 109.0625 285.664062 109.582031 285.277344 110.132812 284.90625 C 110.683594 284.539062 111.257812 284.1875 111.859375 283.855469 C 112.460938 283.523438 113.085938 283.210938 113.730469 282.921875 C 114.378906 282.632812 115.042969 282.363281 115.730469 282.117188 C 116.417969 281.871094 117.117188 281.648438 117.835938 281.449219 C 118.554688 281.246094 119.285156 281.070312 120.03125 280.917969 C 120.777344 280.769531 121.527344 280.640625 122.292969 280.539062 C 123.054688 280.4375 123.824219 280.359375 124.597656 280.308594 C 125.371094 280.257812 126.148438 280.234375 126.925781 280.234375 C 127.703125 280.234375 128.476562 280.257812 129.253906 280.308594 C 130.027344 280.359375 130.792969 280.4375 131.558594 280.539062 C 132.320312 280.640625 133.074219 280.769531 133.816406 280.917969 C 134.5625 281.070312 135.292969 281.246094 136.011719 281.449219 C 136.730469 281.648438 137.433594 281.871094 138.117188 282.117188 C 138.804688 282.363281 139.46875 282.632812 140.117188 282.921875 C 140.765625 283.210938 141.386719 283.523438 141.988281 283.855469 C 142.589844 284.1875 143.164062 284.539062 143.714844 284.90625 C 144.265625 285.277344 144.789062 285.664062 145.28125 286.066406 C 145.773438 286.472656 146.238281 286.890625 146.667969 287.324219 C 147.101562 287.757812 147.5 288.207031 147.867188 288.667969 C 148.234375 289.128906 148.566406 289.601562 148.863281 290.085938 C 149.160156 290.566406 149.421875 291.058594 149.648438 291.558594 C 149.875 292.058594 150.0625 292.566406 150.214844 293.078125 C 150.367188 293.589844 150.480469 294.105469 150.554688 294.628906 C 150.632812 295.148438 150.671875 295.667969 150.671875 296.191406 Z M 150.671875 296.191406 " fill-opacity="1" fill-rule="nonzero"/><path fill="#e83f60" d="M 150.671875 290.761719 C 150.671875 291.265625 150.632812 291.773438 150.554688 292.277344 C 150.480469 292.78125 150.367188 293.28125 150.214844 293.777344 C 150.0625 294.273438 149.875 294.765625 149.648438 295.25 C 149.421875 295.734375 149.160156 296.210938 148.863281 296.675781 C 148.566406 297.144531 148.234375 297.601562 147.867188 298.050781 C 147.5 298.496094 147.101562 298.929688 146.667969 299.351562 C 146.238281 299.773438 145.773438 300.179688 145.28125 300.570312 C 144.789062 300.960938 144.265625 301.335938 143.714844 301.695312 C 143.164062 302.050781 142.589844 302.390625 141.988281 302.710938 C 141.386719 303.035156 140.765625 303.335938 140.117188 303.617188 C 139.46875 303.898438 138.804688 304.15625 138.117188 304.398438 C 137.433594 304.636719 136.730469 304.851562 136.011719 305.046875 C 135.292969 305.238281 134.5625 305.410156 133.816406 305.554688 C 133.074219 305.703125 132.320312 305.828125 131.558594 305.925781 C 130.792969 306.023438 130.027344 306.097656 129.253906 306.148438 C 128.476562 306.199219 127.703125 306.222656 126.925781 306.222656 C 126.148438 306.222656 125.371094 306.199219 124.597656 306.148438 C 123.824219 306.097656 123.054688 306.023438 122.292969 305.925781 C 121.527344 305.828125 120.777344 305.703125 120.03125 305.554688 C 119.285156 305.410156 118.554688 305.238281 117.835938 305.046875 C 117.117188 304.851562 116.417969 304.636719 115.730469 304.398438 C 115.042969 304.15625 114.378906 303.898438 113.730469 303.617188 C 113.085938 303.335938 112.460938 303.035156 111.859375 302.710938 C 111.257812 302.390625 110.683594 302.050781 110.132812 301.695312 C 109.582031 301.335938 109.0625 300.960938 108.566406 300.570312 C 108.074219 300.179688 107.613281 299.773438 107.179688 299.351562 C 106.746094 298.929688 106.347656 298.496094 105.980469 298.050781 C 105.617188 297.601562 105.285156 297.144531 104.984375 296.675781 C 104.6875 296.210938 104.425781 295.734375 104.199219 295.25 C 103.976562 294.765625 103.785156 294.273438 103.632812 293.777344 C 103.484375 293.28125 103.367188 292.78125 103.292969 292.277344 C 103.214844 291.773438 103.179688 291.265625 103.179688 290.761719 C 103.179688 290.253906 103.214844 289.75 103.292969 289.246094 C 103.367188 288.742188 103.484375 288.242188 103.632812 287.746094 C 103.785156 287.246094 103.976562 286.757812 104.199219 286.273438 C 104.425781 285.789062 104.6875 285.3125 104.984375 284.84375 C 105.285156 284.375 105.617188 283.917969 105.980469 283.472656 C 106.347656 283.027344 106.746094 282.59375 107.179688 282.171875 C 107.613281 281.75 108.074219 281.34375 108.566406 280.953125 C 109.0625 280.5625 109.582031 280.1875 110.132812 279.828125 C 110.683594 279.46875 111.257812 279.128906 111.859375 278.808594 C 112.460938 278.488281 113.085938 278.1875 113.730469 277.90625 C 114.378906 277.625 115.042969 277.363281 115.730469 277.125 C 116.417969 276.886719 117.117188 276.671875 117.835938 276.476562 C 118.554688 276.28125 119.285156 276.113281 120.03125 275.964844 C 120.777344 275.816406 121.527344 275.695312 122.292969 275.597656 C 123.054688 275.496094 123.824219 275.421875 124.597656 275.375 C 125.371094 275.324219 126.148438 275.300781 126.925781 275.300781 C 127.703125 275.300781 128.476562 275.324219 129.253906 275.375 C 130.027344 275.421875 130.792969 275.496094 131.558594 275.597656 C 132.320312 275.695312 133.074219 275.816406 133.816406 275.964844 C 134.5625 276.113281 135.292969 276.28125 136.011719 276.476562 C 136.730469 276.671875 137.433594 276.886719 138.117188 277.125 C 138.804688 277.363281 139.46875 277.625 140.117188 277.90625 C 140.765625 278.1875 141.386719 278.488281 141.988281 278.808594 C 142.589844 279.128906 143.164062 279.46875 143.714844 279.828125 C 144.265625 280.1875 144.789062 280.5625 145.28125 280.953125 C 145.773438 281.34375 146.238281 281.75 146.667969 282.171875 C 147.101562 282.59375 147.5 283.027344 147.867188 283.472656 C 148.234375 283.917969 148.566406 284.375 148.863281 284.84375 C 149.160156 285.3125 149.421875 285.789062 149.648438 286.273438 C 149.875 286.757812 150.0625 287.246094 150.214844 287.746094 C 150.367188 288.242188 150.480469 288.742188 150.554688 289.246094 C 150.632812 289.75 150.671875 290.253906 150.671875 290.761719 Z M 150.671875 290.761719 " fill-opacity="1" fill-rule="nonzero"/><path fill="#c0374f" d="M 99.84375 334.394531 C 99.84375 334.917969 99.808594 335.4375 99.730469 335.957031 C 99.65625 336.476562 99.542969 336.996094 99.390625 337.507812 C 99.238281 338.019531 99.050781 338.527344 98.824219 339.027344 C 98.597656 339.527344 98.335938 340.019531 98.039062 340.5 C 97.742188 340.984375 97.410156 341.457031 97.042969 341.917969 C 96.675781 342.378906 96.277344 342.824219 95.84375 343.257812 C 95.410156 343.695312 94.949219 344.113281 94.457031 344.515625 C 93.960938 344.921875 93.441406 345.308594 92.890625 345.679688 C 92.339844 346.046875 91.765625 346.398438 91.164062 346.730469 C 90.5625 347.0625 89.9375 347.371094 89.292969 347.664062 C 88.644531 347.953125 87.980469 348.222656 87.292969 348.46875 C 86.605469 348.714844 85.90625 348.9375 85.1875 349.136719 C 84.46875 349.335938 83.738281 349.511719 82.992188 349.664062 C 82.25 349.816406 81.496094 349.941406 80.730469 350.046875 C 79.96875 350.148438 79.199219 350.222656 78.425781 350.273438 C 77.652344 350.328125 76.875 350.351562 76.097656 350.351562 C 75.320312 350.351562 74.546875 350.328125 73.773438 350.273438 C 72.996094 350.222656 72.230469 350.148438 71.464844 350.046875 C 70.703125 349.941406 69.949219 349.816406 69.207031 349.664062 C 68.460938 349.511719 67.730469 349.335938 67.011719 349.136719 C 66.292969 348.9375 65.589844 348.714844 64.90625 348.46875 C 64.21875 348.222656 63.554688 347.953125 62.90625 347.664062 C 62.257812 347.371094 61.636719 347.0625 61.035156 346.730469 C 60.433594 346.398438 59.859375 346.046875 59.308594 345.679688 C 58.757812 345.308594 58.238281 344.921875 57.742188 344.515625 C 57.25 344.113281 56.785156 343.695312 56.355469 343.257812 C 55.921875 342.824219 55.523438 342.378906 55.15625 341.917969 C 54.789062 341.457031 54.457031 340.984375 54.160156 340.5 C 53.863281 340.019531 53.601562 339.527344 53.375 339.027344 C 53.148438 338.527344 52.960938 338.019531 52.808594 337.507812 C 52.65625 336.996094 52.542969 336.476562 52.46875 335.957031 C 52.390625 335.4375 52.351562 334.917969 52.351562 334.394531 C 52.351562 333.871094 52.390625 333.351562 52.46875 332.828125 C 52.542969 332.308594 52.65625 331.792969 52.808594 331.28125 C 52.960938 330.769531 53.148438 330.261719 53.375 329.761719 C 53.601562 329.261719 53.863281 328.769531 54.160156 328.285156 C 54.457031 327.804688 54.789062 327.332031 55.15625 326.871094 C 55.523438 326.410156 55.921875 325.960938 56.355469 325.527344 C 56.785156 325.09375 57.25 324.675781 57.742188 324.269531 C 58.238281 323.867188 58.757812 323.480469 59.308594 323.109375 C 59.859375 322.742188 60.433594 322.390625 61.035156 322.058594 C 61.636719 321.726562 62.257812 321.414062 62.90625 321.125 C 63.554688 320.835938 64.21875 320.566406 64.90625 320.320312 C 65.589844 320.074219 66.292969 319.851562 67.011719 319.652344 C 67.730469 319.449219 68.460938 319.273438 69.207031 319.125 C 69.949219 318.972656 70.703125 318.84375 71.464844 318.742188 C 72.230469 318.640625 72.996094 318.5625 73.773438 318.511719 C 74.546875 318.460938 75.320312 318.4375 76.097656 318.4375 C 76.875 318.4375 77.652344 318.460938 78.425781 318.511719 C 79.199219 318.5625 79.96875 318.640625 80.730469 318.742188 C 81.496094 318.84375 82.25 318.972656 82.992188 319.125 C 83.738281 319.273438 84.46875 319.449219 85.1875 319.652344 C 85.90625 319.851562 86.605469 320.074219 87.292969 320.320312 C 87.980469 320.566406 88.644531 320.835938 89.292969 321.125 C 89.9375 321.414062 90.5625 321.726562 91.164062 322.058594 C 91.765625 322.390625 92.339844 322.742188 92.890625 323.109375 C 93.441406 323.480469 93.960938 323.867188 94.457031 324.269531 C 94.949219 324.675781 95.410156 325.09375 95.84375 325.527344 C 96.277344 325.960938 96.675781 326.410156 97.042969 326.871094 C 97.410156 327.332031 97.742188 327.804688 98.039062 328.285156 C 98.335938 328.769531 98.597656 329.261719 98.824219 329.761719 C 99.050781 330.261719 99.238281 330.769531 99.390625 331.28125 C 99.542969 331.792969 99.65625 332.308594 99.730469 332.828125 C 99.808594 333.351562 99.84375 333.871094 99.84375 334.394531 Z M 99.84375 334.394531 " fill-opacity="1" fill-rule="nonzero"/><path fill="#e83f60" d="M 99.84375 328.960938 C 99.84375 329.46875 99.808594 329.972656 99.730469 330.476562 C 99.65625 330.980469 99.542969 331.480469 99.390625 331.980469 C 99.238281 332.476562 99.050781 332.964844 98.824219 333.449219 C 98.597656 333.933594 98.335938 334.410156 98.039062 334.878906 C 97.742188 335.347656 97.410156 335.804688 97.042969 336.25 C 96.675781 336.699219 96.277344 337.132812 95.84375 337.550781 C 95.410156 337.972656 94.949219 338.378906 94.457031 338.769531 C 93.960938 339.164062 93.441406 339.535156 92.890625 339.894531 C 92.339844 340.253906 91.765625 340.59375 91.164062 340.914062 C 90.5625 341.234375 89.9375 341.535156 89.292969 341.816406 C 88.644531 342.097656 87.980469 342.359375 87.292969 342.597656 C 86.605469 342.835938 85.90625 343.054688 85.1875 343.246094 C 84.46875 343.441406 83.738281 343.609375 82.992188 343.757812 C 82.25 343.90625 81.496094 344.027344 80.730469 344.125 C 79.96875 344.226562 79.199219 344.300781 78.425781 344.347656 C 77.652344 344.398438 76.875 344.421875 76.097656 344.421875 C 75.320312 344.421875 74.546875 344.398438 73.773438 344.347656 C 72.996094 344.300781 72.230469 344.226562 71.464844 344.125 C 70.703125 344.027344 69.949219 343.90625 69.207031 343.757812 C 68.460938 343.609375 67.730469 343.441406 67.011719 343.246094 C 66.292969 343.054688 65.589844 342.835938 64.90625 342.597656 C 64.21875 342.359375 63.554688 342.097656 62.90625 341.816406 C 62.257812 341.535156 61.636719 341.234375 61.035156 340.914062 C 60.433594 340.59375 59.859375 340.253906 59.308594 339.894531 C 58.757812 339.535156 58.238281 339.164062 57.742188 338.769531 C 57.25 338.378906 56.785156 337.972656 56.355469 337.550781 C 55.921875 337.132812 55.523438 336.699219 55.15625 336.25 C 54.789062 335.804688 54.457031 335.347656 54.160156 334.878906 C 53.863281 334.410156 53.601562 333.933594 53.375 333.449219 C 53.148438 332.964844 52.960938 332.476562 52.808594 331.980469 C 52.65625 331.480469 52.542969 330.980469 52.46875 330.476562 C 52.390625 329.972656 52.351562 329.46875 52.351562 328.960938 C 52.351562 328.457031 52.390625 327.949219 52.46875 327.445312 C 52.542969 326.941406 52.65625 326.441406 52.808594 325.945312 C 52.960938 325.449219 53.148438 324.957031 53.375 324.472656 C 53.601562 323.988281 53.863281 323.511719 54.160156 323.046875 C 54.457031 322.578125 54.789062 322.121094 55.15625 321.671875 C 55.523438 321.226562 55.921875 320.792969 56.355469 320.371094 C 56.785156 319.953125 57.25 319.546875 57.742188 319.152344 C 58.238281 318.761719 58.757812 318.386719 59.308594 318.03125 C 59.859375 317.671875 60.433594 317.332031 61.035156 317.011719 C 61.636719 316.6875 62.257812 316.386719 62.90625 316.105469 C 63.554688 315.824219 64.21875 315.566406 64.90625 315.328125 C 65.589844 315.085938 66.292969 314.871094 67.011719 314.679688 C 67.730469 314.484375 68.460938 314.3125 69.207031 314.167969 C 69.949219 314.019531 70.703125 313.898438 71.464844 313.796875 C 72.230469 313.699219 72.996094 313.625 73.773438 313.574219 C 74.546875 313.527344 75.320312 313.5 76.097656 313.5 C 76.875 313.5 77.652344 313.527344 78.425781 313.574219 C 79.199219 313.625 79.96875 313.699219 80.730469 313.796875 C 81.496094 313.898438 82.25 314.019531 82.992188 314.167969 C 83.738281 314.3125 84.46875 314.484375 85.1875 314.679688 C 85.90625 314.871094 86.605469 315.085938 87.292969 315.328125 C 87.980469 315.566406 88.644531 315.824219 89.292969 316.105469 C 89.9375 316.386719 90.5625 316.6875 91.164062 317.011719 C 91.765625 317.332031 92.339844 317.671875 92.890625 318.03125 C 93.441406 318.386719 93.960938 318.761719 94.457031 319.152344 C 94.949219 319.546875 95.410156 319.953125 95.84375 320.371094 C 96.277344 320.792969 96.675781 321.226562 97.042969 321.671875 C 97.410156 322.121094 97.742188 322.578125 98.039062 323.046875 C 98.335938 323.511719 98.597656 323.988281 98.824219 324.472656 C 99.050781 324.957031 99.238281 325.449219 99.390625 325.945312 C 99.542969 326.441406 99.65625 326.941406 99.730469 327.445312 C 99.808594 327.949219 99.84375 328.457031 99.84375 328.960938 Z M 99.84375 328.960938 " fill-opacity="1" fill-rule="nonzero"/></svg>