<svg xmlns="http://www.w3.org/2000/svg" xmlns:xlink="http://www.w3.org/1999/xlink" zoomAndPan="magnify" preserveAspectRatio="xMidYMid meet" version="1.0" viewBox="20 234.14 263 194.25"><defs><clipPath id="0e6911399c"><path d="M 20 234.144531 L 283 234.144531 L 283 399 L 20 399 Z M 20 234.144531 " clip-rule="nonzero"/></clipPath></defs><path fill="#f8f0cc" d="M 103.285156 382.445312 C 103.234375 382.445312 103.234375 382.550781 103.285156 382.550781 C 103.335938 382.550781 103.335938 382.445312 103.285156 382.445312 " fill-opacity="1" fill-rule="nonzero"/><path fill="#48775d" d="M 276.371094 301.070312 C 243.03125 259.886719 183.222656 260.621094 133.582031 264.234375 C 98.042969 269.160156 56.054688 264.339844 28.273438 289.335938 C -7.632812 336.914062 87.925781 418.390625 131.382812 424.996094 C 181.914062 438.878906 228.773438 408.28125 257.445312 368.457031 C 269.972656 352.109375 292.882812 321.140625 276.371094 301.070312 " fill-opacity="1" fill-rule="nonzero"/><g clip-path="url(#0e6911399c)"><path fill="#f8f0cc" d="M 255.613281 267.171875 C 224.949219 243.539062 183.535156 234.160156 139.035156 234.945312 C 52.910156 237.40625 -17.589844 302.539062 44.316406 359.96875 C 73.195312 385.75 105.695312 398.796875 160.210938 398.796875 C 239.046875 398.429688 328.160156 327.007812 255.613281 267.171875 " fill-opacity="1" fill-rule="nonzero"/></g><path fill="#48775d" d="M 248.796875 269.582031 C 220.125 248.097656 181.441406 239.660156 139.871094 240.34375 C 59.410156 242.542969 -6.425781 301.648438 51.390625 353.785156 C 78.332031 377.15625 108.738281 388.996094 159.632812 388.996094 C 233.28125 388.628906 316.574219 323.867188 248.796875 269.582031 " fill-opacity="1" fill-rule="nonzero"/><path fill="#f57e3f" d="M 266.304688 309.089844 C 265.464844 302.90625 261.902344 297.613281 258.179688 292.742188 C 254.773438 288.285156 250.84375 284.253906 246.542969 280.636719 C 237.582031 273.089844 227.097656 267.539062 216.246094 263.082031 C 211.003906 260.933594 205.605469 258.734375 200.152344 257.109375 C 193.234375 255.066406 186.15625 254.488281 179.082031 253.757812 C 171.742188 253.023438 164.667969 251.1875 157.222656 250.875 C 149.726562 250.558594 142.230469 250.925781 134.734375 251.1875 C 127.972656 251.449219 121.632812 252.027344 115.078125 253.703125 C 108.472656 255.433594 101.972656 257.582031 95.578125 259.992188 C 86.355469 263.503906 77.234375 267.640625 68.6875 272.566406 C 59.515625 273.878906 53.121094 280.636719 48.558594 288.234375 C 45.886719 291.589844 43.949219 295.414062 43.054688 299.761719 C 40.332031 307.097656 39.074219 314.851562 40.4375 322.816406 C 42.375 334.1875 47.460938 345.347656 55.53125 353.785156 C 59.882812 358.394531 64.863281 362.273438 70.523438 365.207031 C 76.445312 368.246094 82.894531 370.027344 89.027344 372.542969 C 92.277344 373.90625 95.476562 375.320312 98.722656 376.683594 C 100.558594 377.46875 102.394531 378.203125 104.28125 378.882812 C 104.859375 379.09375 105.433594 379.304688 106.011719 379.511719 C 111.722656 381.453125 117.59375 382.972656 123.464844 384.125 C 135.574219 386.480469 147.894531 387.058594 160.210938 386.167969 C 184.691406 384.386719 208.75 377.785156 230.347656 366.097656 C 240.832031 360.441406 250.578125 354.046875 256.921875 343.722656 C 260.015625 338.746094 261.851562 333.402344 263.476562 327.847656 C 265.203125 321.875 267.195312 315.429688 266.304688 309.089844 " fill-opacity="1" fill-rule="nonzero"/><path fill="#f8f0cc" d="M 156.4375 341.679688 C 156.542969 329.890625 152.085938 322.242188 142.753906 317 C 123.257812 306.050781 96.785156 314.066406 83.628906 325.332031 C 71.519531 334.710938 62.976562 348.019531 73.144531 362.535156 C 80.691406 373.277344 92.015625 376.894531 105.171875 375.949219 C 117.960938 375.058594 128.027344 373.855469 139.558594 368.195312 C 149.519531 363.320312 156.332031 353.050781 156.4375 341.679688 " fill-opacity="1" fill-rule="nonzero"/><path fill="#fedd58" d="M 134.894531 327.691406 C 130.4375 325.125 125.300781 324.230469 120.164062 324.546875 C 105.382812 323.761719 87.769531 333.085938 91.070312 348.441406 C 96.105469 371.496094 134.367188 369.03125 143.804688 350.902344 C 148.417969 342.203125 142.652344 332.195312 134.894531 327.691406 " fill-opacity="1" fill-rule="nonzero"/><path fill="#f8f0cc" d="M 114.871094 275.03125 C 110.308594 265.859375 103.808594 261.722656 94.53125 261.355469 C 75.136719 260.566406 57.839844 277.179688 52.125 291.0625 C 46.464844 303.117188 45.101562 316.738281 58.675781 323.96875 C 68.742188 329.316406 78.910156 327.636719 88.710938 321.71875 C 98.199219 316.003906 105.539062 311.082031 112.195312 302.171875 C 117.960938 294.46875 119.21875 283.832031 114.871094 275.03125 " fill-opacity="1" fill-rule="nonzero"/><path fill="#fedd58" d="M 92.644531 272.671875 C 88.1875 272.410156 83.890625 273.773438 80.011719 276.078125 C 68.269531 281.316406 58.308594 295.464844 66.960938 305.996094 C 79.90625 321.820312 108.527344 304.84375 108.683594 287.132812 C 108.839844 278.59375 100.402344 273.089844 92.644531 272.671875 " fill-opacity="1" fill-rule="nonzero"/><path fill="#f2f2f2" d="M 182.90625 258.417969 C 182.804688 258.417969 182.855469 258.578125 182.90625 258.578125 C 183.011719 258.578125 183.011719 258.417969 182.90625 258.417969 " fill-opacity="1" fill-rule="nonzero"/><path fill="#fedd58" d="M 167.289062 388.210938 C 167.234375 388.210938 167.234375 388.261719 167.289062 388.261719 C 167.339844 388.261719 167.339844 388.210938 167.289062 388.210938 " fill-opacity="1" fill-rule="nonzero"/><path fill="#fedd58" d="M 254.722656 331.359375 C 254.5625 331.359375 254.40625 331.410156 254.300781 331.410156 C 253.515625 330.886719 252.46875 330.574219 251.050781 330.835938 C 250.578125 330.9375 250.265625 331.148438 250.109375 331.410156 C 248.535156 328.894531 244.972656 327.796875 241.144531 328.789062 C 241.039062 328.84375 240.988281 328.84375 240.882812 328.894531 C 239.46875 327.898438 237.421875 327.429688 235.273438 327.691406 C 235.222656 327.691406 235.167969 327.691406 235.0625 327.691406 C 234.539062 327.691406 234.015625 327.742188 233.492188 327.847656 C 232.808594 325.175781 231.917969 322.554688 229.191406 320.984375 C 229.824219 320.929688 230.398438 320.878906 231.027344 320.828125 C 232.863281 320.5625 234.539062 320.09375 236.113281 319.359375 C 237.582031 318.679688 238.785156 317.839844 240.042969 317 C 242.351562 315.378906 245.601562 312.441406 242.664062 310.191406 C 242.140625 309.769531 241.355469 309.613281 240.671875 309.980469 C 240.097656 310.292969 239.886719 310.976562 240.410156 311.394531 C 241.25 312.074219 240.882812 312.703125 240.148438 313.492188 C 239.308594 314.382812 238.261719 315.0625 237.160156 315.742188 C 235.902344 316.53125 234.644531 317.261719 233.070312 317.734375 C 231.550781 318.207031 230.085938 318.363281 228.355469 318.417969 C 228.929688 317.945312 229.507812 317.472656 230.03125 316.949219 C 230.085938 316.898438 230.136719 316.898438 230.1875 316.84375 C 231.289062 316.003906 232.339844 315.113281 233.386719 314.222656 C 235.429688 312.441406 237.316406 310.554688 238.890625 308.511719 C 239.414062 307.832031 237.84375 307.308594 237.316406 308.042969 C 236.375 309.296875 235.273438 310.453125 234.121094 311.550781 C 234.59375 310.242188 234.59375 308.878906 233.335938 307.777344 C 231.082031 305.789062 226.308594 305.789062 223.269531 306.730469 C 220.019531 307.726562 217.714844 309.824219 216.71875 312.179688 C 216.195312 313.492188 215.984375 314.90625 216.351562 316.269531 C 216.613281 317.210938 217.085938 318.257812 217.921875 319.097656 C 209.167969 314.433594 197.269531 319.726562 190.664062 324.230469 C 186.367188 327.167969 183.066406 330.625 180.128906 334.292969 C 178.664062 336.125 177.351562 338.066406 175.988281 339.953125 C 174.679688 341.734375 172.371094 343.199219 171.847656 345.246094 C 167.128906 346.292969 162.097656 347.863281 160.210938 350.902344 C 159.632812 351.847656 161.679688 352.476562 162.308594 351.53125 C 163.671875 349.488281 167.234375 348.492188 170.011719 347.757812 C 173.160156 346.921875 176.460938 346.398438 179.761719 345.871094 C 184.691406 345.140625 189.617188 344.511719 194.542969 343.777344 C 195.382812 343.621094 196.273438 343.515625 197.113281 343.359375 C 191.085938 345.453125 184.742188 347.339844 178.398438 348.964844 C 172.949219 350.328125 167.445312 351.269531 163.460938 354.519531 C 163.144531 354.726562 163.199219 354.992188 163.355469 355.199219 C 163.25 355.253906 163.09375 355.253906 162.988281 355.304688 C 159.320312 356.5625 155.964844 357.925781 153.398438 360.175781 C 151.144531 362.117188 149.308594 364.316406 147.789062 366.570312 C 145.007812 370.710938 141.8125 378.203125 149.9375 380.402344 C 152.085938 380.980469 153.921875 378.988281 152.035156 377.886719 C 149.675781 376.527344 149.359375 374.535156 149.9375 372.492188 C 149.9375 372.542969 149.9375 372.597656 149.988281 372.597656 C 151.300781 375.425781 155.125 376.210938 158.902344 376.160156 C 160.890625 376.105469 160.789062 374.21875 159.371094 373.644531 C 158.324219 373.226562 155.808594 372.492188 155.125 371.757812 C 154.234375 370.710938 155.546875 369.03125 156.382812 368.195312 C 159.164062 365.46875 163.566406 363.425781 167.863281 362.0625 C 177.402344 358.972656 187.992188 358.1875 198.265625 357.191406 C 195.644531 358.867188 193.601562 360.964844 191.398438 362.953125 C 188.621094 365.523438 185.476562 367.878906 182.4375 370.238281 C 182.121094 370.238281 181.808594 370.238281 181.441406 370.238281 C 174.730469 370.027344 167.023438 370.5 160.839844 368.351562 C 159.003906 367.722656 157.90625 369.714844 159.582031 370.394531 C 162.097656 371.445312 164.929688 371.96875 167.757812 372.386719 C 167.183594 372.492188 166.660156 372.910156 166.921875 373.433594 C 167.96875 375.476562 170.851562 376.265625 173.996094 376.578125 C 172.894531 377.207031 171.796875 377.835938 170.746094 378.515625 C 169.121094 379.511719 167.550781 380.5625 165.765625 381.398438 C 164.089844 382.183594 162.152344 382.5 160.683594 383.546875 C 160 384.070312 160.210938 385.066406 160.996094 385.433594 C 164.824219 387.371094 169.542969 383.964844 172.164062 382.238281 C 174.835938 380.457031 177.457031 378.726562 179.972656 376.839844 C 180.339844 376.839844 180.652344 376.839844 180.96875 376.839844 C 182.644531 376.839844 184.269531 376.894531 185.949219 376.894531 C 185.265625 377.625 184.53125 378.308594 183.695312 378.9375 C 182.070312 380.089844 180.183594 381.191406 178.136719 381.976562 C 176.199219 382.710938 174.050781 383.023438 172.320312 384.019531 C 171.636719 384.4375 171.636719 385.382812 172.582031 385.589844 C 176.722656 386.585938 181.125 384.332031 184.167969 382.5 C 186.839844 380.875 188.777344 378.9375 190.5625 376.839844 C 194.753906 376.683594 198.789062 376.105469 202.566406 374.484375 C 203.246094 374.167969 202.617188 373.433594 201.882812 373.644531 C 198.84375 374.484375 195.539062 374.796875 192.1875 374.902344 C 192.289062 374.746094 192.449219 374.585938 192.554688 374.429688 C 192.917969 373.957031 193.234375 373.539062 193.550781 373.066406 C 197.53125 372.542969 201.359375 371.601562 205.027344 370.238281 C 205.917969 369.925781 205.710938 368.824219 204.558594 368.929688 C 201.671875 369.242188 198.738281 369.558594 195.804688 369.820312 C 197.007812 368.039062 198.265625 366.257812 199.996094 364.632812 C 201.464844 363.21875 202.933594 361.800781 204.398438 360.335938 C 205.65625 359.078125 207.175781 357.664062 209.273438 357.085938 C 209.851562 356.929688 210.007812 356.5625 209.902344 356.246094 C 214.042969 355.882812 218.183594 355.460938 222.222656 354.78125 C 221.75 355.09375 221.332031 355.410156 220.859375 355.722656 C 220.28125 356.144531 219.652344 356.5625 219.023438 356.929688 C 218.449219 357.296875 217.765625 357.558594 217.191406 357.871094 C 214.832031 359.183594 212.890625 360.964844 211.160156 362.691406 C 210.636719 363.21875 211.527344 363.949219 212.316406 363.53125 C 213.519531 362.851562 214.464844 362.0625 215.460938 361.277344 C 216.457031 360.441406 217.503906 359.652344 218.710938 358.972656 C 219.96875 358.292969 221.171875 357.609375 222.328125 356.824219 C 223.53125 355.984375 224.683594 355.199219 225.890625 354.363281 C 226.046875 354.257812 226.152344 354.097656 226.207031 353.941406 C 227.933594 353.574219 229.664062 353.15625 231.34375 352.632812 C 235.851562 351.269531 240.042969 349.382812 244.078125 347.445312 C 246.859375 346.082031 249.792969 344.773438 252.152344 343.042969 C 250.527344 344.5625 248.691406 345.976562 246.648438 347.234375 C 242.191406 350.011719 237.632812 352.632812 233.4375 355.617188 C 229.191406 358.605469 224.789062 361.855469 222.796875 365.941406 C 222.484375 366.621094 223.53125 367.355469 224.421875 366.832031 C 230.03125 363.480469 234.382812 359.128906 239.730469 355.566406 C 244.8125 352.160156 250.632812 349.277344 255.035156 345.402344 C 258.074219 342.675781 259.960938 339.792969 260.226562 336.335938 C 260.277344 333.769531 259.230469 331.148438 254.722656 331.359375 M 176.617188 374.902344 C 176.042969 374.902344 175.414062 374.902344 174.835938 374.847656 C 172.792969 374.691406 169.910156 374.429688 169.015625 372.859375 C 168.964844 372.699219 168.808594 372.597656 168.703125 372.542969 C 169.070312 372.597656 169.488281 372.648438 169.855469 372.699219 C 172.632812 373.066406 175.464844 373.382812 178.347656 373.589844 C 177.769531 374.0625 177.195312 374.484375 176.617188 374.902344 M 242.925781 332.773438 C 243.03125 331.933594 242.820312 331.097656 242.351562 330.414062 C 245.601562 329.734375 247.957031 331.304688 248.324219 333.664062 C 248.691406 335.917969 246.859375 337.960938 244.65625 339.480469 C 240.933594 341.996094 236.058594 343.359375 231.238281 344.511719 C 232.128906 343.933594 233.019531 343.359375 233.859375 342.730469 C 237.476562 340.058594 242.402344 336.652344 242.925781 332.773438 M 239.152344 332.355469 C 238.785156 333.664062 237.316406 334.816406 236.058594 335.8125 C 233.019531 338.117188 230.242188 340.476562 226.78125 342.46875 C 224.527344 343.777344 222.167969 344.824219 219.601562 345.714844 C 220.386719 344.980469 221.171875 344.25 221.960938 343.515625 C 223.847656 341.734375 225.941406 340.109375 228.039062 338.433594 C 229.613281 337.175781 231.082031 335.863281 232.808594 334.710938 C 234.382812 333.664062 236.480469 332.300781 238.839844 332.40625 C 238.996094 332.40625 239.046875 332.40625 239.152344 332.355469 M 235.429688 329.578125 C 235.484375 329.578125 235.535156 329.578125 235.589844 329.523438 C 236.6875 329.523438 237.789062 329.785156 238.523438 330.363281 C 233.386719 330.3125 229.246094 333.820312 226.046875 336.285156 C 224.894531 337.175781 223.636719 338.066406 222.429688 338.957031 C 221.226562 339.847656 220.28125 340.84375 219.234375 341.785156 C 217.609375 343.359375 215.722656 345.140625 215.144531 347.078125 C 212.945312 347.601562 210.691406 348.019531 208.4375 348.441406 C 208.226562 348.492188 208.070312 348.492188 207.859375 348.546875 C 211.003906 346.34375 213.519531 343.460938 216.140625 341.105469 C 218.972656 338.589844 221.855469 336.074219 225.15625 333.875 C 228.144531 331.933594 231.238281 329.839844 235.429688 329.578125 M 210.898438 334.972656 C 210.113281 335.96875 209.117188 336.964844 208.070312 337.855469 C 207.386719 338.433594 206.757812 339.0625 206.128906 339.742188 C 204.191406 340.003906 202.25 340.421875 200.363281 340.683594 C 199.785156 340.789062 199.210938 340.84375 198.6875 340.949219 C 198.6875 340.949219 198.6875 340.949219 198.6875 340.894531 C 199.996094 336.703125 202.984375 331.832031 208.226562 329.367188 C 209.640625 328.6875 211.421875 328.214844 213.207031 327.847656 C 213.046875 328.003906 212.945312 328.214844 212.996094 328.476562 C 213.625 330.78125 212.472656 332.984375 210.898438 334.972656 M 213.46875 335.65625 C 215.144531 333.453125 216.195312 330.78125 215.40625 328.265625 C 215.300781 327.898438 214.9375 327.691406 214.570312 327.585938 C 214.9375 327.535156 215.300781 327.480469 215.667969 327.429688 C 216.402344 327.375 217.191406 327.324219 217.976562 327.375 C 217.714844 327.636719 217.609375 327.953125 217.820312 328.265625 C 218.34375 329.105469 218.550781 330.046875 218.394531 330.9375 C 218.34375 331.410156 218.238281 331.832031 218.027344 332.300781 C 217.921875 332.511719 217.871094 332.722656 217.765625 332.929688 C 216.664062 333.820312 215.460938 334.660156 214.253906 335.445312 C 213.886719 335.707031 213.414062 335.917969 213.046875 336.179688 C 213.207031 336.023438 213.363281 335.8125 213.46875 335.65625 M 223.058594 328.164062 C 222.484375 328.738281 221.960938 329.367188 221.332031 329.945312 C 221.121094 330.101562 220.910156 330.3125 220.703125 330.46875 C 220.753906 329.523438 220.597656 328.527344 220.175781 327.585938 C 221.171875 327.691406 222.117188 327.847656 223.058594 328.164062 M 221.75 325.542969 C 222.851562 325.699219 223.953125 325.855469 225.050781 325.910156 C 224.789062 326.222656 224.476562 326.484375 224.214844 326.800781 C 223.53125 326.328125 222.695312 325.855469 221.75 325.542969 M 228.878906 326.222656 C 229.296875 327.0625 229.613281 327.953125 229.875 328.789062 C 228.144531 329.417969 226.519531 330.257812 225 331.148438 C 226.675781 329.628906 228.039062 327.953125 228.878906 326.222656 M 219.023438 313.59375 C 219.707031 311.761719 221.382812 310.136719 223.636719 309.246094 C 224.632812 308.828125 226.046875 308.566406 227.253906 308.566406 C 227.882812 308.566406 228.722656 308.671875 229.246094 308.722656 C 229.980469 308.878906 230.292969 308.984375 230.765625 309.246094 C 230.453125 309.035156 231.082031 309.5625 230.976562 309.402344 C 230.871094 309.246094 231.238281 309.925781 231.082031 309.5625 C 231.132812 309.71875 231.183594 309.925781 231.183594 310.136719 C 231.183594 310.292969 231.132812 310.398438 231.132812 310.554688 C 231.132812 310.660156 231.082031 310.765625 231.027344 310.871094 C 231.027344 310.871094 230.976562 311.027344 230.976562 311.082031 C 230.921875 311.238281 230.816406 311.394531 230.714844 311.605469 C 230.453125 312.074219 230.136719 312.546875 229.824219 312.964844 C 228.617188 314.539062 226.730469 316.269531 224.84375 317.628906 C 224.320312 317.996094 224.371094 318.574219 224.738281 318.992188 C 224.476562 319.148438 224.265625 319.359375 224.214844 319.621094 C 222.957031 319.515625 221.75 319.570312 220.492188 319.671875 C 220.492188 319.621094 220.492188 319.570312 220.492188 319.515625 C 219.96875 318.519531 219.128906 317.628906 218.867188 316.53125 C 218.550781 315.535156 218.65625 314.539062 219.023438 313.59375 M 220.964844 321.925781 C 223.480469 322.085938 225.578125 322.609375 227.203125 323.96875 C 227.148438 324.023438 227.097656 324.023438 227.042969 324.074219 C 226.78125 324.285156 226.574219 324.546875 226.308594 324.757812 C 226.257812 324.652344 226.152344 324.597656 226.046875 324.496094 C 221.699219 321.980469 214.621094 321.558594 209.433594 322.816406 C 204.453125 324.023438 200.679688 326.800781 197.269531 329.578125 C 193.8125 332.40625 190.140625 335.183594 186.15625 337.644531 C 188.882812 335.339844 190.875 332.773438 193.339844 330.257812 C 196.535156 327.0625 200.730469 324.859375 205.867188 323.445312 C 210.375 322.1875 216.089844 321.664062 220.964844 321.925781 M 182.175781 336.753906 C 184.796875 333.453125 187.679688 330.207031 191.242188 327.375 C 194.441406 324.808594 198.371094 322.609375 202.667969 321.089844 C 206.601562 319.726562 211.421875 318.679688 215.460938 320.144531 C 212.945312 320.40625 210.480469 320.773438 207.964844 321.140625 C 202.304688 321.980469 197.53125 323.289062 193.601562 326.433594 C 189.09375 330.046875 186.683594 334.605469 183.222656 338.695312 C 183.066406 338.902344 183.171875 339.113281 183.328125 339.269531 C 181.859375 340.003906 180.234375 340.683594 178.714844 341.417969 C 179.972656 339.847656 181.019531 338.273438 182.175781 336.753906 M 178.503906 344.144531 C 180.863281 342.570312 184.585938 341.734375 187.050781 340.371094 C 190.980469 338.117188 194.28125 335.183594 197.636719 332.511719 C 200.78125 329.996094 204.085938 327.269531 208.539062 325.910156 C 211.054688 325.125 213.941406 324.757812 216.71875 324.914062 C 216.875 324.914062 217.03125 324.964844 217.191406 324.964844 C 216.769531 324.964844 216.402344 324.914062 215.984375 324.914062 C 212.578125 324.964844 209.433594 325.75 206.757812 327.269531 C 205.394531 328.058594 204.191406 329 203.195312 330.046875 C 202.984375 330.046875 202.773438 330.046875 202.617188 330.152344 C 201.308594 331.097656 199.996094 331.988281 198.738281 332.984375 C 197.480469 333.925781 196.589844 335.183594 195.59375 336.285156 C 193.96875 338.171875 191.609375 339.847656 191.085938 342.101562 C 186.890625 342.730469 182.644531 343.410156 178.503906 344.144531 M 194.074219 341.628906 C 194.910156 339.953125 196.902344 338.484375 198.160156 337.015625 C 198.320312 336.859375 198.476562 336.703125 198.582031 336.546875 C 197.898438 337.910156 197.375 339.324219 197.007812 340.738281 C 196.957031 340.894531 197.007812 341.050781 197.113281 341.15625 C 196.117188 341.3125 195.121094 341.472656 194.074219 341.628906 M 183.378906 349.699219 C 189.933594 347.96875 196.589844 346.1875 202.828125 343.988281 C 206.757812 342.570312 210.53125 340.949219 213.992188 339.0625 C 212.890625 339.898438 211.84375 340.789062 210.792969 341.679688 C 209.535156 342.78125 208.4375 344.039062 207.019531 345.035156 C 205.5 346.082031 203.246094 346.5 201.464844 347.390625 C 199.523438 348.386719 197.742188 349.277344 196.800781 350.851562 C 196.800781 350.902344 196.800781 350.902344 196.800781 350.957031 C 196.378906 351.007812 196.011719 351.058594 195.59375 351.058594 C 186 352.054688 175.882812 352.054688 166.710938 354.363281 C 171.375 351.742188 177.929688 351.113281 183.378906 349.699219 M 187.730469 374.902344 C 187.730469 374.902344 187.730469 374.953125 187.730469 374.902344 C 185.949219 374.902344 184.167969 374.902344 182.4375 374.902344 C 182.4375 374.902344 182.488281 374.847656 182.488281 374.847656 C 182.960938 374.484375 183.433594 374.0625 183.902344 373.695312 C 185.632812 373.695312 187.3125 373.589844 188.988281 373.488281 C 188.621094 373.957031 188.148438 374.429688 187.730469 374.902344 M 200.101562 361.695312 C 197.164062 364.421875 194.597656 367.148438 192.132812 370.082031 C 190.824219 370.1875 189.511719 370.238281 188.203125 370.289062 C 189.828125 368.980469 191.398438 367.617188 192.761719 366.152344 C 195.699219 363.007812 198.003906 359.601562 202.199219 357.242188 C 202.355469 357.136719 202.460938 357.085938 202.511719 356.980469 C 203.664062 356.875 204.820312 356.773438 205.972656 356.667969 C 203.5625 357.925781 201.832031 360.074219 200.101562 361.695312 M 253.199219 338.640625 C 251.523438 341.996094 246.753906 344.039062 242.820312 345.925781 C 238.417969 348.074219 233.910156 350.066406 229.089844 351.6875 C 224.003906 353.367188 219.023438 353.996094 213.46875 354.363281 C 202.25 355.09375 190.769531 355.304688 179.710938 356.875 C 172.949219 357.820312 165.402344 359.078125 159.265625 361.695312 C 164.613281 358.34375 171.480469 356.667969 178.664062 355.410156 C 184.691406 354.363281 190.929688 353.941406 197.113281 353.367188 C 203.296875 352.789062 209.328125 352.003906 215.40625 350.957031 C 220.910156 350.011719 226.257812 348.597656 231.5 346.972656 C 236.425781 345.453125 241.511719 343.777344 245.601562 341.3125 C 249.21875 339.164062 251.890625 336.023438 250.738281 332.617188 C 250.945312 332.667969 251.15625 332.722656 251.417969 332.667969 C 254.667969 332.09375 253.828125 337.382812 253.199219 338.640625 M 255.925781 338.378906 C 256.398438 337.015625 256.503906 335.65625 256.1875 334.242188 C 256.136719 333.925781 255.980469 333.613281 255.875 333.296875 C 258.234375 333.769531 256.765625 336.914062 255.925781 338.378906 " fill-opacity="1" fill-rule="nonzero"/><path fill="#fedd58" d="M 212 315.167969 C 208.699219 313.28125 203.351562 313.4375 199.472656 314.066406 C 194.910156 314.800781 190.664062 316.109375 186.945312 318.152344 C 183.011719 320.355469 179.1875 322.816406 176.199219 325.699219 C 174.730469 327.113281 173.367188 328.582031 172.320312 330.152344 C 171.691406 331.042969 171.269531 331.988281 170.378906 332.773438 C 169.59375 333.507812 168.597656 334.082031 167.757812 334.765625 C 166.921875 335.496094 168.492188 336.335938 169.332031 335.65625 C 170.695312 334.605469 172.214844 333.769531 173.210938 332.511719 C 174.46875 330.9375 175.570312 329.367188 177.089844 327.898438 C 179.921875 325.226562 183.484375 322.660156 187.417969 320.828125 C 190.875 319.203125 194.964844 318.152344 199.054688 317.578125 C 203.140625 317 207.230469 317.160156 211.265625 316.792969 C 212.472656 316.738281 212.890625 315.691406 212 315.167969 " fill-opacity="1" fill-rule="nonzero"/><path fill="#fedd58" d="M 214.988281 313.070312 C 211.421875 310.554688 205.605469 310.03125 200.78125 310.136719 C 195.75 310.242188 190.980469 311.394531 186.628906 313.175781 C 185.792969 313.542969 185.003906 313.910156 184.21875 314.328125 C 184.113281 314.277344 183.957031 314.222656 183.800781 314.328125 C 179.921875 315.902344 175.9375 317.367188 171.636719 318.257812 C 169.28125 318.730469 166.921875 318.886719 164.457031 318.78125 C 162.046875 318.679688 159.582031 318.363281 157.171875 318.363281 C 156.070312 318.363281 155.808594 319.570312 156.910156 319.570312 C 161.886719 319.621094 166.660156 320.40625 171.585938 319.464844 C 174.3125 318.941406 176.984375 318.152344 179.5 317.160156 C 178.136719 318.101562 176.828125 319.042969 175.464844 320.09375 C 173.945312 321.246094 172.371094 322.398438 170.902344 323.605469 C 169.28125 324.964844 167.496094 326.433594 165.085938 327.007812 C 164.300781 327.21875 164.667969 328.109375 165.453125 328.003906 C 168.914062 327.480469 171.742188 325.542969 174.152344 323.8125 C 177.457031 321.457031 180.601562 318.78125 184.480469 316.898438 C 188.726562 314.851562 193.757812 313.59375 198.84375 313.230469 C 201.253906 313.070312 203.613281 313.175781 205.972656 313.492188 C 208.644531 313.859375 211.160156 314.589844 213.886719 314.800781 C 215.355469 314.851562 215.878906 313.699219 214.988281 313.070312 " fill-opacity="1" fill-rule="nonzero"/><path fill="#fedd58" d="M 190.71875 305.839844 C 185.320312 303.847656 180.078125 301.753906 174.101562 300.757812 C 168.335938 299.816406 161.417969 299.65625 155.492188 300.234375 C 147 301.070312 135.890625 302.957031 130.121094 307.832031 C 129.652344 308.199219 130.488281 308.671875 130.960938 308.304688 C 134.210938 305.894531 138.875 304.738281 143.226562 303.796875 C 147.628906 302.855469 152.191406 301.910156 156.75 301.542969 C 162.203125 301.125 168.441406 301.230469 173.789062 302.121094 C 179.5 303.0625 184.742188 305.160156 190.140625 306.679688 C 191.03125 306.941406 191.503906 306.101562 190.71875 305.839844 " fill-opacity="1" fill-rule="nonzero"/><path fill="#fedd58" d="M 255.613281 314.957031 C 255.191406 313.648438 253.671875 312.652344 252.519531 311.605469 C 251.207031 310.398438 249.636719 309.351562 248.117188 308.25 C 244.972656 305.996094 241.824219 303.847656 238 302.277344 C 234.171875 300.707031 230.085938 299.816406 225.628906 299.605469 C 222.957031 299.5 220.4375 299.65625 217.765625 299.761719 C 215.09375 299.867188 212.628906 299.449219 209.957031 299.917969 C 209.273438 300.023438 209.378906 300.757812 210.113281 300.707031 C 212.839844 300.445312 215.355469 300.707031 217.820312 301.492188 C 220.230469 302.226562 222.429688 302.539062 225 302.855469 C 229.140625 303.324219 232.601562 304.164062 235.957031 306.050781 C 238.996094 307.726562 241.824219 309.5625 244.550781 311.550781 C 245.96875 312.546875 247.328125 313.648438 248.902344 314.484375 C 250.265625 315.21875 251.839844 316.320312 253.566406 316.476562 C 254.667969 316.476562 255.925781 315.796875 255.613281 314.957031 " fill-opacity="1" fill-rule="nonzero"/><path fill="#fedd58" d="M 219.96875 283.675781 C 212.679688 283.625 205.132812 286.191406 199.261719 289.125 C 195.90625 290.800781 192.972656 292.792969 189.460938 294.261719 C 186.367188 295.570312 183.171875 296.617188 180.601562 298.453125 C 180.078125 298.820312 180.96875 299.550781 181.546875 299.132812 C 184.113281 297.351562 187.414062 296.410156 190.507812 295.152344 C 193.863281 293.789062 196.851562 292.113281 200.207031 290.800781 C 203.246094 289.597656 206.445312 288.550781 209.640625 287.660156 C 213.101562 286.664062 216.769531 286.035156 220.175781 284.984375 C 220.910156 284.722656 220.910156 283.675781 219.96875 283.675781 " fill-opacity="1" fill-rule="nonzero"/><path fill="#fedd58" d="M 239.414062 294.574219 C 238.3125 292.007812 236.792969 289.648438 234.800781 287.394531 C 232.96875 285.300781 231.183594 282.941406 228.355469 281.476562 C 225.367188 279.902344 221.59375 279.167969 217.921875 278.960938 C 211.476562 278.59375 204.765625 278.90625 199.054688 281.160156 C 193.707031 283.308594 190.195312 286.820312 189.09375 291.117188 C 188.882812 291.851562 190.402344 291.953125 190.613281 291.273438 C 193.601562 282.3125 207.441406 279.589844 218.761719 281.054688 C 222.0625 281.476562 225.261719 282.417969 227.566406 284.253906 C 229.664062 285.875 231.34375 287.921875 232.96875 289.804688 C 234.59375 291.746094 235.746094 293.945312 236.6875 296.09375 C 237.582031 298.191406 238.105469 300.496094 239.625 302.433594 C 240.097656 303.011719 241.460938 302.695312 241.511719 302.066406 C 241.722656 299.550781 240.464844 296.878906 239.414062 294.574219 " fill-opacity="1" fill-rule="nonzero"/><path fill="#fedd58" d="M 229.402344 275.238281 C 225.210938 272.777344 219.914062 272.410156 214.671875 272.988281 C 199.261719 268.269531 179.554688 266.75 165.558594 274.664062 C 164.613281 275.1875 165.714844 276.183594 166.660156 275.710938 C 173.683594 272.199219 182.382812 271.207031 190.824219 271.46875 C 197.691406 271.675781 204.558594 272.410156 211.265625 273.511719 C 208.75 273.980469 206.339844 274.558594 204.136719 275.1875 C 202.40625 275.710938 200.78125 276.289062 199.210938 276.917969 C 188.359375 273.195312 173.523438 273.25 163.410156 278.332031 C 163.617188 277.285156 163.984375 276.234375 164.769531 275.292969 C 165.765625 274.035156 171.269531 268.21875 173.683594 270.367188 C 174.46875 271.046875 175.988281 270.261719 175.203125 269.527344 C 172.527344 267.011719 168.386719 269.632812 166.292969 271.207031 C 164.875 272.304688 163.566406 273.511719 162.515625 274.820312 C 161.101562 276.601562 160.945312 278.644531 160.789062 280.636719 C 160.628906 283.203125 160.527344 286.136719 158.0625 288.234375 C 156.226562 289.804688 153.292969 290.59375 150.828125 291.589844 C 147.628906 292.898438 144.484375 294.3125 141.289062 295.570312 C 137.882812 296.933594 134.367188 297.769531 130.59375 298.453125 C 128.550781 298.820312 128.863281 300.863281 131.015625 300.757812 C 133.582031 300.652344 136.097656 300.179688 138.511719 299.5 C 137.984375 299.710938 137.410156 299.972656 136.886719 300.179688 C 133.636719 301.492188 129.703125 302.382812 127.503906 304.6875 C 126.875 305.367188 128.234375 306.207031 128.917969 305.472656 C 131.015625 303.378906 134.734375 302.644531 137.777344 301.4375 C 141.183594 300.078125 144.589844 298.503906 148.523438 298.136719 C 149.414062 298.085938 149.464844 296.984375 148.523438 296.984375 C 147 296.933594 145.535156 297.140625 144.171875 297.507812 C 146.058594 296.722656 147.894531 295.9375 149.675781 295.152344 C 154.183594 293.160156 160 291.589844 162.203125 287.867188 C 163.722656 285.300781 163.09375 282.472656 163.25 279.746094 C 172.894531 274.664062 186.578125 275.03125 197.636719 277.546875 C 195.382812 278.488281 193.234375 279.535156 190.980469 280.636719 C 185.476562 283.308594 178.558594 284.984375 173.628906 288.183594 C 172.894531 288.652344 173.523438 289.441406 174.46875 289.230469 C 179.710938 288.078125 184.636719 285.71875 189.355469 283.78125 C 194.019531 281.894531 198.109375 279.433594 202.878906 277.703125 C 210.375 274.976562 220.910156 271.886719 228.511719 276.027344 C 229.246094 276.390625 230.085938 275.660156 229.402344 275.238281 " fill-opacity="1" fill-rule="nonzero"/><path fill="#fedd58" d="M 156.121094 271.46875 C 149.570312 268.21875 141.078125 268.113281 134.160156 270.890625 C 130.488281 272.359375 123.257812 276.183594 127.03125 279.589844 C 127.660156 280.164062 128.863281 279.484375 128.289062 278.90625 C 126.664062 277.386719 128.445312 275.660156 130.070312 274.558594 C 131.957031 273.300781 134.160156 272.359375 136.519531 271.675781 C 139.402344 270.839844 142.546875 270.367188 145.691406 270.523438 C 149.046875 270.679688 152.191406 271.570312 155.230469 272.515625 C 156.121094 272.828125 156.960938 271.886719 156.121094 271.46875 " fill-opacity="1" fill-rule="nonzero"/><path fill="#fedd58" d="M 153.5 254.175781 C 149.308594 253.496094 144.378906 254.910156 140.660156 256.21875 C 136.464844 257.6875 132.585938 259.625 129.023438 261.773438 C 125.71875 263.816406 122.730469 266.070312 120.898438 268.898438 C 119.0625 271.730469 118.171875 274.769531 117.4375 277.808594 C 117.226562 278.644531 118.957031 278.804688 119.273438 277.964844 C 120.269531 275.1875 121.421875 272.359375 123.414062 269.84375 C 125.40625 267.222656 128.183594 265.179688 131.433594 263.34375 C 134.734375 261.457031 138.246094 259.835938 142.074219 258.578125 C 143.960938 257.949219 145.847656 257.371094 147.789062 256.953125 C 149.78125 256.535156 151.824219 256.273438 153.761719 255.800781 C 155.074219 255.589844 154.601562 254.386719 153.5 254.175781 " fill-opacity="1" fill-rule="nonzero"/><path fill="#fedd58" d="M 177.769531 253.597656 C 170.433594 252.96875 163.042969 252.339844 155.753906 251.554688 C 149.988281 250.925781 144.015625 249.40625 138.144531 250.507812 C 136.726562 250.769531 137.25 252.132812 138.667969 251.871094 C 144.484375 250.769531 150.671875 252.339844 156.4375 252.867188 C 163.460938 253.496094 170.539062 254.175781 177.613281 254.28125 C 178.191406 254.226562 178.347656 253.652344 177.769531 253.597656 " fill-opacity="1" fill-rule="nonzero"/><path fill="#fedd58" d="M 193.285156 278.75 C 191.714844 278.226562 190.089844 277.964844 188.359375 277.910156 C 186.578125 277.859375 184.742188 278.277344 183.117188 278.75 C 179.761719 279.695312 176.773438 281.109375 174.050781 282.785156 C 173.316406 283.203125 174.207031 284.042969 174.941406 283.625 C 177.507812 282.15625 180.339844 280.898438 183.378906 280.113281 C 184.898438 279.695312 186.421875 279.535156 188.046875 279.328125 C 189.722656 279.117188 191.347656 279.167969 192.972656 279.433594 C 193.601562 279.535156 193.757812 278.90625 193.285156 278.75 " fill-opacity="1" fill-rule="nonzero"/><path fill="#fedd58" d="M 209.746094 266.488281 C 204.660156 265.023438 199.261719 264.394531 193.8125 264.289062 C 188.515625 264.183594 182.90625 264.5 178.296875 266.542969 C 176.984375 267.117188 178.453125 268.480469 179.710938 267.902344 C 184.007812 266.019531 189.671875 265.808594 194.597656 265.964844 C 199.523438 266.121094 204.558594 266.699219 209.378906 267.539062 C 210.164062 267.589844 210.480469 266.699219 209.746094 266.488281 " fill-opacity="1" fill-rule="nonzero"/><path fill="#fedd58" d="M 207.230469 262.714844 C 198.109375 257.214844 183.535156 258.945312 172.894531 260.515625 C 165.925781 261.511719 159.109375 262.925781 152.191406 263.972656 C 147.160156 264.761719 141.394531 265.597656 137.410156 268.0625 C 136.988281 268.324219 137.515625 268.742188 137.882812 268.53125 C 142.285156 265.964844 148.574219 265.492188 153.972656 264.761719 C 160.261719 263.921875 166.5 262.980469 172.792969 262.085938 C 184.21875 260.464844 195.855469 259.730469 206.652344 263.398438 C 207.28125 263.660156 207.753906 263.03125 207.230469 262.714844 " fill-opacity="1" fill-rule="nonzero"/><path fill="#f8f0cc" d="M 133.214844 327.796875 C 128.445312 326.695312 123.152344 328.320312 118.589844 329.839844 C 114.605469 331.203125 110.78125 332.984375 106.847656 334.605469 C 101.871094 336.652344 93.691406 340.160156 93.953125 346.660156 C 94.007812 347.96875 95.945312 347.65625 95.894531 346.398438 C 95.894531 343.460938 98.722656 341.523438 101.03125 340.214844 C 103.597656 338.800781 106.378906 337.75 109.101562 336.597656 C 112.617188 335.132812 115.96875 333.507812 119.585938 332.25 C 124.042969 330.675781 128.5 330.101562 133.164062 329.417969 C 134.160156 329.367188 134.105469 328.003906 133.214844 327.796875 " fill-opacity="1" fill-rule="nonzero"/><path fill="#f8f0cc" d="M 123.675781 342.101562 C 122.785156 342.363281 121.945312 342.570312 121.054688 342.78125 C 120.058594 343.042969 119.113281 343.359375 118.121094 343.671875 C 116.230469 344.300781 114.449219 345.035156 112.71875 346.082031 C 112.039062 346.5 111.988281 347.601562 112.40625 348.179688 C 112.929688 348.859375 113.820312 348.910156 114.503906 348.492188 C 115.96875 347.496094 117.648438 346.765625 119.324219 345.976562 C 120.214844 345.558594 121.160156 345.246094 122 344.71875 C 122.785156 344.25 123.570312 343.777344 124.304688 343.253906 C 125.039062 342.832031 124.355469 341.890625 123.675781 342.101562 " fill-opacity="1" fill-rule="nonzero"/><path fill="#f8f0cc" d="M 140.816406 338.589844 C 137.566406 337.804688 134.839844 340.789062 132.953125 342.992188 C 130.019531 346.449219 126.976562 349.382812 122.574219 350.851562 C 114.921875 353.3125 106.273438 348.285156 99.300781 353.679688 C 98.199219 354.519531 99.511719 356.195312 100.558594 355.355469 C 107.007812 350.328125 116.023438 355.148438 123.308594 352.683594 C 126.875 351.480469 130.121094 349.175781 132.585938 346.34375 C 133.738281 345.035156 134.789062 343.515625 136.046875 342.308594 C 137.515625 340.949219 139.085938 340.476562 140.972656 339.898438 C 141.707031 339.742188 141.394531 338.746094 140.816406 338.589844 " fill-opacity="1" fill-rule="nonzero"/><path fill="#f57e3f" d="M 139.347656 352.160156 C 137.042969 353.105469 135.050781 355.042969 132.953125 356.40625 C 130.855469 357.765625 128.5 358.816406 126.140625 359.652344 C 119.746094 361.855469 113.453125 362.484375 106.796875 361.277344 C 105.957031 361.121094 105.75 362.429688 106.585938 362.640625 C 113.246094 364.160156 120.375 364.371094 126.976562 362.429688 C 129.492188 361.699219 131.90625 360.542969 134.105469 359.183594 C 136.414062 357.714844 139.085938 355.777344 140.34375 353.261719 C 140.710938 352.578125 139.976562 351.898438 139.347656 352.160156 " fill-opacity="1" fill-rule="nonzero"/><path fill="#f57e3f" d="M 102.65625 276.863281 C 102.132812 276.183594 100.769531 276.390625 100.714844 277.386719 C 100.664062 279.433594 100.980469 281.476562 100.925781 283.519531 C 100.820312 283.675781 100.714844 283.832031 100.613281 284.09375 C 100.507812 284.410156 100.402344 284.722656 100.296875 284.984375 C 98.777344 287.238281 95.683594 288.652344 92.855469 288.601562 C 89.65625 288.496094 85.042969 287.132812 82.265625 289.335938 C 81.007812 290.332031 80.273438 292.113281 80.851562 293.632812 C 81.113281 294.363281 81.6875 294.941406 82.109375 295.570312 C 82.210938 297.457031 82.632812 299.289062 82.316406 301.125 C 81.742188 302.90625 80.851562 304.476562 79.644531 305.996094 C 78.175781 307.777344 76.65625 309.402344 75.609375 311.5 C 75.136719 312.441406 76.394531 313.28125 77.179688 312.703125 C 80.746094 310.242188 85.148438 308.671875 87.664062 304.898438 C 88.816406 303.167969 89.289062 301.175781 89.972656 299.238281 C 90.757812 296.933594 92.171875 295.988281 94.375 295.097656 C 95.738281 294.523438 100.191406 293.472656 102.707031 289.386719 C 105.328125 285.195312 105.539062 280.792969 102.65625 276.863281 " fill-opacity="1" fill-rule="nonzero"/><path fill="#f8f0cc" d="M 106.117188 283.726562 C 106.0625 282.941406 104.859375 283.097656 104.910156 283.886719 C 105.015625 285.457031 104.910156 286.976562 104.4375 288.496094 C 103.964844 289.910156 103.234375 291.167969 102.550781 292.480469 C 102.183594 293.210938 101.816406 293.894531 101.292969 294.523438 C 100.820312 295.046875 100.296875 295.519531 99.878906 296.09375 C 99.40625 296.722656 99.039062 297.40625 98.777344 298.136719 C 98.621094 298.609375 98.410156 298.976562 98.253906 299.394531 C 98.199219 299.449219 98.09375 299.449219 98.042969 299.5 C 97.414062 299.816406 96.785156 300.128906 96.15625 300.496094 C 94.792969 301.230469 93.484375 302.015625 92.328125 303.0625 C 90.234375 304.949219 88.398438 306.992188 85.882812 308.25 C 84.9375 308.722656 85.566406 310.242188 86.511719 309.769531 C 89.078125 308.511719 91.019531 306.574219 93.117188 304.6875 C 94.214844 303.640625 95.476562 302.855469 96.835938 302.171875 C 97.519531 301.804688 98.199219 301.492188 98.882812 301.175781 C 98.988281 301.125 99.089844 301.070312 99.195312 301.019531 C 99.511719 300.914062 99.71875 300.808594 99.878906 300.601562 C 100.140625 300.390625 100.402344 300.128906 100.558594 299.816406 C 100.613281 299.65625 100.613281 299.449219 100.558594 299.289062 C 100.613281 299.1875 100.613281 299.082031 100.664062 299.027344 C 100.875 298.242188 101.242188 297.507812 101.765625 296.878906 C 102.238281 296.304688 102.761719 295.726562 103.179688 295.097656 C 103.652344 294.363281 103.964844 293.527344 104.332031 292.742188 C 104.910156 291.378906 105.539062 290.070312 105.90625 288.601562 C 106.21875 287.03125 106.273438 285.40625 106.117188 283.726562 " fill-opacity="1" fill-rule="nonzero"/><path fill="#f8f0cc" d="M 95.371094 296.984375 C 95.316406 296.722656 95.160156 296.511719 94.898438 296.410156 C 94.636719 296.304688 94.320312 296.199219 94.007812 296.25 C 93.796875 296.304688 93.535156 296.355469 93.324219 296.410156 C 92.855469 296.566406 92.488281 296.984375 92.171875 297.351562 C 91.699219 297.929688 91.332031 298.609375 91.019531 299.289062 C 90.863281 299.605469 90.863281 300.023438 91.019531 300.339844 C 91.125 300.652344 91.4375 300.914062 91.699219 301.070312 C 92.015625 301.175781 92.382812 301.230469 92.75 301.070312 C 93.0625 300.914062 93.324219 300.707031 93.484375 300.390625 C 93.640625 300.078125 93.796875 299.761719 93.953125 299.449219 C 94.164062 299.132812 94.320312 298.871094 94.582031 298.660156 L 94.375 298.871094 C 94.53125 298.714844 94.6875 298.609375 94.792969 298.453125 C 94.84375 298.398438 94.898438 298.296875 94.949219 298.242188 C 95.003906 298.191406 95.054688 298.085938 95.109375 298.03125 C 95.210938 297.929688 95.265625 297.769531 95.371094 297.613281 C 95.371094 297.667969 95.316406 297.667969 95.316406 297.71875 C 95.371094 297.457031 95.421875 297.246094 95.371094 296.984375 " fill-opacity="1" fill-rule="nonzero"/><path fill="#f8f0cc" d="M 95.316406 276.65625 C 90.964844 281.894531 83.261719 277.910156 77.808594 280.898438 C 72.671875 283.675781 69.789062 290.171875 69.371094 295.78125 C 69.265625 297.507812 69.316406 299.238281 69.738281 300.914062 C 70.15625 302.488281 70.839844 304.476562 72.253906 305.421875 C 73.09375 305.996094 74.089844 305.421875 74.035156 304.425781 C 73.984375 302.695312 73.144531 300.863281 72.828125 299.132812 C 72.515625 297.40625 72.410156 295.675781 72.621094 293.894531 C 73.039062 290.332031 74.453125 286.871094 77.128906 284.355469 C 80.011719 281.683594 83.367188 281.421875 87.085938 281.265625 C 90.703125 281.109375 94.113281 280.53125 96.523438 277.597656 C 97.097656 276.8125 95.945312 275.921875 95.316406 276.65625 " fill-opacity="1" fill-rule="nonzero"/><path fill="#fedd58" d="M 63.710938 355.042969 C 60.460938 352.160156 59.253906 349.015625 59.042969 344.71875 C 58.886719 341.210938 59.148438 337.4375 57.417969 334.1875 C 56.582031 332.5625 55.21875 331.359375 53.59375 330.574219 C 51.707031 329.683594 49.292969 329.628906 47.722656 328.164062 C 45.78125 326.433594 45.257812 323.078125 45.046875 320.617188 C 44.785156 317.890625 45.046875 315.113281 45.730469 312.441406 C 46.148438 310.871094 43.683594 310.554688 43.265625 312.074219 C 41.957031 317.160156 41.957031 323.445312 44.578125 328.164062 C 45.675781 330.152344 47.300781 331.253906 49.503906 331.777344 C 52.074219 332.355469 54.378906 332.722656 55.6875 335.339844 C 57.523438 338.902344 56.214844 343.515625 56.371094 347.339844 C 56.582031 351.585938 58.835938 355.304688 63.183594 356.144531 C 63.867188 356.40625 64.179688 355.460938 63.710938 355.042969 " fill-opacity="1" fill-rule="nonzero"/><path fill="#fedd58" d="M 71.78125 330.101562 C 70.890625 330.675781 70.15625 331.464844 69.476562 332.25 C 68.742188 333.035156 68.113281 333.875 67.535156 334.765625 C 66.382812 336.597656 65.4375 338.484375 64.707031 340.527344 C 64.496094 341.210938 64.707031 341.941406 65.386719 342.257812 C 65.964844 342.519531 66.855469 342.257812 67.117188 341.578125 C 67.746094 339.691406 68.53125 337.910156 69.527344 336.230469 C 70.050781 335.394531 70.523438 334.554688 71.101562 333.769531 C 71.675781 332.929688 72.359375 332.144531 72.988281 331.304688 C 73.460938 330.46875 72.566406 329.578125 71.78125 330.101562 " fill-opacity="1" fill-rule="nonzero"/><path fill="#fedd58" d="M 49.871094 289.28125 C 45.78125 293.738281 44.417969 299.867188 43.054688 305.578125 C 42.792969 306.785156 44.679688 307.046875 44.945312 305.839844 C 45.574219 303.117188 46.203125 300.339844 47.144531 297.667969 C 48.089844 294.941406 49.347656 292.425781 50.867188 290.015625 C 51.234375 289.386719 50.394531 288.707031 49.871094 289.28125 " fill-opacity="1" fill-rule="nonzero"/><path fill="#fedd58" d="M 120.109375 286.765625 C 121.527344 268.691406 143.910156 263.292969 157.746094 258.945312 C 158.480469 258.734375 158.636719 257.476562 157.746094 257.320312 C 149.675781 255.851562 139.609375 261.722656 133.007812 265.859375 C 125.667969 270.472656 118.222656 277.546875 118.328125 286.765625 C 118.382812 287.921875 120.007812 287.867188 120.109375 286.765625 Z M 120.109375 286.765625 " fill-opacity="1" fill-rule="nonzero"/><path fill="#fedd58" d="M 133.636719 278.382812 C 140.449219 276.707031 146.164062 277.964844 152.871094 279.378906 C 153.761719 279.589844 154.394531 278.332031 153.5 277.859375 C 147.105469 274.347656 139.925781 274.296875 133.109375 276.550781 C 131.957031 276.96875 132.429688 278.699219 133.636719 278.382812 Z M 133.636719 278.382812 " fill-opacity="1" fill-rule="nonzero"/><path fill="#fedd58" d="M 152.136719 281.003906 C 148.890625 283.097656 145.535156 285.300781 142.546875 287.816406 C 142.023438 288.234375 142.597656 289.179688 143.226562 288.96875 C 146.898438 287.710938 150.148438 285.195312 153.292969 282.941406 C 154.445312 282.105469 153.34375 280.21875 152.136719 281.003906 Z M 152.136719 281.003906 " fill-opacity="1" fill-rule="nonzero"/><path fill="#fedd58" d="M 125.457031 285.929688 C 131.851562 284.882812 138.824219 285.40625 145.0625 283.78125 C 145.796875 283.570312 145.796875 282.472656 145.0625 282.261719 C 138.613281 280.636719 131.171875 282.15625 124.882812 283.832031 C 123.519531 284.253906 124.148438 286.191406 125.457031 285.929688 Z M 125.457031 285.929688 " fill-opacity="1" fill-rule="nonzero"/><path fill="#fedd58" d="M 186.054688 301.964844 C 198.789062 300.128906 212.316406 294.835938 223.6875 288.863281 C 224.265625 288.550781 224.003906 287.554688 223.324219 287.605469 C 210.164062 288.550781 198.371094 297.195312 185.476562 299.867188 C 184.113281 300.128906 184.742188 302.121094 186.054688 301.964844 Z M 186.054688 301.964844 " fill-opacity="1" fill-rule="nonzero"/><path fill="#fedd58" d="M 138.511719 310.398438 C 152.347656 302.855469 167.390625 306.523438 181.492188 310.921875 C 182.382812 311.183594 182.804688 309.980469 182.070312 309.507812 C 170.328125 301.648438 149.621094 301.492188 137.828125 309.246094 C 137.148438 309.71875 137.777344 310.816406 138.511719 310.398438 Z M 138.511719 310.398438 " fill-opacity="1" fill-rule="nonzero"/><path fill="#fedd58" d="M 144.90625 313.332031 C 154.289062 313.59375 164.5625 313.960938 173.734375 312.074219 C 174.519531 311.917969 174.519531 310.660156 173.734375 310.503906 C 164.457031 308.773438 154.234375 311.027344 144.90625 311.5 C 143.699219 311.550781 143.699219 313.332031 144.90625 313.332031 Z M 144.90625 313.332031 " fill-opacity="1" fill-rule="nonzero"/><path fill="#fedd58" d="M 161.574219 297.613281 C 169.59375 296.09375 178.664062 293.632812 185.84375 289.753906 C 186.578125 289.335938 186.261719 288.078125 185.425781 288.128906 C 177.089844 288.707031 169.121094 293.527344 160.945312 295.257812 C 159.371094 295.621094 160.054688 297.875 161.574219 297.613281 Z M 161.574219 297.613281 " fill-opacity="1" fill-rule="nonzero"/><path fill="#fedd58" d="M 195.4375 305.003906 C 202.40625 304.792969 210.898438 304.007812 217.085938 307.675781 C 217.609375 307.988281 218.132812 307.253906 217.714844 306.835938 C 212.367188 300.863281 202.566406 302.121094 195.382812 302.75 C 194.019531 302.855469 193.96875 305.054688 195.4375 305.003906 Z M 195.4375 305.003906 " fill-opacity="1" fill-rule="nonzero"/><path fill="#fedd58" d="M 116.964844 269.84375 C 118.957031 263.082031 126.402344 259.574219 132.585938 257.371094 C 133.898438 256.898438 133.371094 254.753906 132.011719 255.222656 C 125.71875 257.265625 115.867188 261.929688 115.601562 269.683594 C 115.5 270.472656 116.703125 270.628906 116.964844 269.84375 Z M 116.964844 269.84375 " fill-opacity="1" fill-rule="nonzero"/><path fill="#fedd58" d="M 113.976562 308.671875 C 117.648438 304.113281 120.6875 297.5625 120.109375 291.589844 C 120.058594 290.960938 119.21875 290.855469 119.011719 291.429688 C 118.066406 294.050781 117.960938 296.984375 117.226562 299.65625 C 116.441406 302.695312 114.921875 305.472656 113.140625 308.042969 C 112.878906 308.566406 113.664062 309.140625 113.976562 308.671875 Z M 113.976562 308.671875 " fill-opacity="1" fill-rule="nonzero"/><path fill="#fedd58" d="M 162.308594 344.089844 C 169.015625 343.828125 175.203125 338.222656 178.085938 332.355469 C 178.398438 331.671875 177.613281 331.042969 177.039062 331.566406 C 172.476562 335.761719 168.648438 341.523438 162.097656 342.625 C 161.257812 342.832031 161.46875 344.144531 162.308594 344.089844 Z M 162.308594 344.089844 " fill-opacity="1" fill-rule="nonzero"/><path fill="#fedd58" d="M 147.683594 319.570312 C 152.558594 324.441406 161.625 326.378906 168.179688 323.867188 C 168.859375 323.605469 168.964844 322.609375 168.179688 322.398438 C 165.558594 321.558594 162.621094 322.085938 159.898438 322.085938 C 155.808594 322.136719 151.980469 321.140625 148.835938 318.46875 C 147.996094 317.789062 146.949219 318.835938 147.683594 319.570312 Z M 147.683594 319.570312 " fill-opacity="1" fill-rule="nonzero"/><path fill="#fedd58" d="M 119.480469 309.402344 C 122.574219 306.207031 125.613281 302.121094 125.878906 297.507812 C 125.929688 296.617188 124.566406 296.25 124.199219 297.039062 C 122.3125 300.96875 120.898438 304.898438 118.222656 308.40625 C 117.699219 309.195312 118.90625 310.03125 119.480469 309.402344 Z M 119.480469 309.402344 " fill-opacity="1" fill-rule="nonzero"/><path fill="#fedd58" d="M 142.179688 369.503906 C 139.140625 372.28125 137.777344 375.792969 139.402344 379.722656 C 140.816406 383.179688 144.695312 385.851562 148.46875 385.433594 C 149.308594 385.328125 149.78125 384.230469 148.941406 383.757812 C 146.632812 382.445312 144.222656 381.347656 142.703125 379.09375 C 140.867188 376.367188 141.445312 373.121094 143.4375 370.710938 C 144.066406 369.871094 142.964844 368.769531 142.179688 369.503906 Z M 142.179688 369.503906 " fill-opacity="1" fill-rule="nonzero"/><path fill="#fedd58" d="M 116.808594 379.878906 C 119.429688 380.613281 121.894531 380.5625 124.566406 380.035156 C 127.292969 379.460938 130.804688 378.515625 132.847656 376.578125 C 133.371094 376.054688 133.007812 375.058594 132.21875 375.109375 C 130.019531 375.214844 128.027344 376.367188 125.980469 377.15625 C 123.203125 378.203125 120.164062 378.777344 117.226562 378.308594 C 116.230469 378.148438 115.761719 379.566406 116.808594 379.878906 Z M 116.808594 379.878906 " fill-opacity="1" fill-rule="nonzero"/><path fill="#fedd58" d="M 165.925781 366.988281 C 173.054688 365.363281 180.289062 363.898438 187.46875 362.378906 C 188.253906 362.222656 187.992188 361.121094 187.3125 361.070312 C 179.65625 360.441406 172.582031 362.324219 165.296875 364.683594 C 163.777344 365.15625 164.40625 367.355469 165.925781 366.988281 Z M 165.925781 366.988281 " fill-opacity="1" fill-rule="nonzero"/><path fill="#fedd58" d="M 211.949219 372.175781 C 215.566406 365.101562 223.164062 362.640625 228.355469 357.085938 C 229.140625 356.246094 228.144531 355.148438 227.203125 355.566406 C 220.230469 358.816406 212.890625 363.898438 210.113281 371.339844 C 209.695312 372.492188 211.421875 373.226562 211.949219 372.175781 Z M 211.949219 372.175781 " fill-opacity="1" fill-rule="nonzero"/><path fill="#fedd58" d="M 234.332031 323.289062 C 236.949219 323.445312 239.363281 322.503906 241.511719 321.140625 C 243.398438 319.988281 245.914062 317.789062 245.285156 315.324219 C 245.128906 314.800781 244.550781 314.75 244.183594 315.011719 C 242.613281 316.371094 241.5625 318.101562 239.835938 319.359375 C 238.210938 320.511719 236.113281 321.507812 234.121094 321.769531 C 233.175781 321.875 233.492188 323.238281 234.332031 323.289062 Z M 234.332031 323.289062 " fill-opacity="1" fill-rule="nonzero"/><path fill="#fedd58" d="M 240.933594 326.851562 C 244.761719 327.21875 252.308594 325.488281 252.519531 320.5625 C 252.570312 319.777344 251.574219 319.515625 251.105469 319.988281 C 248.222656 322.554688 244.972656 324.703125 240.933594 324.859375 C 239.625 324.859375 239.675781 326.695312 240.933594 326.851562 Z M 240.933594 326.851562 " fill-opacity="1" fill-rule="nonzero"/><path fill="#fedd58" d="M 225.105469 291.324219 C 227.042969 291.691406 228.5625 292.6875 229.980469 294.101562 C 231.132812 295.257812 231.761719 297.140625 233.070312 298.03125 C 233.386719 298.242188 233.859375 298.03125 233.964844 297.667969 C 234.382812 295.78125 232.496094 293.472656 231.289062 292.164062 C 229.71875 290.539062 227.566406 289.753906 225.367188 289.597656 C 224.371094 289.542969 224.109375 291.167969 225.105469 291.324219 Z M 225.105469 291.324219 " fill-opacity="1" fill-rule="nonzero"/><path fill="#48775d" d="M 236.320312 313.125 C 236.425781 312.179688 236.375 311.183594 236.320312 310.242188 C 236.269531 309.296875 236.21875 308.199219 235.640625 307.464844 C 235.011719 306.730469 234.121094 306.835938 233.386719 307.308594 C 232.601562 307.777344 232.285156 308.617188 232.023438 309.507812 C 231.972656 309.5625 231.917969 309.664062 231.867188 309.71875 C 231.550781 310.242188 231.34375 310.816406 231.027344 311.34375 C 230.714844 311.917969 229.925781 312.179688 229.191406 312.390625 C 227.097656 312.652344 224.109375 312.546875 224.476562 315.480469 C 224.738281 317.945312 227.882812 318.3125 229.769531 318.207031 C 232.390625 318.101562 235.691406 317.054688 236.269531 314.015625 C 236.269531 313.699219 236.320312 313.386719 236.320312 313.125 M 230.398438 313.960938 C 231.238281 313.804688 232.023438 313.332031 232.496094 312.601562 C 232.96875 311.867188 232.96875 310.871094 233.175781 310.085938 C 233.28125 309.769531 233.492188 309.089844 233.859375 308.984375 C 234.433594 308.828125 234.171875 309.824219 234.121094 310.136719 C 233.964844 311.132812 233.648438 312.179688 233.230469 313.125 C 232.234375 315.378906 230.03125 316.164062 227.777344 315.480469 C 227.464844 315.378906 227.097656 315.273438 227.203125 314.851562 C 227.515625 313.859375 229.613281 314.121094 230.398438 313.960938 " fill-opacity="1" fill-rule="nonzero"/><path fill="#48775d" d="M 193.078125 307.464844 C 191.976562 307.570312 190.875 307.882812 189.828125 308.304688 C 188.9375 308.671875 187.363281 309.351562 187.152344 310.453125 C 187.050781 311.183594 187.519531 311.917969 187.886719 312.496094 C 188.203125 313.019531 188.515625 313.59375 188.9375 314.015625 C 190.71875 315.796875 194.28125 314.066406 195.855469 312.757812 C 196.535156 312.179688 196.433594 309.613281 196.066406 308.671875 C 195.699219 307.515625 194.179688 307.308594 193.078125 307.464844 M 189.828125 310.242188 C 190.769531 309.71875 191.925781 309.457031 192.972656 309.246094 C 193.234375 309.195312 193.496094 309.140625 193.757812 309.140625 C 193.914062 309.140625 194.125 309.140625 194.230469 309.296875 C 194.230469 309.351562 193.652344 309.824219 193.601562 309.875 C 193.234375 310.136719 192.867188 310.191406 192.449219 310.347656 C 191.558594 310.660156 190.5625 311.027344 189.617188 311.027344 C 188.464844 311.183594 189.355469 310.503906 189.828125 310.242188 " fill-opacity="1" fill-rule="nonzero"/><path fill="#48775d" d="M 161.050781 267.273438 C 160.160156 266.488281 159.109375 265.753906 158.0625 265.230469 C 157.117188 264.761719 155.441406 263.871094 154.339844 264.394531 C 153.605469 264.707031 153.292969 265.546875 153.03125 266.175781 C 152.820312 266.699219 152.453125 267.328125 152.402344 267.902344 C 152.085938 270.367188 156.070312 272.148438 158.324219 272.621094 C 159.320312 272.828125 161.46875 271.207031 162.046875 270.367188 C 162.78125 269.371094 161.886719 268.0625 161.050781 267.273438 M 156.28125 266.332031 C 157.378906 266.804688 158.375 267.539062 159.320312 268.21875 C 159.53125 268.375 159.792969 268.585938 159.949219 268.792969 C 160.054688 268.898438 160.160156 269.109375 160.105469 269.265625 C 160.105469 269.320312 159.265625 269.109375 159.214844 269.109375 C 158.691406 268.953125 158.429688 268.742188 157.957031 268.480469 C 157.011719 267.957031 156.070312 267.378906 155.335938 266.644531 C 154.496094 265.808594 155.703125 266.121094 156.28125 266.332031 " fill-opacity="1" fill-rule="nonzero"/><path fill="#48775d" d="M 124.828125 294.101562 C 125.878906 294.417969 127.03125 294.628906 128.183594 294.679688 C 129.179688 294.730469 130.910156 294.785156 131.539062 293.894531 C 131.957031 293.316406 131.851562 292.480469 131.746094 291.796875 C 131.695312 291.222656 131.695312 290.59375 131.484375 290.015625 C 130.59375 287.710938 126.609375 287.816406 124.617188 288.339844 C 123.726562 288.550781 122.730469 290.855469 122.628906 291.851562 C 122.523438 293.003906 123.832031 293.789062 124.828125 294.101562 M 129.023438 292.949219 C 127.921875 293.003906 126.820312 292.792969 125.773438 292.53125 C 125.511719 292.480469 125.25 292.425781 125.039062 292.269531 C 124.882812 292.21875 124.722656 292.113281 124.671875 291.953125 C 124.671875 291.902344 125.40625 291.746094 125.457031 291.746094 C 125.929688 291.640625 126.242188 291.746094 126.714844 291.796875 C 127.710938 291.851562 128.707031 291.953125 129.597656 292.320312 C 130.699219 292.742188 129.597656 292.949219 129.023438 292.949219 " fill-opacity="1" fill-rule="nonzero"/><path fill="#48775d" d="M 169.855469 310.03125 C 168.914062 310.347656 168.019531 310.714844 167.183594 311.132812 C 166.34375 311.550781 165.347656 311.972656 165.136719 312.808594 C 164.875 313.648438 165.609375 314.382812 166.554688 314.851562 C 167.496094 315.378906 168.546875 315.324219 169.59375 315.21875 C 169.699219 315.21875 169.804688 315.21875 169.910156 315.21875 C 170.640625 315.273438 171.269531 315.273438 172.003906 315.324219 C 172.738281 315.378906 173.578125 316.003906 174.257812 316.53125 C 175.988281 318.257812 177.980469 320.929688 180.445312 319.515625 C 182.542969 318.363281 180.601562 315.429688 179.238281 313.804688 C 177.300781 311.5 173.996094 308.984375 170.800781 309.71875 C 170.378906 309.875 170.117188 309.925781 169.855469 310.03125 M 174.835938 314.90625 C 174.101562 314.222656 173.105469 313.699219 172.109375 313.542969 C 171.113281 313.386719 170.222656 313.804688 169.28125 313.910156 C 168.914062 313.960938 168.125 314.015625 167.757812 313.699219 C 167.234375 313.28125 168.335938 313.125 168.648438 313.019531 C 169.699219 312.757812 170.90625 312.652344 172.058594 312.652344 C 174.835938 312.652344 177.089844 314.328125 178.085938 316.53125 C 178.242188 316.84375 178.398438 317.210938 177.929688 317.261719 C 176.773438 317.523438 175.515625 315.535156 174.835938 314.90625 " fill-opacity="1" fill-rule="nonzero"/><path fill="#48775d" d="M 139.296875 293.371094 C 138.5625 294.050781 137.933594 294.835938 137.355469 295.570312 C 136.78125 296.304688 136.046875 297.140625 136.257812 297.980469 C 136.414062 298.820312 137.515625 299.082031 138.667969 299.132812 C 139.820312 299.132812 140.765625 298.609375 141.707031 298.03125 C 141.8125 297.980469 141.917969 297.929688 142.023438 297.929688 C 142.703125 297.667969 143.332031 297.300781 144.066406 297.039062 C 144.800781 296.722656 145.902344 296.878906 146.792969 297.089844 C 149.308594 297.824219 152.558594 299.1875 154.183594 296.828125 C 155.546875 294.835938 152.296875 293.210938 150.148438 292.425781 C 147.160156 291.324219 142.753906 290.644531 140.082031 292.742188 C 139.769531 292.949219 139.558594 293.160156 139.296875 293.371094 M 146.53125 295.308594 C 145.480469 295.046875 144.277344 295.046875 143.226562 295.414062 C 142.179688 295.78125 141.550781 296.511719 140.710938 297.039062 C 140.398438 297.246094 139.664062 297.667969 139.191406 297.5625 C 138.457031 297.40625 139.402344 296.777344 139.714844 296.566406 C 140.605469 295.886719 141.65625 295.203125 142.753906 294.679688 C 145.375 293.421875 148.363281 293.789062 150.410156 295.257812 C 150.722656 295.464844 151.039062 295.726562 150.671875 295.988281 C 149.675781 296.722656 147.472656 295.570312 146.53125 295.308594 " fill-opacity="1" fill-rule="nonzero"/><path fill="#48775d" d="M 158.796875 304.164062 C 157.746094 303.796875 156.59375 303.535156 155.492188 303.484375 C 154.496094 303.429688 152.769531 303.273438 152.085938 304.164062 C 151.613281 304.738281 151.613281 305.632812 151.667969 306.3125 C 151.667969 306.886719 151.613281 307.570312 151.773438 308.144531 C 152.453125 310.503906 156.4375 310.554688 158.480469 310.136719 C 159.371094 309.925781 160.578125 307.621094 160.789062 306.625 C 161.050781 305.367188 159.792969 304.53125 158.796875 304.164062 M 154.445312 305.210938 C 155.546875 305.210938 156.648438 305.472656 157.695312 305.734375 C 157.957031 305.789062 158.21875 305.894531 158.429688 305.996094 C 158.585938 306.101562 158.742188 306.15625 158.742188 306.363281 C 158.742188 306.417969 158.007812 306.574219 157.90625 306.574219 C 157.433594 306.679688 157.117188 306.523438 156.648438 306.46875 C 155.652344 306.363281 154.65625 306.207031 153.761719 305.839844 C 152.769531 305.367188 153.921875 305.210938 154.445312 305.210938 " fill-opacity="1" fill-rule="nonzero"/><path fill="#48775d" d="M 252.101562 305.105469 C 252.992188 304.738281 253.882812 304.269531 254.722656 303.796875 C 255.558594 303.324219 256.503906 302.800781 256.921875 301.910156 C 257.34375 301.019531 256.816406 300.285156 256.136719 299.816406 C 255.402344 299.289062 254.457031 299.449219 253.515625 299.550781 C 253.410156 299.550781 253.359375 299.550781 253.253906 299.550781 C 252.675781 299.5 252.046875 299.550781 251.417969 299.550781 C 250.738281 299.5 250.160156 298.925781 249.6875 298.347656 C 248.535156 296.566406 247.328125 293.839844 244.867188 295.464844 C 242.769531 296.828125 243.816406 299.816406 244.710938 301.492188 C 245.914062 303.847656 248.324219 306.363281 251.3125 305.472656 C 251.574219 305.316406 251.839844 305.210938 252.101562 305.105469 M 248.746094 300.179688 C 249.269531 300.863281 250.003906 301.386719 250.894531 301.492188 C 251.734375 301.597656 252.625 301.125 253.460938 300.96875 C 253.777344 300.914062 254.511719 300.808594 254.722656 301.125 C 255.085938 301.597656 254.09375 301.804688 253.777344 301.859375 C 252.78125 302.171875 251.734375 302.328125 250.683594 302.382812 C 248.222656 302.488281 246.597656 300.863281 246.175781 298.558594 C 246.125 298.191406 246.070312 297.824219 246.492188 297.71875 C 247.59375 297.457031 248.273438 299.550781 248.746094 300.179688 " fill-opacity="1" fill-rule="nonzero"/><path fill="#48775d" d="M 243.1875 282.472656 C 242.089844 282.261719 240.882812 282.207031 239.730469 282.367188 C 238.734375 282.472656 236.949219 282.628906 236.375 283.625 C 236.007812 284.304688 236.21875 285.144531 236.375 285.824219 C 236.53125 286.402344 236.585938 287.082031 236.847656 287.605469 C 238 289.859375 242.089844 289.230469 244.078125 288.445312 C 244.972656 288.078125 245.703125 285.5625 245.703125 284.566406 C 245.703125 283.257812 244.289062 282.628906 243.1875 282.472656 M 238.996094 284.199219 C 240.097656 283.992188 241.300781 284.09375 242.402344 284.199219 C 242.664062 284.253906 242.980469 284.253906 243.1875 284.355469 C 243.347656 284.410156 243.554688 284.460938 243.609375 284.671875 C 243.609375 284.722656 242.875 284.984375 242.820312 285.039062 C 242.351562 285.195312 241.984375 285.144531 241.511719 285.195312 C 240.515625 285.246094 239.46875 285.300781 238.472656 285.039062 C 237.371094 284.671875 238.472656 284.304688 238.996094 284.199219 " fill-opacity="1" fill-rule="nonzero"/><path fill="#48775d" d="M 250.945312 322.136719 C 250.894531 323.132812 251 324.074219 251.105469 325.070312 C 251.207031 326.015625 251.261719 327.113281 251.941406 327.847656 C 252.570312 328.582031 253.460938 328.425781 254.195312 327.953125 C 254.929688 327.480469 255.246094 326.589844 255.507812 325.699219 C 255.558594 325.648438 255.613281 325.542969 255.613281 325.488281 C 255.925781 324.964844 256.082031 324.390625 256.347656 323.867188 C 256.660156 323.289062 257.445312 322.976562 258.128906 322.765625 C 260.226562 322.449219 263.210938 322.449219 262.742188 319.570312 C 262.375 317.105469 259.230469 316.84375 257.34375 316.949219 C 254.722656 317.105469 251.417969 318.257812 251 321.351562 C 250.945312 321.558594 250.945312 321.875 250.945312 322.136719 M 256.816406 321.089844 C 255.980469 321.296875 255.191406 321.769531 254.773438 322.503906 C 254.300781 323.238281 254.40625 324.230469 254.195312 325.070312 C 254.09375 325.386719 253.882812 326.066406 253.515625 326.171875 C 252.9375 326.328125 253.148438 325.332031 253.199219 325.019531 C 253.304688 323.96875 253.621094 322.921875 253.988281 321.980469 C 254.878906 319.671875 257.078125 318.835938 259.332031 319.464844 C 259.648438 319.570312 260.015625 319.671875 259.960938 320.039062 C 259.753906 321.140625 257.605469 320.929688 256.816406 321.089844 " fill-opacity="1" fill-rule="nonzero"/><path fill="#48775d" d="M 260.644531 304.949219 C 259.542969 305.054688 258.441406 305.367188 257.394531 305.789062 C 256.503906 306.15625 254.929688 306.835938 254.722656 307.9375 C 254.617188 308.671875 255.085938 309.402344 255.453125 309.980469 C 255.769531 310.503906 256.082031 311.082031 256.503906 311.5 C 258.285156 313.28125 261.851562 311.550781 263.421875 310.242188 C 264.105469 309.664062 264 307.097656 263.632812 306.15625 C 263.210938 305.054688 261.691406 304.84375 260.644531 304.949219 M 257.34375 307.777344 C 258.285156 307.253906 259.4375 306.992188 260.488281 306.785156 C 260.75 306.730469 261.011719 306.679688 261.273438 306.679688 C 261.429688 306.679688 261.640625 306.679688 261.746094 306.835938 C 261.746094 306.886719 261.167969 307.359375 261.117188 307.414062 C 260.75 307.675781 260.382812 307.726562 259.960938 307.882812 C 259.070312 308.199219 258.074219 308.566406 257.132812 308.566406 C 255.980469 308.722656 256.871094 308.042969 257.34375 307.777344 " fill-opacity="1" fill-rule="nonzero"/><path fill="#48775d" d="M 166.921875 282.523438 C 166.394531 283.519531 165.976562 284.617188 165.765625 285.773438 C 165.558594 286.765625 165.191406 288.496094 165.976562 289.335938 C 166.5 289.910156 167.339844 289.964844 168.074219 290.015625 C 168.648438 290.070312 169.332031 290.226562 169.910156 290.121094 C 172.371094 289.753906 173 285.71875 172.84375 283.570312 C 172.792969 282.628906 170.589844 281.160156 169.644531 280.847656 C 168.441406 280.425781 167.390625 281.527344 166.921875 282.523438 M 167.289062 286.976562 C 167.445312 285.875 167.863281 284.777344 168.285156 283.78125 C 168.386719 283.519531 168.492188 283.257812 168.648438 283.046875 C 168.753906 282.941406 168.859375 282.734375 169.070312 282.785156 C 169.121094 282.785156 169.175781 283.570312 169.175781 283.625 C 169.175781 284.09375 169.015625 284.410156 168.914062 284.882812 C 168.648438 285.824219 168.386719 286.820312 167.863281 287.660156 C 167.289062 288.707031 167.234375 287.554688 167.289062 286.976562 " fill-opacity="1" fill-rule="nonzero"/><path fill="#48775d" d="M 113.714844 263.660156 C 114.765625 263.292969 115.867188 262.769531 116.808594 262.140625 C 117.648438 261.5625 119.113281 260.621094 119.113281 259.46875 C 119.113281 258.683594 118.539062 258.054688 118.121094 257.527344 C 117.753906 257.058594 117.332031 256.535156 116.859375 256.167969 C 114.816406 254.699219 111.566406 257.164062 110.203125 258.785156 C 109.628906 259.519531 110.097656 262.085938 110.570312 262.980469 C 111.148438 264.078125 112.71875 263.972656 113.714844 263.660156 M 116.546875 260.148438 C 115.65625 260.832031 114.605469 261.355469 113.609375 261.722656 C 113.347656 261.824219 113.085938 261.929688 112.824219 261.984375 C 112.667969 261.984375 112.457031 262.035156 112.351562 261.878906 C 112.300781 261.824219 112.824219 261.25 112.878906 261.195312 C 113.191406 260.832031 113.558594 260.726562 113.976562 260.464844 C 114.816406 259.9375 115.707031 259.414062 116.652344 259.207031 C 117.804688 258.945312 117.019531 259.78125 116.546875 260.148438 " fill-opacity="1" fill-rule="nonzero"/><path fill="#48775d" d="M 166.972656 333.558594 C 166.816406 332.457031 166.449219 331.304688 165.976562 330.257812 C 165.558594 329.367188 164.824219 327.742188 163.671875 327.535156 C 162.882812 327.375 162.203125 327.847656 161.574219 328.265625 C 161.050781 328.582031 160.472656 328.894531 160.054688 329.316406 C 158.273438 331.097656 160.210938 334.710938 161.625 336.335938 C 162.253906 337.015625 164.875 336.914062 165.820312 336.597656 C 167.023438 336.179688 167.128906 334.660156 166.972656 333.558594 M 163.933594 330.257812 C 164.507812 331.253906 164.769531 332.355469 165.035156 333.402344 C 165.085938 333.664062 165.136719 333.925781 165.136719 334.1875 C 165.136719 334.34375 165.136719 334.554688 164.980469 334.660156 C 164.929688 334.660156 164.40625 334.082031 164.40625 334.03125 C 164.089844 333.664062 164.039062 333.296875 163.828125 332.824219 C 163.460938 331.933594 163.09375 330.9375 162.988281 329.945312 C 162.9375 328.84375 163.671875 329.734375 163.933594 330.257812 " fill-opacity="1" fill-rule="nonzero"/><path fill="#48775d" d="M 163.144531 377.257812 C 162.046875 376.996094 160.839844 376.945312 159.738281 376.996094 C 158.742188 377.050781 156.960938 377.15625 156.382812 378.148438 C 155.964844 378.832031 156.175781 379.671875 156.332031 380.351562 C 156.4375 380.925781 156.488281 381.609375 156.75 382.183594 C 157.800781 384.492188 161.835938 383.964844 163.828125 383.285156 C 164.71875 382.972656 165.558594 380.457031 165.558594 379.460938 C 165.609375 378.203125 164.195312 377.523438 163.144531 377.257812 M 158.953125 378.882812 C 160.054688 378.726562 161.207031 378.832031 162.308594 378.988281 C 162.570312 379.042969 162.832031 379.042969 163.09375 379.144531 C 163.25 379.199219 163.410156 379.304688 163.460938 379.460938 C 163.460938 379.511719 162.726562 379.773438 162.675781 379.773438 C 162.203125 379.933594 161.835938 379.828125 161.363281 379.878906 C 160.367188 379.933594 159.320312 379.878906 158.375 379.617188 C 157.277344 379.304688 158.375 378.988281 158.953125 378.882812 " fill-opacity="1" fill-rule="nonzero"/><path fill="#48775d" d="M 211.789062 361.960938 C 210.691406 361.695312 209.484375 361.644531 208.382812 361.695312 C 207.386719 361.75 205.605469 361.855469 205.027344 362.851562 C 204.609375 363.53125 204.820312 364.371094 204.976562 365.050781 C 205.082031 365.628906 205.132812 366.308594 205.394531 366.882812 C 206.445312 369.191406 210.480469 368.667969 212.472656 367.984375 C 213.363281 367.671875 214.203125 365.15625 214.203125 364.160156 C 214.253906 362.851562 212.890625 362.167969 211.789062 361.960938 M 207.597656 363.582031 C 208.699219 363.425781 209.851562 363.53125 210.953125 363.6875 C 211.214844 363.742188 211.476562 363.742188 211.738281 363.84375 C 211.894531 363.898438 212.050781 364.003906 212.105469 364.160156 C 212.105469 364.210938 211.371094 364.472656 211.320312 364.472656 C 210.847656 364.632812 210.480469 364.527344 210.007812 364.578125 C 209.011719 364.632812 207.964844 364.578125 207.019531 364.316406 C 205.972656 364.003906 207.074219 363.636719 207.597656 363.582031 " fill-opacity="1" fill-rule="nonzero"/><path fill="#48775d" d="M 126.347656 381.609375 C 127.34375 382.183594 128.445312 382.605469 129.546875 382.867188 C 130.542969 383.128906 132.21875 383.546875 133.109375 382.8125 C 133.6875 382.289062 133.792969 381.453125 133.84375 380.769531 C 133.898438 380.195312 134.054688 379.511719 134 378.9375 C 133.6875 376.421875 129.703125 375.6875 127.554688 375.738281 C 126.609375 375.792969 125.039062 377.886719 124.722656 378.832031 C 124.304688 379.984375 125.40625 381.085938 126.347656 381.609375 M 130.804688 381.398438 C 129.703125 381.242188 128.65625 380.769531 127.660156 380.246094 C 127.398438 380.140625 127.1875 380.035156 126.976562 379.828125 C 126.875 379.722656 126.714844 379.617188 126.714844 379.40625 C 126.714844 379.355469 127.503906 379.355469 127.554688 379.355469 C 128.027344 379.355469 128.339844 379.511719 128.8125 379.671875 C 129.757812 379.933594 130.753906 380.246094 131.589844 380.824219 C 132.535156 381.503906 131.382812 381.453125 130.804688 381.398438 " fill-opacity="1" fill-rule="nonzero"/><path fill="#48775d" d="M 218.972656 301.175781 C 220.074219 301.125 221.277344 300.96875 222.378906 300.601562 C 223.324219 300.285156 225 299.761719 225.367188 298.714844 C 225.628906 297.980469 225.210938 297.195312 224.949219 296.566406 C 224.683594 296.042969 224.476562 295.359375 224.109375 294.890625 C 222.535156 292.898438 218.710938 294.363281 216.925781 295.519531 C 216.140625 296.042969 215.929688 298.660156 216.140625 299.65625 C 216.351562 300.863281 217.871094 301.175781 218.972656 301.175781 M 222.640625 298.609375 C 221.59375 299.027344 220.4375 299.1875 219.339844 299.289062 C 219.078125 299.34375 218.816406 299.34375 218.550781 299.289062 C 218.394531 299.289062 218.183594 299.238281 218.132812 299.082031 C 218.132812 299.027344 218.761719 298.609375 218.816406 298.558594 C 219.234375 298.296875 219.601562 298.296875 220.074219 298.136719 C 221.015625 297.875 222.0625 297.667969 223.058594 297.667969 C 224.160156 297.824219 223.164062 298.398438 222.640625 298.609375 " fill-opacity="1" fill-rule="nonzero"/><path fill="#48775d" d="M 218.605469 267.117188 C 217.554688 266.699219 216.351562 266.4375 215.25 266.332031 C 214.253906 266.226562 212.472656 266.070312 211.738281 266.910156 C 211.214844 267.484375 211.265625 268.324219 211.320312 269.058594 C 211.320312 269.632812 211.265625 270.3125 211.476562 270.890625 C 212.15625 273.300781 216.296875 273.511719 218.394531 273.089844 C 219.339844 272.933594 220.542969 270.578125 220.703125 269.582031 C 220.964844 268.429688 219.652344 267.539062 218.605469 267.117188 M 214.203125 268.007812 C 215.355469 268.007812 216.457031 268.324219 217.554688 268.636719 C 217.820312 268.742188 218.082031 268.792969 218.289062 268.953125 C 218.449219 269.058594 218.605469 269.160156 218.605469 269.320312 C 218.605469 269.371094 217.820312 269.527344 217.765625 269.527344 C 217.292969 269.582031 216.925781 269.476562 216.457031 269.421875 C 215.460938 269.265625 214.410156 269.109375 213.519531 268.691406 C 212.472656 268.164062 213.625 268.007812 214.203125 268.007812 " fill-opacity="1" fill-rule="nonzero"/><path fill="#48775d" d="M 162.570312 260.726562 C 163.671875 260.933594 164.875 260.988281 166.03125 260.832031 C 167.023438 260.726562 168.808594 260.566406 169.332031 259.574219 C 169.699219 258.890625 169.488281 258.054688 169.332031 257.371094 C 169.175781 256.796875 169.121094 256.113281 168.808594 255.589844 C 167.65625 253.335938 163.566406 253.964844 161.574219 254.804688 C 160.683594 255.171875 159.949219 257.6875 160 258.683594 C 160.054688 259.886719 161.46875 260.515625 162.570312 260.726562 M 166.761719 258.945312 C 165.664062 259.152344 164.457031 259.046875 163.355469 258.945312 C 163.09375 258.890625 162.78125 258.890625 162.570312 258.785156 C 162.414062 258.734375 162.203125 258.683594 162.152344 258.472656 C 162.152344 258.417969 162.882812 258.15625 162.9375 258.105469 C 163.410156 257.949219 163.777344 258 164.246094 257.949219 C 165.242188 257.894531 166.292969 257.84375 167.289062 258.105469 C 168.386719 258.472656 167.289062 258.839844 166.761719 258.945312 " fill-opacity="1" fill-rule="nonzero"/><path fill="#48775d" d="M 230.976562 281.054688 C 232.078125 280.953125 233.28125 280.6875 234.332031 280.324219 C 235.273438 279.957031 236.949219 279.378906 237.214844 278.277344 C 237.421875 277.546875 237.003906 276.8125 236.636719 276.183594 C 236.375 275.660156 236.113281 275.03125 235.691406 274.558594 C 234.015625 272.671875 230.242188 274.296875 228.5625 275.554688 C 227.832031 276.078125 227.726562 278.75 227.988281 279.695312 C 228.355469 280.898438 229.875 281.160156 230.976562 281.054688 M 234.539062 278.332031 C 233.492188 278.804688 232.390625 279.011719 231.289062 279.167969 C 231.027344 279.222656 230.765625 279.273438 230.503906 279.222656 C 230.347656 279.222656 230.136719 279.167969 230.03125 279.011719 C 230.03125 278.960938 230.660156 278.488281 230.714844 278.488281 C 231.132812 278.226562 231.5 278.175781 231.917969 278.015625 C 232.863281 277.703125 233.859375 277.441406 234.855469 277.441406 C 236.058594 277.441406 235.0625 278.070312 234.539062 278.332031 " fill-opacity="1" fill-rule="nonzero"/></svg>