<svg xmlns="http://www.w3.org/2000/svg" xmlns:xlink="http://www.w3.org/1999/xlink" zoomAndPan="magnify" preserveAspectRatio="xMidYMid meet" version="1.0" viewBox="35.34 216.63 240 240"><defs><clipPath id="4a23600bff"><path d="M 35.34375 216.632812 L 275.34375 216.632812 L 275.34375 456.632812 L 35.34375 456.632812 Z M 35.34375 216.632812 " clip-rule="nonzero"/></clipPath></defs><g clip-path="url(#4a23600bff)"><path fill="#f18861" d="M 155.28125 216.632812 C 88.984375 216.632812 35.34375 270.332031 35.34375 336.632812 C 35.34375 402.933594 88.984375 456.632812 155.28125 456.632812 C 221.582031 456.632812 275.34375 402.933594 275.34375 336.632812 C 275.34375 270.332031 221.582031 216.632812 155.28125 216.632812 Z M 155.34375 432.632812 C 102.300781 432.632812 59.34375 389.671875 59.34375 336.632812 C 59.34375 283.59375 102.300781 240.632812 155.34375 240.632812 C 208.382812 240.632812 251.34375 283.59375 251.34375 336.632812 C 251.34375 389.671875 208.382812 432.632812 155.34375 432.632812 Z M 155.34375 432.632812 " fill-opacity="1" fill-rule="nonzero"/></g><path fill="#f18861" d="M 161.34375 276.632812 L 143.34375 276.632812 L 143.34375 348.632812 L 206.28125 386.433594 L 215.34375 371.671875 L 161.34375 339.632812 Z M 161.34375 276.632812 " fill-opacity="1" fill-rule="nonzero"/></svg>