<svg xmlns="http://www.w3.org/2000/svg" xmlns:xlink="http://www.w3.org/1999/xlink" width="414" zoomAndPan="magnify" viewBox="0 0 310.5 671.999985" height="896" preserveAspectRatio="xMidYMid meet" version="1.0"><defs><filter x="0%" y="0%" width="100%" height="100%" id="9fd450112a"><feColorMatrix values="0 0 0 0 1 0 0 0 0 1 0 0 0 0 1 0 0 0 1 0" color-interpolation-filters="sRGB"/></filter><g/><mask id="d9090b514d"><g filter="url(#9fd450112a)"><rect x="-31.05" width="372.6" fill="#000000" y="-67.199999" height="806.399982" fill-opacity="0.349"/></g></mask><clipPath id="0e82fa8050"><path d="M 1.042969 0.289062 L 132.292969 0.289062 L 132.292969 60.699219 L 1.042969 60.699219 Z M 1.042969 0.289062 " clip-rule="nonzero"/></clipPath><clipPath id="28adb32473"><rect x="0" width="174" y="0" height="61"/></clipPath><clipPath id="711f46ede1"><path d="M 102 316.105469 L 123 316.105469 L 123 343 L 102 343 Z M 102 316.105469 " clip-rule="nonzero"/></clipPath><clipPath id="f8b167c898"><path d="M 91 331 L 117 331 L 117 353.605469 L 91 353.605469 Z M 91 331 " clip-rule="nonzero"/></clipPath><mask id="020d7eec78"><g filter="url(#9fd450112a)"><rect x="-31.05" width="372.6" fill="#000000" y="-67.199999" height="806.399982" fill-opacity="0.349"/></g></mask><clipPath id="5c48feeef1"><path d="M 133.496094 0.289062 L 172.496094 0.289062 L 172.496094 60.746094 L 133.496094 60.746094 Z M 133.496094 0.289062 " clip-rule="nonzero"/></clipPath><clipPath id="84233c03a3"><rect x="0" width="174" y="0" height="61"/></clipPath></defs><g mask="url(#d9090b514d)"><g transform="matrix(1, 0, 0, 1, 69, 306)"><g clip-path="url(#28adb32473)"><g clip-path="url(#0e82fa8050)"><path fill="#c6c6c6" d="M 172.792969 30.265625 C 172.792969 46.820312 159.34375 60.175781 142.671875 60.175781 L 31.164062 60.175781 C 14.492188 60.289062 1.042969 46.820312 1.042969 30.265625 C 1.042969 13.714844 14.492188 0.359375 31.164062 0.359375 L 142.558594 0.359375 C 159.34375 0.359375 172.792969 13.714844 172.792969 30.265625 Z M 172.792969 30.265625 " fill-opacity="1" fill-rule="nonzero"/></g></g></g></g><g clip-path="url(#711f46ede1)"><path fill="#599344" d="M 121.222656 326.976562 C 120.230469 326.792969 118.871094 327.324219 117.425781 328.355469 C 118.195312 327.183594 118.863281 325.796875 119.339844 324.300781 C 120.726562 319.957031 119.972656 316.339844 117.660156 316.21875 C 115.460938 316.097656 112.640625 319.183594 111.179688 323.21875 C 109.808594 322.246094 108.449219 321.796875 107.390625 322.089844 C 105.554688 322.597656 105.199219 325.179688 106.335938 328.269531 C 105.65625 328.074219 105.027344 328.039062 104.488281 328.203125 C 102.277344 328.867188 102.449219 332.554688 104.875 336.441406 C 105.800781 337.921875 106.957031 339.484375 108.605469 340.671875 C 109.214844 341.109375 109.90625 341.496094 110.617188 341.863281 C 111.097656 342.109375 111.71875 342.492188 112.433594 342.449219 C 113.347656 342.398438 114.136719 341.636719 114.585938 341.191406 C 115.289062 340.492188 116.300781 339.929688 117.023438 339.238281 C 117.832031 338.464844 118.542969 337.652344 119.175781 336.828125 C 119.5625 336.320312 119.925781 335.808594 120.261719 335.292969 C 122.96875 331.109375 123.398438 327.382812 121.222656 326.976562 " fill-opacity="1" fill-rule="nonzero"/></g><path fill="#8ed24d" d="M 116.5625 320.445312 C 116.5625 320.445312 116.417969 320.890625 116.199219 321.6875 C 115.976562 322.476562 115.675781 323.617188 115.363281 324.992188 C 115.046875 326.367188 114.71875 327.980469 114.4375 329.710938 C 114.292969 330.578125 114.171875 331.476562 114.058594 332.382812 C 114.003906 332.835938 113.957031 333.296875 113.910156 333.757812 C 113.871094 334.21875 113.824219 334.679688 113.796875 335.140625 C 113.769531 335.601562 113.730469 336.0625 113.71875 336.523438 C 113.699219 336.980469 113.683594 337.4375 113.683594 337.886719 C 113.679688 338.113281 113.679688 338.335938 113.675781 338.558594 C 113.679688 338.78125 113.6875 339.003906 113.691406 339.222656 C 113.691406 339.664062 113.722656 340.09375 113.742188 340.515625 C 113.792969 341.363281 113.878906 342.167969 113.984375 342.921875 C 114.03125 343.300781 114.109375 343.660156 114.167969 344.007812 C 114.226562 344.359375 114.316406 344.683594 114.386719 345 C 114.417969 345.160156 114.457031 345.3125 114.503906 345.457031 C 114.546875 345.605469 114.589844 345.75 114.625 345.890625 C 114.699219 346.171875 114.792969 346.425781 114.882812 346.664062 C 115.039062 347.152344 115.230469 347.542969 115.367188 347.871094 C 115.433594 348.035156 115.511719 348.167969 115.578125 348.289062 C 115.640625 348.410156 115.695312 348.511719 115.738281 348.59375 C 115.824219 348.757812 115.871094 348.84375 115.871094 348.84375 L 115.933594 348.964844 C 116.511719 350.070312 116.097656 351.4375 115.007812 352.023438 C 113.914062 352.613281 112.5625 352.191406 111.980469 351.085938 C 111.9375 351.007812 111.898438 350.917969 111.867188 350.835938 C 111.867188 350.835938 111.820312 350.707031 111.726562 350.464844 C 111.683594 350.347656 111.625 350.199219 111.5625 350.023438 C 111.496094 349.847656 111.414062 349.648438 111.355469 349.421875 C 111.226562 348.964844 111.050781 348.417969 110.925781 347.785156 C 110.855469 347.46875 110.78125 347.132812 110.734375 346.78125 C 110.707031 346.605469 110.679688 346.425781 110.648438 346.238281 C 110.617188 346.054688 110.59375 345.867188 110.578125 345.671875 C 110.546875 345.289062 110.492188 344.886719 110.472656 344.476562 C 110.457031 344.0625 110.421875 343.636719 110.421875 343.203125 C 110.410156 342.335938 110.429688 341.425781 110.492188 340.496094 C 110.527344 340.03125 110.554688 339.5625 110.613281 339.089844 C 110.636719 338.851562 110.664062 338.613281 110.6875 338.375 C 110.71875 338.140625 110.753906 337.898438 110.785156 337.660156 C 110.847656 337.183594 110.925781 336.703125 111.007812 336.226562 C 111.082031 335.746094 111.179688 335.269531 111.269531 334.792969 C 111.359375 334.3125 111.472656 333.84375 111.570312 333.371094 C 111.683594 332.902344 111.789062 332.433594 111.90625 331.972656 C 112.140625 331.054688 112.382812 330.152344 112.640625 329.289062 C 113.148438 327.5625 113.6875 325.976562 114.179688 324.632812 C 114.671875 323.289062 115.117188 322.183594 115.441406 321.417969 C 115.765625 320.648438 115.964844 320.214844 115.964844 320.214844 C 116.039062 320.050781 116.230469 319.980469 116.390625 320.054688 C 116.539062 320.125 116.609375 320.292969 116.5625 320.445312 " fill-opacity="1" fill-rule="nonzero"/><path fill="#8ed24d" d="M 111.011719 338.210938 C 111.011719 338.210938 110.992188 338.1875 110.953125 338.140625 C 110.914062 338.09375 110.851562 338.023438 110.777344 337.9375 C 110.632812 337.761719 110.417969 337.527344 110.160156 337.242188 C 110.03125 337.105469 109.890625 336.953125 109.742188 336.792969 C 109.59375 336.636719 109.433594 336.46875 109.273438 336.296875 C 108.945312 335.957031 108.597656 335.589844 108.25 335.226562 C 108.082031 335.039062 107.90625 334.863281 107.738281 334.675781 C 107.574219 334.492188 107.40625 334.3125 107.25 334.128906 C 107.097656 333.949219 106.945312 333.777344 106.808594 333.605469 C 106.667969 333.4375 106.539062 333.277344 106.429688 333.117188 C 106.3125 332.964844 106.203125 332.820312 106.121094 332.683594 C 106.035156 332.542969 105.949219 332.441406 105.902344 332.324219 C 105.792969 332.109375 105.730469 331.988281 105.730469 331.988281 C 105.648438 331.832031 105.710938 331.636719 105.867188 331.554688 C 106.019531 331.476562 106.210938 331.535156 106.292969 331.691406 C 106.292969 331.695312 106.292969 331.695312 106.292969 331.695312 L 106.316406 331.742188 C 106.316406 331.742188 106.367188 331.84375 106.453125 332.015625 C 106.488281 332.101562 106.574219 332.207031 106.644531 332.320312 C 106.722656 332.441406 106.824219 332.566406 106.941406 332.707031 C 107.050781 332.847656 107.183594 332.988281 107.328125 333.136719 C 107.464844 333.289062 107.628906 333.441406 107.792969 333.597656 C 107.953125 333.753906 108.140625 333.90625 108.320312 334.0625 C 108.5 334.21875 108.691406 334.375 108.882812 334.527344 C 109.074219 334.671875 109.269531 334.824219 109.460938 334.96875 C 109.65625 335.109375 109.847656 335.246094 110.035156 335.378906 C 110.417969 335.632812 110.78125 335.859375 111.105469 336.046875 C 111.421875 336.226562 111.699219 336.371094 111.894531 336.460938 C 111.988281 336.511719 112.0625 336.542969 112.117188 336.5625 C 112.167969 336.585938 112.199219 336.601562 112.199219 336.601562 C 112.714844 336.824219 112.953125 337.433594 112.726562 337.957031 C 112.503906 338.480469 111.90625 338.722656 111.386719 338.496094 C 111.238281 338.429688 111.109375 338.328125 111.011719 338.210938 " fill-opacity="1" fill-rule="nonzero"/><path fill="#8ed24d" d="M 112.679688 334.527344 C 112.679688 334.527344 112.8125 334.472656 113.039062 334.371094 C 113.265625 334.265625 113.585938 334.121094 113.96875 333.933594 C 114.160156 333.835938 114.367188 333.734375 114.585938 333.621094 C 114.800781 333.507812 115.027344 333.386719 115.261719 333.257812 C 115.496094 333.132812 115.738281 333 115.976562 332.859375 C 116.21875 332.714844 116.464844 332.570312 116.707031 332.425781 C 116.953125 332.285156 117.191406 332.128906 117.425781 331.976562 C 117.660156 331.820312 117.890625 331.671875 118.109375 331.523438 C 118.332031 331.375 118.535156 331.21875 118.726562 331.070312 C 118.921875 330.921875 119.105469 330.785156 119.273438 330.652344 C 119.445312 330.527344 119.578125 330.386719 119.707031 330.273438 C 119.835938 330.15625 119.945312 330.054688 120.03125 329.964844 C 120.207031 329.792969 120.308594 329.695312 120.308594 329.695312 L 120.324219 329.683594 C 120.410156 329.601562 120.546875 329.601562 120.628906 329.6875 C 120.710938 329.773438 120.707031 329.914062 120.621094 329.996094 C 120.617188 330 120.613281 330.003906 120.605469 330.007812 C 120.605469 330.007812 120.492188 330.101562 120.292969 330.257812 C 120.195312 330.339844 120.078125 330.433594 119.945312 330.550781 C 119.875 330.605469 119.804688 330.667969 119.730469 330.730469 C 119.65625 330.796875 119.574219 330.863281 119.488281 330.925781 C 119.3125 331.054688 119.132812 331.195312 118.9375 331.347656 C 118.738281 331.496094 118.542969 331.667969 118.328125 331.824219 C 117.894531 332.144531 117.441406 332.5 116.980469 332.839844 C 116.0625 333.527344 115.140625 334.214844 114.449219 334.730469 C 114.105469 334.992188 113.816406 335.214844 113.617188 335.363281 C 113.414062 335.519531 113.300781 335.609375 113.300781 335.609375 L 113.292969 335.613281 C 113.019531 335.828125 112.628906 335.773438 112.417969 335.5 C 112.207031 335.222656 112.257812 334.824219 112.535156 334.613281 C 112.578125 334.578125 112.628906 334.546875 112.679688 334.527344 " fill-opacity="1" fill-rule="nonzero"/><path fill="#8ed24d" d="M 112.796875 330.832031 C 112.796875 330.832031 112.457031 330.515625 111.945312 330.039062 C 111.695312 329.804688 111.402344 329.523438 111.09375 329.226562 C 110.785156 328.925781 110.460938 328.597656 110.148438 328.261719 C 109.988281 328.09375 109.835938 327.921875 109.6875 327.75 C 109.539062 327.578125 109.398438 327.402344 109.261719 327.230469 C 109.132812 327.058594 109.003906 326.886719 108.890625 326.71875 C 108.78125 326.550781 108.679688 326.386719 108.59375 326.226562 C 108.507812 326.074219 108.4375 325.921875 108.378906 325.785156 C 108.320312 325.648438 108.277344 325.523438 108.25 325.417969 C 108.214844 325.3125 108.199219 325.226562 108.1875 325.167969 C 108.175781 325.105469 108.167969 325.074219 108.167969 325.074219 C 108.136719 324.925781 108.234375 324.777344 108.382812 324.746094 C 108.535156 324.714844 108.679688 324.808594 108.710938 324.960938 C 108.710938 324.964844 108.710938 324.96875 108.714844 324.972656 L 108.71875 325 C 108.71875 325 108.722656 325.023438 108.730469 325.070312 C 108.738281 325.117188 108.742188 325.183594 108.769531 325.269531 C 108.789062 325.355469 108.828125 325.457031 108.875 325.574219 C 108.925781 325.691406 108.984375 325.828125 109.0625 325.964844 C 109.140625 326.105469 109.238281 326.253906 109.339844 326.40625 C 109.449219 326.558594 109.570312 326.714844 109.699219 326.875 C 109.960938 327.191406 110.265625 327.515625 110.585938 327.820312 C 110.90625 328.121094 111.246094 328.414062 111.570312 328.675781 C 111.898438 328.933594 112.210938 329.160156 112.488281 329.34375 C 112.761719 329.53125 113.003906 329.675781 113.167969 329.773438 C 113.25 329.824219 113.316406 329.859375 113.359375 329.882812 C 113.40625 329.90625 113.429688 329.917969 113.429688 329.917969 C 113.699219 330.066406 113.804688 330.402344 113.664062 330.675781 C 113.519531 330.949219 113.1875 331.058594 112.914062 330.914062 C 112.871094 330.890625 112.832031 330.859375 112.796875 330.832031 " fill-opacity="1" fill-rule="nonzero"/><path fill="#8ed24d" d="M 110.015625 327.355469 C 110.015625 327.355469 110.019531 327.351562 110.035156 327.339844 C 110.042969 327.335938 110.0625 327.320312 110.085938 327.300781 C 110.136719 327.257812 110.207031 327.191406 110.285156 327.105469 C 110.445312 326.933594 110.628906 326.671875 110.75 326.375 C 110.785156 326.300781 110.804688 326.222656 110.832031 326.144531 C 110.859375 326.070312 110.867188 325.992188 110.886719 325.917969 C 110.90625 325.84375 110.90625 325.765625 110.914062 325.695312 C 110.925781 325.625 110.925781 325.558594 110.925781 325.496094 C 110.921875 325.433594 110.929688 325.375 110.921875 325.324219 C 110.917969 325.273438 110.914062 325.226562 110.910156 325.191406 C 110.902344 325.117188 110.898438 325.074219 110.898438 325.074219 L 110.894531 325.058594 C 110.886719 324.992188 110.9375 324.929688 111.007812 324.921875 C 111.070312 324.917969 111.125 324.953125 111.140625 325.011719 C 111.140625 325.011719 111.152344 325.054688 111.175781 325.132812 C 111.1875 325.175781 111.203125 325.222656 111.21875 325.277344 C 111.238281 325.328125 111.242188 325.398438 111.257812 325.464844 C 111.269531 325.535156 111.285156 325.613281 111.289062 325.695312 C 111.292969 325.773438 111.308594 325.863281 111.300781 325.953125 C 111.296875 326.042969 111.300781 326.140625 111.285156 326.234375 C 111.277344 326.328125 111.265625 326.425781 111.246094 326.523438 C 111.167969 326.90625 111.003906 327.273438 110.84375 327.527344 C 110.765625 327.652344 110.691406 327.753906 110.632812 327.828125 C 110.605469 327.859375 110.582031 327.890625 110.5625 327.914062 C 110.546875 327.933594 110.535156 327.941406 110.535156 327.941406 C 110.390625 328.101562 110.140625 328.113281 109.984375 327.96875 C 109.824219 327.820312 109.8125 327.570312 109.957031 327.40625 C 109.972656 327.386719 109.992188 327.371094 110.011719 327.359375 L 110.015625 327.355469 " fill-opacity="1" fill-rule="nonzero"/><path fill="#8ed24d" d="M 109.164062 335.539062 C 109.164062 335.539062 109.167969 335.53125 109.175781 335.515625 C 109.183594 335.507812 109.195312 335.488281 109.210938 335.460938 C 109.242188 335.402344 109.285156 335.320312 109.328125 335.214844 C 109.421875 335.007812 109.527344 334.710938 109.585938 334.40625 C 109.617188 334.253906 109.632812 334.097656 109.644531 333.949219 C 109.648438 333.875 109.648438 333.808594 109.648438 333.738281 C 109.648438 333.671875 109.648438 333.605469 109.640625 333.550781 C 109.632812 333.429688 109.617188 333.332031 109.605469 333.261719 C 109.597656 333.195312 109.589844 333.15625 109.589844 333.15625 L 109.585938 333.140625 C 109.574219 333.058594 109.628906 332.980469 109.710938 332.96875 C 109.785156 332.957031 109.851562 332.996094 109.875 333.066406 C 109.875 333.066406 109.890625 333.105469 109.917969 333.179688 C 109.941406 333.25 109.976562 333.355469 110.007812 333.484375 C 110.027344 333.550781 110.042969 333.621094 110.054688 333.695312 C 110.070312 333.769531 110.085938 333.851562 110.09375 333.933594 C 110.113281 334.097656 110.125 334.277344 110.121094 334.457031 C 110.117188 334.816406 110.0625 335.175781 109.996094 335.441406 C 109.964844 335.574219 109.929688 335.683594 109.90625 335.761719 C 109.894531 335.800781 109.882812 335.832031 109.871094 335.859375 C 109.863281 335.878906 109.859375 335.890625 109.859375 335.890625 C 109.78125 336.09375 109.554688 336.195312 109.351562 336.113281 C 109.152344 336.035156 109.050781 335.808594 109.132812 335.601562 C 109.140625 335.582031 109.152344 335.558594 109.164062 335.539062 " fill-opacity="1" fill-rule="nonzero"/><path fill="#8ed24d" d="M 108.164062 334.566406 C 108.164062 334.566406 108.15625 334.574219 108.132812 334.589844 C 108.109375 334.605469 108.070312 334.632812 108.027344 334.65625 C 107.941406 334.710938 107.816406 334.78125 107.664062 334.855469 C 107.585938 334.890625 107.5 334.925781 107.410156 334.964844 C 107.316406 334.996094 107.222656 335.035156 107.117188 335.0625 L 106.957031 335.101562 C 106.902344 335.109375 106.84375 335.121094 106.789062 335.128906 C 106.675781 335.152344 106.554688 335.148438 106.441406 335.152344 C 106.382812 335.152344 106.320312 335.144531 106.265625 335.136719 C 106.207031 335.132812 106.148438 335.125 106.089844 335.105469 C 106.035156 335.09375 105.980469 335.074219 105.925781 335.0625 C 105.871094 335.046875 105.820312 335.015625 105.773438 334.992188 C 105.722656 334.964844 105.675781 334.941406 105.628906 334.914062 C 105.589844 334.882812 105.546875 334.851562 105.507812 334.820312 C 105.46875 334.792969 105.429688 334.761719 105.398438 334.734375 C 105.367188 334.695312 105.339844 334.664062 105.3125 334.632812 C 105.257812 334.566406 105.203125 334.515625 105.171875 334.453125 C 105.136719 334.398438 105.109375 334.347656 105.085938 334.304688 C 105.039062 334.222656 105.011719 334.179688 105.011719 334.179688 C 104.992188 334.148438 105.003906 334.105469 105.035156 334.089844 C 105.058594 334.074219 105.09375 334.078125 105.113281 334.101562 L 105.121094 334.109375 C 105.121094 334.109375 105.15625 334.148438 105.214844 334.214844 C 105.242188 334.246094 105.277344 334.289062 105.316406 334.332031 C 105.355469 334.378906 105.414062 334.414062 105.46875 334.460938 C 105.496094 334.480469 105.527344 334.507812 105.558594 334.53125 C 105.589844 334.550781 105.628906 334.566406 105.664062 334.585938 C 105.699219 334.601562 105.734375 334.621094 105.773438 334.640625 C 105.8125 334.65625 105.851562 334.664062 105.894531 334.675781 C 105.933594 334.683594 105.972656 334.703125 106.015625 334.703125 C 106.058594 334.707031 106.101562 334.710938 106.148438 334.710938 C 106.234375 334.726562 106.324219 334.699219 106.414062 334.695312 C 106.5 334.667969 106.585938 334.660156 106.671875 334.621094 C 106.714844 334.605469 106.753906 334.589844 106.796875 334.574219 C 106.835938 334.554688 106.875 334.535156 106.914062 334.515625 C 106.992188 334.480469 107.066406 334.429688 107.136719 334.394531 C 107.203125 334.347656 107.261719 334.304688 107.320312 334.265625 C 107.433594 334.175781 107.523438 334.101562 107.582031 334.046875 C 107.613281 334.015625 107.628906 334 107.644531 333.984375 L 107.671875 333.957031 C 107.824219 333.804688 108.070312 333.804688 108.222656 333.957031 C 108.378906 334.113281 108.378906 334.363281 108.222656 334.515625 C 108.207031 334.535156 108.1875 334.550781 108.164062 334.566406 " fill-opacity="1" fill-rule="nonzero"/><path fill="#8ed24d" d="M 116.066406 333.113281 C 116.066406 333.113281 116.078125 333.117188 116.101562 333.121094 C 116.121094 333.128906 116.160156 333.136719 116.207031 333.148438 C 116.304688 333.171875 116.449219 333.199219 116.628906 333.21875 C 116.808594 333.238281 117.019531 333.253906 117.25 333.25 C 117.363281 333.25 117.480469 333.242188 117.601562 333.234375 C 117.722656 333.230469 117.84375 333.210938 117.96875 333.199219 C 118.089844 333.175781 118.210938 333.15625 118.332031 333.136719 C 118.453125 333.109375 118.570312 333.082031 118.683594 333.054688 C 118.796875 333.023438 118.902344 332.992188 119.007812 332.960938 C 119.113281 332.933594 119.207031 332.894531 119.296875 332.863281 C 119.472656 332.804688 119.617188 332.734375 119.71875 332.691406 C 119.824219 332.648438 119.882812 332.625 119.882812 332.625 L 119.886719 332.621094 C 119.957031 332.589844 120.03125 332.625 120.058594 332.691406 C 120.085938 332.753906 120.0625 332.824219 120.003906 332.859375 C 120.003906 332.859375 119.949219 332.890625 119.851562 332.949219 C 119.75 333.007812 119.609375 333.097656 119.433594 333.183594 C 119.34375 333.226562 119.25 333.28125 119.144531 333.324219 C 119.039062 333.371094 118.929688 333.417969 118.816406 333.46875 C 118.699219 333.511719 118.578125 333.554688 118.453125 333.601562 C 118.328125 333.636719 118.199219 333.679688 118.070312 333.714844 C 117.941406 333.746094 117.8125 333.785156 117.679688 333.808594 C 117.550781 333.832031 117.421875 333.855469 117.292969 333.871094 C 117.042969 333.90625 116.804688 333.921875 116.597656 333.925781 C 116.390625 333.929688 116.214844 333.917969 116.089844 333.90625 C 116.027344 333.898438 115.980469 333.894531 115.9375 333.886719 C 115.902344 333.878906 115.886719 333.878906 115.886719 333.878906 C 115.671875 333.84375 115.527344 333.640625 115.5625 333.425781 C 115.597656 333.207031 115.796875 333.0625 116.011719 333.097656 C 116.027344 333.101562 116.042969 333.105469 116.054688 333.109375 L 116.066406 333.113281 " fill-opacity="1" fill-rule="nonzero"/><path fill="#8ed24d" d="M 117.707031 331.582031 C 117.707031 331.582031 117.777344 331.414062 117.867188 331.15625 C 117.953125 330.902344 118.050781 330.558594 118.136719 330.210938 C 118.222656 329.867188 118.296875 329.519531 118.34375 329.253906 C 118.390625 328.992188 118.410156 328.8125 118.410156 328.8125 C 118.417969 328.761719 118.464844 328.726562 118.515625 328.734375 C 118.566406 328.738281 118.601562 328.785156 118.59375 328.835938 C 118.59375 328.839844 118.59375 328.84375 118.59375 328.847656 C 118.59375 328.847656 118.546875 329.023438 118.488281 329.28125 C 118.429688 329.542969 118.363281 329.894531 118.3125 330.246094 C 118.257812 330.601562 118.21875 330.957031 118.199219 331.226562 C 118.183594 331.496094 118.183594 331.679688 118.183594 331.679688 C 118.1875 331.816406 118.074219 331.933594 117.9375 331.933594 C 117.800781 331.9375 117.6875 331.824219 117.6875 331.683594 C 117.6875 331.648438 117.695312 331.613281 117.707031 331.582031 " fill-opacity="1" fill-rule="nonzero"/><path fill="#599344" d="M 100.144531 331.96875 C 99.425781 332.683594 99.082031 334.117188 99.089844 335.90625 C 98.578125 334.597656 97.839844 333.25 96.898438 331.996094 C 94.171875 328.359375 90.804688 326.914062 89.382812 328.761719 C 88.027344 330.519531 88.914062 334.621094 91.347656 338.140625 C 89.777344 338.722656 88.632812 339.59375 88.261719 340.636719 C 87.621094 342.449219 89.507812 344.226562 92.667969 345.054688 C 92.117188 345.503906 91.734375 346.007812 91.554688 346.542969 C 90.824219 348.757812 93.914062 350.730469 98.453125 350.941406 C 100.183594 351.023438 102.113281 350.960938 104.019531 350.273438 C 104.722656 350.019531 105.433594 349.667969 106.140625 349.289062 C 106.613281 349.03125 107.273438 348.734375 107.652344 348.117188 C 108.136719 347.328125 107.96875 346.238281 107.867188 345.613281 C 107.703125 344.632812 107.824219 343.472656 107.679688 342.476562 C 107.515625 341.359375 107.261719 340.304688 106.957031 339.308594 C 106.769531 338.695312 106.5625 338.105469 106.335938 337.53125 C 104.496094 332.890625 101.722656 330.398438 100.144531 331.96875 " fill-opacity="1" fill-rule="nonzero"/><g clip-path="url(#f8b167c898)"><path fill="#8ed24d" d="M 92.183594 332.09375 C 92.183594 332.09375 92.460938 332.464844 92.980469 333.105469 C 93.496094 333.742188 94.246094 334.644531 95.183594 335.691406 C 96.113281 336.742188 97.234375 337.933594 98.476562 339.160156 C 99.097656 339.773438 99.753906 340.390625 100.425781 341.003906 C 100.761719 341.3125 101.109375 341.613281 101.453125 341.914062 C 101.804688 342.210938 102.152344 342.515625 102.511719 342.804688 C 102.867188 343.089844 103.222656 343.382812 103.585938 343.65625 C 103.945312 343.9375 104.304688 344.210938 104.667969 344.46875 C 104.851562 344.601562 105.035156 344.730469 105.214844 344.859375 C 105.394531 344.980469 105.578125 345.105469 105.757812 345.226562 C 106.113281 345.476562 106.484375 345.699219 106.835938 345.925781 C 107.550781 346.367188 108.253906 346.757812 108.925781 347.101562 C 109.257812 347.28125 109.59375 347.421875 109.910156 347.574219 C 110.226562 347.722656 110.542969 347.835938 110.839844 347.960938 C 110.988281 348.023438 111.132812 348.082031 111.277344 348.125 C 111.421875 348.175781 111.5625 348.222656 111.699219 348.269531 C 111.96875 348.371094 112.230469 348.4375 112.472656 348.5 C 112.957031 348.648438 113.378906 348.714844 113.726562 348.789062 C 113.902344 348.832031 114.054688 348.839844 114.1875 348.855469 C 114.320312 348.871094 114.433594 348.886719 114.527344 348.898438 C 114.707031 348.917969 114.804688 348.929688 114.804688 348.929688 L 114.9375 348.949219 C 116.164062 349.101562 117.039062 350.230469 116.886719 351.46875 C 116.738281 352.710938 115.621094 353.59375 114.394531 353.441406 C 114.308594 353.429688 114.210938 353.410156 114.125 353.390625 C 114.125 353.390625 113.992188 353.355469 113.746094 353.296875 C 113.625 353.265625 113.472656 353.222656 113.292969 353.175781 C 113.113281 353.132812 112.90625 353.085938 112.683594 353.003906 C 112.242188 352.855469 111.699219 352.683594 111.117188 352.421875 C 110.820312 352.300781 110.507812 352.171875 110.191406 352.007812 C 110.03125 351.929688 109.871094 351.847656 109.703125 351.765625 C 109.535156 351.6875 109.367188 351.597656 109.207031 351.5 C 108.871094 351.308594 108.515625 351.121094 108.171875 350.90625 C 107.828125 350.683594 107.464844 350.464844 107.113281 350.21875 C 106.402344 349.730469 105.675781 349.195312 104.957031 348.609375 C 104.601562 348.3125 104.238281 348.019531 103.886719 347.703125 C 103.710938 347.546875 103.53125 347.390625 103.351562 347.230469 C 103.179688 347.066406 103.003906 346.90625 102.828125 346.742188 C 102.476562 346.414062 102.132812 346.078125 101.792969 345.734375 C 101.441406 345.398438 101.117188 345.042969 100.777344 344.695312 C 100.445312 344.347656 100.125 343.984375 99.800781 343.632812 C 99.484375 343.273438 99.167969 342.914062 98.859375 342.554688 C 98.246094 341.835938 97.65625 341.117188 97.105469 340.410156 C 95.996094 339 95.019531 337.648438 94.214844 336.46875 C 93.40625 335.289062 92.765625 334.285156 92.328125 333.578125 C 91.890625 332.871094 91.652344 332.453125 91.652344 332.453125 C 91.5625 332.300781 91.617188 332.101562 91.769531 332.011719 C 91.90625 331.929688 92.085938 331.96875 92.183594 332.09375 " fill-opacity="1" fill-rule="nonzero"/></g><path fill="#8ed24d" d="M 103.402344 346.867188 C 103.402344 346.867188 103.371094 346.871094 103.3125 346.875 C 103.25 346.882812 103.164062 346.890625 103.046875 346.902344 C 102.824219 346.929688 102.507812 346.96875 102.132812 347.019531 C 101.945312 347.046875 101.742188 347.078125 101.527344 347.109375 C 101.3125 347.144531 101.089844 347.179688 100.855469 347.214844 C 100.394531 347.289062 99.898438 347.371094 99.402344 347.449219 C 99.15625 347.480469 98.910156 347.527344 98.664062 347.558594 C 98.417969 347.589844 98.175781 347.625 97.941406 347.648438 C 97.707031 347.675781 97.480469 347.703125 97.261719 347.714844 C 97.046875 347.734375 96.84375 347.75 96.648438 347.75 C 96.457031 347.761719 96.28125 347.769531 96.121094 347.757812 C 95.960938 347.746094 95.828125 347.757812 95.707031 347.734375 C 95.46875 347.703125 95.332031 347.683594 95.332031 347.683594 C 95.160156 347.664062 95.039062 347.5 95.0625 347.324219 C 95.085938 347.148438 95.242188 347.023438 95.417969 347.046875 L 95.421875 347.046875 L 95.472656 347.054688 C 95.472656 347.054688 95.582031 347.070312 95.773438 347.101562 C 95.863281 347.121094 95.992188 347.109375 96.128906 347.113281 C 96.269531 347.121094 96.433594 347.105469 96.609375 347.089844 C 96.785156 347.078125 96.976562 347.050781 97.183594 347.015625 C 97.382812 346.988281 97.597656 346.941406 97.820312 346.894531 C 98.042969 346.851562 98.269531 346.785156 98.5 346.726562 C 98.730469 346.667969 98.964844 346.59375 99.195312 346.523438 C 99.425781 346.449219 99.660156 346.371094 99.886719 346.296875 C 100.113281 346.21875 100.335938 346.136719 100.550781 346.054688 C 100.976562 345.886719 101.367188 345.710938 101.699219 345.554688 C 102.03125 345.390625 102.304688 345.246094 102.492188 345.136719 C 102.585938 345.085938 102.652344 345.042969 102.703125 345.011719 C 102.75 344.980469 102.777344 344.960938 102.777344 344.960938 C 103.257812 344.664062 103.886719 344.816406 104.183594 345.300781 C 104.476562 345.785156 104.328125 346.421875 103.847656 346.71875 C 103.710938 346.804688 103.554688 346.855469 103.402344 346.867188 " fill-opacity="1" fill-rule="nonzero"/><path fill="#8ed24d" d="M 101.371094 343.375 C 101.371094 343.375 101.40625 343.234375 101.453125 342.988281 C 101.496094 342.742188 101.566406 342.390625 101.628906 341.964844 C 101.660156 341.753906 101.699219 341.523438 101.730469 341.277344 C 101.761719 341.03125 101.792969 340.777344 101.824219 340.507812 C 101.855469 340.242188 101.886719 339.96875 101.90625 339.6875 C 101.929688 339.402344 101.953125 339.117188 101.976562 338.832031 C 102.003906 338.546875 102.011719 338.261719 102.019531 337.980469 C 102.03125 337.699219 102.042969 337.421875 102.046875 337.152344 C 102.054688 336.886719 102.039062 336.628906 102.035156 336.382812 C 102.027344 336.136719 102.019531 335.90625 102.007812 335.691406 C 102.003906 335.476562 101.964844 335.285156 101.945312 335.113281 C 101.925781 334.941406 101.90625 334.792969 101.886719 334.667969 C 101.851562 334.425781 101.828125 334.285156 101.828125 334.285156 L 101.824219 334.265625 C 101.804688 334.144531 101.886719 334.035156 102.003906 334.015625 C 102.121094 333.996094 102.230469 334.078125 102.25 334.195312 C 102.25 334.203125 102.25 334.210938 102.25 334.214844 C 102.25 334.214844 102.257812 334.363281 102.273438 334.617188 C 102.28125 334.746094 102.292969 334.898438 102.308594 335.078125 C 102.316406 335.164062 102.324219 335.257812 102.332031 335.355469 C 102.34375 335.457031 102.351562 335.5625 102.351562 335.671875 C 102.359375 335.886719 102.371094 336.117188 102.382812 336.371094 C 102.386719 336.617188 102.414062 336.878906 102.417969 337.148438 C 102.425781 337.6875 102.460938 338.265625 102.472656 338.84375 C 102.5 340 102.53125 341.15625 102.554688 342.027344 C 102.566406 342.460938 102.578125 342.824219 102.585938 343.078125 C 102.597656 343.332031 102.605469 343.480469 102.605469 343.480469 L 102.605469 343.488281 C 102.621094 343.835938 102.355469 344.132812 102.007812 344.148438 C 101.664062 344.164062 101.371094 343.894531 101.359375 343.546875 C 101.355469 343.488281 101.359375 343.429688 101.371094 343.375 " fill-opacity="1" fill-rule="nonzero"/><path fill="#8ed24d" d="M 98.445312 341.160156 L 97.3125 341.417969 C 96.976562 341.488281 96.585938 341.570312 96.167969 341.65625 C 95.746094 341.738281 95.296875 341.820312 94.84375 341.886719 C 94.617188 341.921875 94.390625 341.949219 94.167969 341.976562 C 93.941406 342 93.71875 342.015625 93.503906 342.03125 C 93.285156 342.042969 93.078125 342.046875 92.875 342.042969 C 92.675781 342.039062 92.484375 342.027344 92.308594 342.011719 C 92.132812 341.992188 91.96875 341.964844 91.824219 341.9375 C 91.679688 341.902344 91.554688 341.871094 91.449219 341.832031 C 91.347656 341.804688 91.265625 341.765625 91.210938 341.738281 C 91.160156 341.714844 91.128906 341.703125 91.128906 341.703125 C 90.988281 341.644531 90.921875 341.476562 90.984375 341.335938 C 91.042969 341.191406 91.207031 341.128906 91.347656 341.1875 C 91.351562 341.1875 91.351562 341.191406 91.355469 341.191406 L 91.382812 341.203125 C 91.382812 341.203125 91.402344 341.214844 91.445312 341.234375 C 91.488281 341.253906 91.546875 341.289062 91.628906 341.316406 C 91.710938 341.347656 91.816406 341.375 91.9375 341.40625 C 92.0625 341.429688 92.203125 341.457031 92.363281 341.472656 C 92.519531 341.484375 92.691406 341.492188 92.878906 341.492188 C 93.066406 341.492188 93.257812 341.480469 93.464844 341.464844 C 93.871094 341.429688 94.304688 341.363281 94.734375 341.269531 C 95.167969 341.175781 95.59375 341.066406 95.992188 340.945312 C 96.390625 340.824219 96.753906 340.6875 97.0625 340.566406 C 97.371094 340.445312 97.625 340.332031 97.800781 340.25 C 97.886719 340.210938 97.953125 340.175781 98 340.152344 C 98.042969 340.128906 98.066406 340.117188 98.066406 340.117188 C 98.339844 339.972656 98.671875 340.082031 98.8125 340.359375 C 98.957031 340.632812 98.847656 340.96875 98.578125 341.113281 C 98.535156 341.136719 98.488281 341.152344 98.445312 341.160156 " fill-opacity="1" fill-rule="nonzero"/><path fill="#8ed24d" d="M 94.035156 341.480469 C 94.035156 341.480469 94.03125 341.46875 94.03125 341.453125 C 94.03125 341.441406 94.03125 341.417969 94.027344 341.386719 C 94.023438 341.324219 94.011719 341.226562 93.984375 341.109375 C 93.9375 340.882812 93.832031 340.574219 93.660156 340.304688 C 93.617188 340.234375 93.570312 340.171875 93.519531 340.109375 C 93.476562 340.042969 93.417969 339.992188 93.367188 339.933594 C 93.316406 339.871094 93.257812 339.828125 93.203125 339.78125 C 93.15625 339.730469 93.097656 339.695312 93.046875 339.660156 C 92.996094 339.621094 92.953125 339.585938 92.90625 339.5625 C 92.863281 339.539062 92.824219 339.515625 92.792969 339.496094 C 92.726562 339.460938 92.6875 339.441406 92.6875 339.441406 L 92.675781 339.433594 C 92.617188 339.398438 92.59375 339.324219 92.628906 339.261719 C 92.660156 339.207031 92.722656 339.183594 92.777344 339.203125 C 92.777344 339.203125 92.820312 339.21875 92.898438 339.242188 C 92.9375 339.257812 92.984375 339.273438 93.039062 339.289062 C 93.09375 339.304688 93.148438 339.335938 93.210938 339.367188 C 93.277344 339.394531 93.347656 339.425781 93.417969 339.472656 C 93.484375 339.515625 93.566406 339.550781 93.632812 339.609375 C 93.707031 339.664062 93.785156 339.714844 93.855469 339.78125 C 93.921875 339.84375 93.996094 339.910156 94.0625 339.980469 C 94.332031 340.265625 94.53125 340.613281 94.644531 340.886719 C 94.707031 341.023438 94.746094 341.144531 94.769531 341.234375 C 94.78125 341.277344 94.792969 341.316406 94.796875 341.34375 C 94.804688 341.367188 94.808594 341.382812 94.808594 341.382812 C 94.855469 341.59375 94.71875 341.808594 94.511719 341.855469 C 94.300781 341.902344 94.089844 341.769531 94.042969 341.554688 C 94.039062 341.53125 94.035156 341.503906 94.035156 341.480469 " fill-opacity="1" fill-rule="nonzero"/><path fill="#8ed24d" d="M 100.179688 346.871094 L 100.167969 346.847656 C 100.164062 346.835938 100.15625 346.816406 100.140625 346.785156 C 100.113281 346.730469 100.070312 346.644531 100.011719 346.546875 C 99.894531 346.347656 99.71875 346.09375 99.5 345.871094 C 99.394531 345.757812 99.277344 345.65625 99.167969 345.5625 C 99.109375 345.515625 99.050781 345.476562 98.996094 345.4375 C 98.941406 345.398438 98.890625 345.363281 98.839844 345.335938 C 98.738281 345.273438 98.648438 345.226562 98.585938 345.199219 L 98.492188 345.152344 L 98.480469 345.144531 C 98.402344 345.109375 98.371094 345.019531 98.410156 344.945312 C 98.441406 344.878906 98.515625 344.84375 98.582031 344.863281 C 98.582031 344.863281 98.625 344.875 98.695312 344.894531 C 98.773438 344.914062 98.875 344.945312 99 344.992188 C 99.0625 345.015625 99.128906 345.042969 99.199219 345.074219 C 99.265625 345.105469 99.339844 345.136719 99.410156 345.179688 C 99.558594 345.257812 99.710938 345.351562 99.851562 345.457031 C 100.140625 345.664062 100.398438 345.914062 100.578125 346.121094 C 100.667969 346.226562 100.738281 346.316406 100.785156 346.382812 C 100.808594 346.414062 100.828125 346.445312 100.84375 346.46875 L 100.863281 346.496094 C 100.984375 346.679688 100.933594 346.925781 100.753906 347.042969 C 100.574219 347.167969 100.332031 347.117188 100.210938 346.9375 C 100.199219 346.917969 100.1875 346.890625 100.179688 346.871094 " fill-opacity="1" fill-rule="nonzero"/><path fill="#8ed24d" d="M 98.820312 347.140625 C 98.820312 347.140625 98.820312 347.15625 98.816406 347.183594 C 98.816406 347.210938 98.816406 347.257812 98.8125 347.308594 C 98.808594 347.410156 98.792969 347.550781 98.765625 347.722656 C 98.75 347.808594 98.730469 347.898438 98.707031 347.996094 C 98.679688 348.09375 98.660156 348.191406 98.617188 348.292969 C 98.597656 348.347656 98.578125 348.398438 98.558594 348.449219 C 98.539062 348.5 98.511719 348.554688 98.488281 348.605469 C 98.445312 348.710938 98.367188 348.808594 98.308594 348.90625 C 98.273438 348.953125 98.230469 349 98.195312 349.046875 C 98.15625 349.089844 98.117188 349.136719 98.070312 349.171875 C 98.023438 349.207031 97.980469 349.246094 97.9375 349.28125 C 97.890625 349.320312 97.839844 349.339844 97.792969 349.367188 C 97.742188 349.394531 97.699219 349.421875 97.652344 349.441406 C 97.601562 349.460938 97.550781 349.472656 97.503906 349.492188 C 97.457031 349.503906 97.410156 349.519531 97.367188 349.53125 C 97.324219 349.535156 97.28125 349.539062 97.238281 349.546875 C 97.15625 349.550781 97.082031 349.566406 97.015625 349.558594 C 96.949219 349.554688 96.890625 349.550781 96.84375 349.546875 C 96.75 349.539062 96.695312 349.535156 96.695312 349.535156 C 96.660156 349.53125 96.632812 349.5 96.636719 349.464844 C 96.640625 349.433594 96.664062 349.40625 96.695312 349.40625 L 96.703125 349.402344 C 96.703125 349.402344 96.753906 349.398438 96.84375 349.386719 C 96.886719 349.382812 96.9375 349.375 97 349.367188 C 97.058594 349.363281 97.121094 349.332031 97.191406 349.316406 C 97.222656 349.304688 97.257812 349.292969 97.296875 349.28125 C 97.332031 349.265625 97.363281 349.246094 97.402344 349.226562 C 97.4375 349.207031 97.472656 349.1875 97.507812 349.167969 C 97.542969 349.144531 97.574219 349.113281 97.605469 349.085938 C 97.636719 349.058594 97.675781 349.039062 97.703125 349 C 97.730469 348.96875 97.753906 348.933594 97.785156 348.898438 C 97.839844 348.835938 97.875 348.742188 97.917969 348.667969 C 97.949219 348.582031 97.992188 348.503906 98.007812 348.414062 C 98.019531 348.367188 98.03125 348.324219 98.042969 348.28125 C 98.046875 348.234375 98.054688 348.191406 98.0625 348.148438 C 98.078125 348.0625 98.078125 347.976562 98.085938 347.898438 C 98.089844 347.8125 98.089844 347.738281 98.089844 347.667969 C 98.085938 347.523438 98.074219 347.40625 98.0625 347.324219 C 98.058594 347.285156 98.050781 347.261719 98.046875 347.242188 C 98.042969 347.21875 98.042969 347.207031 98.042969 347.207031 L 98.042969 347.203125 C 98.003906 346.988281 98.144531 346.78125 98.359375 346.742188 C 98.570312 346.707031 98.773438 346.847656 98.8125 347.0625 C 98.816406 347.089844 98.820312 347.117188 98.820312 347.140625 " fill-opacity="1" fill-rule="nonzero"/><path fill="#8ed24d" d="M 102.164062 339.757812 C 102.164062 339.757812 102.175781 339.75 102.195312 339.734375 C 102.210938 339.722656 102.238281 339.695312 102.277344 339.664062 C 102.351562 339.59375 102.457031 339.492188 102.574219 339.351562 C 102.691406 339.214844 102.828125 339.050781 102.953125 338.855469 C 103.019531 338.761719 103.082031 338.660156 103.144531 338.554688 C 103.210938 338.449219 103.261719 338.339844 103.324219 338.230469 C 103.375 338.117188 103.429688 338.007812 103.484375 337.894531 C 103.53125 337.78125 103.574219 337.667969 103.621094 337.558594 C 103.65625 337.445312 103.695312 337.335938 103.730469 337.234375 C 103.765625 337.132812 103.789062 337.03125 103.8125 336.9375 C 103.867188 336.753906 103.894531 336.597656 103.917969 336.488281 C 103.9375 336.378906 103.953125 336.316406 103.953125 336.316406 L 103.953125 336.308594 C 103.96875 336.234375 104.039062 336.191406 104.109375 336.207031 C 104.175781 336.21875 104.222656 336.28125 104.214844 336.34375 C 104.214844 336.34375 104.210938 336.414062 104.199219 336.527344 C 104.191406 336.644531 104.183594 336.808594 104.152344 337.007812 C 104.132812 337.105469 104.125 337.214844 104.101562 337.328125 C 104.078125 337.441406 104.054688 337.558594 104.027344 337.683594 C 103.996094 337.804688 103.960938 337.929688 103.925781 338.058594 C 103.886719 338.183594 103.847656 338.316406 103.800781 338.441406 C 103.753906 338.566406 103.707031 338.695312 103.652344 338.816406 C 103.597656 338.941406 103.542969 339.0625 103.484375 339.175781 C 103.367188 339.402344 103.242188 339.609375 103.128906 339.785156 C 103.011719 339.957031 102.902344 340.09375 102.824219 340.191406 C 102.78125 340.242188 102.75 340.277344 102.71875 340.308594 L 102.679688 340.347656 C 102.53125 340.503906 102.285156 340.503906 102.128906 340.355469 C 101.972656 340.203125 101.972656 339.953125 102.121094 339.796875 C 102.132812 339.785156 102.144531 339.773438 102.15625 339.765625 L 102.164062 339.757812 " fill-opacity="1" fill-rule="nonzero"/><path fill="#8ed24d" d="M 101.863281 337.519531 C 101.863281 337.519531 101.769531 337.367188 101.613281 337.148438 C 101.457031 336.929688 101.234375 336.652344 101 336.382812 C 100.769531 336.109375 100.53125 335.851562 100.34375 335.664062 C 100.15625 335.472656 100.023438 335.351562 100.023438 335.351562 C 99.984375 335.316406 99.984375 335.257812 100.019531 335.222656 C 100.050781 335.183594 100.109375 335.179688 100.148438 335.214844 C 100.152344 335.21875 100.15625 335.222656 100.15625 335.222656 C 100.15625 335.222656 100.269531 335.359375 100.449219 335.558594 C 100.625 335.757812 100.875 336.011719 101.128906 336.257812 C 101.382812 336.503906 101.652344 336.742188 101.859375 336.910156 C 102.066406 337.078125 102.21875 337.179688 102.21875 337.179688 C 102.332031 337.257812 102.359375 337.417969 102.28125 337.53125 C 102.203125 337.648438 102.050781 337.675781 101.933594 337.597656 C 101.90625 337.578125 101.882812 337.550781 101.863281 337.519531 " fill-opacity="1" fill-rule="nonzero"/><path fill="#ffffff" d="M 117.933594 318.457031 C 117.933594 318.917969 117.722656 319.289062 117.464844 319.289062 C 117.207031 319.289062 116.996094 318.917969 116.996094 318.457031 C 116.996094 318 117.207031 317.628906 117.464844 317.628906 C 117.722656 317.628906 117.933594 318 117.933594 318.457031 " fill-opacity="1" fill-rule="nonzero"/><path fill="#ffffff" d="M 118.839844 319.878906 C 118.839844 320.207031 118.691406 320.472656 118.507812 320.472656 C 118.324219 320.472656 118.175781 320.207031 118.175781 319.878906 C 118.175781 319.554688 118.324219 319.289062 118.507812 319.289062 C 118.691406 319.289062 118.839844 319.554688 118.839844 319.878906 " fill-opacity="1" fill-rule="nonzero"/><path fill="#ffffff" d="M 119.207031 318.046875 C 119.207031 318.324219 119.078125 318.550781 118.921875 318.550781 C 118.765625 318.550781 118.640625 318.324219 118.640625 318.046875 C 118.640625 317.769531 118.765625 317.546875 118.921875 317.546875 C 119.078125 317.546875 119.207031 317.769531 119.207031 318.046875 " fill-opacity="1" fill-rule="nonzero"/><path fill="#ffffff" d="M 90.804688 329.363281 C 90.804688 329.824219 90.59375 330.195312 90.335938 330.195312 C 90.078125 330.195312 89.867188 329.824219 89.867188 329.363281 C 89.867188 328.902344 90.078125 328.53125 90.335938 328.53125 C 90.59375 328.53125 90.804688 328.902344 90.804688 329.363281 " fill-opacity="1" fill-rule="nonzero"/><path fill="#ffffff" d="M 91.710938 330.785156 C 91.710938 331.113281 91.5625 331.375 91.378906 331.375 C 91.195312 331.375 91.046875 331.113281 91.046875 330.785156 C 91.046875 330.457031 91.195312 330.195312 91.378906 330.195312 C 91.5625 330.195312 91.710938 330.457031 91.710938 330.785156 " fill-opacity="1" fill-rule="nonzero"/><path fill="#ffffff" d="M 92.078125 328.953125 C 92.078125 329.230469 91.949219 329.453125 91.796875 329.453125 C 91.640625 329.453125 91.515625 329.230469 91.515625 328.953125 C 91.515625 328.675781 91.640625 328.453125 91.796875 328.453125 C 91.949219 328.453125 92.078125 328.675781 92.078125 328.953125 " fill-opacity="1" fill-rule="nonzero"/><g mask="url(#020d7eec78)"><g transform="matrix(1, 0, 0, 1, 68, 306)"><g clip-path="url(#84233c03a3)"><g clip-path="url(#5c48feeef1)"><path fill="#c6c6c6" d="M 172.734375 30.316406 C 172.734375 46.867188 159.285156 60.222656 142.617188 60.222656 L 31.105469 60.222656 C 14.4375 60.335938 0.988281 46.867188 0.988281 30.316406 C 0.988281 13.761719 14.4375 0.40625 31.105469 0.40625 L 142.5 0.40625 C 159.285156 0.40625 172.734375 13.761719 172.734375 30.316406 Z M 172.734375 30.316406 " fill-opacity="1" fill-rule="nonzero"/></g></g></g></g><g fill="#000000" fill-opacity="1"><g transform="translate(140.238708, 344.789559)"><g><path d="M 11.5625 -15.796875 L 12.765625 -15.796875 L 6.859375 0 L 5.890625 0 L 0 -15.796875 L 1.171875 -15.796875 L 5.15625 -5.046875 C 5.757812 -3.421875 6.164062 -2.203125 6.375 -1.390625 C 6.519531 -1.929688 6.804688 -2.769531 7.234375 -3.90625 Z M 11.5625 -15.796875 "/></g></g><g transform="translate(153.008175, 344.789559)"><g><path d="M 6.703125 0.21875 C 5.003906 0.21875 3.675781 -0.304688 2.71875 -1.359375 C 1.757812 -2.410156 1.28125 -3.882812 1.28125 -5.78125 C 1.28125 -7.65625 1.738281 -9.15625 2.65625 -10.28125 C 3.582031 -11.40625 4.828125 -11.96875 6.390625 -11.96875 C 7.773438 -11.96875 8.867188 -11.484375 9.671875 -10.515625 C 10.472656 -9.554688 10.875 -8.25 10.875 -6.59375 L 10.875 -5.71875 L 2.40625 -5.71875 C 2.425781 -4.113281 2.800781 -2.882812 3.53125 -2.03125 C 4.269531 -1.175781 5.328125 -0.75 6.703125 -0.75 C 7.378906 -0.75 7.96875 -0.796875 8.46875 -0.890625 C 8.976562 -0.984375 9.625 -1.1875 10.40625 -1.5 L 10.40625 -0.53125 C 9.738281 -0.238281 9.125 -0.0390625 8.5625 0.0625 C 8 0.164062 7.378906 0.21875 6.703125 0.21875 Z M 6.390625 -11.015625 C 5.265625 -11.015625 4.359375 -10.640625 3.671875 -9.890625 C 2.984375 -9.148438 2.582031 -8.078125 2.46875 -6.671875 L 9.734375 -6.671875 C 9.734375 -8.035156 9.4375 -9.097656 8.84375 -9.859375 C 8.257812 -10.628906 7.441406 -11.015625 6.390625 -11.015625 Z M 6.390625 -11.015625 "/></g></g><g transform="translate(165.151052, 344.789559)"><g><path d="M 11.125 -11.75 L 11.125 -11 L 8.703125 -10.84375 C 9.347656 -10.039062 9.671875 -9.15625 9.671875 -8.1875 C 9.671875 -7.0625 9.289062 -6.144531 8.53125 -5.4375 C 7.78125 -4.738281 6.773438 -4.390625 5.515625 -4.390625 C 4.972656 -4.390625 4.597656 -4.410156 4.390625 -4.453125 C 3.960938 -4.222656 3.632812 -3.957031 3.40625 -3.65625 C 3.1875 -3.351562 3.078125 -3.035156 3.078125 -2.703125 C 3.078125 -2.328125 3.21875 -2.050781 3.5 -1.875 C 3.789062 -1.707031 4.269531 -1.625 4.9375 -1.625 L 6.984375 -1.625 C 8.265625 -1.625 9.242188 -1.363281 9.921875 -0.84375 C 10.597656 -0.332031 10.9375 0.425781 10.9375 1.4375 C 10.9375 2.675781 10.429688 3.628906 9.421875 4.296875 C 8.421875 4.972656 6.988281 5.3125 5.125 5.3125 C 3.65625 5.3125 2.515625 5.023438 1.703125 4.453125 C 0.890625 3.890625 0.484375 3.097656 0.484375 2.078125 C 0.484375 1.273438 0.734375 0.609375 1.234375 0.078125 C 1.734375 -0.453125 2.410156 -0.816406 3.265625 -1.015625 C 2.921875 -1.171875 2.640625 -1.382812 2.421875 -1.65625 C 2.210938 -1.9375 2.109375 -2.253906 2.109375 -2.609375 C 2.109375 -3.398438 2.609375 -4.09375 3.609375 -4.6875 C 2.921875 -4.96875 2.382812 -5.410156 2 -6.015625 C 1.625 -6.617188 1.4375 -7.304688 1.4375 -8.078125 C 1.4375 -9.253906 1.804688 -10.195312 2.546875 -10.90625 C 3.296875 -11.613281 4.304688 -11.96875 5.578125 -11.96875 C 6.347656 -11.96875 6.945312 -11.894531 7.375 -11.75 Z M 1.625 1.984375 C 1.625 3.597656 2.820312 4.40625 5.21875 4.40625 C 8.300781 4.40625 9.84375 3.421875 9.84375 1.453125 C 9.84375 0.753906 9.597656 0.25 9.109375 -0.0625 C 8.628906 -0.382812 7.851562 -0.546875 6.78125 -0.546875 L 4.84375 -0.546875 C 2.695312 -0.546875 1.625 0.296875 1.625 1.984375 Z M 2.515625 -8.078125 C 2.515625 -7.171875 2.789062 -6.46875 3.34375 -5.96875 C 3.894531 -5.46875 4.628906 -5.21875 5.546875 -5.21875 C 6.523438 -5.21875 7.273438 -5.460938 7.796875 -5.953125 C 8.328125 -6.453125 8.59375 -7.175781 8.59375 -8.125 C 8.59375 -9.125 8.320312 -9.875 7.78125 -10.375 C 7.25 -10.875 6.5 -11.125 5.53125 -11.125 C 4.59375 -11.125 3.851562 -10.851562 3.3125 -10.3125 C 2.78125 -9.78125 2.515625 -9.035156 2.515625 -8.078125 Z M 2.515625 -8.078125 "/></g></g><g transform="translate(176.721356, 344.789559)"><g><path d="M 9.09375 0 L 8.828125 -1.859375 L 8.734375 -1.859375 C 8.148438 -1.097656 7.546875 -0.5625 6.921875 -0.25 C 6.296875 0.0625 5.554688 0.21875 4.703125 0.21875 C 3.554688 0.21875 2.660156 -0.078125 2.015625 -0.671875 C 1.378906 -1.265625 1.0625 -2.082031 1.0625 -3.125 C 1.0625 -4.269531 1.535156 -5.15625 2.484375 -5.78125 C 3.441406 -6.414062 4.828125 -6.753906 6.640625 -6.796875 L 8.875 -6.859375 L 8.875 -7.640625 C 8.875 -8.753906 8.644531 -9.59375 8.1875 -10.15625 C 7.738281 -10.726562 7.007812 -11.015625 6 -11.015625 C 4.90625 -11.015625 3.773438 -10.710938 2.609375 -10.109375 L 2.21875 -11.046875 C 3.507812 -11.648438 4.78125 -11.953125 6.03125 -11.953125 C 7.320312 -11.953125 8.285156 -11.613281 8.921875 -10.9375 C 9.566406 -10.269531 9.890625 -9.226562 9.890625 -7.8125 L 9.890625 0 Z M 4.78125 -0.75 C 6.03125 -0.75 7.015625 -1.109375 7.734375 -1.828125 C 8.460938 -2.546875 8.828125 -3.539062 8.828125 -4.8125 L 8.828125 -5.96875 L 6.78125 -5.890625 C 5.125 -5.804688 3.941406 -5.546875 3.234375 -5.109375 C 2.535156 -4.679688 2.1875 -4.003906 2.1875 -3.078125 C 2.1875 -2.347656 2.410156 -1.773438 2.859375 -1.359375 C 3.316406 -0.953125 3.957031 -0.75 4.78125 -0.75 Z M 4.78125 -0.75 "/></g></g><g transform="translate(188.442906, 344.789559)"><g><path d="M 10.15625 0 L 10.15625 -7.609375 C 10.15625 -8.796875 9.90625 -9.65625 9.40625 -10.1875 C 8.914062 -10.726562 8.144531 -11 7.09375 -11 C 5.6875 -11 4.65625 -10.644531 4 -9.9375 C 3.351562 -9.226562 3.03125 -8.078125 3.03125 -6.484375 L 3.03125 0 L 1.96875 0 L 1.96875 -11.75 L 2.875 -11.75 L 3.078125 -10.140625 L 3.140625 -10.140625 C 3.898438 -11.359375 5.257812 -11.96875 7.21875 -11.96875 C 9.882812 -11.96875 11.21875 -10.539062 11.21875 -7.6875 L 11.21875 0 Z M 10.15625 0 "/></g></g></g></svg>