<svg xmlns="http://www.w3.org/2000/svg" xmlns:xlink="http://www.w3.org/1999/xlink" zoomAndPan="magnify" preserveAspectRatio="xMidYMid meet" version="1.0" viewBox="35.31 253.02 239.27 163.98"><defs><clipPath id="fb2d526596"><path d="M 35.3125 280 L 126 280 L 126 346 L 35.3125 346 Z M 35.3125 280 " clip-rule="nonzero"/></clipPath><clipPath id="3bc6a197d3"><path d="M 35.3125 316 L 272 316 L 272 417 L 35.3125 417 Z M 35.3125 316 " clip-rule="nonzero"/></clipPath></defs><path fill="#f04e56" d="M 211.0625 298.933594 C 214.019531 298.394531 217.21875 298.515625 220.230469 298.230469 C 226.535156 297.644531 232.777344 296.660156 239.078125 296 C 247.632812 295.105469 256.210938 294.503906 264.789062 293.992188 C 266.882812 293.867188 268.980469 293.707031 271.0625 293.59375 C 271.585938 293.5625 272.894531 293.261719 273.394531 293.59375 C 275.324219 294.855469 274.40625 299.585938 274.050781 301.359375 C 272.566406 308.722656 269.523438 316.386719 263.558594 321.289062 C 260.808594 323.554688 257.285156 324.84375 253.882812 325.765625 C 242.339844 328.886719 227.582031 324.527344 219.351562 315.929688 C 215.234375 311.628906 212.988281 306.152344 211.378906 300.515625 " fill-opacity="1" fill-rule="evenodd"/><path fill="#f5dcbd" d="M 230.136719 304.464844 C 230.007812 305.371094 229.761719 306.246094 229.398438 307.089844 C 229.238281 307.484375 229.046875 307.863281 228.824219 308.226562 C 228.34375 309.011719 226.5 310.636719 226.800781 308.429688 C 226.972656 307.566406 227.367188 306.824219 227.984375 306.199219 C 228.601562 305.507812 229.265625 304.863281 229.980469 304.273438 Z M 260.914062 302.152344 C 261.320312 302.726562 261.78125 303.257812 262.289062 303.742188 C 262.882812 304.292969 263.992188 305.128906 264.890625 305.132812 C 265.132812 305.132812 265.128906 304.589844 265.109375 304.46875 C 264.964844 303.851562 264.640625 303.347656 264.144531 302.957031 C 263.324219 302.214844 262.277344 301.941406 261.246094 301.589844 Z M 237.996094 307.59375 C 238.082031 308.449219 238.082031 309.300781 237.996094 310.152344 C 237.941406 310.675781 237.828125 311.1875 237.652344 311.683594 C 237.460938 312.28125 236.335938 314.40625 235.851562 312.726562 C 235.78125 312.480469 235.753906 312.230469 235.765625 311.972656 C 235.84375 310.492188 236.355469 309.183594 237.300781 308.039062 Z M 253.46875 307.113281 C 253.707031 308.25 254.144531 309.304688 254.78125 310.277344 C 254.976562 310.621094 255.203125 310.941406 255.460938 311.242188 C 255.945312 311.765625 257.140625 312.566406 256.910156 311.195312 C 256.707031 310.347656 256.320312 309.597656 255.753906 308.941406 C 255.25 308.269531 254.632812 307.722656 254.074219 307.09375 Z M 245.746094 308.140625 C 246.378906 309.140625 246.828125 310.21875 247.09375 311.371094 C 247.207031 311.816406 247.269531 312.265625 247.277344 312.726562 C 247.277344 313.382812 246.660156 315.71875 245.707031 314.316406 C 245.1875 313.375 245 312.371094 245.148438 311.304688 C 245.21875 310.4375 245.453125 309.597656 245.605469 308.742188 Z M 245.746094 308.140625 " fill-opacity="1" fill-rule="evenodd"/><path fill="#f5dcbd" d="M 264.230469 281.574219 L 259.144531 276.140625 C 259.144531 276.140625 255.503906 294.96875 230.667969 303.265625 C 215.410156 310.894531 196.550781 297.632812 196.550781 297.632812 L 196.039062 304.757812 C 196.039062 304.757812 213.699219 315.429688 232.769531 308.273438 C 251.835938 301.121094 264.230469 281.574219 264.230469 281.574219 Z M 264.230469 281.574219 " fill-opacity="1" fill-rule="evenodd"/><g clip-path="url(#fb2d526596)"><path fill="#a8ba31" d="M 124.195312 343.136719 C 118.859375 339.421875 112.953125 343.058594 107.335938 344.292969 C 98.410156 346.253906 88.320312 347.183594 80.183594 342.019531 C 75.4375 339.023438 73.199219 333.578125 68.515625 330.574219 C 63.761719 327.523438 57.269531 327.746094 52.183594 325.144531 C 44.671875 321.289062 38.15625 313.550781 36.285156 305.285156 C 35.320312 300.996094 35.382812 296.476562 38.339844 292.941406 C 40.65625 290.171875 44.28125 289.21875 47.773438 289.046875 C 49.925781 288.9375 52.175781 289.304688 54.238281 288.511719 C 59.785156 286.371094 63.890625 281.402344 70.039062 280.496094 C 78.382812 279.253906 87.742188 282.769531 92.007812 290.273438 C 95.246094 295.976562 95.867188 302.496094 100.210938 307.691406 C 102.140625 309.976562 104.660156 312.167969 107.648438 312.792969 C 110.757812 313.449219 114.050781 313.015625 116.878906 314.71875 C 124.222656 319.136719 123.28125 327.335938 124.191406 334.554688 C 124.476562 336.8125 125.523438 339.921875 125.085938 342.203125 " fill-opacity="1" fill-rule="evenodd"/></g><path fill="#7d921c" d="M 123.683594 343.578125 C 122.027344 341.320312 119.9375 339.582031 117.410156 338.363281 C 111.992188 335.636719 103.238281 336.339844 97.441406 337.398438 C 93.179688 338.179688 89.925781 337.464844 85.652344 336.875 C 84.25 336.679688 82.886719 336.753906 84.386719 336.714844 C 88.59375 336.625 92.75 336.136719 96.863281 335.242188 C 98.09375 334.964844 99.328125 334.65625 100.574219 334.445312 C 101.007812 334.367188 101.441406 334.285156 101.875 334.234375 C 102.066406 334.234375 102.464844 334.367188 102.441406 334.179688 C 102.304688 333.0625 98.9375 331.097656 98.121094 330.398438 C 96.230469 328.78125 94.523438 326.347656 92.109375 325.453125 C 89.976562 324.664062 87.488281 325.121094 85.269531 325.164062 C 82.699219 325.199219 80.167969 324.890625 77.683594 324.230469 C 74.921875 323.511719 72.292969 322.210938 69.632812 321.175781 C 68.8125 320.851562 67.996094 320.519531 67.164062 320.210938 C 66.816406 320.085938 66.460938 319.96875 66.117188 319.863281 C 65.996094 319.832031 65.632812 319.71875 65.761719 319.773438 C 67.394531 320.625 69.488281 320.660156 71.269531 320.738281 C 74.371094 320.898438 77.460938 321.152344 80.554688 321.394531 C 82.324219 321.535156 84.0625 321.957031 85.863281 321.980469 C 86.375 321.980469 86.878906 321.980469 87.386719 322.007812 C 87.671875 322.007812 88.488281 322.21875 88.253906 322.050781 C 85.839844 320.289062 82.671875 319.285156 79.972656 318.042969 C 73.632812 315.160156 67.066406 312.75 60.792969 309.792969 C 57.394531 308.285156 54.417969 306.191406 51.859375 303.5 C 51.125 302.738281 50.378906 301.984375 49.582031 301.285156 C 49.28125 301.03125 48.984375 300.804688 48.667969 300.558594 C 48.535156 300.460938 48.109375 300.296875 48.269531 300.265625 C 48.855469 300.144531 49.992188 300.617188 50.59375 300.792969 C 52.523438 301.351562 54.425781 301.867188 56.324219 302.464844 C 63.929688 304.875 70.886719 308.800781 78.296875 311.734375 C 81.078125 312.757812 83.789062 313.941406 86.429688 315.285156 C 87.25 315.734375 88.074219 316.1875 88.898438 316.640625 L 89.75 317.125 C 89.925781 317.21875 90.3125 317.605469 90.289062 317.402344 C 90.019531 314.820312 87.765625 312.625 86.332031 310.660156 C 84.402344 307.988281 82.839844 305.121094 81.640625 302.054688 C 80.917969 300.167969 80.675781 298.328125 80.34375 296.347656 C 80.230469 295.652344 80.082031 294.960938 79.894531 294.28125 C 79.796875 293.945312 79.238281 293.0625 79.503906 293.316406 C 80.292969 294.039062 80.902344 295.453125 81.492188 296.367188 C 83.585938 299.636719 85.066406 303.292969 87.1875 306.515625 C 89.902344 310.660156 94.347656 313.449219 97.613281 317.113281 C 99.117188 318.925781 100.765625 320.585938 102.5625 322.105469 C 102.972656 322.425781 103.382812 322.753906 103.800781 323.066406 C 103.984375 323.199219 104.285156 323.660156 104.363281 323.453125 C 105.175781 321.433594 103.34375 317.144531 102.652344 315.222656 C 102.417969 314.5625 102.144531 313.917969 101.832031 313.292969 C 101.65625 312.933594 100.867188 312.332031 101.269531 312.21875 C 101.667969 312.109375 102.015625 312.828125 102.359375 313.183594 C 103.367188 314.234375 104.289062 315.355469 105.113281 316.554688 C 108.46875 321.175781 111.199219 326.671875 115.449219 330.574219 C 117.261719 332.238281 119.691406 333.0625 121.433594 334.800781 C 124.511719 337.871094 124.277344 338.511719 127.832031 341.191406 C 129.230469 342.246094 126.046875 346.832031 123.683594 343.578125 Z M 123.683594 343.578125 " fill-opacity="1" fill-rule="evenodd"/><path fill="#f5dcbd" d="M 110.800781 325.757812 L 115.328125 319.8125 C 115.328125 319.8125 96.113281 319.449219 83.691406 296.445312 C 73.558594 282.734375 83.421875 261.925781 83.421875 261.925781 L 76.285156 262.652344 C 76.285156 262.652344 68.765625 281.832031 79.082031 299.367188 C 89.402344 316.902344 110.800781 325.757812 110.800781 325.757812 Z M 110.800781 325.757812 " fill-opacity="1" fill-rule="evenodd"/><path fill="#f04e56" d="M 93.160156 260.769531 C 95.390625 262.777344 97.25 265.386719 99.289062 267.585938 C 103.59375 272.214844 108.183594 276.5625 112.542969 281.144531 C 118.46875 287.375 124.167969 293.792969 129.804688 300.277344 C 131.179688 301.859375 132.585938 303.417969 133.945312 305.007812 C 134.289062 305.402344 135.332031 306.257812 135.394531 306.855469 C 135.5625 309.148438 131.246094 311.300781 129.601562 312.097656 C 122.84375 315.410156 114.90625 317.667969 107.378906 315.953125 C 103.902344 315.152344 100.726562 313.148438 97.929688 311.015625 C 88.417969 303.789062 82.890625 289.445312 84.714844 277.691406 C 85.628906 271.816406 88.605469 266.695312 92.09375 262.003906 " fill-opacity="1" fill-rule="evenodd"/><path fill="#f5dcbd" d="M 100.367188 279.238281 C 99.566406 279.6875 98.722656 280.023438 97.832031 280.253906 C 97.417969 280.363281 97 280.441406 96.578125 280.488281 C 95.664062 280.597656 93.253906 280.113281 95.183594 279.011719 C 95.972656 278.617188 96.804688 278.480469 97.679688 278.59375 C 98.597656 278.664062 99.503906 278.804688 100.40625 279.007812 Z M 120.953125 302.191406 C 120.746094 302.863281 120.601562 303.546875 120.527344 304.246094 C 120.453125 305.050781 120.460938 306.441406 121.011719 307.136719 C 121.160156 307.332031 121.589844 306.992188 121.671875 306.90625 C 122.074219 306.421875 122.285156 305.863281 122.300781 305.234375 C 122.386719 304.132812 121.972656 303.136719 121.625 302.117188 Z M 102.691406 287.359375 C 102.066406 287.945312 101.390625 288.464844 100.660156 288.914062 C 100.207031 289.199219 99.722656 289.417969 99.210938 289.578125 C 98.625 289.792969 96.25 290.191406 97.28125 288.789062 C 97.433594 288.582031 97.617188 288.40625 97.828125 288.261719 C 99.050781 287.421875 100.402344 287.027344 101.886719 287.078125 Z M 112.484375 299.324219 C 111.726562 300.207031 111.15625 301.195312 110.769531 302.292969 C 110.617188 302.65625 110.503906 303.027344 110.421875 303.414062 C 110.304688 304.121094 110.390625 305.546875 111.351562 304.542969 C 111.898438 303.867188 112.261719 303.109375 112.441406 302.257812 C 112.664062 301.445312 112.726562 300.625 112.882812 299.800781 Z M 106.96875 293.832031 C 106.546875 294.941406 105.953125 295.945312 105.191406 296.855469 C 104.910156 297.214844 104.585938 297.535156 104.226562 297.816406 C 103.707031 298.214844 101.476562 299.152344 102.007812 297.542969 C 102.433594 296.542969 103.117188 295.777344 104.0625 295.238281 C 104.796875 294.757812 105.605469 294.441406 106.378906 294.039062 Z M 106.96875 293.832031 " fill-opacity="1" fill-rule="evenodd"/><path fill="#a8ba31" d="M 197.28125 317.722656 C 191.65625 314.464844 186.066406 318.578125 180.574219 320.273438 C 171.847656 322.96875 161.863281 324.710938 153.328125 320.273438 C 148.351562 317.675781 145.667969 312.441406 140.78125 309.839844 C 135.789062 307.191406 129.335938 307.953125 124.058594 305.78125 C 116.25 302.570312 109.097656 295.390625 106.558594 287.3125 C 105.234375 283.121094 104.925781 278.605469 107.582031 274.839844 C 109.660156 271.886719 113.1875 270.632812 116.652344 270.171875 C 118.785156 269.890625 121.066406 270.070312 123.054688 269.105469 C 128.382812 266.507812 132.082031 261.207031 138.109375 259.792969 C 146.316406 257.863281 155.941406 260.589844 160.792969 267.714844 C 164.5 273.128906 165.671875 279.574219 170.445312 284.390625 C 172.539062 286.507812 175.246094 288.480469 178.277344 288.863281 C 181.429688 289.257812 184.683594 288.542969 187.640625 290.007812 C 195.324219 293.800781 195.066406 302.050781 196.578125 309.164062 C 197.0625 311.390625 198.347656 314.40625 198.101562 316.714844 " fill-opacity="1" fill-rule="evenodd"/><path fill="#7d921c" d="M 196.808594 318.199219 C 194.972656 316.085938 192.746094 314.527344 190.128906 313.519531 C 184.503906 311.25 175.839844 312.675781 170.152344 314.210938 C 165.964844 315.339844 162.671875 314.898438 158.355469 314.691406 C 156.945312 314.613281 155.589844 314.796875 157.082031 314.632812 C 161.265625 314.195312 165.371094 313.363281 169.394531 312.128906 C 170.59375 311.753906 171.804688 311.34375 173.027344 311.03125 C 173.453125 310.917969 173.875 310.800781 174.304688 310.710938 C 174.496094 310.679688 174.90625 310.800781 174.867188 310.609375 C 174.640625 309.511719 171.117188 307.832031 170.246094 307.207031 C 168.226562 305.761719 166.320312 303.46875 163.839844 302.769531 C 161.648438 302.15625 159.210938 302.820312 157.003906 303.046875 C 154.457031 303.300781 151.921875 303.203125 149.398438 302.757812 C 146.585938 302.277344 143.855469 301.199219 141.121094 300.382812 C 140.273438 300.132812 139.433594 299.863281 138.574219 299.636719 C 138.222656 299.542969 137.859375 299.453125 137.503906 299.378906 C 137.382812 299.378906 137.019531 299.273438 137.144531 299.316406 C 138.839844 300.027344 140.929688 299.886719 142.714844 299.839844 C 145.816406 299.75 148.921875 299.738281 152.023438 299.730469 C 153.800781 299.730469 155.5625 299.996094 157.332031 299.867188 C 157.839844 299.832031 158.339844 299.789062 158.851562 299.773438 C 159.140625 299.773438 159.96875 299.894531 159.722656 299.742188 C 157.160156 298.1875 153.929688 297.449219 151.132812 296.4375 C 144.582031 294.058594 137.84375 292.195312 131.34375 289.773438 C 127.839844 288.554688 124.703125 286.710938 121.933594 284.246094 C 121.136719 283.550781 120.332031 282.855469 119.476562 282.230469 C 119.164062 281.996094 118.84375 281.78125 118.511719 281.578125 C 118.371094 281.492188 117.933594 281.367188 118.09375 281.320312 C 118.671875 281.148438 119.839844 281.527344 120.453125 281.652344 C 122.382812 282.054688 124.359375 282.40625 126.300781 282.84375 C 134.082031 284.613281 141.34375 287.945312 148.984375 290.257812 C 151.816406 291.042969 154.59375 291.988281 157.3125 293.101562 C 158.175781 293.476562 159.035156 293.863281 159.890625 294.246094 L 160.773438 294.648438 C 160.960938 294.730469 161.378906 295.082031 161.34375 294.878906 C 160.859375 292.332031 158.449219 290.328125 156.832031 288.46875 C 154.695312 285.972656 152.898438 283.257812 151.441406 280.316406 C 150.5625 278.496094 150.171875 276.679688 149.679688 274.734375 C 149.507812 274.046875 149.300781 273.375 149.054688 272.710938 C 148.929688 272.382812 148.304688 271.550781 148.574219 271.746094 C 149.425781 272.398438 150.148438 273.753906 150.808594 274.636719 C 153.167969 277.726562 154.949219 281.242188 157.328125 284.269531 C 160.382812 288.171875 165.050781 290.582031 168.605469 293.988281 C 170.25 295.667969 172.035156 297.1875 173.953125 298.550781 C 174.386719 298.839844 174.824219 299.132812 175.265625 299.402344 C 175.460938 299.515625 175.789062 299.949219 175.855469 299.734375 C 176.5 297.65625 174.320312 293.53125 173.472656 291.675781 C 173.183594 291.039062 172.863281 290.421875 172.503906 289.824219 C 172.296875 289.480469 171.484375 288.96875 171.855469 288.804688 C 172.226562 288.640625 172.652344 289.347656 173.023438 289.65625 C 174.117188 290.625 175.125 291.679688 176.046875 292.8125 C 179.773438 297.148438 182.960938 302.394531 187.515625 305.925781 C 189.445312 307.433594 191.949219 308.054688 193.828125 309.644531 C 197.152344 312.441406 196.972656 313.097656 200.738281 315.472656 C 202.226562 316.414062 199.429688 321.246094 196.808594 318.199219 Z M 196.808594 318.199219 " fill-opacity="1" fill-rule="evenodd"/><path fill="#f04e56" d="M 215.433594 289.738281 C 212.742188 291.066406 209.640625 291.835938 206.828125 292.921875 C 200.929688 295.214844 195.191406 297.875 189.324219 300.226562 C 181.34375 303.433594 173.261719 306.367188 165.152344 309.210938 C 163.171875 309.90625 161.203125 310.65625 159.21875 311.3125 C 158.738281 311.488281 157.554688 312.144531 156.980469 311.964844 C 154.78125 311.277344 154.359375 306.476562 154.214844 304.671875 C 153.613281 297.1875 154.425781 288.984375 158.8125 282.628906 C 160.835938 279.699219 163.871094 277.492188 166.886719 275.671875 C 177.125 269.507812 192.515625 269.652344 202.792969 275.671875 C 207.933594 278.679688 211.605469 283.328125 214.699219 288.289062 " fill-opacity="1" fill-rule="evenodd"/><path fill="#f5dcbd" d="M 195.085938 289.65625 C 194.96875 288.75 194.96875 287.839844 195.085938 286.929688 C 195.136719 286.507812 195.214844 286.089844 195.328125 285.679688 C 195.566406 284.792969 196.902344 282.730469 197.21875 284.925781 C 197.292969 285.804688 197.117188 286.628906 196.6875 287.398438 C 196.289062 288.226562 195.824219 289.019531 195.304688 289.777344 Z M 166.128906 300.328125 C 165.582031 299.886719 164.996094 299.503906 164.375 299.175781 C 163.648438 298.808594 162.355469 298.308594 161.476562 298.554688 C 161.246094 298.621094 161.402344 299.140625 161.476562 299.253906 C 161.78125 299.800781 162.222656 300.199219 162.800781 300.445312 C 163.800781 300.929688 164.878906 300.929688 165.957031 300.96875 Z M 186.671875 288.808594 C 186.355469 288.011719 186.121094 287.195312 185.964844 286.351562 C 185.875 285.832031 185.84375 285.308594 185.875 284.78125 C 185.898438 284.15625 186.394531 281.804688 187.320312 283.289062 C 187.453125 283.507812 187.550781 283.738281 187.613281 283.988281 C 187.945312 285.425781 187.816406 286.824219 187.234375 288.183594 Z M 171.921875 293.480469 C 171.382812 292.453125 170.671875 291.558594 169.792969 290.796875 C 169.515625 290.542969 169.214844 290.3125 168.894531 290.109375 C 168.277344 289.738281 166.917969 289.289062 167.507812 290.554688 C 167.929688 291.3125 168.503906 291.929688 169.230469 292.40625 C 169.910156 292.890625 170.652344 293.269531 171.355469 293.722656 Z M 179.070312 290.378906 C 178.1875 289.589844 177.460938 288.675781 176.886719 287.636719 C 176.65625 287.242188 176.46875 286.824219 176.332031 286.386719 C 176.160156 285.761719 176.105469 283.339844 177.410156 284.429688 C 178.1875 285.203125 178.652344 286.132812 178.800781 287.21875 C 178.96875 288.078125 178.972656 288.945312 179.066406 289.8125 Z M 179.070312 290.378906 " fill-opacity="1" fill-rule="evenodd"/><path fill="#a8ba31" d="M 137.230469 314.921875 C 143.378906 317.027344 148.0625 311.910156 153.125 309.179688 C 161.160156 304.84375 170.617188 301.203125 179.855469 303.921875 C 185.242188 305.503906 188.894531 310.121094 194.214844 311.722656 C 199.617188 313.351562 205.796875 311.359375 211.410156 312.464844 C 219.691406 314.101562 228.082031 319.769531 232.160156 327.195312 C 234.273438 331.050781 235.453125 335.417969 233.609375 339.628906 C 232.160156 342.929688 228.921875 344.839844 225.613281 345.964844 C 223.574219 346.65625 221.300781 346.925781 219.546875 348.246094 C 214.800781 351.832031 212.195312 357.742188 206.558594 360.289062 C 198.875 363.765625 188.910156 362.957031 182.742188 356.917969 C 178.054688 352.328125 175.652344 346.234375 170.042969 342.425781 C 167.578125 340.757812 164.539062 339.34375 161.488281 339.5625 C 158.320312 339.78125 155.273438 341.109375 152.082031 340.25 C 143.808594 338.015625 142.429688 329.871094 139.59375 323.183594 C 138.699219 321.09375 136.835938 318.367188 136.628906 316.074219 " fill-opacity="1" fill-rule="evenodd"/><path fill="#7d921c" d="M 137.597656 314.363281 C 139.820312 316.082031 142.3125 317.175781 145.078125 317.652344 C 151.039062 318.785156 159.261719 315.726562 164.546875 313.105469 C 168.433594 311.179688 171.753906 310.980469 176.027344 310.378906 C 177.421875 310.183594 178.71875 309.734375 177.289062 310.1875 C 173.269531 311.417969 169.410156 313.023438 165.707031 315.003906 C 164.597656 315.605469 163.492188 316.242188 162.351562 316.785156 C 161.957031 316.980469 161.566406 317.179688 161.15625 317.34375 C 160.980469 317.417969 160.554688 317.378906 160.628906 317.550781 C 161.066406 318.589844 164.851562 319.554688 165.820312 320.003906 C 168.089844 321.039062 170.402344 322.894531 172.96875 323.109375 C 175.238281 323.289062 177.5 322.148438 179.625 321.511719 C 182.074219 320.773438 184.578125 320.378906 187.136719 320.328125 C 189.996094 320.257812 192.882812 320.785156 195.722656 321.054688 C 196.601562 321.136719 197.480469 321.238281 198.363281 321.296875 C 198.730469 321.320312 199.101562 321.332031 199.464844 321.339844 C 199.589844 321.339844 199.945312 321.339844 199.828125 321.339844 C 198.027344 320.96875 196.003906 321.507812 194.261719 321.902344 C 191.234375 322.589844 188.195312 323.203125 185.15625 323.828125 C 183.414062 324.175781 181.628906 324.253906 179.914062 324.71875 C 179.429688 324.851562 178.949219 324.996094 178.441406 325.109375 C 178.15625 325.171875 177.324219 325.207031 177.59375 325.304688 C 180.40625 326.332031 183.722656 326.429688 186.664062 326.882812 C 193.550781 327.949219 200.519531 328.476562 207.394531 329.585938 C 211.066406 330.105469 214.5 331.304688 217.695312 333.183594 C 218.613281 333.71875 219.539062 334.238281 220.5 334.691406 C 220.851562 334.855469 221.210938 335.007812 221.578125 335.140625 C 221.730469 335.199219 222.183594 335.234375 222.058594 335.3125 C 221.523438 335.585938 220.308594 335.449219 219.679688 335.441406 C 217.6875 335.441406 215.699219 335.441406 213.710938 335.40625 C 205.734375 335.179688 197.964844 333.308594 190.03125 332.515625 C 187.074219 332.292969 184.144531 331.902344 181.234375 331.335938 C 180.320312 331.132812 179.402344 330.917969 178.488281 330.707031 L 177.523438 330.484375 C 177.328125 330.4375 176.847656 330.171875 176.925781 330.367188 C 177.890625 332.773438 180.667969 334.269531 182.597656 335.785156 C 185.179688 337.816406 187.46875 340.132812 189.46875 342.734375 C 190.6875 344.355469 191.425781 346.058594 192.28125 347.871094 C 192.582031 348.511719 192.917969 349.132812 193.285156 349.734375 C 193.476562 350.035156 194.253906 350.726562 193.933594 350.574219 C 192.96875 350.089844 192.003906 348.90625 191.183594 348.1875 C 188.285156 345.617188 185.839844 342.507812 182.914062 340 C 179.15625 336.761719 174.117188 335.304688 169.960938 332.648438 C 168.019531 331.320312 165.976562 330.171875 163.828125 329.203125 C 163.347656 329.007812 162.863281 328.804688 162.378906 328.632812 C 162.167969 328.554688 161.761719 328.1875 161.738281 328.414062 C 161.507812 330.578125 164.453125 334.195312 165.644531 335.855469 C 166.050781 336.425781 166.488281 336.96875 166.960938 337.484375 C 167.234375 337.785156 168.132812 338.132812 167.800781 338.355469 C 167.46875 338.582031 166.914062 337.980469 166.492188 337.75 C 165.230469 337.011719 164.035156 336.175781 162.90625 335.242188 C 158.414062 331.71875 154.269531 327.175781 149.113281 324.601562 C 146.910156 323.496094 144.347656 323.367188 142.195312 322.191406 C 138.390625 320.085938 138.4375 319.410156 134.285156 317.808594 C 132.632812 317.15625 134.433594 311.875 137.597656 314.363281 Z M 137.597656 314.363281 " fill-opacity="1" fill-rule="evenodd"/><path fill="#f04e56" d="M 155.757812 304.027344 C 156.078125 309.863281 155.730469 315.769531 153.246094 321.175781 C 148.265625 331.984375 135.730469 340.902344 123.804688 341.695312 C 120.292969 341.929688 116.539062 341.855469 113.1875 340.605469 C 105.949219 337.910156 100.574219 331.652344 96.78125 325.191406 C 95.863281 323.625 93.453125 319.457031 94.851562 317.632812 C 95.214844 317.152344 96.554688 317.023438 97.058594 316.882812 C 99.078125 316.304688 101.105469 315.78125 103.125 315.214844 C 111.40625 312.910156 119.714844 310.691406 128.097656 308.765625 C 134.265625 307.320312 140.496094 306.242188 146.644531 304.753906 C 149.5625 304.046875 152.554688 302.890625 155.523438 302.441406 " fill-opacity="1" fill-rule="evenodd"/><path fill="#f5dcbd" d="M 139.300781 313.847656 C 139.71875 314.664062 140.234375 315.414062 140.851562 316.09375 C 141.136719 316.410156 141.441406 316.707031 141.769531 316.980469 C 142.46875 317.570312 144.75 318.496094 143.753906 316.496094 C 143.308594 315.734375 142.691406 315.160156 141.898438 314.773438 C 141.09375 314.324219 140.257812 313.941406 139.394531 313.617188 Z M 109.445312 321.65625 C 109.242188 322.324219 108.984375 322.964844 108.660156 323.582031 C 108.277344 324.296875 107.503906 325.449219 106.652344 325.742188 C 106.425781 325.824219 106.253906 325.308594 106.234375 325.1875 C 106.164062 324.5625 106.296875 323.980469 106.628906 323.449219 C 107.171875 322.484375 108.078125 321.878906 108.917969 321.21875 Z M 132.890625 319.355469 C 133.085938 320.183594 133.363281 320.988281 133.71875 321.761719 C 133.941406 322.238281 134.21875 322.6875 134.542969 323.101562 C 134.921875 323.582031 136.683594 325.242188 136.585938 323.496094 C 136.570312 323.242188 136.515625 322.996094 136.421875 322.757812 C 135.867188 321.382812 134.957031 320.308594 133.691406 319.535156 Z M 118.105469 323.941406 C 118.25 325.089844 118.183594 326.230469 117.898438 327.355469 C 117.824219 327.742188 117.714844 328.117188 117.566406 328.480469 C 117.273438 329.140625 116.414062 330.285156 116.171875 328.914062 C 116.082031 328.050781 116.199219 327.21875 116.523438 326.410156 C 116.789062 325.613281 117.191406 324.890625 117.511719 324.117188 Z M 125.746094 322.398438 C 125.472656 323.550781 125.402344 324.714844 125.527344 325.890625 C 125.5625 326.347656 125.652344 326.792969 125.792969 327.230469 C 126.011719 327.851562 127.351562 329.859375 127.796875 328.222656 C 127.996094 327.15625 127.847656 326.140625 127.359375 325.171875 C 127.003906 324.375 126.511719 323.65625 126.089844 322.898438 Z M 125.746094 322.398438 " fill-opacity="1" fill-rule="evenodd"/><path fill="#a8ba31" d="M 173.4375 321.804688 C 172.6875 319.609375 173.289062 316.382812 173.253906 314.097656 C 173.144531 306.820312 171.0625 298.832031 177.707031 293.433594 C 180.269531 291.355469 183.601562 291.328125 186.582031 290.246094 C 189.480469 289.203125 191.660156 286.679688 193.230469 284.152344 C 196.804688 278.398438 196.519531 271.859375 198.929688 265.757812 C 202.097656 257.75 210.882812 252.960938 219.308594 253.019531 C 225.5 253.0625 230.289062 257.40625 236.078125 258.75 C 238.226562 259.230469 240.421875 258.574219 242.554688 258.375 C 246.035156 258.0625 249.757812 258.496094 252.441406 260.917969 C 255.863281 264.007812 256.566406 268.472656 256.203125 272.851562 C 255.507812 281.292969 250.148438 289.878906 243.246094 294.734375 C 238.578125 298.019531 232.117188 298.707031 227.839844 302.394531 C 223.566406 306.078125 222.175781 311.71875 217.90625 315.351562 C 210.570312 321.585938 200.449219 322.09375 191.335938 321.394531 C 185.605469 320.957031 179.242188 318.183594 174.480469 322.601562 " fill-opacity="1" fill-rule="evenodd"/><path fill="#7d921c" d="M 170.609375 321.1875 C 173.75 318.039062 173.433594 317.441406 176.046875 313.964844 C 177.53125 312 179.816406 310.84375 181.382812 308.941406 C 185.042969 304.488281 186.972656 298.660156 189.648438 293.617188 C 190.296875 292.304688 191.046875 291.058594 191.902344 289.867188 C 192.191406 289.488281 192.382812 288.6875 192.867188 288.78125 C 193.265625 288.855469 192.585938 289.535156 192.457031 289.921875 C 192.238281 290.585938 192.058594 291.257812 191.910156 291.941406 C 191.5 293.9375 190.285156 298.449219 191.378906 300.328125 C 191.496094 300.523438 191.71875 300.027344 191.863281 299.84375 C 192.238281 299.488281 192.597656 299.101562 192.957031 298.726562 C 194.527344 296.976562 195.925781 295.097656 197.15625 293.097656 C 199.875 288.984375 203.886719 285.605469 205.992188 281.121094 C 207.640625 277.632812 208.59375 273.808594 210.210938 270.277344 C 210.664062 269.3125 211.066406 267.808594 211.75 266.984375 C 211.976562 266.714844 211.546875 267.664062 211.503906 268.007812 C 211.410156 268.710938 211.359375 269.414062 211.347656 270.117188 C 211.296875 272.121094 211.316406 273.972656 210.863281 275.953125 C 210.101562 279.148438 208.953125 282.199219 207.417969 285.105469 C 206.277344 287.277344 204.351562 289.769531 204.449219 292.359375 C 204.449219 292.566406 204.78125 292.128906 204.933594 292.007812 L 205.710938 291.417969 C 206.457031 290.855469 207.207031 290.289062 207.964844 289.734375 C 210.390625 288.035156 212.90625 286.484375 215.515625 285.082031 C 222.464844 281.160156 228.789062 276.300781 235.976562 272.855469 C 237.773438 271.996094 239.601562 271.222656 241.417969 270.394531 C 241.988281 270.136719 243.042969 269.511719 243.640625 269.550781 C 243.804688 269.550781 243.410156 269.78125 243.289062 269.890625 C 243.011719 270.167969 242.746094 270.453125 242.488281 270.746094 C 241.796875 271.542969 241.160156 272.398438 240.558594 273.257812 C 238.402344 276.273438 235.746094 278.761719 232.601562 280.726562 C 226.773438 284.53125 220.621094 287.839844 214.742188 291.609375 C 212.242188 293.214844 209.25 294.648438 207.105469 296.734375 C 206.890625 296.933594 207.667969 296.621094 207.953125 296.570312 C 208.4375 296.472656 208.957031 296.40625 209.460938 296.328125 C 211.214844 296.058594 212.875 295.402344 214.609375 295.011719 C 217.632812 294.339844 220.664062 293.660156 223.710938 293.0625 C 225.460938 292.714844 227.527344 292.394531 229.019531 291.320312 C 229.121094 291.25 228.796875 291.410156 228.6875 291.464844 C 228.351562 291.613281 228.019531 291.777344 227.695312 291.945312 C 226.914062 292.355469 226.152344 292.800781 225.378906 293.234375 C 222.894531 294.632812 220.472656 296.285156 217.84375 297.382812 C 215.480469 298.375 213.027344 299.03125 210.488281 299.347656 C 208.28125 299.617188 205.757812 299.511719 203.757812 300.589844 C 201.492188 301.820312 200.144531 304.445312 198.496094 306.332031 C 197.789062 307.136719 194.726562 309.550781 194.75 310.667969 C 194.75 310.863281 195.125 310.667969 195.3125 310.667969 C 195.753906 310.667969 196.195312 310.667969 196.636719 310.667969 C 197.894531 310.703125 199.164062 310.835938 200.425781 310.933594 C 204.617188 311.25 208.800781 311.15625 212.972656 310.65625 C 214.464844 310.484375 213.097656 310.601562 211.742188 310.992188 C 207.589844 312.171875 204.472656 313.332031 200.160156 313.160156 C 194.265625 312.921875 185.503906 313.449219 180.515625 316.90625 C 178.183594 318.464844 176.351562 320.476562 175.023438 322.949219 C 173.167969 326.523438 169.378906 322.425781 170.609375 321.1875 Z M 170.609375 321.1875 " fill-opacity="1" fill-rule="evenodd"/><path fill="#f5dcbd" d="M 166.839844 326.113281 L 169.683594 332.980469 C 169.683594 332.980469 179.722656 316.601562 205.878906 317.566406 C 222.855469 315.78125 235.839844 334.8125 235.839844 334.8125 L 238.824219 328.328125 C 238.824219 328.328125 226.050781 312.136719 205.679688 312.136719 C 185.308594 312.136719 166.839844 326.113281 166.839844 326.113281 Z M 166.839844 326.113281 " fill-opacity="1" fill-rule="evenodd"/><path fill="#f5dcbd" d="M 145.589844 315.804688 C 126.523438 322.957031 108.859375 312.269531 108.859375 312.269531 L 109.371094 305.148438 C 109.371094 305.148438 128.230469 318.410156 143.492188 310.78125 C 168.320312 302.484375 171.964844 283.648438 171.964844 283.648438 L 177.046875 289.09375 C 177.046875 289.09375 164.664062 308.652344 145.589844 315.804688 Z M 145.589844 315.804688 " fill-opacity="1" fill-rule="evenodd"/><g clip-path="url(#3bc6a197d3)"><path fill="#a0713a" d="M 185.65625 405.097656 L 182.277344 413.628906 C 153.636719 419.890625 123.273438 412.382812 123.273438 412.382812 L 120.742188 405.339844 C 76.453125 395.546875 43.042969 365.886719 37.855469 329.710938 C 37.097656 329.257812 36.378906 328.804688 35.710938 328.34375 L 37.582031 317.261719 C 37.582031 317.261719 148.824219 354.660156 269.152344 316.359375 L 271.425781 328.25 C 270.082031 329.34375 268.679688 330.351562 267.21875 331.277344 C 261.355469 366.441406 228.769531 395.207031 185.65625 405.097656 Z M 185.65625 405.097656 " fill-opacity="1" fill-rule="evenodd"/></g><path fill="#f5dcbd" d="M 108.832031 350.1875 C 106.71875 349.921875 104.609375 349.605469 102.5 349.316406 C 100.390625 349.027344 98.296875 348.652344 96.191406 348.3125 L 93.039062 347.78125 L 89.898438 347.175781 C 81.515625 345.570312 73.148438 343.578125 64.675781 341.226562 C 64.039062 341.054688 62.460938 340.636719 60.863281 340.160156 C 59.265625 339.683594 57.625 339.195312 56.867188 338.949219 C 52.160156 337.398438 47.539062 335.660156 42.875 333.738281 C 39.496094 332.328125 38.089844 331.453125 37.597656 331.011719 C 37.105469 330.566406 37.511719 330.53125 37.71875 330.566406 C 38.375 330.695312 39.089844 330.828125 39.761719 330.933594 C 41.808594 331.371094 43.8125 331.957031 45.773438 332.695312 C 50.117188 334.476562 54.5625 336.070312 59.066406 337.515625 C 61.324219 338.21875 63.582031 338.960938 65.871094 339.566406 C 67.007812 339.882812 68.140625 340.230469 69.289062 340.53125 L 72.738281 341.429688 C 81.90625 343.78125 91.226562 345.617188 100.449219 347.03125 C 102.511719 347.347656 104.863281 347.660156 107.386719 348.019531 C 108.652344 348.214844 109.964844 348.339844 111.304688 348.503906 L 115.421875 348.984375 C 116.8125 349.160156 118.238281 349.253906 119.660156 349.386719 L 123.945312 349.757812 C 125.394531 349.902344 126.796875 349.953125 128.207031 350.042969 L 132.359375 350.289062 C 143.230469 350.824219 152.144531 350.636719 152.675781 350.675781 C 157.949219 350.46875 162.957031 350.441406 167.921875 350.152344 C 172.886719 350 177.804688 349.566406 182.925781 349.128906 C 185.566406 348.859375 188.234375 348.507812 190.882812 348.1875 C 192.214844 348.019531 193.558594 347.871094 194.894531 347.683594 L 198.910156 347.050781 L 202.9375 346.410156 C 204.28125 346.179688 205.636719 346.007812 206.972656 345.722656 L 215.039062 344.132812 C 217.382812 343.699219 219.695312 343.117188 222.011719 342.570312 L 228.957031 340.933594 L 235.867188 339.09375 L 239.332031 338.179688 C 240.492188 337.875 241.652344 337.582031 242.800781 337.214844 C 246.375 336.164062 249.949219 335.152344 253.457031 334.230469 C 256.949219 333.222656 260.359375 332.238281 263.664062 331.414062 C 264.585938 331.164062 265.515625 330.964844 266.460938 330.820312 C 268.082031 330.636719 266.222656 331.535156 264.871094 332.21875 C 262.601562 333.3125 260.269531 334.265625 257.882812 335.082031 C 256.550781 335.5625 255.199219 336.046875 253.84375 336.460938 C 252.488281 336.875 251.171875 337.265625 249.945312 337.609375 L 242.648438 339.664062 C 240.191406 340.316406 237.707031 340.914062 235.214844 341.550781 L 231.476562 342.515625 C 230.847656 342.671875 230.226562 342.84375 229.597656 342.996094 L 227.703125 343.410156 L 220.105469 345.089844 C 217.667969 345.6875 215.179688 346.117188 212.703125 346.617188 C 210.226562 347.121094 207.746094 347.621094 205.253906 348.0625 L 197.804688 349.273438 C 196.570312 349.460938 195.34375 349.691406 194.105469 349.835938 L 190.425781 350.316406 L 186.539062 350.800781 C 185.246094 350.953125 183.96875 351.140625 182.738281 351.226562 L 178.75 351.554688 L 175.652344 351.769531 C 174.507812 351.855469 173.269531 351.988281 171.929688 352.039062 L 163.039062 352.519531 L 152.859375 352.753906 C 149.339844 352.71875 145.742188 352.730469 142.195312 352.65625 L 136.929688 352.464844 L 134.355469 352.378906 C 133.507812 352.351562 132.671875 352.277344 131.839844 352.234375 C 125.21875 351.875 119.335938 351.328125 115.226562 350.933594 Z M 142.898438 408.957031 C 145.199219 409.058594 149.480469 409.339844 153.410156 409.4375 C 157.335938 409.535156 160.914062 409.472656 161.777344 409.480469 C 162.46875 409.480469 163.226562 409.402344 163.941406 409.339844 C 165.308594 409.230469 166.710938 409.089844 168.117188 408.945312 C 169.527344 408.800781 170.921875 408.527344 172.3125 408.328125 C 173.03125 408.238281 173.761719 408.171875 174.46875 408.054688 L 176.609375 407.707031 L 178.730469 407.382812 C 179.4375 407.273438 180.136719 407.183594 180.824219 407.039062 C 181.589844 406.875 182.34375 406.667969 183.085938 406.421875 C 183.796875 406.214844 184.441406 405.878906 185.015625 405.410156 C 185.371094 405.09375 185.855469 404.699219 185.34375 404.476562 C 185.070312 404.390625 184.789062 404.351562 184.503906 404.359375 C 183.515625 404.347656 182.53125 404.410156 181.550781 404.546875 C 180.554688 404.683594 179.5625 404.910156 178.542969 405.070312 C 177.238281 405.304688 175.953125 405.574219 174.683594 405.863281 C 174.039062 406.019531 173.394531 406.128906 172.753906 406.234375 L 170.820312 406.5625 L 168.566406 406.910156 C 167.816406 407.019531 167.0625 407.066406 166.3125 407.140625 C 164.8125 407.265625 163.320312 407.414062 161.851562 407.457031 C 160.378906 407.5 159.054688 407.457031 157.675781 407.433594 C 156.296875 407.410156 154.90625 407.316406 153.4375 407.382812 L 151.699219 407.382812 L 147.796875 407.265625 C 144.78125 407.15625 141.214844 406.929688 138.898438 406.738281 C 133.726562 406.34375 128.367188 406.035156 123.207031 405.207031 C 122.542969 405.191406 121.921875 405.351562 121.347656 405.691406 L 120.6875 406.136719 C 120.542969 406.226562 120.144531 406.898438 122.203125 407.144531 C 123.613281 407.304688 124.96875 407.527344 126.34375 407.703125 C 126.789062 407.761719 128.273438 407.800781 128.621094 407.828125 C 133.46875 408.210938 138.117188 408.757812 142.898438 408.96875 Z M 142.898438 408.957031 " fill-opacity="1" fill-rule="nonzero"/><path fill="#f5dcbd" d="M 241.933594 363.050781 C 244.253906 362.394531 246.488281 364.914062 248.847656 367.578125 L 249.472656 368.28125 C 249.976562 367.675781 250.492188 367.046875 251.019531 366.398438 L 250.660156 365.984375 C 248.042969 363.027344 245.066406 359.664062 241.285156 360.726562 C 237.507812 361.792969 236.660156 366.152344 235.925781 370.035156 C 235.234375 373.695312 234.582031 377.148438 231.992188 377.769531 C 229.398438 378.390625 227.261719 375.550781 225.023438 372.574219 C 222.644531 369.417969 219.949219 365.828125 216.117188 366.605469 C 212.285156 367.378906 211.105469 371.652344 210.082031 375.46875 C 209.117188 379.0625 208.210938 382.453125 205.59375 382.871094 C 202.976562 383.289062 201.066406 380.300781 199.070312 377.160156 C 196.945312 373.832031 194.527344 370.058594 190.667969 370.519531 C 186.804688 370.984375 185.296875 375.167969 183.980469 378.898438 C 182.75 382.40625 181.570312 385.71875 178.957031 385.933594 C 176.347656 386.152344 174.652344 383.019531 172.902344 379.742188 C 171.082031 376.332031 169.039062 372.476562 165.285156 372.476562 L 165.035156 372.476562 C 161.125 372.601562 159.324219 376.699219 157.738281 380.320312 C 156.246094 383.71875 154.84375 386.9375 152.199219 386.953125 C 149.554688 386.964844 148.132812 383.71875 146.636719 380.320312 C 145.050781 376.699219 143.261719 372.613281 139.355469 372.476562 C 135.453125 372.339844 133.34375 376.253906 131.484375 379.734375 C 129.734375 383.015625 128.066406 386.113281 125.441406 385.929688 C 122.816406 385.746094 121.632812 382.398438 120.402344 378.894531 C 119.089844 375.164062 117.609375 370.941406 113.734375 370.515625 C 109.859375 370.09375 107.460938 373.820312 105.316406 377.152344 C 103.320312 380.289062 101.421875 383.257812 98.808594 382.867188 C 96.191406 382.476562 95.269531 379.054688 94.304688 375.464844 C 93.28125 371.644531 92.121094 367.316406 88.285156 366.601562 C 84.449219 365.882812 81.746094 369.40625 79.367188 372.566406 C 77.125 375.539062 75.023438 378.347656 72.414062 377.765625 C 69.800781 377.183594 69.15625 373.6875 68.464844 370.03125 C 67.738281 366.140625 66.902344 361.738281 63.117188 360.722656 C 59.335938 359.707031 56.449219 362.960938 53.828125 365.90625 L 53.765625 365.972656 C 54.265625 366.589844 54.78125 367.214844 55.320312 367.851562 L 55.367188 367.804688 C 55.433594 367.726562 55.496094 367.648438 55.566406 367.578125 C 57.925781 364.910156 60.15625 362.394531 62.496094 363.050781 C 64.835938 363.703125 65.449219 366.980469 66.109375 370.476562 C 66.875 374.535156 67.742188 379.148438 71.878906 380.113281 C 76.011719 381.074219 78.828125 377.316406 81.3125 374.019531 C 83.449219 371.179688 85.472656 368.496094 87.835938 368.96875 C 90.203125 369.441406 91.070312 372.65625 91.988281 376.089844 C 93.058594 380.074219 94.265625 384.582031 98.453125 385.242188 C 102.644531 385.902344 105.152344 381.917969 107.367188 378.441406 C 109.300781 375.445312 111.078125 372.617188 113.472656 372.90625 C 115.867188 373.195312 116.960938 376.332031 118.140625 379.683594 C 119.507812 383.570312 121.035156 387.976562 125.273438 388.328125 C 129.511719 388.679688 131.6875 384.503906 133.628906 380.863281 C 135.300781 377.730469 136.878906 374.769531 139.277344 374.875 C 141.675781 374.980469 143.015625 378.027344 144.441406 381.277344 C 146.097656 385.054688 147.976562 389.332031 152.210938 389.355469 C 156.449219 389.378906 158.308594 385.054688 159.964844 381.277344 C 161.410156 378.027344 162.742188 374.953125 165.140625 374.875 C 167.539062 374.796875 169.101562 377.730469 170.777344 380.867188 C 172.707031 384.503906 174.917969 388.628906 179.148438 388.328125 C 183.375 388.03125 184.898438 383.585938 186.269531 379.707031 C 187.449219 376.335938 188.5625 373.183594 190.949219 372.925781 C 193.339844 372.664062 195.128906 375.46875 197.042969 378.464844 C 199.261719 381.941406 201.769531 385.882812 205.96875 385.261719 C 210.167969 384.640625 211.355469 380.082031 212.421875 376.109375 C 213.34375 372.675781 214.210938 369.425781 216.585938 368.984375 C 218.960938 368.539062 220.964844 371.195312 223.101562 374.039062 C 225.585938 377.332031 228.410156 381.074219 232.550781 380.125 C 236.691406 379.175781 237.542969 374.546875 238.304688 370.492188 C 238.960938 366.984375 239.582031 363.679688 241.933594 363.050781 Z M 241.933594 363.050781 " fill-opacity="1" fill-rule="nonzero"/></svg>